<svg xmlns="http://www.w3.org/2000/svg" width="56" height="57" viewBox="0 0 56 57" fill="none">
  <g clip-path="url(#clip0_90_233)">
    <path d="M37.8989 16.0502H37.1085L34.517 17.9488L34.5049 19.201C37.4665 19.5509 39.8797 21.716 40.5971 24.5505L41.2494 25.2729H43.0241L44.6199 24.5505C44.0055 20.6987 41.4014 17.5034 37.8989 16.0502Z" fill="#60B9FE"/>
    <path d="M52.7425 37.7802L51.2213 39.9211H23.2419V55.2452H24.1021L25.262 56.0147H42.059L42.9395 55.555H45.5593L46.2087 56.0147H50.3794C52.339 56.0147 53.9423 54.4114 53.9423 52.4518V36.9774L52.7425 37.7802Z" fill="#4D66D2"/>
    <path d="M23.242 39.921H16.7985L14.1505 36.9774H13.3787V52.4518C13.3787 54.4114 14.982 56.0147 16.9416 56.0147H21.1122L22.1506 55.2451H23.242V39.921Z" fill="#2F4DCA"/>
    <path d="M34.5049 19.2013C35.4024 17.929 36.5586 16.8518 37.8988 16.0503C36.5554 15.4925 35.1151 15.2058 33.6605 15.2067C32.4688 15.2059 31.2847 15.3979 30.1543 15.7751L29.5027 15.9344L28.5334 16.7108L30.7704 19.8785L31.1695 19.5992C31.9663 19.3019 32.81 19.1499 33.6605 19.1503C33.9463 19.1504 34.2278 19.1686 34.5049 19.2013Z" fill="#1CA8FF"/>
    <path d="M42.059 39.921H46.2088V56.0147H42.059V39.921ZM21.1122 39.921H25.262V56.0147H21.1122V39.921Z" fill="#60B9FE"/>
    <path d="M50.3795 24.5507H31.0146L29.052 25.2731L20.6857 27.9518V36.9775L21.1121 38.4704L22.2772 39.9492L23.4839 40.4563L24.0309 40.5404H50.3794C52.339 40.5404 53.9423 38.9371 53.9423 36.9775V28.1135C53.9424 26.1539 52.3391 24.5507 50.3795 24.5507Z" fill="#6B7ED9"/>
    <path d="M21.1122 36.9774V28.1134C21.1122 28.0114 21.1176 27.9105 21.1261 27.8107L16.2069 29.3857L13.8407 32.5454L13.3787 33.4069V36.9774C13.3787 38.937 14.9821 40.5403 16.9416 40.5403H24.6752C22.7155 40.5403 21.1122 38.9371 21.1122 36.9774Z" fill="#4D66D2"/>
    <path d="M36.7069 37.0098H33.536C33.3729 37.0613 33.2399 37.104 33.2399 37.104L32.8154 37.536V42.935C32.8154 42.935 33.1836 43.3576 33.2118 43.3576C33.24 43.3576 33.9348 43.4608 33.963 43.4796C33.9912 43.4984 34.3292 43.874 34.3292 43.874L34.4043 44.428L34.7987 44.7661L35.1702 44.9085C35.5739 44.8569 35.8861 44.5128 35.8861 44.095C35.8861 43.6416 36.2536 43.274 36.7071 43.274C37.1606 43.274 37.5281 42.9065 37.5281 42.453V37.8306C37.528 37.6129 37.4414 37.4041 37.2874 37.2502C37.1334 37.0962 36.9246 37.0098 36.7069 37.0098Z" fill="#FFE559"/>
    <path d="M34.6276 44.095C34.6276 43.6416 34.26 43.274 33.8066 43.274C33.3532 43.274 32.9856 42.9065 32.9856 42.453V37.8306C32.9857 37.6129 33.0722 37.4041 33.2261 37.2501C33.3801 37.0962 33.5889 37.0097 33.8066 37.0096H30.6141C30.3963 37.0096 30.1875 37.0961 30.0335 37.2501C29.8796 37.4041 29.7931 37.6129 29.7931 37.8306V42.453C29.7931 42.5608 29.8143 42.6676 29.8556 42.7672C29.8968 42.8668 29.9573 42.9573 30.0335 43.0335C30.1098 43.1098 30.2003 43.1702 30.2999 43.2115C30.3995 43.2528 30.5062 43.274 30.6141 43.274C30.8318 43.274 31.0406 43.3605 31.1946 43.5144C31.3485 43.6684 31.435 43.8772 31.435 44.095C31.435 44.3127 31.5215 44.5215 31.6755 44.6755C31.8294 44.8294 32.0383 44.9159 32.256 44.9159H35.0651C35.1297 44.9157 35.194 44.9078 35.2568 44.8925C34.8961 44.806 34.6276 44.4823 34.6276 44.095Z" fill="#FBC700"/>
    <path d="M33.6605 41.8737C33.4363 41.8737 33.2214 41.7847 33.0629 41.6262C32.9045 41.4677 32.8154 41.2528 32.8154 41.0287V40.2213C32.8154 39.9971 32.9045 39.7822 33.0629 39.6237C33.2214 39.4652 33.4363 39.3762 33.6605 39.3762C33.8846 39.3762 34.0995 39.4652 34.258 39.6237C34.4165 39.7822 34.5055 39.9971 34.5055 40.2213V41.0287C34.5055 41.1396 34.4837 41.2495 34.4412 41.3521C34.3987 41.4546 34.3365 41.5477 34.258 41.6262C34.1795 41.7047 34.0864 41.7669 33.9839 41.8094C33.8813 41.8519 33.7714 41.8737 33.6605 41.8737Z" fill="#EAB900"/>
    <path d="M16.7986 3.44873C16.7986 2.34196 16.2745 1.35813 15.4614 0.730103H14.7139L12.9111 3.18831L9.50263 4.93481L6.34771 7.89252C6.34771 7.89252 5.66608 12.3433 5.59838 12.3996C5.53079 12.456 6.65757 15.5828 6.65757 15.5828L6.29138 18.5969L5.24915 21.8082L7.22096 26.5406L10.0097 28.8364L13.2774 29.6392L14.4887 32.3505L15.4617 32.6918C16.2746 32.0637 16.7986 31.08 16.7986 29.9734L17.7 29.0997V4.45695L16.7986 3.44873Z" fill="#FF4FB9"/>
    <path d="M13.809 29.9457C13.7453 29.4227 13.3398 29.011 12.8158 28.9576C9.22534 28.592 6.41932 25.5584 6.41932 21.8664C6.41932 20.7427 6.67931 19.6798 7.14229 18.7346C7.45143 18.1048 7.61217 17.4125 7.61217 16.7109C7.61217 16.0093 7.45143 15.317 7.14229 14.6872C6.6792 13.7419 6.41921 12.6791 6.41921 11.5555C6.41921 7.86657 9.22184 4.82989 12.8166 4.46414C13.3401 4.41087 13.7453 3.99907 13.8088 3.4767C13.9465 2.34576 14.5672 1.3581 15.4612 0.730073C14.8612 0.26539 14.1235 0.0136839 13.3645 0.0146512C11.5533 0.0146512 10.0364 1.23331 9.56823 2.8806L9.79387 3.55446L9.25629 4.38189L8.72538 4.42487C8.67256 4.43909 8.61787 4.44915 8.56143 4.45407C4.91574 4.76995 2.05756 7.83015 2.05756 11.5555C2.05756 13.2774 2.66809 14.8566 3.6844 16.0886L3.68834 16.0939L4.0309 16.3855L4.14356 16.9419L3.67171 17.7024L3.32587 17.8067C2.52634 18.9587 2.05756 20.3579 2.05756 21.8665C2.05756 25.5952 4.91946 28.6523 8.56088 28.9679C8.5832 28.9698 8.60507 28.9732 8.62684 28.9766L8.8994 28.9772L9.50971 29.2307L9.6787 30.1462L9.55193 30.4818C10.0002 32.1596 11.5322 33.4073 13.3644 33.4073C14.1235 33.4083 14.8613 33.1565 15.4615 32.6916C14.5678 32.064 13.9468 31.0767 13.809 29.9457Z" fill="#FF29AB"/>
    <path d="M10.4936 27.9544C10.6553 27.801 10.8711 27.7176 11.0939 27.7225C11.3168 27.7274 11.5287 27.8202 11.6835 27.9806C11.8383 28.1411 11.9234 28.3562 11.9203 28.5791C11.9173 28.802 11.8263 29.0146 11.6671 29.1708C10.9051 29.9061 10.1446 30.2858 9.55205 30.4819C9.49735 30.2786 9.4592 30.0711 9.43797 29.8616C9.39324 29.4136 9.065 29.046 8.62696 28.9768C8.96515 28.9157 9.71983 28.701 10.4936 27.9544ZM9.43797 3.56082C9.46119 3.33068 9.50478 3.10305 9.56824 2.88062C10.3048 3.08558 11.3412 3.55819 12.2432 4.64987C12.3823 4.82303 12.4477 5.044 12.4251 5.26497C12.4025 5.48595 12.2939 5.68915 12.1227 5.83064C11.9515 5.97213 11.7314 6.04052 11.5101 6.02102C11.2889 6.00152 11.0842 5.8957 10.9403 5.72644C10.0774 4.68224 9.08075 4.46852 8.72529 4.42488C9.11357 4.32021 9.39663 3.97458 9.43797 3.56082ZM3.68441 17.3333C3.82848 17.1592 3.90763 16.9404 3.90834 16.7144C3.90906 16.4883 3.83131 16.2691 3.68835 16.094C4.25294 16.401 5.54149 17.0166 7.13935 17.2335C7.24932 17.2484 7.35527 17.2848 7.45115 17.3407C7.54704 17.3966 7.63098 17.4708 7.69818 17.5591C7.76539 17.6474 7.81454 17.7481 7.84283 17.8554C7.87113 17.9627 7.87801 18.0745 7.86308 18.1845C7.80008 18.6486 7.37232 18.9712 6.91207 18.9082C5.39252 18.7019 4.1171 18.1913 3.32599 17.8068C3.43883 17.6441 3.55841 17.4861 3.68441 17.3333Z" fill="#F3239B"/>
    <path d="M29.9253 17.7025L29.4535 16.9419L29.5661 16.3855L29.9087 16.0939L29.9126 16.0887C30.9289 14.8565 31.5395 13.2774 31.5395 11.5555C31.5395 7.83018 28.6813 4.76998 25.0356 4.45411C24.9802 4.4492 24.9253 4.43943 24.8716 4.4249L24.3407 4.38192L23.8031 3.5545L24.0288 2.88064C23.7856 2.02522 23.2593 1.28584 22.5562 0.772217H21.8688L20.7421 2.64362V30.4819L21.4275 32.1838L21.9627 32.5454L22.5562 32.6498C23.2753 32.1243 23.8095 31.3627 24.0449 30.482L23.9181 30.1463L24.0871 29.2308L24.6974 28.9773L24.97 28.9767C24.9917 28.9734 25.0136 28.9699 25.0359 28.968C28.6774 28.6523 31.5392 25.5952 31.5392 21.8666C31.5392 20.358 31.0705 18.9589 30.2709 17.8068L29.9253 17.7025Z" fill="#FF94D5"/>
    <path d="M21.2728 29.9733V3.4487C21.2728 2.36643 21.7739 1.40175 22.5562 0.772294C21.882 0.278808 21.068 0.0133805 20.2325 0.014653C18.3359 0.014653 16.7985 1.55214 16.7985 3.4487V29.9733C16.7985 31.8699 18.3359 33.4074 20.2325 33.4074C21.068 33.4087 21.8821 33.1433 22.5563 32.6499C21.774 32.0204 21.2728 31.0556 21.2728 29.9733Z" fill="#FF72C7"/>
    <path d="M23.1035 27.9544C22.9418 27.801 22.726 27.7176 22.5031 27.7225C22.2802 27.7274 22.0683 27.8202 21.9136 27.9806C21.7588 28.1411 21.6736 28.3562 21.6767 28.5791C21.6798 28.802 21.7708 29.0146 21.9299 29.1708C22.6919 29.9061 23.4524 30.2858 24.045 30.4819C24.0988 30.2807 24.1378 30.0738 24.1591 29.8616C24.2038 29.4136 24.532 29.046 24.9701 28.9768C24.632 28.9157 23.8773 28.701 23.1035 27.9544ZM24.1592 3.56082C24.136 3.33068 24.0924 3.10305 24.0289 2.88062C23.2924 3.08558 22.2559 3.55819 21.3539 4.64987C21.2148 4.82303 21.1495 5.044 21.172 5.26497C21.1946 5.48595 21.3032 5.68915 21.4745 5.83064C21.6457 5.97213 21.8657 6.04052 22.087 6.02102C22.3083 6.00152 22.513 5.8957 22.6568 5.72644C23.5198 4.68224 24.5164 4.46852 24.8719 4.42488C24.4836 4.32021 24.2005 3.97458 24.1592 3.56082ZM29.9126 17.3333C29.7686 17.1592 29.6894 16.9404 29.6887 16.7144C29.688 16.4883 29.7657 16.2691 29.9087 16.094C29.3441 16.401 28.0555 17.0166 26.4577 17.2335C26.3477 17.2484 26.2418 17.2848 26.1459 17.3407C26.05 17.3966 25.9661 17.4708 25.8988 17.5591C25.8316 17.6474 25.7825 17.7481 25.7542 17.8554C25.7259 17.9627 25.719 18.0745 25.734 18.1845C25.797 18.6486 26.2247 18.9712 26.685 18.9082C28.2045 18.7019 29.4799 18.1913 30.271 17.8068C30.1582 17.6441 30.0386 17.4861 29.9126 17.3333Z" fill="#FF4FB9"/>
  </g>
  <defs>
    <clipPath id="clip0_90_233">
      <rect width="56" height="56" fill="white" transform="translate(0 0.0146484)"/>
    </clipPath>
  </defs>
</svg>