<svg xmlns="http://www.w3.org/2000/svg" width="56" height="57" viewBox="0 0 56 57" fill="none">
  <g clip-path="url(#clip0_86_805)">
    <path d="M3.74597 14.0104L5.95355 19.2128L10.8839 18.1315L20.1513 14.6743L28.0018 8.25113L29.0998 4.13375L28.0018 0.0163574C17.6289 0.0163574 8.6024 5.63039 3.74597 14.0104Z" fill="#D1AFF4"/>
    <path d="M28.0018 0.0163574V8.25113L34.0407 14.7841L45.1198 18.1315L48.9522 18.1149L52.2576 14.0104C47.3895 5.60997 38.3606 0.0163574 28.0018 0.0163574Z" fill="#B580ED"/>
    <path d="M52.2576 14.0105L45.1197 18.1316L43.6478 27.2461L41.9768 41.9896L40.7787 43.1206L46.6355 48.9774C47.0466 48.3855 56 41.3918 56 28.0147C56 23.0176 54.6981 18.2214 52.2576 14.0105Z" fill="#8B38E3"/>
    <path d="M8.20359 47.8128L9.36809 48.9774L15.2136 43.132L12.4655 26.8509L10.8838 18.1317L3.74594 14.0105C-2.35406 24.5363 -1.09765 38.5119 8.20359 47.8128Z" fill="#E8D7F9"/>
    <path d="M18.7723 21.115C17.3285 23.0396 16.4732 25.4289 16.4732 28.0146L12.3741 29.1126L8.2384 28.0146C8.2384 23.1495 9.99625 18.6962 12.9103 15.2529L17.315 17.0167L18.7723 21.115Z" fill="#8DE06A"/>
    <path d="M28.0018 8.25122L29.0998 12.2588L28.0018 16.486C25.4161 16.486 23.0269 17.3413 21.1022 18.7851L17.0221 16.7973L15.2401 12.9232C18.6832 10.0091 23.1378 8.25122 28.0018 8.25122Z" fill="#FFE47C"/>
    <path d="M28.0018 8.25122V16.486C31.1803 16.486 34.0625 17.7789 36.1501 19.8665L39.7226 17.9957L41.9766 14.0398C38.4 10.4633 33.4592 8.25122 28.0018 8.25122Z" fill="#FFBA37"/>
    <path d="M41.9766 14.0398L36.1501 19.8665C38.2376 21.954 39.5305 24.8361 39.5305 28.0147L43.1263 29.4695L47.7652 28.0147C47.7652 22.5572 45.5532 17.6163 41.9766 14.0398Z" fill="#FF4E65"/>
    <path d="M19.7671 49.425V56.0129H36.2366V49.425H19.7671Z" fill="#2E0757"/>
    <path d="M25.1837 26.0201L23.5434 25.8862L12.9102 15.2529C13.6211 14.4132 14.4004 13.6339 15.24 12.923L25.8733 23.5563L25.1837 26.0201Z" fill="#7E02FF"/>
    <path d="M23.061 28.0146C23.061 30.7391 25.2775 32.9555 28.0019 32.9555L29.0999 28.0146L28.0019 23.0737C25.2774 23.0737 23.061 25.2902 23.061 28.0146Z" fill="#FFE47C"/>
    <path d="M28.0018 23.0737V32.9555C30.7263 32.9555 32.9427 30.7391 32.9427 28.0146C32.9426 25.2902 30.7262 23.0737 28.0018 23.0737Z" fill="#FFBA37"/>
    <path d="M39.5304 28.0146C39.5304 31.0947 38.3312 33.9896 36.1537 36.166L34.9886 37.3306L40.7787 43.1206L41.9768 41.9896C45.5527 38.4124 47.7652 33.4716 47.7652 28.0146H39.5304Z" fill="#CD0C0C"/>
    <path d="M14.0268 41.9896L15.2137 43.1318L21.0149 37.3306L19.8499 36.1659C17.6724 33.9895 16.4732 31.0946 16.4732 28.0145H8.2384C8.2384 33.4715 10.4508 38.4124 14.0268 41.9896Z" fill="#5BC980"/>
  </g>
  <defs>
    <clipPath id="clip0_86_805">
      <rect width="56" height="56" fill="white" transform="translate(0 0.0146484)"/>
    </clipPath>
  </defs>
</svg>