<svg width="162" height="48" viewBox="0 0 162 48" fill="none" xmlns="http://www.w3.org/2000/svg">
<g id="Logo White">
<g id="Group">
<g id="Group 1000011283">
<g id="Group_2">
<g id="Group_3">
<g id="Group_4">
<path id="Vector" d="M42.4433 34.1922L44.7789 37.0319H43.5862L41.7973 34.8548L41.6979 34.9968V37.0319H40.7537V31.8259H41.6979V33.9556L43.7353 31.8259H44.8286L42.4433 34.1922Z" fill="#415364"/>
<path id="Vector_2" d="M45.6734 31.8259H46.6176V37.0319H45.6734V31.8259Z" fill="#415364"/>
<path id="Vector_3" d="M53.1768 37.0319H51.686C50.9406 35.5648 50.1952 34.0976 49.4001 32.6305C49.4498 34.0976 49.4498 35.5648 49.4498 37.0319H48.5056C48.5553 35.2808 48.5553 33.5771 48.5056 31.826H49.9964C50.7418 33.2931 51.4872 34.8076 52.2823 36.2747C52.183 34.8076 52.2326 33.2931 52.2326 31.826H53.1768C53.1271 33.5297 53.1271 35.2808 53.1768 37.0319Z" fill="#415364"/>
<path id="Vector_4" d="M59.1897 34.1448V36.5585C58.494 36.9371 57.7983 37.0791 57.1026 37.0791C55.8603 37.0791 54.618 36.3691 54.618 34.4761C54.618 32.441 55.8603 31.7311 57.3014 31.7311C58.0965 31.7311 58.7425 32.0151 59.1897 32.5357L58.2952 33.0089C57.9474 32.6303 57.4505 32.4883 56.8044 32.4883C56.6057 32.4883 56.3572 32.5357 56.1087 32.583C55.8603 32.9143 55.6118 33.3876 55.6118 34.2394C55.6118 35.7539 56.3572 36.3218 57.3014 36.3218C57.5995 36.3218 57.8977 36.2745 58.1959 36.1798V34.902C57.848 34.902 57.5498 34.902 57.0529 34.902L57.202 34.1448C58.2456 34.1921 58.1462 34.1921 59.1897 34.1448Z" fill="#415364"/>
<path id="Vector_5" d="M65.5009 36.0852H63.3641L63.0162 36.9844H62.0721L64.0598 32.2991L63.861 31.7785H64.8549L66.8923 36.9844H65.8984L65.5009 36.0852ZM65.2027 35.328L64.4076 33.3403C64.3082 33.6242 64.2089 33.9082 64.1095 34.1448L63.6622 35.328H65.2027Z" fill="#415364"/>
<path id="Vector_6" d="M71.8122 35.3753C71.8122 36.3219 70.9674 37.1264 68.9797 37.1264C68.6318 37.1264 68.1349 37.0791 67.9361 37.0318V31.9678C68.5821 31.8258 68.9797 31.7785 69.4269 31.7785C71.0171 31.7785 71.4643 32.4884 71.4643 33.1983C71.4643 33.6243 71.3152 34.0502 70.9674 34.3342C71.514 34.4761 71.8122 34.8548 71.8122 35.3753ZM68.8803 32.5357V34.0502C69.6257 34.0502 69.9238 34.0502 70.222 33.9555C70.3711 33.8136 70.4704 33.5296 70.4704 33.293C70.4704 32.7724 70.0729 32.4884 69.3772 32.4884C69.1784 32.4884 69.0293 32.4884 68.8803 32.5357ZM70.8183 35.47C70.8183 35.0441 70.4704 34.8074 70.1226 34.6654C69.5263 34.7601 69.2778 34.7601 68.8803 34.7601V36.1799C69.079 36.2272 69.2778 36.2746 69.6257 36.2746C70.0232 36.2746 70.222 36.2746 70.5201 36.2272C70.6692 36.0379 70.8183 35.8013 70.8183 35.47Z" fill="#415364"/>
<path id="Vector_7" d="M77.6762 34.2868C77.6762 36.2745 76.3841 37.0791 74.6449 37.0791C74.1976 37.0791 73.5516 37.0317 73.1541 36.9844V31.9204C73.8498 31.7784 74.2473 31.7311 74.8437 31.7311C76.3345 31.7311 77.6762 32.441 77.6762 34.2868ZM76.6823 34.5234C76.6823 33.0563 75.8872 32.4883 74.8933 32.4883C74.6449 32.4883 74.3964 32.4883 74.0983 32.583V36.2272C74.3964 36.3218 74.794 36.3218 75.3903 36.3218C75.6884 36.3218 75.8872 36.2745 76.1357 36.1798C76.4835 35.7539 76.6823 35.328 76.6823 34.5234Z" fill="#415364"/>
<path id="Vector_8" d="M83.3409 31.8259V34.9968C83.3409 36.038 82.5458 37.0792 81.1047 37.0792C80.1109 37.0792 79.0673 36.5113 79.0673 35.2334V31.8259H80.0115V35.1388C80.0115 35.9907 80.6078 36.3693 81.3035 36.3693C81.6016 36.3693 81.8501 36.322 82.0489 36.2746C82.198 36.038 82.2974 35.6594 82.2974 35.0915V31.8259H83.3409Z" fill="#415364"/>
<path id="Vector_9" d="M88.3605 36.1799L88.1617 36.9844H85.031V31.7785H85.9752V36.1799C86.82 36.2272 87.6151 36.2272 88.3605 36.1799Z" fill="#415364"/>
<path id="Vector_10" d="M92.037 36.0852H89.9002L89.5524 36.9844H88.6082L90.5959 32.2991L90.3971 31.7785H91.391L93.4284 36.9844H92.4346L92.037 36.0852ZM91.7389 35.328L90.9438 33.3403C90.8444 33.6242 90.745 33.9082 90.6456 34.1448L90.1984 35.328H91.7389Z" fill="#415364"/>
<path id="Vector_11" d="M98.0999 32.6305C97.0563 33.861 96.2116 35.0441 95.2674 36.2746C96.311 36.2746 97.1061 36.2746 98.0502 36.2273L97.9508 37.0319H93.9754L94.0251 36.2746C95.0686 35.0441 95.9631 33.8136 96.8576 32.5831C95.7643 32.5831 95.0189 32.5831 94.0251 32.6305L94.1245 31.8259H98.0999V32.6305Z" fill="#415364"/>
<path id="Vector_12" d="M99.5907 31.8259H100.535V37.0319H99.5907V31.8259Z" fill="#415364"/>
<path id="Vector_13" d="M106.1 32.6305C105.056 33.861 104.212 35.0442 103.317 36.2747C104.361 36.2747 105.156 36.2747 106.1 36.2274L106.001 37.0319H102.025L102.075 36.2747C103.118 35.0442 104.013 33.8137 104.907 32.5832C103.814 32.5832 103.069 32.5832 102.075 32.6305L102.174 31.826H106.15L106.1 32.6305Z" fill="#415364"/>
<path id="Vector_14" d="M110.821 32.5832V34.0503C111.517 34.0503 112.163 34.0503 112.858 34.0503L112.66 34.8549C112.063 34.8549 111.417 34.8549 110.821 34.8549V37.0319H109.877V31.826H113.107L112.908 32.6305C112.212 32.5832 111.517 32.5832 110.821 32.5832Z" fill="#415364"/>
<path id="Vector_15" d="M118.723 34.2868C118.723 36.3691 117.431 37.0791 116.089 37.0791C114.996 37.0791 113.803 36.3691 113.803 34.5234C113.803 32.441 115.096 31.7311 116.437 31.7311C117.531 31.7311 118.723 32.441 118.723 34.2868ZM117.68 34.5234C117.68 33.0563 116.934 32.4883 115.99 32.4883C115.791 32.4883 115.543 32.5357 115.294 32.583C115.046 32.9143 114.797 33.3876 114.797 34.2868C114.797 35.8012 115.543 36.3218 116.487 36.3218C116.686 36.3218 116.934 36.2745 117.183 36.2272C117.481 35.8959 117.68 35.3753 117.68 34.5234Z" fill="#415364"/>
<path id="Vector_16" d="M124.338 31.8259V34.9968C124.338 36.038 123.543 37.0792 122.102 37.0792C121.108 37.0792 120.064 36.5113 120.064 35.2334V31.8259H121.008V35.1388C121.008 35.9907 121.605 36.3693 122.3 36.3693C122.599 36.3693 122.847 36.322 123.046 36.2746C123.195 36.038 123.294 35.6594 123.294 35.0915V31.8259H124.338Z" fill="#415364"/>
<path id="Vector_17" d="M130.798 37.0319H129.307C128.562 35.5647 127.816 34.0976 127.021 32.6305C127.071 34.0976 127.071 35.5647 127.071 37.0319H126.127C126.177 35.2808 126.177 33.577 126.127 31.8259H127.618C128.363 33.293 129.109 34.8075 129.904 36.2746C129.804 34.8075 129.854 33.293 129.854 31.8259H130.798C130.748 33.5297 130.748 35.2808 130.798 37.0319Z" fill="#415364"/>
<path id="Vector_18" d="M137.209 34.2868C137.209 36.2745 135.916 37.0791 134.177 37.0791C133.73 37.0791 133.084 37.0318 132.686 36.9844V31.9204C133.382 31.7785 133.78 31.7311 134.376 31.7311C135.867 31.7311 137.209 32.441 137.209 34.2868ZM136.165 34.5234C136.165 33.0563 135.37 32.4884 134.376 32.4884C134.128 32.4884 133.879 32.4884 133.581 32.583V36.2272C133.879 36.3219 134.277 36.3219 134.873 36.3219C135.171 36.3219 135.37 36.2745 135.618 36.1799C135.966 35.7539 136.165 35.328 136.165 34.5234Z" fill="#415364"/>
<path id="Vector_19" d="M141.333 36.0853H139.196L138.848 36.9845H137.904L139.892 32.2991L139.693 31.7785H140.687L142.724 36.9845H141.73L141.333 36.0853ZM141.035 35.328L140.24 33.3403C140.14 33.6243 140.041 33.9082 139.942 34.1448L139.494 35.328H141.035Z" fill="#415364"/>
<path id="Vector_20" d="M147.246 32.6305C146.6 32.5831 145.954 32.5831 145.507 32.5831V36.9845H144.563V32.5831C144.215 32.5831 143.519 32.5831 142.824 32.6305V31.8259H147.246V32.6305Z" fill="#415364"/>
<path id="Vector_21" d="M148.191 31.826H149.135V37.0319H148.191V31.826Z" fill="#415364"/>
<path id="Vector_22" d="M155.545 34.2868C155.545 36.3692 154.253 37.0791 152.912 37.0791C151.818 37.0791 150.626 36.3692 150.626 34.5234C150.626 32.441 151.918 31.7311 153.259 31.7311C154.353 31.7311 155.545 32.441 155.545 34.2868ZM154.502 34.5234C154.502 33.0563 153.756 32.4884 152.812 32.4884C152.613 32.4884 152.365 32.5357 152.116 32.583C151.868 32.9143 151.62 33.3876 151.62 34.2868C151.62 35.8013 152.365 36.3219 153.309 36.3219C153.508 36.3219 153.756 36.2745 154.005 36.2272C154.303 35.8959 154.502 35.3753 154.502 34.5234Z" fill="#415364"/>
<path id="Vector_23" d="M161.707 37.0319H160.216C159.471 35.5648 158.725 34.0976 157.93 32.6305C157.98 34.0976 157.98 35.5648 157.98 37.0319H157.036C157.086 35.2808 157.086 33.5771 157.036 31.826H158.527C159.272 33.2931 160.018 34.8076 160.813 36.2747C160.713 34.8076 160.763 33.2931 160.763 31.826H161.707C161.657 33.5297 161.657 35.2808 161.707 37.0319Z" fill="#415364"/>
</g>
</g>
<g id="Group_5">
<path id="Vector_24" d="M47.7603 22.3605V24.2536L47.4125 24.301H45.4744C45.0769 25.8627 44.0333 26.9986 43.3376 27.8031C42.3934 27.4245 41.5984 26.8093 41.0517 26.194C41.8468 25.7208 43.2382 25.0109 44.2321 23.6857C43.8842 22.4552 42.9898 21.1774 42.3438 20.3728L44.1824 19.095C44.9278 19.8995 45.375 21.3194 45.5241 22.3132H47.3628L47.7603 22.3605ZM43.1388 18.2904L41.9959 16.7286L43.6358 15.5455L44.7787 17.1073L43.1388 18.2904Z" fill="#415364"/>
<path id="Vector_25" d="M47.0646 24.2535V22.3604L47.4125 22.3131H51.6364L51.9842 22.3604V24.2535L51.6364 24.3008H47.4125L47.0646 24.2535Z" fill="#415364"/>
<path id="Vector_26" d="M53.9223 28.2289L53.1769 27.2351L51.7855 28.2289L50.6426 26.6671L52.2825 25.484L53.0279 26.4778L54.4193 25.484L55.5622 27.0458L53.9223 28.2289ZM51.6364 24.3008L51.2886 24.2535V22.3604L51.6364 22.3131H53.0775C53.0775 21.3192 52.9285 20.3727 52.68 19.3788L54.6677 18.9529C54.8168 19.5681 54.9659 20.562 54.9659 21.8398C54.9659 22.8337 54.8665 23.3543 54.6677 24.2535H51.6364V24.3008Z" fill="#415364"/>
<path id="Vector_27" d="M62.9166 22.3605V24.2536L62.5687 24.3009H60.6307C60.2331 25.8627 59.1896 26.9986 58.4939 27.8031C57.5497 27.4245 56.7546 26.8092 56.208 26.194C57.0031 25.7207 58.3945 25.0108 59.3883 23.6857C59.0405 22.4552 58.146 21.1773 57.5 20.3728L59.3387 19.095C60.0841 19.8995 60.5313 21.3193 60.6804 22.3132H62.519L62.9166 22.3605ZM58.3448 18.2904L57.2018 16.7286L58.8417 15.5454L59.9847 17.1072L58.3448 18.2904Z" fill="#415364"/>
<path id="Vector_28" d="M69.9728 22.3605V24.2536L69.625 24.3009C68.1342 24.3009 67.0409 24.159 66.0967 23.6384C64.9538 24.159 63.9102 24.3009 62.5685 24.3009L62.2207 24.2536V22.3605L62.5685 22.3132C63.3636 22.3132 63.9599 22.2659 64.5563 22.1712C63.8109 21.5087 63.3636 21.0827 62.9164 20.6568L63.4133 18.669C64.2581 18.3378 64.9538 17.9591 66.2458 17.9591C67.9851 17.9591 69.0783 18.669 69.0783 19.8049C69.0783 20.6568 68.2832 21.556 67.5378 22.1239C68.0845 22.2659 68.6808 22.3132 69.5753 22.3132L69.9728 22.3605ZM66.1464 19.9942C65.5998 19.9942 65.0532 20.0888 64.5066 20.3255C64.9538 20.7041 65.5501 21.272 66.1961 21.6033C66.8421 21.272 67.4882 20.9407 67.4882 20.5621C67.4882 20.1362 66.7428 19.9942 66.1464 19.9942Z" fill="#415364"/>
<path id="Vector_29" d="M72.7061 14.7881L72.6068 24.3008H69.6252L69.2773 24.2535V22.3604L69.6252 22.3131H70.7681L70.5196 15.1667L72.7061 14.7881Z" fill="#415364"/>
<path id="Vector_30" d="M74.048 15.2141L76.1848 14.7881L76.0855 24.3955L74.3462 24.6321L74.048 15.2141Z" fill="#415364"/>
<path id="Vector_31" d="M85.3781 22.3605V24.2536L85.0302 24.3009H83.6885H83.291C82.0983 24.3009 81.1045 24.3009 80.2597 24.3009C79.4646 24.3009 78.8186 24.2063 78.421 24.0643L78.6695 22.1239C79.0173 22.2659 79.6634 22.3605 80.4584 22.3605H82.2971C81.8499 21.1774 81.0051 20.1362 79.8621 19.2843L81.8002 17.9591C83.1916 19.0003 84.0364 21.0354 84.0861 22.3605H84.9805H85.3781Z" fill="#415364"/>
<path id="Vector_32" d="M90.0493 22.3604V24.2535L89.7014 24.3008H85.0303L84.6824 24.2535V22.3604L85.0303 22.3131H86.4714C86.4714 21.3192 86.3223 20.3727 86.0738 19.3788L88.0616 18.9529C88.2107 19.5681 88.3597 20.562 88.3597 21.8398C88.3597 21.9818 88.3597 22.1711 88.3597 22.3131H89.7511L90.0493 22.3604ZM87.5646 25.5786L88.7076 27.1404L87.0677 28.3236L85.9248 26.7618L87.5646 25.5786Z" fill="#415364"/>
<path id="Vector_33" d="M96.0126 21.698V23.5437C95.1678 23.875 93.0807 24.2536 90.3973 24.2536H89.7016L89.3537 24.2063V22.3132L89.7016 22.2659C90.0494 22.2659 90.4966 22.2659 90.9936 22.2186C90.6954 21.8873 90.5463 21.4613 90.5463 20.9881C90.5463 19.3789 91.9377 17.9591 93.9255 17.9591C94.4224 17.9591 94.7206 18.0538 95.0684 18.1958L95.4163 20.2308C95.0684 20.1362 94.3727 19.9942 93.5279 19.9942C92.6832 19.9942 91.7887 20.1362 91.5402 20.6094C91.7887 21.0827 92.5838 21.7926 93.677 22.0293C95.0187 21.9346 95.6151 21.7926 96.0126 21.698Z" fill="#415364"/>
<path id="Vector_34" d="M114.101 22.3604V24.2535L113.753 24.3008H104.51C102.572 24.3008 101.926 22.739 101.926 21.8398C101.926 21.4612 101.975 21.0353 102.075 20.6567L103.615 19.9941C103.615 20.1834 103.615 20.3727 103.615 20.5147C103.615 21.7452 104.212 22.3604 105.206 22.3604H110.423L110.175 15.2141L112.312 14.7881L112.212 22.3604H113.753H114.101ZM108.684 20.3727L105.553 20.9879L105.653 20.0887L106.299 19.9467C106.1 19.7574 105.901 19.3315 105.901 18.9529C105.901 18.243 106.498 17.6751 107.392 17.6751C107.69 17.6751 107.889 17.7224 108.088 17.817L108.187 18.7162C108.038 18.6689 107.79 18.5743 107.491 18.5743C107.094 18.5743 106.746 18.7162 106.597 18.9056C106.647 19.2368 107.044 19.5681 107.889 19.5681L108.833 19.3788L108.684 20.3727Z" fill="#415364"/>
<path id="Vector_35" d="M118.126 22.3606V24.2537L117.778 24.301H113.703L113.355 24.2537V22.3606L113.703 22.3133H114.797L114.548 15.1669L116.685 14.741L116.585 22.3133H117.728L118.126 22.3606Z" fill="#415364"/>
<path id="Vector_36" d="M126.226 22.3605V24.2536L125.879 24.3009C125.133 24.3009 124.537 24.1116 124.09 23.7803C123.642 24.2063 123.046 24.4429 122.301 24.4429C121.158 24.4429 120.313 23.9697 119.717 23.3544C119.269 23.9697 118.822 24.3009 117.828 24.3009L117.48 24.2536V22.3605L117.828 22.3132C118.574 22.3132 118.971 21.7926 119.468 20.9407C119.915 20.1362 120.76 18.4324 122.45 18.4324C124.09 18.4324 124.785 19.9942 124.785 21.6033C124.785 21.698 124.785 21.8399 124.785 21.9346C125.034 22.1712 125.431 22.2659 125.928 22.2659L126.226 22.3605ZM123.394 22.3605C123.344 21.3193 122.947 20.7041 122.052 20.7041C121.307 20.7041 120.86 21.13 120.462 21.8399C121.158 22.1712 122.251 22.3132 123.394 22.3605Z" fill="#415364"/>
<path id="Vector_37" d="M128.959 14.7881L128.86 24.3009H125.878L125.53 24.2535V22.3605L125.878 22.3131H127.021L126.773 15.2141L128.959 14.7881Z" fill="#415364"/>
<path id="Vector_38" d="M130.301 15.2141L132.438 14.7881L132.338 24.3955L130.599 24.6321L130.301 15.2141Z" fill="#415364"/>
<path id="Vector_39" d="M143.768 21.6032C143.768 23.3543 142.873 24.3955 141.084 24.3955C139.593 24.3955 138.55 23.6856 138.55 21.9819C138.55 20.5147 139.743 18.2904 141.382 18.2904C142.625 18.2904 143.768 20.3727 143.768 21.6032ZM139.941 16.9179L138.798 15.3561L140.438 14.1729L141.184 15.1668L142.575 14.1729L143.718 15.7347L142.078 16.9179L141.333 15.924L139.941 16.9179ZM141.134 22.3605C141.73 22.3605 142.227 22.2185 142.575 22.0292C142.327 21.4139 141.78 20.6567 141.184 20.2308C140.488 20.562 139.892 21.0826 139.892 21.6032C139.892 22.2658 140.687 22.3605 141.134 22.3605Z" fill="#415364"/>
<path id="Vector_40" d="M149.582 23.1177C149.582 25.2947 148.19 26.8092 147.296 27.803C146.351 27.4244 145.556 26.8092 145.01 26.1939C145.805 25.7206 147.196 25.0107 148.19 23.6856C147.842 22.4551 146.948 21.1773 146.302 20.3727L148.14 19.0949C149.134 20.1834 149.582 22.1238 149.582 23.1177Z" fill="#415364"/>
<path id="Vector_41" d="M151.371 15.2141L153.508 14.7881L153.408 24.3955L151.669 24.6321L151.371 15.2141Z" fill="#415364"/>
<path id="Vector_42" d="M161.26 22.4552C161.26 23.0704 161.061 23.8277 160.812 24.3009H157.384C156.589 24.3009 155.943 24.2063 155.545 24.0643L155.793 22.1239C156.141 22.2659 156.787 22.3605 157.582 22.3605H159.421C158.974 21.1774 158.129 20.1362 156.986 19.2843L158.924 17.9591C160.365 19.0003 161.26 21.13 161.26 22.4552Z" fill="#415364"/>
</g>
<g id="Group_6">
<g id="Group_7">
<path id="Vector_43" d="M41.3997 41.3387V42.3326C41.847 42.3326 42.2942 42.3326 42.7415 42.3326L42.5924 42.8531C42.1948 42.8531 41.7973 42.8531 41.3501 42.8531V44.273H40.704V40.8181H42.8409L42.6918 41.3387C42.3439 41.3387 41.8967 41.3387 41.3997 41.3387Z" fill="#415364"/>
<path id="Vector_44" d="M48.4555 42.4273C48.4555 43.7998 47.6107 44.273 46.7162 44.273C45.9708 44.273 45.1758 43.7998 45.1758 42.5693C45.1758 41.1968 46.0205 40.7235 46.915 40.7235C47.6604 40.7708 48.4555 41.1968 48.4555 42.4273ZM47.7598 42.5693C47.7598 41.5754 47.2629 41.2441 46.6665 41.2441C46.5672 41.2441 46.3684 41.2914 46.2193 41.3388C46.0702 41.5754 45.8715 41.9067 45.8715 42.4746C45.8715 43.4685 46.3684 43.7998 46.9647 43.7998C47.1138 43.7998 47.2629 43.7998 47.4119 43.7051C47.6107 43.4685 47.7598 43.1845 47.7598 42.5693Z" fill="#415364"/>
<path id="Vector_45" d="M52.3322 42.9005C52.1831 42.9478 52.034 42.9478 51.8353 42.9478V44.2256H51.1892V40.8654C51.6365 40.7708 51.8849 40.7234 52.1831 40.7234C53.2267 40.7234 53.5745 41.1967 53.5745 41.7173C53.5745 42.1433 53.3757 42.4745 52.9782 42.7112C53.2764 43.2318 53.5745 43.705 53.8727 44.2256H53.1273C52.8291 43.7997 52.5807 43.3738 52.3322 42.9005ZM51.8353 42.4745C52.2328 42.4745 52.4316 42.4745 52.5807 42.4272C52.7297 42.3326 52.8788 42.1433 52.8788 41.8593C52.8788 41.4807 52.6303 41.244 52.1831 41.244C52.034 41.244 51.9346 41.244 51.8353 41.2914V42.4745Z" fill="#415364"/>
<path id="Vector_46" d="M60.7796 42.9006C60.6306 42.9479 60.4815 42.9479 60.2827 42.9479V44.2257H59.6367V40.8655C60.0839 40.7708 60.3324 40.7235 60.6306 40.7235C61.6741 40.7235 62.022 41.1968 62.022 41.7174C62.022 42.1433 61.8232 42.4746 61.4256 42.7112C61.7238 43.2318 62.022 43.7051 62.3201 44.2257H61.5747C61.2766 43.7998 61.0281 43.3738 60.7796 42.9006ZM60.2827 42.4746C60.6802 42.4746 60.879 42.4746 61.0281 42.4273C61.1772 42.3326 61.3263 42.1433 61.3263 41.8594C61.3263 41.4807 61.0778 41.2441 60.6306 41.2441C60.4815 41.2441 60.3821 41.2441 60.2827 41.2914V42.4746Z" fill="#415364"/>
<path id="Vector_47" d="M65.5013 43.7049C66.048 43.7049 66.4952 43.7049 66.9424 43.7049L66.7934 44.2255H64.8056V40.7706H66.9424L66.7934 41.2912C66.3958 41.2912 65.9486 41.2912 65.4516 41.2912V42.2378C65.8989 42.2378 66.3461 42.2378 66.7934 42.2378L66.6443 42.7584C66.2467 42.7584 65.8492 42.7584 65.402 42.7584V43.7049H65.5013Z" fill="#415364"/>
<path id="Vector_48" d="M71.7123 43.3736C71.7123 43.9415 71.265 44.3202 70.3706 44.3202C69.9233 44.3202 69.6252 44.2255 69.2773 44.0362L69.3767 43.5629C69.5755 43.6576 69.973 43.7996 70.4203 43.7996C70.6687 43.7996 70.8675 43.7522 71.0166 43.6576C71.0166 43.6102 71.0166 43.5629 71.0166 43.5156C71.0166 43.137 70.5693 42.9003 70.2215 42.711C69.8239 42.4744 69.3767 42.1904 69.3767 41.6698C69.3767 41.1492 69.7742 40.7706 70.6687 40.7706C71.116 40.7706 71.4141 40.9126 71.7123 41.0546L71.6129 41.5279C71.3644 41.4332 71.0166 41.2912 70.619 41.2912C70.4203 41.2912 70.2215 41.3386 70.0724 41.3859C70.0227 41.4332 70.0227 41.5279 70.0227 41.5752C70.0227 41.9065 70.4203 42.0958 70.7184 42.2851C71.2153 42.4744 71.7123 42.8057 71.7123 43.3736Z" fill="#415364"/>
<path id="Vector_49" d="M75.0424 43.7049C75.589 43.7049 76.0362 43.7049 76.4835 43.7049L76.3344 44.2255H74.3466V40.7706H76.4835L76.3344 41.2912C75.9368 41.2912 75.4896 41.2912 74.9927 41.2912V42.2378C75.4399 42.2378 75.8871 42.2378 76.3344 42.2378L76.1853 42.7584C75.7878 42.7584 75.3902 42.7584 74.943 42.7584V43.7049H75.0424Z" fill="#415364"/>
<path id="Vector_50" d="M80.9555 43.6577H79.5144L79.2659 44.273H78.6199L79.912 41.1494L79.7629 40.8181H80.4089L81.7506 44.273H81.1046L80.9555 43.6577ZM80.7567 43.1371L80.2598 41.812C80.2101 42.0013 80.1107 42.1906 80.061 42.3326L79.7629 43.0898H80.7567V43.1371Z" fill="#415364"/>
<path id="Vector_51" d="M85.4279 42.9005C85.2788 42.9478 85.1297 42.9478 84.931 42.9478V44.2256H84.2849V40.8654C84.7322 40.7708 84.9806 40.7234 85.2788 40.7234C86.3224 40.7234 86.6702 41.1967 86.6702 41.7173C86.6702 42.1433 86.4714 42.4745 86.0739 42.7112C86.3721 43.2318 86.6702 43.705 86.9684 44.2256H86.223C85.9248 43.7997 85.6764 43.3738 85.4279 42.9005ZM84.931 42.4745C85.3285 42.4745 85.5273 42.4745 85.6764 42.4272C85.8254 42.3326 85.9745 42.1433 85.9745 41.8593C85.9745 41.4807 85.726 41.244 85.2788 41.244C85.1297 41.244 85.0303 41.244 84.931 41.2914V42.4745Z" fill="#415364"/>
<path id="Vector_52" d="M91.9373 43.6102L92.0367 43.9889C91.7385 44.2255 91.341 44.3202 90.8938 44.3202C90.049 44.3202 89.2539 43.8469 89.2539 42.6164C89.2539 41.2912 90.0987 40.7706 90.9434 40.7706C91.3907 40.7706 91.8379 40.9599 92.1361 41.2912L91.5398 41.6225C91.2913 41.3859 90.9931 41.2912 90.695 41.2912C90.5459 41.2912 90.3968 41.3386 90.2477 41.3859C90.0987 41.6225 89.9496 41.9065 89.9496 42.4744C89.9496 43.4683 90.4465 43.8469 91.0925 43.8469C91.3907 43.7996 91.5895 43.7049 91.9373 43.6102Z" fill="#415364"/>
<path id="Vector_53" d="M97.6526 40.8181V44.273H97.0066V42.7585C96.4599 42.7585 95.9133 42.7585 95.3667 42.7585V44.273H94.7207V40.8181H95.3667V42.2379C95.9133 42.2379 96.4599 42.2379 97.0066 42.2379V40.8181H97.6526Z" fill="#415364"/>
<path id="Vector_54" d="M105.603 43.6577H104.162L103.914 44.273H103.268L104.56 41.1494L104.41 40.8181H105.056L106.398 44.273H105.752L105.603 43.6577ZM105.404 43.1371L104.907 41.812C104.858 42.0013 104.758 42.1906 104.709 42.3326L104.41 43.0898H105.404V43.1371Z" fill="#415364"/>
<path id="Vector_55" d="M112.064 44.2255H111.07C110.573 43.279 110.076 42.2851 109.579 41.2913C109.629 42.2851 109.629 43.2317 109.629 44.2255H108.983C108.983 43.0897 108.983 41.9065 108.983 40.7707H109.976C110.473 41.7645 110.97 42.7584 111.467 43.7049C111.418 42.7111 111.418 41.7172 111.418 40.7707H112.064C112.064 41.9538 112.064 43.0897 112.064 44.2255Z" fill="#415364"/>
<path id="Vector_56" d="M118.076 42.4272C118.076 43.7524 117.232 44.273 116.039 44.273C115.741 44.273 115.294 44.2256 115.045 44.2256V40.8654C115.492 40.7708 115.79 40.7234 116.188 40.7234C117.182 40.7708 118.076 41.244 118.076 42.4272ZM117.43 42.5692C117.43 41.5753 116.884 41.244 116.238 41.244C116.039 41.244 115.89 41.244 115.691 41.2914V43.705C115.89 43.7524 116.138 43.7997 116.536 43.7997C116.735 43.7997 116.884 43.7524 117.033 43.705C117.281 43.4211 117.43 43.1371 117.43 42.5692Z" fill="#415364"/>
<path id="Vector_57" d="M125.829 43.6577H124.387L124.139 44.273H123.493L124.785 41.1494L124.636 40.8181H125.282L126.624 44.273H125.978L125.829 43.6577ZM125.63 43.1371L125.133 41.812C125.083 42.0013 124.984 42.1906 124.934 42.3326L124.636 43.0898H125.63V43.1371Z" fill="#415364"/>
<path id="Vector_58" d="M130.301 42.9006C130.152 42.9479 130.003 42.9479 129.804 42.9479V44.2257H129.158V40.8655C129.605 40.7708 129.854 40.7235 130.152 40.7235C131.196 40.7235 131.543 41.1968 131.543 41.7174C131.543 42.1433 131.345 42.4746 130.947 42.7112C131.245 43.2318 131.543 43.7051 131.842 44.2257H131.096C130.848 43.7998 130.55 43.3738 130.301 42.9006ZM129.804 42.4746C130.202 42.4746 130.401 42.4746 130.55 42.4273C130.699 42.3326 130.848 42.1433 130.848 41.8594C130.848 41.4807 130.599 41.2441 130.152 41.2441C130.003 41.2441 129.904 41.2441 129.804 41.2914V42.4746Z" fill="#415364"/>
<path id="Vector_59" d="M136.811 43.6103L136.91 43.9889C136.612 44.2255 136.214 44.3202 135.767 44.3202C134.922 44.3202 134.127 43.8469 134.127 42.6164C134.127 41.2913 134.972 40.7707 135.817 40.7707C136.264 40.7707 136.711 40.96 137.009 41.2913L136.413 41.6225C136.165 41.3859 135.866 41.2913 135.568 41.2913C135.419 41.2913 135.27 41.3386 135.121 41.3859C134.972 41.6225 134.823 41.9065 134.823 42.4744C134.823 43.4683 135.32 43.8469 135.966 43.8469C136.264 43.7996 136.463 43.7049 136.811 43.6103Z" fill="#415364"/>
<path id="Vector_60" d="M142.525 40.8181V44.273H141.879V42.7585C141.333 42.7585 140.786 42.7585 140.24 42.7585V44.273H139.594V40.8181H140.24V42.2379C140.786 42.2379 141.333 42.2379 141.879 42.2379V40.8181H142.525Z" fill="#415364"/>
<path id="Vector_61" d="M145.507 40.8181H146.153V44.273H145.507V40.8181Z" fill="#415364"/>
<path id="Vector_62" d="M151.967 40.8181C151.47 41.9539 151.073 43.0898 150.625 44.273H149.93C149.482 43.1371 149.085 42.0013 148.588 40.8181H149.333C149.632 41.6226 149.93 42.4745 150.327 43.563C150.675 42.4745 150.973 41.67 151.271 40.8181H151.967Z" fill="#415364"/>
<path id="Vector_63" d="M155.048 43.7049C155.595 43.7049 156.042 43.7049 156.489 43.7049L156.34 44.2255H154.352V40.7707H156.489L156.34 41.2913C155.942 41.2913 155.495 41.2913 154.998 41.2913V42.2378C155.446 42.2378 155.893 42.2378 156.34 42.2378L156.191 42.7584C155.793 42.7584 155.396 42.7584 154.949 42.7584V43.7049H155.048Z" fill="#415364"/>
<path id="Vector_64" d="M161.26 43.3736C161.26 43.9415 160.813 44.3202 159.918 44.3202C159.471 44.3202 159.173 44.2255 158.825 44.0362L158.925 43.5629C159.123 43.6576 159.521 43.7996 159.968 43.7996C160.217 43.7996 160.415 43.7522 160.564 43.6576C160.564 43.6102 160.564 43.5629 160.564 43.5156C160.564 43.137 160.117 42.9003 159.769 42.711C159.372 42.4744 158.925 42.1904 158.925 41.6698C158.925 41.1492 159.322 40.7706 160.217 40.7706C160.664 40.7706 160.962 40.9126 161.26 41.0546L161.161 41.5279C160.912 41.4332 160.564 41.2912 160.167 41.2912C159.968 41.2912 159.769 41.3386 159.62 41.3859C159.571 41.4332 159.571 41.5279 159.571 41.5752C159.571 41.9065 159.968 42.0958 160.266 42.2851C160.813 42.4744 161.26 42.8057 161.26 43.3736Z" fill="#415364"/>
</g>
</g>
</g>
<g id="Group_8">
<path id="Vector_65" d="M24.7381 8.03694C22.5866 7.79869 20.26 8.79938 18.4838 9.87154C16.7076 8.79938 14.381 7.79869 12.2295 8.03694L12.3045 8.0846C12.8549 8.15607 15.0314 8.2752 17.9334 10.2051C17.2079 10.6816 16.5825 11.1581 16.0571 11.5394C15.4817 10.9914 14.9564 11.3726 14.9314 11.4679C15.1565 11.4917 15.3567 11.6823 15.5818 11.9206C15.2566 12.1588 15.0314 12.3494 14.8813 12.4209C14.431 12.6592 14.2559 12.2303 13.9057 12.4686C13.3803 12.8021 14.1558 13.3978 14.3309 13.4216C14.5561 13.4454 15.2316 13.4454 16.1572 12.5877C16.1822 12.5877 16.1822 12.6115 16.2072 12.6115C16.7326 12.9927 17.333 12.8974 17.4581 12.5639C17.2329 12.5877 17.0078 12.5162 16.6325 12.1588C17.283 11.5632 17.9084 11.039 18.5088 10.6102C19.1343 11.0628 19.7847 11.587 20.4602 12.2303C20.1099 12.5162 19.8848 12.5877 19.6846 12.5401C19.7847 12.8736 20.3851 13.0166 20.9355 12.6354C21.8111 13.4216 22.4616 13.4216 22.6867 13.3978C22.8368 13.3978 23.6124 12.7783 23.112 12.4448C22.7618 12.2303 22.5866 12.6354 22.1363 12.3971C22.0112 12.3494 21.8111 12.1827 21.5609 11.9921C21.7861 11.7538 22.0363 11.5394 22.2614 11.5394C22.1864 11.4441 21.686 11.039 21.0356 11.6347C20.5102 11.2296 19.8347 10.7293 19.0342 10.2051C21.9362 8.2752 24.1627 8.1799 24.7131 8.10842L24.7381 8.03694Z" fill="#415364"/>
<path id="Vector_66" d="M15.9571 3.79599C15.4817 4.12956 15.2316 4.67756 15.2065 4.86816L15.2816 4.91582C15.6569 4.72521 15.9571 4.5346 16.2323 4.46312C16.0571 4.74903 15.932 5.15408 15.907 5.74972L15.9571 5.79738C16.2323 5.36851 16.6075 4.93964 17.0828 4.6299C16.7576 5.27321 16.9327 6.15477 17.0078 6.41685L17.0578 6.4645C17.383 5.29703 17.9334 4.86816 18.1836 4.77286L18.0835 8.70415H18.9591L18.8591 4.77286C19.1092 4.89199 19.6596 5.32086 19.9848 6.4645L20.0349 6.41685C20.1099 6.13094 20.2851 5.27321 19.9598 4.6299C20.4602 4.93964 20.8354 5.36851 21.1106 5.79738L21.1607 5.74972C21.1356 5.15408 20.9855 4.74903 20.8354 4.46312C21.1106 4.5346 21.4108 4.72521 21.7861 4.91582L21.8361 4.86816C21.8111 4.67756 21.5359 4.10573 21.0856 3.79599C21.3858 3.74834 21.711 3.79599 22.1363 3.86747L22.1864 3.81982C22.0613 3.65304 21.5109 3.22417 20.9105 3.10504C20.9855 3.05739 21.3358 2.93826 21.7611 2.91443L21.8111 2.86678C21.5109 2.58087 20.9105 2.43791 20.6853 2.43791C20.7854 2.34261 21.0356 2.19965 21.2357 2.152L21.1857 2.10435C20.6603 1.88992 20.1349 1.93757 19.7847 2.08052C19.8347 1.96139 19.9098 1.81844 20.0349 1.604H19.9598C19.6096 1.65166 19.1343 1.93757 18.784 2.19965C18.759 2.152 18.6589 1.72313 18.5589 1.604H18.4588C18.3587 1.72313 18.2587 2.152 18.2336 2.19965C17.8834 1.93757 17.4081 1.65166 17.0578 1.604H16.9828C17.1329 1.79461 17.2079 1.93757 17.2329 2.08052C16.8827 1.96139 16.3573 1.88992 15.832 2.10435L15.7819 2.152C15.9821 2.19965 16.2573 2.34261 16.3323 2.43791C16.1072 2.43791 15.5068 2.58087 15.1565 2.84296L15.2065 2.89061C15.6318 2.91443 15.9821 3.03356 16.0571 3.08121C15.4817 3.22417 14.9063 3.62921 14.7812 3.79599L14.8313 3.84365C15.3316 3.79599 15.6569 3.74834 15.9571 3.79599Z" fill="#415364"/>
<path id="Vector_67" d="M24.9384 15.423L24.8633 15.4945C27.9154 19.7832 27.3651 28.4558 27.3651 29.8378V42.8467H25.6138V37.6765C25.6138 35.4369 24.438 32.816 20.9606 31.2673L20.8856 31.3388C23.3623 32.8637 23.9627 35.4369 23.9627 37.6765V42.8467H15.8321V44.2525H29.0662V29.8378C29.0662 28.4558 29.1163 19.0446 24.9384 15.423Z" fill="#415364"/>
<path id="Vector_68" d="M19.4092 18.3774C19.3842 16.9479 18.9589 14.1126 18.5836 13.2787H18.4585C18.1083 14.1364 17.708 16.9717 17.708 18.3774V41.1313H19.4092V18.3774Z" fill="#415364"/>
<path id="Vector_69" d="M24.4131 9.99072L24.338 10.0622C32.0934 15.7804 31.3929 24.5246 31.3929 29.5042V44.2287H33.0941V29.5042C33.019 26.0494 33.6695 15.423 24.4131 9.99072Z" fill="#415364"/>
<path id="Vector_70" d="M9.35272 26.4067C8.8774 26.4067 8.50214 26.7641 8.50214 27.193C8.50214 27.6219 8.8774 27.9793 9.35272 27.9793C9.82805 27.9793 10.2033 27.6219 10.2033 27.193C10.2033 26.7641 9.82805 26.4067 9.35272 26.4067Z" fill="#415364"/>
<path id="Vector_71" d="M9.35272 28.432C8.8774 28.432 8.50214 28.7894 8.50214 29.2183C8.50214 29.6471 8.8774 30.0045 9.35272 30.0045C9.82805 30.0045 10.2033 29.6471 10.2033 29.2183C10.2033 28.7894 9.82805 28.432 9.35272 28.432Z" fill="#415364"/>
<path id="Vector_72" d="M8.5021 42.8467H6.02539V32.7921C6.02539 31.1005 6.92602 30.9814 7.57647 30.9814H8.5021V42.8467ZM10.2033 30.5763H6.901C5.97536 30.5763 4.47432 30.9099 4.32422 32.5301V44.2286H10.1783V30.5763H10.2033Z" fill="#415364"/>
<path id="Vector_73" d="M6.02577 29.8616V29.5042C6.02577 24.5008 5.32528 15.7805 13.0806 10.0384L13.0056 9.96692C3.74919 15.3992 4.39964 26.0256 4.34961 29.4804V30.624H4.42466C4.82494 30.1952 5.57546 29.9331 6.02577 29.8616Z" fill="#415364"/>
<path id="Vector_74" d="M12.4798 15.423C9.72793 17.8295 8.87734 22.4279 8.62717 25.8826C8.8273 25.8112 9.05246 25.7635 9.27762 25.7635C9.55281 25.7635 9.80298 25.8112 10.0281 25.9303C10.1032 22.6423 10.5785 18.306 12.5549 15.4945L12.4798 15.423Z" fill="#415364"/>
<path id="Vector_75" d="M16.5822 31.2435C13.0798 32.7684 11.929 35.4131 11.929 37.6527V43.776C11.929 45.4676 11.2535 46.7066 9.00195 46.8972L9.02697 46.9925C12.2292 47.3022 13.48 45.6821 13.48 43.7522V37.6289C13.48 35.3893 14.2306 32.816 16.6823 31.2912L16.5822 31.2435Z" fill="#415364"/>
</g>
</g>
</g>
</g>
</svg>
