<svg xmlns="http://www.w3.org/2000/svg" width="576" height="541" viewBox="0 0 576 541" fill="none">
  <path fill-rule="evenodd" clip-rule="evenodd" d="M270.968 0.124081C331.549 -3.65779 344.048 80.0566 394.808 108.377C450.025 139.185 562.862 114.154 574.338 169.385C586.589 228.346 468.555 245.765 434.223 298.067C410.556 334.123 435.722 381.487 411.592 417.321C377.327 468.204 339.691 534.785 270.968 540.503C203.265 546.136 139.573 493.996 108.776 442.515C81.569 397.034 143.174 341.907 123.358 293.753C102.677 243.497 -11.0863 230.724 0.0639738 178.339C10.5369 129.136 113.13 153.685 159.691 123.055C209.019 90.6043 208.725 4.00962 270.968 0.124081Z" fill="#79FFBF"/>
</svg>