<svg width="1440" height="615" viewBox="0 0 1440 615" fill="none" xmlns="http://www.w3.org/2000/svg">
<g clip-path="url(#clip0_52_1248)">
<path d="M1785.87 332.554C1600.12 332.554 1700.44 352.736 1412.97 338.631C1318.42 334.569 1273.94 350.135 1133.31 279.091C1044.92 233.161 992.284 195.957 911.896 165.966C713.176 98.1424 706.812 212.227 317.583 292.759C213.473 313.885 148.351 323.721 61.2152 353.307C-41.5826 389.999 -108.07 428.967 -230.114 412.553C-346.807 393.352 -426.187 339.569 -544.748 314.53C-683.601 288.916 -807.944 332.554 -1010.87 332.554" stroke="#3DDEED" stroke-opacity="0.11" stroke-width="0.5" stroke-linecap="round" stroke-linejoin="round"/>
<path d="M1785.87 332.554C1637 332.89 1655.18 351.953 1482.9 346.467C1306.16 339.841 1277.25 351.59 1156.61 293.884C1072.28 251.947 1016.46 211.667 935.202 176.574C726.742 92.2358 721.525 201.128 317.588 294.529C211.265 318.592 145.951 330.885 61.2207 359.752C-43.5881 397.041 -109.2 433.823 -230.108 416.407C-347.079 396.081 -426.033 341.963 -544.743 316.46C-682.71 290.52 -804.908 332.511 -1010.87 332.559" stroke="#3DDEED" stroke-opacity="0.11" stroke-width="0.5" stroke-linecap="round" stroke-linejoin="round"/>
<path d="M1785.87 332.554C1638.7 332.964 1656.46 353.744 1482.9 350.609C1306.72 346.329 1278.01 354.021 1168.25 302.819C1082.85 261.036 1029.54 221.38 946.863 183.233C737.613 92.1719 734.621 190.376 305.933 299.236C186.876 328.737 122.763 343.525 37.915 374.593C-75.8181 417.202 -142.727 442.017 -265.064 412.889C-381.939 382.13 -460.46 328.785 -579.699 312.67C-703.876 299.514 -824.117 332.565 -1010.87 332.554" stroke="#3DDEED" stroke-opacity="0.11" stroke-width="0.5" stroke-linecap="round" stroke-linejoin="round"/>
<path d="M1785.87 332.554C1643.89 332.927 1665.16 352.582 1506.2 354.746C1453.52 354.975 1431.07 353.317 1378.03 352.459C1303.74 351.798 1266.38 350.956 1179.91 311.748C1095.73 271.575 1042.43 231.215 958.502 190.264C802.58 117.738 738.034 154.404 608.912 202.781C390.274 283.548 331.639 292.674 166.093 339.804C-59.4739 404.962 -115.836 471.016 -323.336 398.155C-444.436 353.882 -510.608 312.915 -637.971 311.033C-768.662 311.337 -831.089 332.575 -1010.87 332.554" stroke="#3DDEED" stroke-opacity="0.11" stroke-width="0.5" stroke-linecap="round" stroke-linejoin="round"/>
<path d="M1785.87 332.554C1613.02 333.188 1721.13 360.477 1366.36 357.358C1179.14 356.217 1097.89 253.189 935.202 181.319C760.679 109.177 725.147 171.947 364.2 285.515C88.6391 370.733 270.182 308.709 -20.3518 408.118C-288.183 495.89 -384.884 327.005 -614.66 313.262C-736.405 308.608 -825.563 332.581 -1010.87 332.554" stroke="#3DDEED" stroke-opacity="0.11" stroke-width="0.5" stroke-linecap="round" stroke-linejoin="round"/>
<path d="M1785.87 332.554C1617.87 333.316 1697.33 367.087 1343.06 362.097C1178.81 356.015 1076.67 241.776 923.536 178.03C781.13 123.027 715.406 162.992 527.339 229.803C280.44 316.791 250.642 321.674 84.5209 377.535C-11.5237 410.33 -51.9365 429.489 -125.235 437.555C-282.619 449.73 -381.326 365.53 -533.093 326.834C-672.036 294.988 -772.62 332.602 -1010.87 332.559" stroke="#3DDEED" stroke-opacity="0.11" stroke-width="0.5" stroke-linecap="round" stroke-linejoin="round"/>
<path d="M1785.87 332.554C1624.4 333.476 1669.59 372.871 1343.06 366.735C1184.51 360.024 1083.68 250.651 935.196 183.798C821.228 135.821 757.969 148.961 655.512 183.089C-236.088 483.778 -60.9462 502.751 -463.176 350.455C-647.637 283.409 -724.504 332.714 -1010.87 332.559" stroke="#3DDEED" stroke-opacity="0.11" stroke-width="0.5" stroke-linecap="round" stroke-linejoin="round"/>
<path d="M1785.87 332.554C1665.38 333.401 1659 358.414 1506.2 369.667C1314.4 381.432 1265.56 364.022 1203.22 336.387C1023.03 251.222 912.483 109.849 702.145 167.395C507.234 224.872 247.133 339.276 -8.70167 423.178C-228.012 492.302 -310.736 402.313 -498.131 340.172C-655.462 291.379 -726.323 332.826 -1010.87 332.559" stroke="#3DDEED" stroke-opacity="0.11" stroke-width="0.5" stroke-linecap="round" stroke-linejoin="round"/>
<path d="M1785.87 332.554C1667.32 333.529 1650.28 362.476 1494.54 374.198C1222.25 391.294 1224.09 349.01 993.468 215.479C815.451 115.958 741.262 136.567 387.505 278.643C-45.626 455.269 -113.5 479.092 -265.069 434.052C-383.075 396.22 -460.263 341.142 -579.704 322.585C-697.71 307.664 -788.985 332.847 -1010.87 332.554" stroke="#3DDEED" stroke-opacity="0.11" stroke-width="0.5" stroke-linecap="round" stroke-linejoin="round"/>
<path d="M1785.87 332.554C1669.74 333.663 1648.54 364.32 1494.54 378.01C1224.5 398.491 1218.29 348.562 993.468 216.742C833.924 126.428 750.831 128.576 434.117 259.122C164.669 371.629 -32.1835 476.811 -195.152 454.411C-386.02 422.165 -443.295 312.073 -696.238 319.931C-822.432 324.888 -841.315 332.847 -1010.87 332.559" stroke="#3DDEED" stroke-opacity="0.11" stroke-width="0.5" stroke-linecap="round" stroke-linejoin="round"/>
<path d="M1785.87 332.554C1671.67 333.796 1647.72 366.085 1494.54 381.805C1226.81 405.565 1210.34 346.761 993.468 217.947C840.816 130.484 747.369 123.842 434.117 258.242C224.734 349.149 7.06645 471.453 -160.191 462.828C-346.903 446.985 -436.733 321.775 -661.276 320.426C-783.171 321.263 -809.619 332.97 -1010.87 332.549" stroke="#3DDEED" stroke-opacity="0.11" stroke-width="0.5" stroke-linecap="round" stroke-linejoin="round"/>
<path d="M1785.87 332.554C1659.8 334.142 1610.64 387.52 1401.33 390.286C1213.21 391.251 1173.67 327.063 993.469 218.235C853.869 136.919 777.898 138.161 620.573 185.125C366.808 263.451 211.59 393.144 -32.0073 455.903C-285.409 515.758 -388.698 336.179 -626.315 322.111C-735.055 317.793 -795.744 333.156 -1010.87 332.549" stroke="#3DDEED" stroke-opacity="0.11" stroke-width="0.5" stroke-linecap="round" stroke-linejoin="round"/>
<path d="M1785.87 332.554C1670.97 334.222 1650.95 368.921 1494.54 388.778C1221.8 419.185 1202.66 342.389 981.808 211.614C884.456 156.136 814.454 138.859 702.145 161.232C360.786 235.309 128.913 478.421 -136.886 474.177C-325.87 464.817 -428.865 331.147 -637.971 322.564C-742.444 320.069 -797.787 333.226 -1010.87 332.559" stroke="#3DDEED" stroke-opacity="0.11" stroke-width="0.5" stroke-linecap="round" stroke-linejoin="round"/>
<path d="M1785.87 332.554C1676.64 334.334 1644.28 371.453 1494.54 392.259C1224.83 425.417 1199.59 342.81 981.808 211.784C884.782 155.592 815.249 138.171 702.145 159.073C360.626 228.182 154.118 479.268 -125.235 479.801C-311.318 473.911 -421.84 341.083 -614.665 324.691C-720.749 318.07 -769.734 333.274 -1010.87 332.554" stroke="#3DDEED" stroke-opacity="0.11" stroke-width="0.5" stroke-linecap="round" stroke-linejoin="round"/>
<path d="M1785.87 332.554C1671.33 334.638 1641.81 375.979 1482.9 397.307C1213.67 428.807 1188.15 333.338 970.168 205.11C863.183 145.096 794.744 139.541 690.484 159.111C357.505 226.86 172.895 479.78 -113.58 485.404C-305.408 482.819 -417.018 342.81 -614.665 325.635C-717.484 319.067 -761.754 333.407 -1010.87 332.559" stroke="#3DDEED" stroke-opacity="0.11" stroke-width="0.5" stroke-linecap="round" stroke-linejoin="round"/>
<path d="M1785.87 332.554C1676.28 334.756 1637.02 378.463 1482.9 400.89C1329.73 420.4 1269.34 396.667 1203.22 361.015C1019.7 256.185 933.228 118.527 702.145 154.628C482.131 192.738 347.866 310.554 177.749 405.053C-110.945 560.894 -234.829 473.826 -416.559 386.427C-613.39 293.644 -633.927 333.657 -1010.87 332.554" stroke="#3DDEED" stroke-opacity="0.11" stroke-width="0.5" stroke-linecap="round" stroke-linejoin="round"/>
<path d="M1785.87 332.554C1678.62 334.99 1634.47 380.526 1482.9 404.024C1330.26 424.788 1268.96 399.53 1203.22 363.195C1018.77 255.295 935.133 117.291 702.145 150.614C482.003 185.909 349.205 312.078 177.749 411.716C-105.493 571.299 -241.081 473.378 -416.559 387.493C-611.096 294.284 -634.013 333.823 -1010.87 332.554" stroke="#3DDEED" stroke-opacity="0.11" stroke-width="0.5" stroke-linecap="round" stroke-linejoin="round"/>
<path d="M1785.87 332.554C1679.6 335.251 1633.24 382.418 1482.9 407.164C1332.79 428.882 1270.11 403.251 1203.22 365.381C1019.54 255.369 936.626 116.161 702.145 146.599C482.158 179.037 349.941 313.875 177.749 418.385C-106.037 584.925 -251.867 468.788 -428.214 382.893C-609.683 296.907 -632.476 334.025 -1010.87 332.554" stroke="#3DDEED" stroke-opacity="0.11" stroke-width="0.5" stroke-linecap="round" stroke-linejoin="round"/>
<path d="M1785.87 332.554C1680.21 335.512 1632.57 384.257 1482.9 410.298C1332.83 433.349 1269.42 405.932 1203.22 367.561C1015.41 252.459 938.264 115.046 702.145 142.585C362.098 188.393 220.68 514.516 -101.924 508.7C-219.183 502.633 -296.216 450.562 -416.559 389.636C-605.127 296.326 -624.363 334.228 -1010.87 332.554" stroke="#3DDEED" stroke-opacity="0.11" stroke-width="0.5" stroke-linecap="round" stroke-linejoin="round"/>
<path d="M1785.87 332.554C1674.98 335.955 1627.33 390.004 1471.24 415.325C1330.6 435.193 1268.23 410.501 1191.57 362.444C1005.49 240.486 930.966 110.728 690.479 139.989C358.348 187.007 214.38 536.9 -113.585 513.785C-230.642 501.54 -307.605 445.471 -428.22 384.849C-605.127 298.485 -624.309 334.425 -1010.87 332.554" stroke="#3DDEED" stroke-opacity="0.11" stroke-width="0.5" stroke-linecap="round" stroke-linejoin="round"/>
<path d="M1785.87 332.554C1675.61 336.243 1626.79 391.928 1471.24 418.508C1333.47 439.042 1270.46 414.957 1191.57 364.395C1004.86 239.318 932.337 109.241 690.479 135.661C473.479 163.866 335.608 334.59 166.088 446.068C-94.0242 609.761 -260.877 471.16 -428.22 385.75C-603.5 298.927 -623.995 334.622 -1010.87 332.554" stroke="#3DDEED" stroke-opacity="0.11" stroke-width="0.5" stroke-linecap="round" stroke-linejoin="round"/>
<path d="M1785.87 332.554C1676.12 336.595 1625.64 393.725 1471.24 421.168C1334.09 442.491 1270.47 417.458 1191.57 365.722C1005.43 238.167 932.705 105.776 690.479 129.855C359.361 170.172 236.613 551.757 -101.93 526.009C-224.224 512.463 -304.469 450.072 -428.22 386.027C-601.137 299.279 -620.031 334.873 -1010.87 332.554" stroke="#3DDEED" stroke-opacity="0.11" stroke-width="0.5" stroke-linecap="round" stroke-linejoin="round"/>
<path d="M1785.87 332.554C1677.46 336.925 1624.08 395.569 1471.24 423.833C1335.74 445.759 1271.75 420.821 1191.57 367.055C1005.94 236.994 933.164 102.311 690.479 124.055C359.692 161.563 241.275 564.993 -101.93 531.548C-218.927 516.083 -296.617 457.039 -416.564 392.414C-598.113 297.173 -617.663 335.15 -1010.87 332.554" stroke="#3DDEED" stroke-opacity="0.11" stroke-width="0.5" stroke-linecap="round" stroke-linejoin="round"/>
<path d="M1785.87 332.554C1677.6 337.304 1623.58 397.254 1471.24 426.499C1335.82 449.283 1271.09 422.895 1191.57 368.382C1005.62 235.235 933.687 98.8461 690.479 118.256C479.592 140.405 333.677 346.393 166.088 467.871C-80.9338 637.988 -276.234 467.375 -428.22 386.576C-599.75 298.33 -617.69 335.406 -1010.87 332.554" stroke="#3DDEED" stroke-opacity="0.11" stroke-width="0.5" stroke-linecap="round" stroke-linejoin="round"/>
<path d="M1785.87 332.554C1684.1 337.362 1627.34 394.546 1482.9 426.84C1340.25 455.226 1273.52 424.537 1203.22 377.866C1020.01 249.537 944.26 100.093 702.145 111.635C488.1 126.646 350.715 331.083 177.749 466.426C-66.0723 648.639 -255.569 479.839 -428.214 386.848C-597.398 298.746 -613.614 335.118 -1010.87 332.554" stroke="#3DDEED" stroke-opacity="0.11" stroke-width="0.5" stroke-linecap="round" stroke-linejoin="round"/>
<path d="M1785.87 332.554C1681.93 337.831 1608.4 406.94 1459.6 433.855C1328.18 454.192 1264.48 425.417 1179.91 362.257C997.688 220.815 921.013 85.9774 678.84 107.578C472.444 132.782 321.872 369.001 154.438 490.879C-80.7684 651.656 -280.16 465.035 -439.87 380.91C-598.977 300.425 -614.036 335.347 -1010.87 332.554" stroke="#3DDEED" stroke-opacity="0.11" stroke-width="0.5" stroke-linecap="round" stroke-linejoin="round"/>
<path d="M1785.87 332.554C1682.71 338.215 1616.83 403.001 1471.24 433.823C1339.01 458.457 1272.18 430.625 1191.57 371.703C1005.06 229.419 933.287 86.2387 690.479 99.8536C483.582 117.728 336.365 355.738 166.088 489.642C-66.5098 662.408 -270.489 473.49 -428.22 386.768C-596 297.802 -614.201 335.635 -1010.87 332.554" stroke="#3DDEED" stroke-opacity="0.11" stroke-width="0.5" stroke-linecap="round" stroke-linejoin="round"/>
<path d="M1785.87 332.554C1683.51 338.572 1615.73 404.44 1471.24 435.902C1335.34 461.959 1268.69 430.001 1191.57 372.45C1009.94 230.959 927.19 73.3861 678.84 94.1496C481.742 118.25 333.495 362.374 166.093 496.892C-65.7897 672.59 -270.393 470.76 -439.864 380.281C-598.779 298.986 -614.644 335.923 -1010.87 332.554" stroke="#3DDEED" stroke-opacity="0.11" stroke-width="0.5" stroke-linecap="round" stroke-linejoin="round"/>
<path d="M1785.87 332.554C1682.84 339.036 1616 405.629 1471.24 437.976C1338.03 464.241 1271.09 433.759 1191.57 373.191C1010.54 229.254 925.99 67.3889 678.84 87.4381C478.904 111.853 322.619 383.229 154.438 513.146C-66.9525 672.59 -272.697 469.811 -439.87 379.966C-598.203 298.501 -612.483 336.232 -1010.87 332.554" stroke="#3DDEED" stroke-opacity="0.11" stroke-width="0.5" stroke-linecap="round" stroke-linejoin="round"/>
<path d="M1785.87 332.554C1685.6 339.26 1612.59 407.622 1471.24 440.05C1334.82 467.663 1267.9 433.242 1191.57 373.926C1012.25 228.459 925.003 61.4344 678.84 80.716C481.134 104.859 322.459 388.277 154.438 520.555C-63.9279 680.448 -273.017 469.923 -439.87 379.641C-598.422 297.632 -613.785 336.509 -1010.87 332.554" stroke="#3DDEED" stroke-opacity="0.11" stroke-width="0.5" stroke-linecap="round" stroke-linejoin="round"/>
<path d="M1785.87 332.554C1681.96 339.932 1615.74 408.065 1471.24 442.043C1335.01 470.361 1267.93 435.124 1191.57 374.598C1014.88 228.443 924.138 55.256 678.839 74.0738C478.061 98.8247 312.873 410.197 142.788 536.553C-74.8474 684.936 -285.937 454.96 -463.176 367.487C-606.333 300.809 -623.269 336.749 -1010.87 332.549" stroke="#3DDEED" stroke-opacity="0.11" stroke-width="0.5" stroke-linecap="round" stroke-linejoin="round"/>
<path d="M1785.87 332.554C1682.19 340.342 1614.94 408.987 1471.24 443.557C1334.93 472.552 1268.06 436.675 1191.57 374.865C1016.11 226.903 922.512 47.9529 678.84 67.8261C485.236 93.254 323.979 398.043 154.438 534.751C-56.5559 692.149 -264.899 473.655 -439.87 378.777C-598.411 296.699 -617.113 337.229 -1010.87 332.554" stroke="#3DDEED" stroke-opacity="0.11" stroke-width="0.5" stroke-linecap="round" stroke-linejoin="round"/>
<path d="M1785.87 332.554C1683.59 340.657 1612.51 410.346 1471.24 445.077C1330.44 475.723 1264.01 434.783 1191.57 375.131C1017.54 225.597 921.045 40.6496 678.84 61.5784C487.209 88.2911 325.713 402.595 154.438 541.607C-57.0306 700.038 -267.171 467.306 -451.525 372.247C-601.655 298.858 -620.165 337.65 -1010.87 332.554" stroke="#3DDEED" stroke-opacity="0.11" stroke-width="0.5" stroke-linecap="round" stroke-linejoin="round"/>
<path d="M1785.87 332.554C1682.03 341.206 1602.91 417.25 1459.6 449.181C1217.3 495.837 1154.62 308.256 946.863 139.083C888.783 94.1283 840.032 66.7813 760.396 56.5088C726.688 53.1557 700.572 52.1216 667.184 57.0472C474.844 97.6573 302.343 448.169 131.138 565.19C-75.3807 691.504 -287.297 446.596 -474.82 360.738C-614.713 300.921 -683.211 337.762 -894.333 335.694C-951.933 334.697 -948.338 333.434 -1010.87 332.554" stroke="#3DDEED" stroke-opacity="0.11" stroke-width="0.5" stroke-linecap="round" stroke-linejoin="round"/>
<path d="M1785.87 332.554C1683.72 341.499 1610.95 412.308 1471.24 448.104C1338.98 478.218 1271.99 444.352 1191.57 375.664C1019.08 221.897 918.345 26.1019 678.84 49.083C491.791 78.1679 327.505 413.001 154.438 555.318C-46.826 707.347 -249.93 479.375 -439.87 377.21C-596.976 296.795 -611.704 338.578 -1010.87 332.554" stroke="#3DDEED" stroke-opacity="0.11" stroke-width="0.5" stroke-linecap="round" stroke-linejoin="round"/>
<path d="M1785.87 332.554C1685.97 341.696 1607.54 413.865 1471.24 449.533C1227.4 506.264 1165.54 323.321 958.502 140.517C882.376 76.0462 799.027 30.8996 678.839 43.1924C573.396 60.6082 480.563 175.711 399.155 277.481C204.33 523.306 122.24 693.22 -136.891 568.41C-329.892 469.945 -426.017 324.52 -649.626 326.717C-728.185 328.625 -780.035 336.675 -882.688 336.189C-942.017 335.448 -945.201 333.625 -1010.87 332.559" stroke="#3DDEED" stroke-opacity="0.11" stroke-width="0.5" stroke-linecap="round" stroke-linejoin="round"/>
<path d="M1785.87 332.554C1683.77 342.272 1608.59 413.875 1471.24 450.519C1337.53 482.275 1271.21 446.111 1191.57 375.717C1023.2 220.399 915.342 11.5541 678.839 38.9598C496.405 72.192 330.348 423.956 154.438 567.578C-47.8984 718.52 -256.983 462.22 -463.181 364.901C-604.69 302.206 -615.524 339.617 -1010.88 332.549" stroke="#3DDEED" stroke-opacity="0.11" stroke-width="0.5" stroke-linecap="round" stroke-linejoin="round"/>
<path d="M1785.87 332.554C1683.88 342.624 1607.3 414.51 1471.24 451.505C1338.57 483.672 1272.26 448.067 1191.57 375.573C1025.29 219.674 913.95 4.27752 678.839 34.7324C493.968 71.5203 322.213 449.741 142.788 581.78C-50.4322 709.133 -266.152 455.925 -463.176 364.635C-604.012 303.474 -612.414 340.316 -1010.87 332.549" stroke="#3DDEED" stroke-opacity="0.11" stroke-width="0.5" stroke-linecap="round" stroke-linejoin="round"/>
<path d="M1785.87 332.554C1683.5 343.018 1606.58 415 1471.24 452.492C1338.14 485.41 1272.21 449.053 1191.57 375.435C1029.1 220.66 913.262 -3.05228 678.839 30.5105C497.328 69.7132 322.325 457.012 142.788 587.292C-50.7256 712.566 -267.673 447.614 -474.826 359.416C-615.359 303.837 -681.51 341.158 -894.338 336.792C-951.57 335.187 -951.885 333.791 -1010.87 332.554" stroke="#3DDEED" stroke-opacity="0.11" stroke-width="0.5" stroke-linecap="round" stroke-linejoin="round"/>
<path d="M1785.87 332.554C1683.09 343.439 1594.19 422.437 1459.6 456.415C1217.64 509.734 1159.95 305.473 946.863 114.519C890.362 66.4241 841.099 35.1376 760.396 24.9877C726.144 21.8479 700.529 21.2348 667.184 29.0018C489.108 85.5563 310.238 486.385 131.138 600.203C-55.2009 702.976 -269.998 444.687 -474.82 359.251C-615.583 304.759 -681.195 342.005 -894.333 337.042C-952.317 335.273 -952.141 333.881 -1010.87 332.554" stroke="#3DDEED" stroke-opacity="0.11" stroke-width="0.5" stroke-linecap="round" stroke-linejoin="round"/>
<path d="M1785.87 332.554C1683.75 343.701 1603.85 416.285 1471.24 454.357C1340.44 488.011 1274.57 453.206 1191.57 375.062C1035.52 221.758 911.8 -17.4028 678.839 22.7541C502.225 67.1544 325.947 469.23 142.788 597.847C-44.8152 714.32 -257.553 447.614 -474.826 359.155C-615.124 306.198 -684.086 342.832 -894.338 337.32C-951.666 335.406 -952.84 333.967 -1010.87 332.559" stroke="#3DDEED" stroke-opacity="0.11" stroke-width="0.5" stroke-linecap="round" stroke-linejoin="round"/>
<path d="M1785.87 332.554C1683.27 343.994 1602.86 416.381 1471.24 454.827C1339.83 489.274 1274.06 453.227 1191.57 374.513C1040.9 224.552 948.943 45.9698 772.051 19.8382C612.043 2.54505 569.736 73.3594 340.889 385.307C165.677 621.068 102.37 654.828 -32.0074 612.448C-185.092 558.793 -301.386 431.728 -463.176 363.899C-601.521 309.722 -609.091 343.21 -1010.87 332.554" stroke="#3DDEED" stroke-opacity="0.11" stroke-width="0.5" stroke-linecap="round" stroke-linejoin="round"/>
<path d="M1785.87 332.554C1682.74 344.292 1601.84 416.493 1471.24 455.296C1227.15 520.465 1169.06 316.37 958.502 115.014C903.868 65.0594 853.309 28.586 772.057 17.5832C738.413 14.3794 711.416 14.2355 678.845 21.2988C507.021 73.1249 331.708 481.678 142.793 604.308C-35.64 705.518 -239.523 454.027 -463.17 363.904C-600.22 312.403 -603.394 344.319 -1010.87 332.554" stroke="#3DDEED" stroke-opacity="0.11" stroke-width="0.5" stroke-linecap="round" stroke-linejoin="round"/>
<path d="M1785.87 332.554C1687.69 343.962 1606.53 411.29 1482.9 452.241C1236.75 526.558 1185.02 338.951 970.168 123.123C893.642 49.5681 812.976 -2.28469 690.484 17.7858C517.465 59.1315 350.213 463.34 154.443 600.283C-22.9871 710.753 -222.069 463.095 -451.52 368.414C-593.226 313.635 -596.806 345.422 -1010.87 332.559" stroke="#3DDEED" stroke-opacity="0.11" stroke-width="0.5" stroke-linecap="round" stroke-linejoin="round"/>
<path d="M1785.87 332.554C1681.82 344.884 1599.21 416.973 1471.24 456.229C1234.68 521.675 1182.88 335.011 970.163 120.079C893.935 46.4336 812.859 -5.65907 690.479 16.7943C522.538 60.6721 363.805 448.776 166.088 595.976C-15.4445 718.174 -206.552 465.147 -451.525 368.228C-592.016 316.183 -594.795 346.457 -1010.88 332.559" stroke="#3DDEED" stroke-opacity="0.11" stroke-width="0.5" stroke-linecap="round" stroke-linejoin="round"/>
<path d="M1785.87 332.554C1682.96 344.964 1595.49 417.841 1471.24 456.575C1340.06 493.48 1275.57 456.511 1191.57 372.215C1022.51 195.44 919.033 -30.0582 690.479 16.7943C524.485 64.0838 366.429 456.111 166.088 599.19C-13.3694 714.522 -199.516 463.031 -451.525 368.02C-589.354 319.467 -591.231 347.619 -1010.88 332.554" stroke="#3DDEED" stroke-opacity="0.11" stroke-width="0.5" stroke-linecap="round" stroke-linejoin="round"/>
<path d="M1785.87 332.554C1682.95 345.023 1592.21 418.289 1471.24 456.511C1340.94 493.725 1276.49 457.236 1191.57 371.218C1021.74 192.039 919.103 -32.8835 690.479 20.2113C526.491 71.6909 369.512 464.305 166.088 600.256C-10.5902 705.854 -193.776 458.441 -451.525 367.759C-518.023 345.934 -566.902 339.1 -637.976 338.983C-878.522 341.451 -593.909 348.802 -1010.88 332.549" stroke="#3DDEED" stroke-opacity="0.11" stroke-width="0.5" stroke-linecap="round" stroke-linejoin="round"/>
<path d="M1785.87 332.554C1680.6 345.369 1592.88 417.5 1471.24 456.453C1225.76 527.571 1169.27 303.89 958.502 102.434C904.343 53.2517 854.099 18.2923 772.057 14.3155C728.411 14.0809 704.167 18.9373 678.845 27.6212C516.335 98.9367 348.762 514.937 142.793 613.327C-22.7417 679.158 -205.8 442.283 -463.17 363.952C-530.079 345.097 -578.626 340.369 -649.616 340.993C-942.065 346.052 -866.482 338.647 -1010.86 332.554" stroke="#3DDEED" stroke-opacity="0.11" stroke-width="0.5" stroke-linecap="round" stroke-linejoin="round"/>
<path d="M1785.87 332.554C1682.47 345.204 1601.62 410.597 1482.9 452.604C1350.42 495.591 1286.13 462.572 1203.22 381.24C1028.34 200.851 925.968 -40.5012 690.484 27.0454C526.059 88.2111 367.352 500.213 154.443 608.306C-15.1348 681.834 -188.234 441.041 -463.176 363.974C-529.967 346.67 -579.384 342.357 -649.621 342.885C-940.432 347.315 -834.999 340.518 -1010.87 332.554" stroke="#3DDEED" stroke-opacity="0.11" stroke-width="0.5" stroke-linecap="round" stroke-linejoin="round"/>
<path d="M1785.87 332.554C1679.42 345.641 1589.07 417.591 1471.24 456.325C1339.61 495.575 1275.48 455.562 1191.57 368.238C1039.81 203.916 948.836 17.1515 772.051 17.0182C728.097 18.916 704.007 25.041 678.839 35.1323C521.231 113.874 365.64 511.125 154.438 608.844C-13.6147 674.322 -179.731 436.675 -463.181 363.99C-530.105 348.178 -580.648 344.346 -649.626 344.767C-924.371 348.392 -851.888 340.236 -1010.87 332.549" stroke="#3DDEED" stroke-opacity="0.11" stroke-width="0.5" stroke-linecap="round" stroke-linejoin="round"/>
<path d="M1785.87 332.554C1677.34 345.913 1588.75 417.036 1471.24 456.127C1340.62 495.581 1276.66 456.383 1191.57 367.124C1022.94 183.169 920.308 -43.7423 690.479 35.0363C529.654 104.299 383.702 499.024 166.088 603.647C-2.80211 673.47 -154.788 446.116 -439.87 369.491C-604.749 328.348 -627.654 362.401 -975.916 334.644C-987.983 333.812 -989.071 333.684 -1010.88 332.554" stroke="#3DDEED" stroke-opacity="0.11" stroke-width="0.5" stroke-linecap="round" stroke-linejoin="round"/>
<path d="M1785.87 332.554C1675.92 345.94 1587.86 416.413 1471.24 455.53C1340.4 495.431 1276.71 455.402 1191.57 365.653C1020.26 177.966 921.018 -43.3692 690.479 43.0805C533.175 115.862 393.896 492.574 177.744 596.365C3.04972 669.269 -133.584 445.663 -428.22 371.058C-603.586 329.809 -643.534 365.285 -964.261 335.768C-981.635 334.302 -985.326 333.977 -1010.87 332.554" stroke="#3DDEED" stroke-opacity="0.11" stroke-width="0.5" stroke-linecap="round" stroke-linejoin="round"/>
<path d="M1785.87 332.554C1642.49 349.842 1533.53 461.351 1389.67 470.622C1149.13 474.113 1047.18 29.8761 795.362 28.3301C700.129 32.84 657.267 64.2491 608.917 115.878C474.113 269.176 359.212 509.11 189.41 589.84C54.7501 645.819 -13.748 553.953 -230.103 441.473C-469.827 320.458 -619.103 360.018 -824.411 348.53C-910.549 343.066 -938.587 336.866 -1010.86 332.559" stroke="#3DDEED" stroke-opacity="0.11" stroke-width="0.5" stroke-linecap="round" stroke-linejoin="round"/>
<path d="M1785.87 332.554C1676.47 345.62 1595.94 408.497 1482.9 450.365C1351.01 495.383 1287.56 460.77 1203.22 375.104C1026.07 186.495 929.478 -45.8214 690.484 59.1582C532.668 142.271 392.216 530.711 166.093 596.381C-5.85851 635.568 -125.166 418.865 -439.864 365.962C-502.81 356.324 -562.213 353.184 -626.315 352.534C-938.267 351.526 -827.569 344.207 -1010.87 332.549" stroke="#3DDEED" stroke-opacity="0.11" stroke-width="0.5" stroke-linecap="round" stroke-linejoin="round"/>
<path d="M1785.87 332.554C1671.16 346.099 1585.7 414.35 1471.24 453.75C1339.82 494.925 1276.9 452.518 1191.57 361.234C1040.46 193.585 950.218 11.0743 772.052 40.6283C728.598 49.712 704.215 59.5207 678.84 73.6953C526.678 173.712 389.666 543.211 166.093 593.955C-6.24258 622.598 -114.764 413.06 -428.214 366.351C-612.435 341.568 -641.731 370.712 -964.255 336.355C-981.736 334.644 -985.278 334.281 -1010.87 332.549" stroke="#3DDEED" stroke-opacity="0.11" stroke-width="0.5" stroke-linecap="round" stroke-linejoin="round"/>
<path d="M1785.87 332.554C1669.26 346.137 1585.95 413.273 1471.24 453.014C1340.24 494.371 1277.54 451.927 1191.57 359.629C1016.74 165.097 924.448 -41.5834 690.479 76.2967C534.13 168.589 404.33 539.165 177.744 588.635C-1.75651 617.411 -99.9881 405.948 -416.564 365.775C-482.886 358.291 -559.279 356.782 -626.321 356.292C-894.232 355.663 -871.694 342.523 -1010.87 332.549" stroke="#3DDEED" stroke-opacity="0.11" stroke-width="0.5" stroke-linecap="round" stroke-linejoin="round"/>
<path d="M1785.87 332.554C1629.73 350.284 1520.55 466.826 1378.03 468.042C1147.04 456.644 1041.65 1.63881 783.718 52.8305C686.974 76.6432 650.968 110.83 597.272 175.94C460.458 348.104 352.768 558.644 177.749 583.336C41.0089 594.899 -42.1425 479.418 -230.108 403.869C-377.143 348.109 -488.956 359.832 -719.538 357.737C-854.79 355.594 -908.165 340.358 -1010.87 332.549" stroke="#3DDEED" stroke-opacity="0.11" stroke-width="0.5" stroke-linecap="round" stroke-linejoin="round"/>
<path d="M1785.87 332.554C1671.07 345.268 1593.37 405.149 1482.9 446.745C1353.28 491.844 1290.44 457.956 1203.22 368.206C1017.88 168.925 934.578 -38.8753 690.484 100.083C581.952 170.833 501.937 348.2 364.2 484.604C162.226 673.981 44.5509 533.189 -136.885 434.554C-330.591 332.89 -428.785 364.443 -731.193 358.904C-856.107 355.663 -915.27 340.241 -1010.87 332.554" stroke="#3DDEED" stroke-opacity="0.11" stroke-width="0.5" stroke-linecap="round" stroke-linejoin="round"/>
<path d="M1785.87 332.554C1669.52 345.113 1593.27 403.992 1482.9 445.636C1353.2 490.836 1290.78 456.484 1203.22 366.25C1009.22 157.506 941.822 -24.7381 702.145 104.96C540.936 202.002 426.04 550.744 201.054 572.435C7.4025 580.324 -78.2667 365.472 -393.253 356.377C-481.926 354.986 -432.167 359.517 -684.582 360.738C-843.374 360.53 -899.433 342 -1010.87 332.549" stroke="#3DDEED" stroke-opacity="0.11" stroke-width="0.5" stroke-linecap="round" stroke-linejoin="round"/>
<path d="M1785.87 332.554C1667.86 344.948 1593.47 402.739 1482.9 444.522C1352.14 490.186 1290.05 453.92 1203.22 364.288C1006.01 151.978 942.392 -21.8541 702.145 116.47C587.873 189.001 513.518 362.529 375.85 491.129C179.435 663.501 54.0085 509.169 -125.235 413.252C-313.798 316.684 -395.424 364.613 -707.893 362.049C-845.743 359.949 -906.111 341.915 -1010.87 332.554" stroke="#3DDEED" stroke-opacity="0.11" stroke-width="0.5" stroke-linecap="round" stroke-linejoin="round"/>
<path d="M1785.87 332.554C1659.81 345.406 1586.75 407.025 1471.24 447.342C1340.41 488.928 1277.29 441.857 1191.57 349.628C999.267 136.22 929.046 -22.5258 690.479 136.412C533.73 252.832 419.324 590.202 189.399 563.111C-1.82047 530.721 -85.4094 329.819 -393.259 347.549C-519.325 356.249 -479.419 361.564 -672.932 363.275C-837.965 363.782 -893.506 343.557 -1010.87 332.554" stroke="#3DDEED" stroke-opacity="0.11" stroke-width="0.5" stroke-linecap="round" stroke-linejoin="round"/>
<path d="M1785.87 332.554C1658.59 345.028 1586.39 405.815 1471.24 445.759C1340 487.206 1276.48 438.205 1191.57 347.139C1044.44 184.576 955.765 24.5187 783.712 97.0816C750.026 112.775 719.876 130.026 690.479 150.459C532.241 271.975 421.106 601.951 189.399 555.36C78.2531 527.432 -3.18076 443.653 -125.235 382.418C-221.909 336.664 -293.101 330.534 -404.909 343.114C-772.428 387.594 -842.745 349.01 -1010.87 332.549" stroke="#3DDEED" stroke-opacity="0.11" stroke-width="0.5" stroke-linecap="round" stroke-linejoin="round"/>
<path d="M1785.87 332.554C1657.12 344.681 1586.6 404.397 1471.24 444.176C1339.81 485.399 1276.33 435.268 1191.57 344.655C1044.39 182.742 956.118 26.6136 783.712 107.519C750.922 124.311 719.786 143.3 690.479 164.511C530.647 291.309 422.648 614.004 189.399 547.615C71.9747 508.524 -17.7646 410.879 -148.541 355.988C-246.858 317.985 -318.077 323.156 -428.214 341.75C-723.405 392.461 -883.062 345.609 -1010.87 332.554" stroke="#3DDEED" stroke-opacity="0.11" stroke-width="0.5" stroke-linecap="round" stroke-linejoin="round"/>
<path d="M1785.87 332.554C1655.48 344.335 1587.01 402.926 1471.24 442.592C1340.05 483.448 1276.65 432.832 1191.57 342.165C1044.29 180.855 956.486 28.682 783.712 117.946C751.322 136.034 719.343 156.835 690.479 178.558C529.654 310.196 424.077 626.228 189.399 539.864C73.6549 491.865 -19.0397 391.502 -148.541 340.241C-258.514 300.633 -335.125 317.894 -451.52 342.4C-700.521 394.029 -903.935 343.935 -1010.87 332.559" stroke="#3DDEED" stroke-opacity="0.11" stroke-width="0.5" stroke-linecap="round" stroke-linejoin="round"/>
<path d="M1785.87 332.554C1618.62 347.006 1522.8 450.994 1389.67 455.909C1154.51 450.663 1054.31 -11.1605 795.362 121.806C575.22 245.976 548.789 411.876 387.505 521.915C179.163 649.556 44.6255 363.91 -195.147 311.631C-342.15 285.2 -437.421 354.805 -603.004 362.908C-834.509 371.799 -862.514 348.962 -1010.86 332.554" stroke="#3DDEED" stroke-opacity="0.11" stroke-width="0.5" stroke-linecap="round" stroke-linejoin="round"/>
<path d="M1785.87 332.554C1659.44 342.96 1594.76 394.407 1482.9 435.332C1352.73 479.247 1290.83 438.765 1203.22 349.298C1118.32 259.479 1070.57 190.712 993.468 135.9C884.931 66.2908 819.5 109.625 713.785 188.212C534.983 325.757 438.528 633.174 212.705 535.327C117.05 488.89 29.5027 397.083 -90.2743 333.108C-344.327 206.107 -395.494 420.166 -871.033 352.982C-935.861 343.423 -953.576 339.105 -1010.87 332.549" stroke="#3DDEED" stroke-opacity="0.11" stroke-width="0.5" stroke-linecap="round" stroke-linejoin="round"/>
<path d="M1785.87 332.554C1657.7 342.538 1596.66 392.344 1482.9 433.333C1353.02 476.448 1291.12 435.454 1203.22 346.126C1114.96 253.343 1062.44 178.851 981.808 130.175C878.77 75.4012 813.627 122.222 702.145 210.793C529.937 353.509 433.3 651.485 201.054 520.054C109.576 464.038 17.0843 366.788 -101.924 309.317C-352.216 198.079 -394.752 425.081 -894.338 349.607C-961.871 339.127 -963.61 338.103 -1010.87 332.559" stroke="#3DDEED" stroke-opacity="0.11" stroke-width="0.5" stroke-linecap="round" stroke-linejoin="round"/>
<path d="M1785.87 332.554C1656.84 342.016 1596.6 390.985 1482.9 431.328C1353.07 473.724 1291.24 431.952 1203.22 342.944C1113.18 248.876 1061.91 177.246 981.808 131.913C884.163 83.8399 822.295 122.275 690.484 234.313C524.997 383.175 429.049 657.792 201.054 510.427C111.55 448.552 11.5153 339.559 -113.58 286.384C-359.594 192.188 -395.472 424.345 -894.338 349.708C-960.868 339.452 -961.69 338.46 -1010.87 332.554" stroke="#3DDEED" stroke-opacity="0.11" stroke-width="0.5" stroke-linecap="round" stroke-linejoin="round"/>
<path d="M1785.87 332.554C1655.65 341.531 1597.38 389.311 1482.9 429.329C1352.39 471.219 1291.07 428.157 1203.22 339.766C1116.84 250.092 1069.29 185.466 993.468 139.819C886.254 83.1788 821.901 133.72 690.484 248.173C577.524 351.67 502.06 506.546 375.85 548.713C200.644 593.188 100.673 346.019 -125.235 264.421C-308.043 206.72 -409.267 342.821 -614.665 358.414C-828.534 372.737 -861.788 350.881 -1010.87 332.554" stroke="#3DDEED" stroke-opacity="0.11" stroke-width="0.5" stroke-linecap="round" stroke-linejoin="round"/>
<path d="M1785.87 332.554C1654.56 341.009 1597.82 387.781 1482.9 427.33C1352.26 468.575 1290.73 424.217 1203.22 336.595C1117.38 248.034 1069.01 183.867 993.468 141.13C891.748 91.2336 827.848 133.88 678.839 272.902C572.1 377.775 497.174 521.158 375.85 553.143C203.178 584.445 113.316 338.562 -113.58 250.891C-301.29 187.135 -407.112 339.084 -614.665 356.91C-825.899 372.945 -860.62 351.478 -1010.87 332.564" stroke="#3DDEED" stroke-opacity="0.11" stroke-width="0.5" stroke-linecap="round" stroke-linejoin="round"/>
<path d="M1785.87 332.554C1653.86 340.433 1597.28 386.56 1482.9 425.15C1352.61 465.403 1291.26 420.789 1203.22 333.13C1114.74 242.501 1061.23 172.934 981.808 136.94C892.949 103.606 830.473 135.698 667.179 297.547C560.786 408.481 485.124 544.102 364.2 557.498C194.712 561.917 100.353 301.219 -125.23 229.456C-306.736 180.733 -411.331 335.134 -614.66 354.741C-823.984 372.775 -858.812 351.953 -1010.87 332.549" stroke="#3DDEED" stroke-opacity="0.11" stroke-width="0.5" stroke-linecap="round" stroke-linejoin="round"/>
<path d="M1785.87 332.554C1653.06 339.82 1597.61 384.972 1482.9 422.65C1352.38 461.81 1291.1 416.05 1203.22 329.153C1113.72 238.236 1060.87 171.062 981.808 138.102C880.018 103.729 819.084 163.77 678.845 297.307C570.707 404.706 496.112 541.175 375.855 556.784C201.284 564.487 118.57 296.176 -113.575 215.521C-298.638 160.609 -407.965 325.507 -603.004 350.146C-814.681 373.132 -860.545 351.761 -1010.86 332.554" stroke="#3DDEED" stroke-opacity="0.11" stroke-width="0.5" stroke-linecap="round" stroke-linejoin="round"/>
<path d="M1785.87 332.554C1652.44 339.191 1597.35 383.58 1482.9 420.144C1352.87 457.998 1291.73 412.09 1203.22 325.171C1118.54 239.856 1068.26 178.062 993.469 143.699C883.411 101.815 821.629 171.782 678.84 308.624C570.041 416.919 495.6 549.608 375.85 557.365C200.319 553.404 119.909 274.384 -113.58 197.882C-298.846 146.871 -407.17 319.44 -603.009 346.67C-809.683 371.629 -851.488 352.944 -1010.87 332.554" stroke="#3DDEED" stroke-opacity="0.11" stroke-width="0.5" stroke-linecap="round" stroke-linejoin="round"/>
<path d="M1785.87 332.554C1652.77 338.487 1594.27 383.069 1482.9 417.639C1352.97 454.299 1291.95 407.708 1203.22 321.189C1118.4 236.45 1068.03 176.063 993.468 144.43C881.224 105.792 819.986 183.819 678.839 319.931C569.368 429.121 495.019 557.983 375.85 557.93C199.46 542.215 121.221 252.517 -113.58 180.231C-301.172 132.569 -405.714 316.961 -614.665 344.735C-814.633 369.054 -842.75 354.053 -1010.87 332.549" stroke="#3DDEED" stroke-opacity="0.11" stroke-width="0.5" stroke-linecap="round" stroke-linejoin="round"/>
<path d="M1785.87 332.554C1605.93 339.681 1519.09 432.549 1389.67 427.432C1225.02 410.693 1135.24 188.819 981.808 141.578C872.097 116.859 810.992 192.626 562.306 457.364C411.84 612.048 326.278 582.643 189.404 420.363C103.34 316.103 -31.3299 123.208 -218.453 161.494C-366.56 198.996 -441.881 318.347 -626.31 342.965C-811.075 366.602 -838.083 354.687 -1010.86 332.559" stroke="#3DDEED" stroke-opacity="0.11" stroke-width="0.5" stroke-linecap="round" stroke-linejoin="round"/>
<path d="M1785.87 332.554C1650.66 337.176 1596.27 379.412 1482.9 412.404C1353.09 446.542 1292.2 398.405 1203.22 312.862C1125 236.077 1069.14 172.342 993.469 145.448C875.98 113.33 814.411 210.622 690.484 329.505C574.084 442.731 503.399 562.935 387.505 558.98C206.016 536.164 136.104 226.044 -101.924 148.598C-290.295 97.8652 -400.033 294.033 -591.354 333.561C-797.414 370.184 -873.609 349.927 -1010.87 332.549" stroke="#3DDEED" stroke-opacity="0.11" stroke-width="0.5" stroke-linecap="round" stroke-linejoin="round"/>
<path d="M1785.87 332.554C1650.24 336.392 1596 377.796 1482.9 409.302C1355.21 441.292 1294.86 395.308 1203.22 307.915C1127.87 234.638 1069.95 169.815 993.469 144.989C874.593 116.198 812.155 219.466 690.484 336.259C573.785 449.213 502.705 565.798 387.505 555.995C204.042 523.493 137.475 206.059 -101.924 132.137C-288.519 85.1618 -402.876 286.794 -591.354 328.332C-797.888 367.796 -873.876 349.362 -1010.87 332.559" stroke="#3DDEED" stroke-opacity="0.11" stroke-width="0.5" stroke-linecap="round" stroke-linejoin="round"/>
<path d="M1785.87 332.554C1649.77 335.587 1595.95 376.096 1482.9 406.194C1354.62 436.697 1294.26 389.076 1203.22 302.957C1129.12 231.604 1070.31 167.096 993.469 144.515C873.409 119.183 811.376 227.617 690.484 342.992C576.17 453.099 508.568 559.3 399.161 554.571C213.185 529.282 147.551 202.061 -90.2688 119.055C-279.733 63.684 -393.627 269.736 -579.699 320.352C-782.366 367.844 -897.544 346.137 -1010.87 332.554" stroke="#3DDEED" stroke-opacity="0.11" stroke-width="0.5" stroke-linecap="round" stroke-linejoin="round"/>
<path d="M1785.87 332.554C1604.62 335.507 1517.65 421.968 1389.67 410.986C1226.38 386.912 1134.58 169.389 981.808 141.962C856.99 130.17 808.677 244.894 562.306 478.399C400.121 624.874 310.846 535.935 189.405 368.094C102.114 245.155 -26.1289 45.666 -218.453 105.195C-363.717 157.581 -444.591 289.161 -614.66 322.681C-798.95 356.841 -833.479 353.072 -1010.87 332.554" stroke="#3DDEED" stroke-opacity="0.11" stroke-width="0.5" stroke-linecap="round" stroke-linejoin="round"/>
<path d="M1785.87 332.554C1648.84 333.961 1595.35 372.865 1482.9 399.983C1355.75 427.053 1295.81 379.241 1203.22 293.058C1131.97 225.623 1070.92 161.574 993.469 143.587C873.75 125.831 810.229 240.443 702.145 345.385C570.601 470.707 500.918 573.959 387.505 547.002C197.603 483.943 132.962 129.381 -113.58 80.3908C-297.63 55.0694 -405.885 269.746 -603.009 315.298C-797.366 356.153 -845.668 351.142 -1010.87 332.554" stroke="#3DDEED" stroke-opacity="0.11" stroke-width="0.5" stroke-linecap="round" stroke-linejoin="round"/>
<path d="M1785.87 332.554C1648.4 333.076 1595.38 371.042 1482.9 396.62C1355.54 421.999 1295.58 372.956 1203.22 287.716C1136.9 225.671 1072.9 158.754 993.469 142.548C873.185 128.139 809.307 246.317 702.145 350.087C571.049 474.012 500.433 574.215 387.505 542.46C196.36 470.616 133.223 110.222 -113.58 65.1607C-300.191 42.654 -404.125 265.508 -614.665 312.441C-793.536 350.257 -829.606 351.734 -1010.87 332.554" stroke="#3DDEED" stroke-opacity="0.11" stroke-width="0.5" stroke-linecap="round" stroke-linejoin="round"/>
<path d="M1785.87 332.554C1601.13 331.85 1518.21 413.006 1389.67 396.971C1231.99 367.689 1142.02 167.278 993.474 140.624C911.806 132.841 857.145 186.554 807.029 239.43C568.323 499.12 493.477 559.87 399.166 539.219C186.7 472.626 96.79 -18.517 -195.142 57.9694C-345.986 106.069 -434.274 260.609 -602.999 303.8C-794.325 348.776 -842.227 348.76 -1010.87 332.554" stroke="#3DDEED" stroke-opacity="0.11" stroke-width="0.5" stroke-linecap="round" stroke-linejoin="round"/>
<path d="M1785.87 332.554C1648.22 330.997 1594.04 367.316 1482.9 389.114C1345.8 412.18 1289.11 354.074 1168.25 243.908C1117.52 198.282 1057.59 143.252 981.808 137.884C864.319 139.643 804.906 258.658 690.484 363.99C574.324 470.217 505.623 559.47 399.161 532.71C206.426 466.059 147.557 108.282 -90.2688 42.0676C-281.152 0.60993 -398.353 236.861 -591.354 294.636C-799.142 350.353 -874.697 344.436 -1010.87 332.554" stroke="#3DDEED" stroke-opacity="0.11" stroke-width="0.5" stroke-linecap="round" stroke-linejoin="round"/>
<path d="M1785.87 332.554C1641.9 329.851 1582.55 370.141 1471.24 387.141C1343.08 402.707 1289.24 346.862 1168.25 238.359C920.623 19.1345 882.648 192.258 667.179 386.422C562.823 481.95 487.967 569.231 375.85 516.28C185.847 408.795 127.985 58.0654 -113.58 24.0175C-299.348 9.67235 -403.65 239.974 -614.665 294.742C-787.177 337.645 -829.553 346.691 -1010.87 332.554" stroke="#3DDEED" stroke-opacity="0.11" stroke-width="0.5" stroke-linecap="round" stroke-linejoin="round"/>
<path d="M1785.87 332.554C1640.16 328.726 1584.35 367.689 1471.24 383.207C1339.62 397.147 1281.76 333.156 1168.25 232.809C920.052 16.5384 881.219 198.042 667.179 387.483C560.295 483.325 481.678 572.248 364.2 502.052C176.533 372.695 115.706 24.7159 -125.23 9.57104C-240.121 9.72031 -317.858 96.1167 -439.864 194.859C-542.358 275.722 -573.372 278.137 -684.577 306.977C-818.223 340.897 -878.234 341.782 -1010.87 332.554" stroke="#3DDEED" stroke-opacity="0.11" stroke-width="0.5" stroke-linecap="round" stroke-linejoin="round"/>
<path d="M1785.87 332.549C1641.51 327.591 1581.68 365.701 1471.24 379.044C1248.39 399.05 1157.49 132.521 981.803 132.446C863.055 142.516 803.892 266.638 690.479 366.223C565.144 474.732 491.498 561.731 375.845 500.762C179.893 379.284 121.931 10.1361 -125.241 -2.43396C-240.419 -0.829387 -318.706 87.4914 -439.875 187.007C-542.129 268.909 -573.041 271.633 -684.587 301.907C-818.532 337.725 -878.65 340.326 -1010.87 332.559" stroke="#3DDEED" stroke-opacity="0.11" stroke-width="0.5" stroke-linecap="round" stroke-linejoin="round"/>
<path d="M1785.87 332.538C1647 326.631 1592.61 358.957 1482.9 373.361C1344.68 387.669 1290.67 325.853 1168.25 220.735C1115.87 176.559 1057.37 128.251 981.808 129.546C863.157 141.61 803.289 266.26 690.484 362.785C567.235 466.533 491.754 553.457 375.85 491.161C180.603 368.318 120.613 -2.12474 -125.235 -12.3546C-240.275 -9.71047 -318.653 79.2714 -439.87 179.698C-528.489 251.296 -563.237 262.576 -637.976 283.516C-794.682 327.746 -843.961 340.102 -1010.87 332.57" stroke="#3DDEED" stroke-opacity="0.11" stroke-width="0.5" stroke-linecap="round" stroke-linejoin="round"/>
<path d="M1785.87 332.522C1646.14 325.389 1593.07 356.537 1482.9 369.075C1351.64 380.377 1298.08 325.789 1179.92 224.349C1128 180.423 1068.87 129.813 993.474 126.23C871.761 130.474 807.824 257.683 702.151 349.618C489.898 526.451 414.486 609.255 201.06 277.572C123.131 154.031 44.2202 -6.54931 -113.574 -21.902C-299.188 -27.9418 -401.692 207.061 -614.66 271.047C-782.152 319.547 -830.743 338.253 -1010.87 332.581" stroke="#3DDEED" stroke-opacity="0.11" stroke-width="0.5" stroke-linecap="round" stroke-linejoin="round"/>
<path d="M1785.87 332.511C1645.85 324.195 1592.67 354.224 1482.9 364.805C1351.38 373.857 1298.79 318.662 1179.92 217.968C1127.47 174.25 1068.78 125.33 993.474 123.133C871.739 129.498 807.653 256.92 702.151 346.451C487.385 520.539 412.411 595.933 201.06 267.188C120.314 139.094 42.956 -18.0905 -113.574 -31.9239C-298.964 -36.2685 -401.404 199.135 -614.66 265.114C-782.061 315.207 -832.418 335.779 -1010.87 332.591" stroke="#3DDEED" stroke-opacity="0.11" stroke-width="0.5" stroke-linecap="round" stroke-linejoin="round"/>
<path d="M1785.87 332.501C1645.7 322.98 1591.7 351.942 1482.9 360.525C1256.41 372.167 1168.88 121.95 993.469 120.02C868.379 128.757 806.357 261.142 690.484 352.459C567.059 447.529 491.391 527.987 375.85 462.364C176.869 331.573 119.199 -38.6141 -125.235 -42.1218C-239.715 -36.3165 -318.157 54.3338 -439.87 157.778C-530.457 232.911 -562.815 243.162 -649.626 269.96C-797.062 316.402 -851.701 333.274 -1010.87 332.597" stroke="#3DDEED" stroke-opacity="0.11" stroke-width="0.5" stroke-linecap="round" stroke-linejoin="round"/>
<path d="M1785.87 332.479C1645.04 321.695 1591.5 349.511 1482.9 356.153C1346.44 360.791 1296.45 299.306 1168.25 195.728C920.186 0.279437 872.742 211.886 667.179 364.811C563.149 442.981 487.727 516.157 375.85 452.566C178.443 322.921 124.512 -32.4944 -113.58 -49.8674C-298.596 -51.3334 -400.289 183.974 -614.665 253.658C-778.914 305.532 -834.951 330.832 -1010.87 332.596" stroke="#3DDEED" stroke-opacity="0.11" stroke-width="0.5" stroke-linecap="round" stroke-linejoin="round"/>
<path d="M1785.87 332.453C1643.88 320.373 1591.61 346.942 1482.9 351.681C1258.21 355.364 1169.87 109.955 993.469 113.138C868.587 125.223 806.325 255.742 690.484 340.619C566.019 429.58 496.603 500.282 387.505 449.027C182.486 334.777 122.918 -54.0841 -125.23 -55.2462C-239.587 -48.3588 -317.772 42.1636 -439.864 146.21C-530.367 221.492 -562.634 232.042 -649.621 259.858C-796.79 307.718 -852.544 328.609 -1010.87 332.575" stroke="#3DDEED" stroke-opacity="0.11" stroke-width="0.5" stroke-linecap="round" stroke-linejoin="round"/>
<path d="M1785.87 332.426C1642.58 318.998 1591.51 344.399 1482.9 347.203C1260.47 346.974 1169.48 104.097 993.469 109.572C871.611 122.829 808.426 246.584 702.145 325.565C497.409 469.486 417.004 554.246 212.71 251.75C104.055 87.6301 43.9641 -40.6238 -101.924 -59.7347C-288.482 -72.1182 -399.196 168.189 -603.009 239.835C-790.303 302.142 -850.506 326.13 -1010.87 332.554" stroke="#3DDEED" stroke-opacity="0.11" stroke-width="0.5" stroke-linecap="round" stroke-linejoin="round"/>
<path d="M1785.87 332.399C1641.1 317.553 1592.44 341.829 1482.9 342.725C1261.61 338.578 1170.19 98.2223 993.469 106C872.033 120.649 807.781 243.668 702.145 319.051C497.638 456.735 417.122 543.27 212.71 244.612C101.137 78.2371 42.5719 -46.6317 -101.924 -65.0976C-288.076 -76.8253 -398.961 162.336 -603.009 234.814C-793.69 298.948 -853.333 323.854 -1010.87 332.538" stroke="#3DDEED" stroke-opacity="0.11" stroke-width="0.5" stroke-linecap="round" stroke-linejoin="round"/>
<path d="M1785.87 332.373C1634.44 315.533 1579.51 341.744 1471.24 337.826C1255.29 323.476 1153.82 68.05 970.163 106.416C886.414 130.218 833.444 196.384 760.391 265.871C717.481 305.143 708.861 307.995 655.518 342.133C544.265 415.133 469.419 477.781 352.544 397.361C157.569 247.453 91.0235 -100.681 -148.536 -68.7332C-262.872 -46.3011 -341.009 51.226 -463.17 149.659C-549.805 217.169 -582.851 222.761 -661.271 249.297C-798.635 296.4 -862.066 322.084 -1010.87 332.517" stroke="#3DDEED" stroke-opacity="0.11" stroke-width="0.5" stroke-linecap="round" stroke-linejoin="round"/>
<path d="M1785.87 332.346C1633.45 314.104 1578.93 338.978 1471.24 333.285C1342.94 322.634 1300.6 262.897 1168.25 164.548C925.483 -9.70489 872.636 203.794 667.179 326.461C562.216 390.671 487.791 459.539 375.85 403.161C170.383 282.924 113.13 -75.1192 -125.229 -73.8611C-239 -65.9609 -317.425 23.4794 -439.864 126.833C-527.64 199.193 -562.18 212.238 -637.97 237.367C-784.83 286.48 -852.127 319.28 -1010.87 332.49" stroke="#3DDEED" stroke-opacity="0.11" stroke-width="0.5" stroke-linecap="round" stroke-linejoin="round"/>
<path d="M1785.87 332.319C1589.49 307.169 1504.01 357.486 1378.03 306.588C1233.46 240.438 1131.85 75.2359 981.808 97.8225C900.945 115.937 843.318 177.854 783.718 233.662C725.067 287.455 736.546 275.818 585.606 367.513C522.768 404.333 470.465 427.25 399.156 404.824C169.62 314.312 97.8302 -150.753 -183.497 -62.7253C-331.311 -7.96731 -428.646 155.662 -591.354 218.363C-788.831 288.82 -874.703 319.206 -1010.87 332.458" stroke="#3DDEED" stroke-opacity="0.11" stroke-width="0.5" stroke-linecap="round" stroke-linejoin="round"/>
<path d="M1785.87 332.293C1627.68 310.687 1580.16 333.695 1471.24 324.51C1335.83 309.035 1290.18 237.469 1156.61 145.438C925.926 -5.71739 860.863 205.553 678.845 302.291C563.64 364.097 491.376 437.667 375.856 386.241C169.209 278.063 108.766 -73.7012 -125.229 -73.8398C-238.6 -66.6805 -317.559 21.3151 -439.864 122.409C-529.982 195.169 -562.468 206.219 -649.62 234.713C-789.289 281.315 -863.799 316.023 -1010.87 332.421" stroke="#3DDEED" stroke-opacity="0.11" stroke-width="0.5" stroke-linecap="round" stroke-linejoin="round"/>
<path d="M1785.87 332.271C1634.8 310.378 1588.38 329.121 1482.9 321.29C1353.53 308.331 1316.38 255.289 1179.92 156.104C928.827 -20.2602 866.314 198.004 690.484 287.882C508.637 378.633 422.813 499.072 212.71 224.706C90.6769 61.1413 37.835 -54.5852 -101.924 -72.9978C-285.921 -85.4293 -398.641 144.419 -603.009 216.23C-819.268 288.271 -873.929 315.207 -1010.87 332.383" stroke="#3DDEED" stroke-opacity="0.11" stroke-width="0.5" stroke-linecap="round" stroke-linejoin="round"/>
<path d="M1785.87 332.245C1626.27 307.931 1577.54 328.06 1471.24 315.73C1341.89 296.907 1303.85 235.768 1168.25 142.367C929.798 -15.0786 866.789 197.386 678.84 285.088C495.851 372.034 414.977 486.156 201.049 206.891C93.2319 62.9004 30.4523 -63.6103 -113.574 -73.7388C-295.038 -74.9062 -399.585 145.858 -614.66 216.934C-801.969 277.119 -865.709 312.1 -1010.87 332.351" stroke="#3DDEED" stroke-opacity="0.11" stroke-width="0.5" stroke-linecap="round" stroke-linejoin="round"/>
<path d="M1785.87 332.229C1625.95 306.54 1576.83 325.48 1471.24 311.753C1335.38 290.11 1290.81 216.731 1156.61 130.111C929.836 -8.1912 863.349 196.736 678.845 276.879C563.351 328.252 492.352 403.358 375.855 362.438C167.374 273.856 102.183 -68.408 -125.23 -71.1747C-238.147 -65.4334 -317.367 19.7955 -439.864 117.44C-529.871 187.524 -562.751 198.521 -649.621 225.9C-801.281 274.683 -872.414 311.145 -1010.87 332.325" stroke="#3DDEED" stroke-opacity="0.11" stroke-width="0.5" stroke-linecap="round" stroke-linejoin="round"/>
<path d="M1785.87 332.223C1624.1 304.972 1576.96 323.204 1471.24 308.176C1340.95 285.835 1301.71 221.806 1168.25 133.672C933.132 -14.5668 862.34 193.932 690.484 264.368C515.001 334.926 424.174 474.513 212.71 224.482C83.8649 67.197 36.08 -44.3128 -101.924 -64.6818C-284.86 -80.0665 -397.793 141.69 -603.009 210.281C-851.381 288.692 -882.037 311.012 -1010.87 332.303" stroke="#3DDEED" stroke-opacity="0.11" stroke-width="0.5" stroke-linecap="round" stroke-linejoin="round"/>
<path d="M1785.87 332.218C1628.9 304.546 1573.19 320.346 1471.24 304.599C1267.1 267.14 1162.04 37.4085 970.163 86.7184C886.814 113.276 840.646 166.878 760.391 221.977C720.778 247.41 712.958 248.071 667.179 265.716C558.401 310.932 483.513 388.271 364.2 347.88C153.574 261.766 91.4983 -67.8643 -136.885 -60.2359C-249.658 -49.5263 -328.873 36.5556 -451.52 128.427C-539.323 192.343 -568.171 198.82 -661.276 226.913C-809.715 272.588 -880.592 309.114 -1010.87 332.287" stroke="#3DDEED" stroke-opacity="0.11" stroke-width="0.5" stroke-linecap="round" stroke-linejoin="round"/>
<path d="M1785.87 332.207C1625.22 302.637 1574.69 318.273 1471.24 301.017C1267.3 261.137 1163.73 34.6898 970.163 85.2631C886.558 112.088 839.589 165.428 760.391 217.025C720.431 241.232 713.038 241.232 667.179 257.533C498.065 323.278 409.792 460.051 189.399 202.589C86.1694 78.7489 19.0902 -49.9367 -125.235 -55.3528C-237.731 -52.5862 -317.287 28.6447 -439.87 120.82C-529.15 186.362 -562.517 197.167 -649.626 222.137C-808.418 268.467 -879.002 307.169 -1010.87 332.266" stroke="#3DDEED" stroke-opacity="0.11" stroke-width="0.5" stroke-linecap="round" stroke-linejoin="round"/>
<path d="M1785.87 332.202C1627.11 301.747 1572.4 315.559 1471.24 297.445C1339.97 270.194 1301.42 204.012 1168.25 121.822C937.634 -13.1968 872.47 186.197 678.84 245.561C513.812 299.327 418.114 455.045 201.049 219.173C78.0985 80.8386 25.2727 -34.4667 -113.585 -49.5422C-293.128 -57.805 -399.777 149.094 -614.67 211.198C-825.504 269.634 -874.729 304.621 -1010.87 332.245" stroke="#3DDEED" stroke-opacity="0.11" stroke-width="0.5" stroke-linecap="round" stroke-linejoin="round"/>
<path d="M1785.87 332.213C1623.57 299.983 1573.78 313.875 1471.24 294.519C1270.51 250.913 1166.82 30.5211 970.163 83.5147C891.263 109.198 848.37 153.993 772.052 201.587C725.179 228.891 716.377 227.916 667.179 242.565C504.412 297.333 409.483 449.794 189.399 211.95C78.6853 88.3284 16.6257 -34.5041 -125.235 -42.5269C-237.342 -41.9672 -316.647 36.0172 -439.87 124.668C-529.679 187.732 -563.781 197.972 -649.626 220.714C-817.444 265.839 -879.093 304.034 -1010.87 332.245" stroke="#3DDEED" stroke-opacity="0.11" stroke-width="0.5" stroke-linecap="round" stroke-linejoin="round"/>
<path d="M1785.87 332.239C1619.79 298.271 1575.59 312.659 1471.24 292.184C1277.28 248.679 1173.29 39.6154 981.803 81.0838C897.878 104.006 850.946 152.671 772.052 199.401C724.784 225.389 716.356 223.683 667.179 237.021C506.989 287.146 408.736 447.054 189.399 220.01C72.3001 94.3522 14.6894 -23.2561 -125.235 -32.9155C-301.903 -34.2642 -399.633 158.45 -626.321 215.713C-834.124 267.443 -868.611 300.372 -1010.87 332.266" stroke="#3DDEED" stroke-opacity="0.11" stroke-width="0.5" stroke-linecap="round" stroke-linejoin="round"/>
<path d="M1785.87 332.266C1579.57 288.863 1499.46 318.379 1378.03 256.195C1246.62 182.732 1134.17 39.5941 970.163 85.0179C890.911 111.102 846.204 155.619 772.052 197.226C688.468 240.438 695.083 209.364 585.606 265.546C513.881 303.261 461.444 335.011 387.5 335.784C139.353 323.348 72.1828 -85.0294 -195.152 -14.5988C-340.251 30.9849 -433.949 165.732 -603.009 211.193C-881.557 280.749 -868.163 298.869 -1010.87 332.282" stroke="#3DDEED" stroke-opacity="0.11" stroke-width="0.5" stroke-linecap="round" stroke-linejoin="round"/>
<path d="M1785.87 332.287C1619.29 296.267 1562.15 309.221 1459.6 284.731C1271.71 234.249 1163.54 21.7146 958.502 89.6237C876.215 120.948 837.12 163.519 760.391 200.686C718.831 218.715 712.083 216.134 667.179 225.927C505.202 269 403.583 447.353 177.749 224.648C65.1041 109.22 4.69287 -9.38 -136.885 -14.0711C-248.837 -11.1018 -328.121 65.15 -451.52 144.691C-533.258 195.797 -566.56 204.934 -649.621 223.128C-824.16 261.979 -874.063 298.901 -1010.87 332.298" stroke="#3DDEED" stroke-opacity="0.11" stroke-width="0.5" stroke-linecap="round" stroke-linejoin="round"/>
<path d="M1785.87 332.314C1618.74 295.196 1561.92 307.488 1459.6 282.316C1275.88 231.663 1170.15 29.6629 970.163 86.5159C889.679 113.314 846.412 155.774 772.052 192.855C732.556 210.697 722.592 211.235 678.84 218.149C519.327 248.722 413.153 434.964 201.049 254.671C69.3662 136.386 31.6098 29.7695 -101.93 -0.877326C-281.824 -31.007 -396.816 164.33 -603.015 214.151C-881.829 276.021 -858.721 293.66 -1010.87 332.314" stroke="#3DDEED" stroke-opacity="0.11" stroke-width="0.5" stroke-linecap="round" stroke-linejoin="round"/>
<path d="M1785.87 332.351C1614.79 293.655 1563.84 306.822 1459.6 280.765C1275.72 229.365 1167.13 22.7221 958.502 92.6196C870.272 126.246 828.105 172.326 748.751 201.661C704.06 215.5 701.58 209.306 655.518 219.498C496.032 264.416 390.834 444.613 166.093 232.335C62.0208 129.882 6.65588 22.7381 -125.235 7.00692C-300.612 -3.37749 -401.292 177.673 -626.321 221.327C-840.163 261.441 -854.256 291.293 -1010.87 332.351" stroke="#3DDEED" stroke-opacity="0.11" stroke-width="0.5" stroke-linecap="round" stroke-linejoin="round"/>
<path d="M1785.87 332.399C1623.18 294.881 1574.56 306.038 1471.24 282.86C1338.05 249.372 1302.07 181.362 1168.25 113.058C944.985 6.87896 870.79 194.902 690.484 212.195C523.909 230.106 418.188 428.487 212.71 283.095C76.3969 179.352 43.6761 68.4498 -90.2688 26.0379C-269.998 -19.7964 -392.933 170.625 -591.354 217.547C-739.792 248.716 -675.972 220.639 -929.294 307.76C-963.999 319.44 -977.581 323.465 -1010.87 332.394" stroke="#3DDEED" stroke-opacity="0.11" stroke-width="0.5" stroke-linecap="round" stroke-linejoin="round"/>
<path d="M1785.87 332.442C1580.58 284.411 1499.46 310.436 1378.03 246.808C1255.13 176.937 1145.83 51.2633 981.808 92.0439C901.078 115.894 858.014 154.969 783.718 189.571C692.271 227.947 692.666 192.279 597.272 236.722C449.965 310.49 361.863 400.042 201.055 284.651C59.4657 175.567 -3.05791 8.57417 -183.497 33.0372C-327.14 59.8299 -428.081 185.141 -591.354 221.076C-658.316 234.046 -702.159 234.424 -801.11 263.85C-888.076 290.739 -918.279 307.03 -1010.87 332.442" stroke="#3DDEED" stroke-opacity="0.11" stroke-width="0.5" stroke-linecap="round" stroke-linejoin="round"/>
<path d="M1785.87 332.49C1633.65 296.384 1583.21 304.418 1482.9 283.873C1345.7 252.634 1312.71 188.686 1179.92 120.633C948.687 9.88556 876.455 201.528 690.484 209.727C520.661 219.791 412.416 437.512 201.054 295.078C69.238 199.044 40.038 96.0687 -90.2743 51.4818C-204.103 19.5183 -296.345 81.8621 -404.909 145.954C-627.291 275.125 -571.873 183.201 -929.3 307.222C-966.037 319.749 -977.405 323.097 -1010.87 332.485" stroke="#3DDEED" stroke-opacity="0.11" stroke-width="0.5" stroke-linecap="round" stroke-linejoin="round"/>
<path d="M1785.87 332.533C1589.63 285.323 1507.86 307.483 1389.67 251.153C1274.83 191.08 1165.56 66.3335 1005.11 93.2114C920.554 111.347 871.83 152.271 795.363 187.337C699.174 227.51 697.563 190.147 608.917 226.204C476.599 286.65 375.882 406.29 212.716 312.857C60.0258 216.625 8.95499 45.1489 -171.836 54.6324C-315.265 69.6013 -418.687 190.92 -579.693 225.959C-648.991 238.934 -692.119 235.517 -789.45 260.972C-877.194 285.243 -905.503 302.158 -1010.87 332.533" stroke="#3DDEED" stroke-opacity="0.11" stroke-width="0.5" stroke-linecap="round" stroke-linejoin="round"/>
<path d="M1785.87 332.554C1575.09 281.97 1493.08 310.186 1366.36 238.881C1228.84 155.934 1133.61 57.0792 970.168 107.194C886.019 136.284 845.484 173.893 772.057 199.396C684.441 225.069 683.966 188.372 585.612 237.069C452.36 307.931 351.835 414.142 189.405 308.667C50.1467 210.478 -10.2006 43.4803 -195.147 69.2761C-338.283 96.0154 -434.808 209.69 -603.004 234.019C-673.844 242.794 -718.423 241.776 -812.761 268.222C-895.032 292.466 -911.979 303.949 -1010.87 332.559" stroke="#3DDEED" stroke-opacity="0.11" stroke-width="0.5" stroke-linecap="round" stroke-linejoin="round"/>
<path d="M1785.87 332.554C1623.68 294.225 1561.1 303.672 1459.6 278.388C1284.97 230.011 1181.76 47.761 970.163 113.282C887.417 142.031 843.558 180.168 772.051 203.682C730.934 214.935 720.212 212.211 678.839 212.067C520.138 219.296 405.343 441.009 201.049 327.164C69.5847 246.184 40.9981 139.797 -90.2796 90.4234C-202.039 55.1441 -291.464 108.985 -404.914 168.973C-632.93 287.317 -620.229 202.829 -882.694 291.134C-956.403 316.444 -961.295 318.401 -1010.88 332.554" stroke="#3DDEED" stroke-opacity="0.11" stroke-width="0.5" stroke-linecap="round" stroke-linejoin="round"/>
<path d="M1785.87 332.554C1628.58 295.963 1570.65 303.8 1471.24 282.071C1338.67 249.692 1300.88 181.575 1168.25 126.481C948.207 42.8779 875.495 222.622 690.484 214.738C518.164 211.049 409.296 446.942 201.054 338.103C69.51 261.51 41.4302 154.526 -90.2743 103.633C-200.828 67.5809 -291.096 119.172 -393.253 171.249C-636.925 294.503 -620.463 207.067 -871.033 287.711C-935.434 308.933 -946.737 314.403 -1010.87 332.554" stroke="#3DDEED" stroke-opacity="0.11" stroke-width="0.5" stroke-linecap="round" stroke-linejoin="round"/>
<path d="M1785.87 332.554C1622.58 295.164 1573.2 304.679 1471.24 282.855C1287.41 238.817 1193.55 63.0231 981.802 121.779C894.954 149.222 845.74 190.755 772.051 212.259C731.158 221.849 720.997 218.571 678.839 216.907C517.284 218.965 398.27 457.258 189.399 342.645C61.914 265.141 31.743 157.922 -101.93 112.925C-210.569 82.7897 -294.04 131.476 -404.909 185.317C-637.336 296.582 -629.094 210.148 -882.688 291.971C-950.402 314.275 -953.576 316.482 -1010.87 332.549" stroke="#3DDEED" stroke-opacity="0.11" stroke-width="0.5" stroke-linecap="round" stroke-linejoin="round"/>
<path d="M1785.87 332.554C1623.48 295.963 1571.26 304.61 1471.24 283.638C1287.65 240.55 1195.53 67.5595 981.802 127.83C893.226 156.088 846.615 196.176 772.051 216.545C731.068 225.367 720.965 221.742 678.839 219.328C519.434 218.72 402.473 451.324 201.049 359.976C70.1501 292.541 41.5102 183.627 -90.2796 130.058C-199.809 92.0439 -289.33 139.216 -393.259 188.062C-641.694 303.714 -627.91 214.205 -871.038 288.708C-934.186 308.651 -945.692 314.44 -1010.88 332.549" stroke="#3DDEED" stroke-opacity="0.11" stroke-width="0.5" stroke-linecap="round" stroke-linejoin="round"/>
<path d="M1785.87 332.554C1611.87 294.599 1561.5 305.745 1459.6 282.679C1334.32 250.961 1299.3 188.02 1168.25 139.84C948.751 66.8772 876.62 242.469 690.484 224.536C520.319 212.307 406.245 457.103 201.055 369.726C73.847 307.664 46.658 206.352 -78.6186 147.17C-253.745 74.8841 -375.586 224.754 -568.048 253.546C-666.371 265.247 -713.499 244.59 -859.377 286.123C-926.899 306.172 -938.475 312.814 -1010.87 332.554" stroke="#3DDEED" stroke-opacity="0.11" stroke-width="0.5" stroke-linecap="round" stroke-linejoin="round"/>
<path d="M1785.87 332.554C1609.87 295.324 1562.37 307.211 1459.6 285.078C1333.53 254.586 1300.26 192.999 1168.25 146.551C948.522 76.8938 876.663 250.614 690.484 230.33C518.884 215.932 406.378 461.346 201.055 378.665C73.6443 319.451 46.722 218.512 -78.6186 158.898C-253.521 86.0094 -375.538 232.98 -568.048 258.93C-668.35 269.426 -713.649 247.49 -859.377 287.354C-924.536 306.012 -939.451 313.571 -1010.87 332.543" stroke="#3DDEED" stroke-opacity="0.11" stroke-width="0.5" stroke-linecap="round" stroke-linejoin="round"/>
<path d="M1785.87 332.554C1611.85 296.885 1560.73 308.16 1459.6 287.477C1290.54 248.492 1195.15 90.7432 981.808 152.314C843.873 196.768 818.999 251.739 690.484 236.136C520.149 219.77 405.183 465.062 201.055 387.621C73.703 331.386 46.706 230.666 -78.6186 170.636C-253.328 97.1615 -375.271 241.195 -568.048 264.33C-669.299 273.457 -714.31 250.534 -859.377 288.601C-924.36 306.518 -939.157 314.008 -1010.87 332.554" stroke="#3DDEED" stroke-opacity="0.11" stroke-width="0.5" stroke-linecap="round" stroke-linejoin="round"/>
<path d="M1785.87 332.554C1614.4 298.554 1573.49 309.498 1471.24 292.13C1293.1 257.661 1203.68 103.388 993.469 157.416C906.685 182.625 856.921 220.442 783.718 240.502C744.681 249.063 729.868 247.213 690.484 241.941C514.964 222.99 399.774 479.748 189.405 391.694C60.746 329.878 33.1194 222.686 -101.924 173.147C-207.949 140.256 -287.5 179.091 -404.903 225.714C-643.956 318.923 -641.929 229.552 -882.683 296.161C-941.003 312.841 -952.034 317.756 -1010.87 332.559" stroke="#3DDEED" stroke-opacity="0.11" stroke-width="0.5" stroke-linecap="round" stroke-linejoin="round"/>
<path d="M1785.87 332.554C1548.59 287.066 1484.04 321.066 1354.7 255.508C1215.5 180.791 1128.06 121.912 970.168 173.056C881.405 204.247 832.591 241.061 760.396 251.654C681.08 258.253 670.193 223.374 573.951 271.234C439.824 343.855 335.341 467.69 177.754 395.575C35.4079 321.61 -10.7447 158.034 -206.797 173.205C-349.661 189.955 -442.537 278.627 -614.654 276.127C-687.158 273.835 -729.166 267.092 -812.761 281.08C-889.004 295.382 -922.552 310.943 -1010.87 332.554" stroke="#3DDEED" stroke-opacity="0.11" stroke-width="0.5" stroke-linecap="round" stroke-linejoin="round"/>
<path d="M1785.87 332.554C1547.61 289.033 1483.38 323.305 1354.7 260.375C1215.4 188.121 1128.5 131.705 970.168 182.662C880.578 213.869 832.532 249.516 760.396 259.314C681.651 265.018 669.825 230.384 573.951 276.948C440.662 347.608 335.128 471.72 177.754 402.467C34.3624 330.528 -10.0246 168.749 -206.797 182.796C-349.528 198.569 -442.852 285.243 -614.654 280.706C-686.721 277.583 -729.252 270.221 -812.761 283.143C-888.135 296.342 -923.565 311.966 -1010.87 332.549" stroke="#3DDEED" stroke-opacity="0.11" stroke-width="0.5" stroke-linecap="round" stroke-linejoin="round"/>
<path d="M1785.87 332.554C1600.78 300.345 1551.61 315.25 1447.94 296.971C1290.06 264.698 1191.93 122.382 970.168 192.945C885.662 221.988 840.443 253.413 772.057 266.068C731.18 271.234 721.039 266.569 678.845 260.828C515.118 247.501 392.466 486.833 189.404 412.793C60.4364 357.897 33.402 253.184 -101.924 203.564C-211.86 169.271 -294.355 209.887 -416.559 252.181C-644.676 328.796 -651.6 241.173 -894.338 302.739C-951.074 317.59 -956.835 320.357 -1010.87 332.559" stroke="#3DDEED" stroke-opacity="0.11" stroke-width="0.5" stroke-linecap="round" stroke-linejoin="round"/>
<path d="M1785.87 332.554C1600.69 301.939 1551.52 317.302 1447.94 300.766C1290.07 271.25 1193.34 132.995 970.168 203.218C885.854 231.786 840.278 262.454 772.057 274.4C731.079 279.182 720.666 274.421 678.845 268.424C514.953 253.786 392.04 489.12 189.405 417.964C60.1112 364.784 33.5729 261.569 -101.924 212.419C-212.217 178.334 -295.779 218.757 -416.559 259.021C-648.895 334.089 -648.41 242.49 -905.989 306.891C-962.186 321.279 -965.312 322.713 -1010.87 332.549" stroke="#3DDEED" stroke-opacity="0.11" stroke-width="0.5" stroke-linecap="round" stroke-linejoin="round"/>
<path d="M1785.87 332.554C1601.25 303.629 1566.5 318.95 1459.6 306.23C1291.77 282.295 1203.05 146.967 981.808 209.876C837.536 254.724 814.993 299.604 690.484 277.785C518.975 251.973 403.012 483.256 201.054 427.085C69.238 382.573 41.6916 279.907 -90.2743 225.474C-201.079 185.722 -285.969 223.048 -404.909 262.139C-648.661 340.289 -646.058 248.146 -894.338 305.228C-952.824 319.174 -957.011 321.461 -1010.87 332.549" stroke="#3DDEED" stroke-opacity="0.11" stroke-width="0.5" stroke-linecap="round" stroke-linejoin="round"/>
<path d="M1785.87 332.554C1545.05 296.907 1483.41 335.198 1354.7 282.62C1211.22 219.877 1128.77 175.034 970.168 223.779C877.511 254.319 832.137 285.206 760.396 292.21C681.832 295.089 669.446 261.553 573.951 302.387C437.125 366.836 327.942 490.17 166.099 418.742C29.7374 350.615 -18.4155 200.675 -218.453 219.232C-358.223 236.866 -448.687 309.877 -614.66 298.735C-689.959 292.392 -734.917 282.311 -824.416 293.575C-895.72 303.933 -929.134 316.545 -1010.87 332.559" stroke="#3DDEED" stroke-opacity="0.11" stroke-width="0.5" stroke-linecap="round" stroke-linejoin="round"/>
<path d="M1785.87 332.554C1545.01 299.082 1483.45 338.471 1354.7 288.889C1209.8 228.923 1128.35 187.103 970.168 234.648C879.757 263.706 831.385 294.284 760.396 300.596C681.645 302.883 669.59 269.906 573.951 308.88C436.741 370.632 327.745 490.404 166.099 421.029C28.868 354.32 -18.0527 208.016 -218.453 226.428C-358.169 243.828 -448.938 315.053 -614.66 302.765C-689.474 295.937 -734.543 285.483 -824.416 295.766C-896.84 305.447 -926.638 316.945 -1010.87 332.559" stroke="#3DDEED" stroke-opacity="0.11" stroke-width="0.5" stroke-linecap="round" stroke-linejoin="round"/>
<path d="M1785.87 332.554C1588.83 306.987 1561.82 326.786 1447.94 317.063C1291.31 299.7 1198.96 179.048 970.168 245.838C879.399 274.134 831.204 303.362 760.396 309.066C717.167 310.026 709.853 303.405 667.184 298.399C508.152 290.131 379.264 499.68 177.754 426.456C51.2348 373.473 23.747 278.254 -113.575 239.297C-217.834 214.807 -292.936 248.109 -416.554 283.852C-647.54 348.125 -650.602 260.066 -905.983 311.604C-962.495 323.364 -963.685 324.339 -1010.86 332.559" stroke="#3DDEED" stroke-opacity="0.11" stroke-width="0.5" stroke-linecap="round" stroke-linejoin="round"/>
<path d="M1785.87 332.554C1594.12 309.45 1560.9 328.838 1447.94 321.524C1292.42 307.632 1200.15 191.879 970.168 257.027C879.389 284.449 831.044 312.441 760.396 317.542C717.284 318.198 709.933 311.742 667.184 306.497C507.976 296.939 379.013 498.278 177.754 426.882C51.2988 375.238 23.4376 282.423 -113.575 245.081C-219.285 221.289 -297.209 255.7 -416.554 289.135C-646.287 351.041 -651.349 264.655 -905.983 312.867C-962.836 323.971 -963.381 324.803 -1010.86 332.554" stroke="#3DDEED" stroke-opacity="0.11" stroke-width="0.5" stroke-linecap="round" stroke-linejoin="round"/>
<path d="M1785.87 332.554C1542.89 305.532 1483.88 348.909 1354.7 308.848C1208.36 259.383 1129.85 224.344 970.168 268.222C880.013 294.583 830.601 321.546 760.396 326.018C681.667 326.674 669.776 296.166 573.951 328.593C440.742 378.873 333.703 481.305 177.754 427.309C29.6361 368.382 -7.59754 231.759 -206.797 244.372C-350.056 258.019 -444.132 329.457 -614.654 314.088C-689.186 306.14 -734.479 295.105 -824.411 302.499C-895.677 309.642 -927.545 319.888 -1010.86 332.559" stroke="#3DDEED" stroke-opacity="0.11" stroke-width="0.5" stroke-linecap="round" stroke-linejoin="round"/>
<path d="M1785.87 332.554C1540.2 307.499 1485.61 352.822 1354.7 315.501C1207.11 269.341 1130.18 236.807 970.168 279.411C877.783 305.505 830.644 330.592 760.396 334.489C681.8 334.59 669.755 304.924 573.951 335.161C440.763 382.21 333.559 480.329 177.754 427.73C32.0632 371.282 -8.38701 237.708 -206.797 250.705C-350.387 264.533 -444.18 334.148 -614.654 317.857C-689.266 309.514 -734.41 298.314 -824.411 304.738C-895.251 311.049 -927.539 320.794 -1010.86 332.554" stroke="#3DDEED" stroke-opacity="0.11" stroke-width="0.5" stroke-linecap="round" stroke-linejoin="round"/>
<path d="M1785.87 332.554C1549.58 310.479 1489.26 352.811 1366.36 325.224C1256.55 296.843 1159.31 245.427 981.808 287.583C886.329 311.956 833.999 339.063 760.396 342.533C681.912 342.144 669.926 313.614 573.951 341.216C440.966 384.273 333.533 476.667 177.754 425.123C31.6311 369.838 -8.70175 241.541 -206.797 255.417C-350.541 269.741 -444.292 337.48 -614.654 320.901C-688.903 312.478 -734.335 301.278 -824.411 306.902C-894.877 312.499 -927.283 321.647 -1010.86 332.559" stroke="#3DDEED" stroke-opacity="0.11" stroke-width="0.5" stroke-linecap="round" stroke-linejoin="round"/>
<path d="M1785.87 332.554C1539.82 311.583 1486.15 359.304 1354.7 328.95C1210.04 291.603 1133.75 261.883 970.168 301.673C878.647 325.203 830.052 347.677 760.396 350.369C682.184 349.495 670.032 322.276 573.951 347.027C440.784 385.883 333.479 471.672 177.754 421.061C31.1403 366.836 -9.06448 244.393 -206.797 259.346C-351.08 274.4 -444.388 340.209 -614.654 323.587C-689.708 315.074 -734.383 304.151 -824.411 309.018C-895.277 314.003 -925.565 322.308 -1010.86 332.554" stroke="#3DDEED" stroke-opacity="0.11" stroke-width="0.5" stroke-linecap="round" stroke-linejoin="round"/>
<path d="M1785.87 332.554C1619.92 319.589 1593.03 333.316 1471.24 342.395C1339.06 350.343 1326.81 316.924 1179.91 298.447C950.986 273.942 864.484 383.372 690.479 349.612C517.028 318.315 400.153 470.766 201.049 423.94C65.8934 386.48 38.587 308.603 -90.2796 271.649C-196.07 245.832 -275.109 274.134 -393.259 304.855C-636.685 366.351 -641.763 289.358 -882.688 316.258C-938.773 323.012 -948.919 325.752 -1010.87 332.554" stroke="#3DDEED" stroke-opacity="0.11" stroke-width="0.5" stroke-linecap="round" stroke-linejoin="round"/>
<path d="M1785.87 332.554C1547.4 315.884 1491.3 362.358 1366.36 344.484C1255.82 325.011 1160.19 282.295 970.168 323.913C877.106 345.364 829.555 364.533 760.396 366.042C682.781 364.219 670.374 339.601 573.951 358.648C440.747 388.954 333.437 461.725 177.754 412.926C29.412 360.605 -9.93397 250.07 -206.797 267.204C-351.235 283.569 -444.713 345.652 -614.654 328.966C-845.572 302.845 -783.923 310.015 -1010.86 332.559" stroke="#3DDEED" stroke-opacity="0.11" stroke-width="0.5" stroke-linecap="round" stroke-linejoin="round"/>
<path d="M1785.87 332.554C1614.36 321.956 1578.79 339.079 1459.6 351.318C1292.67 365.786 1222.26 282.812 970.163 335.033C877.367 355.183 829.172 372.956 760.391 373.873C718.815 372.647 710.669 367.822 667.179 361.127C505.181 342.624 377.621 470.302 177.749 408.859C48.2049 364.272 20.0984 294.908 -113.58 272.38C-224.187 257.907 -304.41 292.823 -428.214 320.09C-648.239 365.749 -622.72 290.382 -964.255 328.076C-981.517 329.878 -984.937 330.246 -1010.87 332.554" stroke="#3DDEED" stroke-opacity="0.11" stroke-width="0.5" stroke-linecap="round" stroke-linejoin="round"/>
<path d="M1785.87 332.554C1554.48 319.819 1499.88 364.357 1378.03 357.689C1280.58 348.941 1178.76 306.966 981.808 343.189C883.608 362.321 832.703 380.622 760.396 381.011C683.694 378.324 670.875 356.505 573.951 369.55C440.304 390.937 333.479 449.672 177.754 402.643C27.8597 352.369 -11.3849 254.404 -206.797 273.702C-351.107 291.384 -445.562 349.602 -614.654 333.444C-843.486 308.331 -781.064 314.205 -1010.86 332.559" stroke="#3DDEED" stroke-opacity="0.11" stroke-width="0.5" stroke-linecap="round" stroke-linejoin="round"/>
<path d="M1785.87 332.554C1616.94 324.275 1588.17 339.921 1459.6 358.12C1293.55 379.294 1232.14 307.707 970.163 355.588C871.254 374.417 820.183 390.265 748.751 387.381C707.559 384.076 697.909 378.953 655.518 373.516C494.138 358.648 366.312 457.146 166.093 391.689C40.9874 347.043 8.17068 286.725 -125.235 273.723C-236.552 266.564 -316.972 301.651 -439.87 325.986C-641.779 363.147 -628.444 299.551 -964.261 328.977C-981.699 330.422 -985.337 330.731 -1010.87 332.549" stroke="#3DDEED" stroke-opacity="0.11" stroke-width="0.5" stroke-linecap="round" stroke-linejoin="round"/>
<path d="M1785.87 332.554C1619.5 325.4 1589.93 340.443 1459.6 361.399C1337.41 379.433 1328.18 354.709 1168.25 349.607C974.969 345.78 872.502 399.813 748.751 394.167C708.792 390.868 697.216 385.894 655.518 380.259C549.695 369.283 474.609 399.376 352.544 407.729C102.722 420.358 59.7376 289.78 -125.235 274.869C-305.728 266.009 -405.117 359.341 -637.971 333.817C-822.213 312.18 -827.921 320.885 -1010.87 332.559" stroke="#3DDEED" stroke-opacity="0.11" stroke-width="0.5" stroke-linecap="round" stroke-linejoin="round"/>
<path d="M1785.87 332.554C1635.25 326.994 1606.41 337.106 1471.24 362.577C1303.06 392.851 1248.27 335.459 993.469 372.236C814.257 399.424 803.113 412.953 678.84 390.564C560.162 370.978 482.12 398.922 352.544 403.235C108.248 407.457 56.3131 292.791 -113.58 276.735C-292.098 265.354 -403.874 357.699 -626.315 336.547C-827.227 315.586 -800.236 320.959 -1010.87 332.549" stroke="#3DDEED" stroke-opacity="0.11" stroke-width="0.5" stroke-linecap="round" stroke-linejoin="round"/>
<path d="M1785.87 332.554C1626.72 327.634 1602.57 339.489 1459.6 367.95C1301.14 397.718 1252.65 344.671 970.163 385.985C711.374 424.862 756.331 403.885 632.212 391.038C517.626 381.794 434.234 405.042 305.928 396.939C67.7393 377.775 39.7447 270.637 -160.197 277.407C-277.04 284.203 -361.183 321.583 -486.481 337.336C-575.799 347.048 -616.788 338.354 -707.888 329.569C-820.394 319.547 -867.395 325.789 -1010.87 332.549" stroke="#3DDEED" stroke-opacity="0.11" stroke-width="0.5" stroke-linecap="round" stroke-linejoin="round"/>
<path d="M1785.87 332.554C1640.49 328.668 1609.26 337.192 1471.24 367.732C1302.98 403.864 1270.37 354.954 981.802 393.32C717.903 429.479 760.828 412.276 632.212 396.966C516.158 385.254 433.903 401.854 305.927 390.302C59.5723 364.416 34.5169 265.284 -171.852 278.979C-287.516 289.15 -374.748 325.469 -498.137 338.706C-585.454 346.563 -623.301 337.794 -719.543 329.825C-822.896 322.042 -873.289 327.004 -1010.87 332.559" stroke="#3DDEED" stroke-opacity="0.11" stroke-width="0.5" stroke-linecap="round" stroke-linejoin="round"/>
<path d="M1785.87 332.554C1632.84 329.009 1606.81 338.418 1459.6 372.13C1290.79 409.206 1326.35 357.017 911.896 410.986C744.766 431.862 730.033 415.842 632.212 402.707C514.03 388.405 433.103 398.352 305.927 383.373C55.0541 350.721 30.3721 264.629 -171.852 279.566C-284.769 290.158 -366.528 322.521 -486.487 337.128C-574.482 346.478 -614.814 339.313 -707.893 331.76C-812.403 323.875 -859.783 327.383 -1010.87 332.565" stroke="#3DDEED" stroke-opacity="0.11" stroke-width="0.5" stroke-linecap="round" stroke-linejoin="round"/>
<path d="M1785.87 332.554C1634.25 329.574 1604.1 338.882 1459.6 374.028C1337.52 402.697 1340.79 384.039 1144.95 394.994C1038.63 401.577 978.116 411.807 888.59 421.333C736.082 436.585 722.213 419.217 597.267 403.837C469.638 389.226 382.251 392.723 247.666 366.197C21.1225 319.056 -7.74695 252.005 -230.114 287.812C-350.061 308.587 -431.842 338.498 -556.398 341.307C-715.431 342.144 -609.555 322.036 -1010.87 332.559" stroke="#3DDEED" stroke-opacity="0.11" stroke-width="0.5" stroke-linecap="round" stroke-linejoin="round"/>
<path d="M1785.87 332.554C1645.27 330.288 1606.76 337.528 1471.24 372.929C1343.43 405.831 1358.36 389.29 1156.61 402.339C1036.71 410.645 968.941 421.946 876.929 429.814C735.485 440.833 717.23 425.619 573.945 405.373C439.488 386.949 345.609 382.434 201.054 347.379C-6.68011 295.468 -39.8809 248.892 -288.375 299.626C-632.359 371.453 -561.594 328.497 -847.727 329.798C-876.596 330.054 -866.381 329.931 -1010.87 332.554" stroke="#3DDEED" stroke-opacity="0.11" stroke-width="0.5" stroke-linecap="round" stroke-linejoin="round"/>
<path d="M1785.87 332.554C1638.47 330.699 1602.24 338.876 1459.6 377.823C1341.67 409.11 1352.88 393.522 1133.31 412.297C953.515 428.199 855.096 447.342 737.09 436.595C717.284 434.394 362.375 376.991 224.36 344.671C29.9509 298.234 -7.75212 272.748 -136.885 278.515C-254.465 285.893 -338.539 315.719 -463.17 333.268C-622.213 353.754 -575.399 327.042 -1010.87 332.549" stroke="#3DDEED" stroke-opacity="0.11" stroke-width="0.5" stroke-linecap="round" stroke-linejoin="round"/>
<path d="M1785.87 332.554C1536.98 330.134 1503.93 379.476 1366.36 399.114C1323.8 404.093 1308.29 403.278 1203.22 411.962C756.193 451.239 860.767 480.729 305.933 356.223C13.2651 289.102 -33.5223 254.985 -253.414 293.66C-668.76 369.496 -395.92 327.058 -1010.87 332.554" stroke="#3DDEED" stroke-opacity="0.11" stroke-width="0.5" stroke-linecap="round" stroke-linejoin="round"/>
<path d="M1785.87 332.554C1636.81 331.28 1599.56 338.466 1459.6 378.804C1360.89 406.812 1366.89 399.871 1203.22 416.312C951.786 442.64 834.746 467.322 667.179 437.901C522.4 410.874 248.871 328.444 37.9095 288.959C-198.198 247.512 -334.976 332.442 -568.054 338.45C-667.55 339.745 -667.448 330.864 -1010.87 332.549" stroke="#3DDEED" stroke-opacity="0.11" stroke-width="0.5" stroke-linecap="round" stroke-linejoin="round"/>
<path d="M1785.87 332.554C1523.66 330.619 1502.86 381.523 1354.7 403.651C589.058 503.049 752.757 453.339 212.71 319.525C-209.907 216.977 -284.881 337.48 -603.009 337.384C-672.862 336.792 -754.819 332.303 -1010.87 332.549" stroke="#3DDEED" stroke-opacity="0.11" stroke-width="0.5" stroke-linecap="round" stroke-linejoin="round"/>
<path d="M1785.87 332.554C1525.22 330.923 1516.47 374.955 1366.36 403.31C1366.15 403.347 1043.27 448.216 958.502 456.245C690.575 480.025 605.151 436.771 399.156 367.412C-27.7825 226.53 -138.016 280.083 -428.214 322.692C-589.903 345.396 -642.19 333.098 -1010.87 332.554" stroke="#3DDEED" stroke-opacity="0.11" stroke-width="0.5" stroke-linecap="round" stroke-linejoin="round"/>
<path d="M1785.87 332.554C1520.63 331.408 1502.42 379.987 1354.7 406.828C849.437 489.546 732.204 490.986 504.039 404.392C305.095 327.9 182.87 278.462 -32.002 275.44C-165.557 274.992 -259.042 295.521 -393.248 316.21C-602.263 347.603 -751.464 333.924 -1010.87 332.559" stroke="#3DDEED" stroke-opacity="0.11" stroke-width="0.5" stroke-linecap="round" stroke-linejoin="round"/>
<path d="M1785.87 332.554C1519.85 331.307 1504.76 377.78 1354.7 406.631C661.108 527.912 674.679 470.083 364.2 348.637C22.6694 217.52 -209.502 295.574 -474.826 324.931C-650.517 343.237 -970.902 332.847 -1010.87 332.549" stroke="#3DDEED" stroke-opacity="0.11" stroke-width="0.5" stroke-linecap="round" stroke-linejoin="round"/>
<path d="M1785.87 332.554C1508.32 331.051 1505.49 378.095 1343.06 408.07C1007.94 466.069 781.248 532.667 515.694 414.169C277.511 306.646 211.867 272.38 -8.70718 275.13C-304.88 280.467 -324.126 331.696 -812.771 335.992C-924.648 336.515 -932.228 333.29 -1010.88 332.554" stroke="#3DDEED" stroke-opacity="0.11" stroke-width="0.5" stroke-linecap="round" stroke-linejoin="round"/>
<path d="M1785.87 332.554C1505.34 330.885 1508.62 375.312 1343.06 407.468C1089.53 453.979 792.711 537.721 562.3 438.584C362.279 349.431 266.629 269.347 37.9095 273.537C-373.244 283.537 -312.396 340.326 -1010.87 332.549" stroke="#3DDEED" stroke-opacity="0.11" stroke-width="0.5" stroke-linecap="round" stroke-linejoin="round"/>
<path d="M1785.87 332.554C1503.4 330.55 1512.43 372.359 1343.06 406.871C1112.54 451.127 1015.67 485.644 841.963 489.077C676.38 490.703 630.137 473.911 562.3 442.859C363.608 348.424 269.857 260.817 37.9097 272.135C-484.63 300.313 -398.374 340.545 -1010.87 332.554" stroke="#3DDEED" stroke-opacity="0.11" stroke-width="0.5" stroke-linecap="round" stroke-linejoin="round"/>
<path d="M1785.87 332.554C1654.17 331.813 1607.82 328.497 1471.24 370.333C1335.69 412.942 1383.94 395.26 1226.52 431.19C1053.21 471.811 951.487 498.976 772.051 493.486C662.996 489.413 631.268 487.643 492.367 409.445C114.585 194.934 197.182 273.035 -696.238 331.888C-881.221 342.8 -912.694 333.999 -1010.87 332.549" stroke="#3DDEED" stroke-opacity="0.11" stroke-width="0.5" stroke-linecap="round" stroke-linejoin="round"/>
<path d="M1785.87 332.554C1655.31 331.749 1608.59 327.047 1471.24 368.334C1322.66 414.019 1378.37 393.805 1238.18 427.304C1056.86 471.533 959.948 502.884 772.052 498.758C662.346 495.607 630.681 494.221 492.368 412.527C195.752 235.741 159.415 262.203 -43.6681 279.491C-985.342 356.622 -783.235 336.088 -1010.87 332.554" stroke="#3DDEED" stroke-opacity="0.11" stroke-width="0.5" stroke-linecap="round" stroke-linejoin="round"/>
<path d="M1785.87 332.554C1694.46 331.925 1650.25 327.639 1564.48 342.88C1475.61 360.253 1439.01 379.598 1354.7 399.088C1125.58 449.469 1050.43 483.8 900.235 499.344C669.526 520.529 609.029 484.914 527.339 437.139C398.446 359.864 278.061 267.806 119.482 266.415C51.6936 267.705 43.3881 276.01 -90.2741 285.787C-197.078 293.223 -258.743 294.193 -428.214 306.774C-953.309 348.232 -717.692 337.24 -1010.87 332.554" stroke="#3DDEED" stroke-opacity="0.11" stroke-width="0.5" stroke-linecap="round" stroke-linejoin="round"/>
<path d="M1785.87 332.554C1667.71 331.664 1614.89 323.998 1482.9 360.594C1202.14 441.004 1523.1 348.179 1086.69 465.824C954.763 500.794 863.93 514.025 713.79 507.868C507.229 495.81 371.166 264.245 119.488 266.164C34.1437 269.315 36.2347 283.857 -183.491 293.357C-635.314 311.092 -652.965 330.374 -812.761 336.765C-907.648 339.756 -930.158 333.887 -1010.87 332.559" stroke="#3DDEED" stroke-opacity="0.11" stroke-width="0.5" stroke-linecap="round" stroke-linejoin="round"/>
<path d="M1785.87 332.554C1674.05 331.797 1620.18 323.049 1494.54 355.332C1445.34 368.601 1424.1 376.33 1378.03 388.41C1068.31 465.003 1056.29 482.685 923.535 503.619C848.818 514.484 715.363 522.245 643.873 503.438C539.72 470.696 461.007 389.967 329.233 319.867C138.371 222.766 95.7976 284.294 -148.546 294.071C-286.348 298.975 -379.357 295.334 -568.059 313.086C-678.282 323.763 -722.504 332.495 -812.771 336.675C-907.184 340.145 -928.708 333.935 -1010.88 332.549" stroke="#3DDEED" stroke-opacity="0.11" stroke-width="0.5" stroke-linecap="round" stroke-linejoin="round"/>
<path d="M1785.87 332.554C1600.94 331.226 1614.97 305.958 1086.68 467.087C954.122 506.951 864.959 523.018 713.785 519.431C558.977 512.799 482.36 395.361 305.927 307.542C124.587 222.174 93.8933 291.688 -171.852 296.864C-300.388 298.826 -393.995 294.033 -556.404 309.36C-662.754 319.861 -702.377 328.966 -789.466 335.257C-894.125 341.808 -925.768 334.025 -1010.87 332.554" stroke="#3DDEED" stroke-opacity="0.11" stroke-width="0.5" stroke-linecap="round" stroke-linejoin="round"/>
<path d="M1785.87 332.554C1671.7 331.685 1617.4 320.17 1482.9 353.93C1224.82 421.498 1276.97 403.976 1168.25 439.41C1075.67 469.918 1010.56 492.686 923.536 509.457C849.068 522.837 716.126 534.469 643.873 515.214C538.739 481.331 460.719 394.54 329.233 321.199C134.093 217.403 91.7382 294.193 -136.891 299.684C-260.674 301.715 -351.085 292.472 -498.137 301.912C-603.143 309.344 -650.346 319.072 -731.199 328.998C-871.401 345.268 -914.374 334.19 -1010.87 332.554" stroke="#3DDEED" stroke-opacity="0.11" stroke-width="0.5" stroke-linecap="round" stroke-linejoin="round"/>
<path d="M1785.87 332.554C1676.13 331.669 1621.37 320.005 1494.54 348.658C1089.25 445.69 1093.39 475.382 923.536 511.669C848.476 526.697 717.033 540.471 643.873 520.939C538.307 486.699 460.521 397.664 329.233 323.412C132.759 217.611 88.2602 301.241 -136.891 303.645C-256.951 303.837 -346.829 291.896 -486.481 298.789C-587.295 304.562 -638.75 315.048 -719.543 326.343C-868.302 346.227 -914.465 334.158 -1010.87 332.549" stroke="#3DDEED" stroke-opacity="0.11" stroke-width="0.5" stroke-linecap="round" stroke-linejoin="round"/>
<path d="M1785.87 332.554C1675.08 331.61 1621.12 319.211 1494.54 346.307C1104.37 435.193 1121.55 464.897 935.202 511.147C859.444 528.909 730.412 545.274 655.518 529.778C496.246 487.185 364.349 279.811 154.443 272.641C49.6986 273.179 33.3862 308.059 -136.885 307.611C-377.816 304.434 -376.359 271.681 -707.888 323.369C-866.653 347.31 -910.053 334.19 -1010.87 332.554" stroke="#3DDEED" stroke-opacity="0.11" stroke-width="0.5" stroke-linecap="round" stroke-linejoin="round"/>
<path d="M1785.87 332.554C1675.3 331.562 1621.35 318.315 1494.54 343.957C1124.78 423.855 1124.03 462.295 935.202 513.114C860.089 532.294 731.724 551.176 655.518 535.514C495.771 492.702 364.76 280.237 154.443 275.242C48.5944 276.964 30.2603 314.296 -136.885 311.577C-378.946 304.871 -378.722 267.038 -707.888 322.026C-866.371 347.64 -909.888 334.169 -1010.87 332.559" stroke="#3DDEED" stroke-opacity="0.11" stroke-width="0.5" stroke-linecap="round" stroke-linejoin="round"/>
<path d="M1785.87 332.554C1672.24 331.504 1617.62 316.455 1482.9 343.983C1090.91 428.7 1140.39 458.42 923.541 518.3C847.538 538.211 719.498 558.415 643.878 538.115C485.87 485.9 354.678 272.321 142.793 278.158C40.9982 284.992 17.7673 322.106 -148.536 315.042C-370.3 303.021 -405.981 265.476 -696.232 318.598C-864.007 348.493 -904.858 334.201 -1010.87 332.554" stroke="#3DDEED" stroke-opacity="0.11" stroke-width="0.5" stroke-linecap="round" stroke-linejoin="round"/>
<path d="M1785.87 332.554C1677 331.53 1621.95 316.839 1494.54 339.425C1146.89 405.874 1133.06 454.416 935.202 516.067C859.364 538.611 733.788 561.859 655.518 545.989C495.909 503.236 366.205 283.015 154.443 282.391C46.562 286.533 25.6301 327.82 -136.885 320.629C-252.096 313.891 -336.304 291.309 -463.17 289.62C-673.748 289.529 -689.959 345.918 -975.906 333.348C-987.934 332.964 -988.639 332.884 -1010.87 332.554" stroke="#3DDEED" stroke-opacity="0.11" stroke-width="0.5" stroke-linecap="round" stroke-linejoin="round"/>
<path d="M1785.87 332.554C1604.35 330.821 1634.62 307.137 1378.03 361.607C1300.18 377.631 1269.18 382.994 1179.91 417.959C1091.24 453.494 831.113 585.943 655.512 550.568C494.597 507.559 367.064 285.675 154.438 287.295C45.9484 292.605 23.2455 335.406 -136.891 325.922C-252.945 317.249 -336.565 291.597 -463.176 288.074C-670.873 285.275 -702.169 347.534 -964.261 333.823C-980.861 333.108 -984.088 332.938 -1010.87 332.559" stroke="#3DDEED" stroke-opacity="0.11" stroke-width="0.5" stroke-linecap="round" stroke-linejoin="round"/>
<path d="M1785.87 332.554C1675.81 331.504 1621.94 315.954 1494.54 335.129C1283.53 369.768 1216.25 399.53 1168.25 419.265C1078.15 457.209 811.536 596.722 643.878 552.029C483.449 498.939 357.702 280.125 142.793 292.877C37.5896 303.298 11.4887 344.687 -148.536 330.144C-260.722 318.241 -342.22 291.635 -463.17 286.512C-660.22 281.256 -712.497 346.638 -964.255 333.764C-981.01 333.066 -984.339 332.9 -1010.87 332.543" stroke="#3DDEED" stroke-opacity="0.11" stroke-width="0.5" stroke-linecap="round" stroke-linejoin="round"/>
<path d="M1785.87 332.554C1675.19 331.498 1622.29 315.453 1494.54 332.98C1289.52 363.899 1222.41 392.483 1156.61 420.933C1056.94 464.838 795.362 606.76 632.212 552.748C472.774 489.855 347.786 275.461 131.132 299.178C30.8736 313.928 -0.51365 353.536 -160.197 333.812C-273.039 318.187 -354.606 289.294 -474.831 284.502C-669.401 280.141 -693.186 344.729 -975.916 333.252C-988.121 332.9 -988.543 332.836 -1010.88 332.549" stroke="#3DDEED" stroke-opacity="0.11" stroke-width="0.5" stroke-linecap="round" stroke-linejoin="round"/>
<path d="M1785.87 332.554C1673.15 331.461 1617.74 313.917 1482.9 332.431C1287.12 361.671 1232.96 383.826 1156.61 417.708C1056.66 462.961 795.997 611.558 632.212 557.333C472.166 494.061 348.8 278.201 131.132 304.322C33.0875 319.781 0.302726 358.718 -148.541 340.353C-325.721 315.405 -425.334 252.053 -649.626 300.079C-874.228 349.842 -846.703 334.526 -1010.87 332.554" stroke="#3DDEED" stroke-opacity="0.11" stroke-width="0.5" stroke-linecap="round" stroke-linejoin="round"/>
<path d="M1785.87 332.554C1673.39 331.498 1617.53 313.901 1482.9 330.645C1289.99 356.942 1235.15 379.028 1156.61 414.478C1050.89 463.228 806.81 607.053 643.878 563.937C482.515 510.565 360.082 288.628 142.793 308.624C38.4964 322.303 8.6616 364.816 -136.88 347.779C-318.919 322.729 -419.711 247.901 -649.616 298.17C-875.428 349.421 -846.073 334.414 -1010.87 332.554" stroke="#3DDEED" stroke-opacity="0.11" stroke-width="0.5" stroke-linecap="round" stroke-linejoin="round"/>
<path d="M1785.87 332.554C1675.78 331.552 1622.16 315.079 1494.54 327.639C1296.35 349.735 1229.74 377.732 1156.61 411.247C1039.94 465.947 795.203 616.398 632.212 562.557C471.361 499.104 351.253 284.721 131.132 316.071C33.2582 333.599 -3.28194 374.081 -148.541 352.086C-336.699 319.803 -425.985 244.42 -661.276 298.964C-869.235 348.893 -861.49 334.132 -1010.87 332.554" stroke="#3DDEED" stroke-opacity="0.11" stroke-width="0.5" stroke-linecap="round" stroke-linejoin="round"/>
<path d="M1785.87 332.554C1697.96 331.781 1424.83 286.928 1168.25 402.601C1044.32 460.253 821.698 604.27 655.518 571.955C495.083 529.66 377.141 310.836 166.093 317.98C51.9656 326.594 25.0486 375.686 -113.58 362.972C-230.439 349.186 -315.127 304.423 -439.864 283.964C-642.926 254.714 -710.347 342.395 -929.294 335.049C-968.117 333.375 -970.683 332.938 -1010.87 332.549" stroke="#3DDEED" stroke-opacity="0.11" stroke-width="0.5" stroke-linecap="round" stroke-linejoin="round"/>
<path d="M1785.87 332.554C1672.23 331.589 1617.01 314.024 1482.9 325.512C1297.61 343.471 1240.52 365.152 1156.61 404.786C1033.84 464.273 806.17 614.026 643.878 571.363C484.9 518.988 367.139 305.873 154.443 324.515C44.7216 338.487 13.3825 385.745 -125.23 367.828C-238.339 350.279 -320.333 305.511 -439.864 283.558C-642.302 250.662 -709.504 341.643 -929.294 334.915C-968.971 333.306 -970.598 332.911 -1010.87 332.554" stroke="#3DDEED" stroke-opacity="0.11" stroke-width="0.5" stroke-linecap="round" stroke-linejoin="round"/>
<path d="M1785.87 332.554C1684.33 331.722 1413.92 286.144 1179.92 390.58C1042.54 454.182 824.242 609.457 655.518 576.897C495.12 534.805 378.207 316.487 166.093 329.009C51.2773 340.47 21.9546 390.852 -113.58 375.696C-227.073 359.73 -307.76 312.489 -428.214 285.52C-635.224 243.471 -703.364 337.831 -917.644 335.102C-962.506 333.844 -957.337 332.991 -1010.87 332.549" stroke="#3DDEED" stroke-opacity="0.11" stroke-width="0.5" stroke-linecap="round" stroke-linejoin="round"/>
<path d="M1785.87 332.554C1671.27 331.68 1403.17 283.98 1168.25 393.229C1034.99 457.412 809.296 617.326 643.878 573.842C484.547 521.419 369.171 310.612 154.443 335.251C42.6359 352.374 5.90909 403.475 -136.885 378.362C-315.537 342.149 -423.68 238.748 -637.971 286.069C-854.934 337.458 -777.933 334.297 -1010.87 332.554" stroke="#3DDEED" stroke-opacity="0.11" stroke-width="0.5" stroke-linecap="round" stroke-linejoin="round"/>
<path d="M1785.87 332.554C1666.24 331.696 1401.94 285.494 1179.92 385.1C1036 452.214 838.533 600.427 667.184 578.896C502.161 546.831 385.937 318.87 166.099 338.743C48.4822 354.016 14.3106 408.182 -125.23 386.773C-243.119 365.162 -328.703 308.469 -451.515 281.224C-652.56 241.6 -695.283 342.704 -964.25 333.284C-981.272 332.826 -984.723 332.73 -1010.86 332.549" stroke="#3DDEED" stroke-opacity="0.11" stroke-width="0.5" stroke-linecap="round" stroke-linejoin="round"/>
<path d="M1785.87 332.554C1630.57 331.504 1597.26 305.772 1366.36 330.821C1113.18 359.848 995.843 530.38 760.396 574.578C680.632 587.638 643.137 581.604 573.951 540.375C438.63 454.304 338.179 325.299 166.099 343.583C29.4601 363.409 -10.35 441.164 -218.453 366.991C-368.651 311.177 -463.208 247.442 -626.31 280.019C-702.991 296.997 -750.605 317.185 -836.066 329.521C-905.514 338.151 -922.514 333.098 -1010.87 332.554" stroke="#3DDEED" stroke-opacity="0.11" stroke-width="0.5" stroke-linecap="round" stroke-linejoin="round"/>
<path d="M1785.87 332.554C1638.28 331.642 1590.04 307.286 1378.03 327.5C1106.88 354.655 1001.27 528.301 760.39 574.258C681.128 587.457 643.473 581.433 573.945 540.173C436.976 453.451 338.856 327.335 166.093 348.418C28.8998 370.413 -13.4013 448.691 -218.458 372.236C-367.889 314.083 -463.298 245.864 -626.315 278.276C-702.697 295.212 -750.328 315.932 -836.072 328.886C-904.82 337.874 -922.077 333.05 -1010.87 332.554" stroke="#3DDEED" stroke-opacity="0.11" stroke-width="0.5" stroke-linecap="round" stroke-linejoin="round"/>
<path d="M1785.87 332.554C1634.54 331.69 1582.2 306.694 1366.36 326.514C1110.53 352.059 988.54 535.38 748.751 575.9C679.213 585.826 640.443 581.86 562.306 532.624C425.795 442.257 328.657 324.707 154.443 355.295C21.6987 383.287 -24.7366 456.25 -230.108 372.738C-381.118 309.056 -472.884 242.469 -637.965 279.118C-715.084 297.802 -763.21 318.246 -847.722 329.851C-910.277 337.09 -924.456 332.97 -1010.87 332.554" stroke="#3DDEED" stroke-opacity="0.11" stroke-width="0.5" stroke-linecap="round" stroke-linejoin="round"/>
<path d="M1785.87 332.554C1632.97 331.749 1565.92 306.561 1354.7 326.413C1183.24 344.772 1084.54 433.738 923.541 514.58C709.282 618.898 627.795 572.893 550.645 522.139C419.047 431.872 323.152 326.258 154.449 358.968C23.3416 388.901 -27.8253 462.919 -230.103 378.058C-373.564 315.495 -468.798 244.356 -626.31 275.051C-705.866 292.562 -757.22 316.295 -847.716 329.275C-909.632 336.835 -924.179 332.932 -1010.86 332.549" stroke="#3DDEED" stroke-opacity="0.11" stroke-width="0.5" stroke-linecap="round" stroke-linejoin="round"/>
<path d="M1785.87 332.554C1605.54 331.68 1383.35 282.583 1179.92 373.287C1029.89 443.077 825.651 604.148 655.518 569.919C494.165 526.483 385.531 321.375 166.093 360.056C48.3701 385.073 5.55683 440.471 -125.235 418.028C-241.076 393.89 -320.808 329.078 -439.87 286.954C-642.366 220.847 -709.163 337.176 -940.955 333.54C-980.68 332.655 -976.93 332.735 -1010.88 332.554" stroke="#3DDEED" stroke-opacity="0.11" stroke-width="0.5" stroke-linecap="round" stroke-linejoin="round"/>
<path d="M1785.87 332.554C1580.63 331.68 1376.84 280.419 1168.25 376.864C1022.54 447.017 811.334 609.127 643.878 563.708C478.354 508.327 375.407 307.819 142.793 369.176C35.5306 400.719 -16.1484 451.335 -148.536 418.796C-264.717 386.192 -345.431 317.745 -463.17 280.237C-653.696 225.538 -703.119 338.125 -964.255 332.98C-984.595 332.655 -982.168 332.698 -1010.87 332.559" stroke="#3DDEED" stroke-opacity="0.11" stroke-width="0.5" stroke-linecap="round" stroke-linejoin="round"/>
<path d="M1785.87 332.554C1566.54 331.717 1373.9 280.525 1168.25 375.014C1022.49 444.762 811.638 606.493 643.878 560.622C477.864 504.808 376.895 307.078 142.793 372.94C37.2215 405.751 -13.2891 453.712 -136.88 427.703C-253.328 398.794 -332.794 328.625 -451.515 284.731C-645.183 219.008 -713.814 335.454 -940.944 333.322C-981.405 332.623 -977.565 332.687 -1010.87 332.549" stroke="#3DDEED" stroke-opacity="0.11" stroke-width="0.5" stroke-linecap="round" stroke-linejoin="round"/>
<path d="M1785.87 332.554C1624.08 332.01 1528.13 309.296 1354.7 321.69C1184.87 336.44 1084.24 425.534 923.541 504.995C704.418 609.974 621.645 555.755 550.645 510.214C413.782 419.062 324.395 327.676 154.449 373.228C22.9736 412.569 -39.8061 488.885 -230.103 399.434C-374.604 328.396 -469.449 240.704 -626.31 269.229C-702.409 285.355 -748.375 308.341 -836.066 325.027C-903.316 336.397 -927.107 332.852 -1010.87 332.559" stroke="#3DDEED" stroke-opacity="0.11" stroke-width="0.5" stroke-linecap="round" stroke-linejoin="round"/>
<path d="M1785.87 332.554C1520.44 331.424 1365.26 279.534 1156.61 377.471C1009.27 448.947 800.009 605.56 632.212 548.361C468.224 482.904 372.473 305.719 142.788 379.087C34.1543 416.765 -21.6053 468.068 -148.541 436.574C-265.533 402.974 -344.823 327.532 -463.176 282.338C-654.811 215.585 -673.167 333.593 -1010.87 332.554" stroke="#3DDEED" stroke-opacity="0.11" stroke-width="0.5" stroke-linecap="round" stroke-linejoin="round"/>
<path d="M1785.87 332.554C1605.33 331.877 1447.73 305.356 1308.1 326.296C1148.13 354.693 1034.32 455.301 876.935 518.722C675.26 595.906 615.879 545.258 480.739 452.209C345.53 360.429 264.581 330.752 107.837 394.983C-33.2022 455.061 -94.5149 488.709 -276.714 385.094C-442.046 288.895 -509.136 230.538 -684.571 281.501C-875.199 338.946 -862.21 332.959 -1010.87 332.554" stroke="#3DDEED" stroke-opacity="0.11" stroke-width="0.5" stroke-linecap="round" stroke-linejoin="round"/>
<path d="M1785.87 332.554C1612.81 331.994 1546.5 317.756 1412.97 318.593C1098.48 323.39 982.912 536.457 713.785 550.525C501.873 554.379 422.312 269.405 119.482 392.941C15.6175 437.283 -46.2713 481.731 -171.847 440.935C-355.486 374.188 -447.861 219.216 -661.276 273.601C-838.611 322.356 -803.553 333.023 -1010.87 332.554" stroke="#3DDEED" stroke-opacity="0.11" stroke-width="0.5" stroke-linecap="round" stroke-linejoin="round"/>
<path d="M1785.87 332.554C1593.04 332.032 1535.23 317.478 1401.33 318.678C1101.5 324.211 969.955 541.921 702.145 545.653C671.238 544.72 651.186 541.522 608.912 522.272C430.409 432.773 356.801 294.497 119.482 395.692C13.3236 442.832 -48.7892 486.668 -171.847 446.686C-284.998 405.362 -361.647 327.218 -474.826 280.675C-627.74 223.582 -702.729 303.704 -871.033 328.54C-917.863 334.302 -928.313 332.778 -1010.87 332.554" stroke="#3DDEED" stroke-opacity="0.11" stroke-width="0.5" stroke-linecap="round" stroke-linejoin="round"/>
<path d="M1785.87 332.554C1551.62 332.037 1435.36 306.929 1308.1 324.894C1152.31 351.084 1043.44 442.337 888.596 503.321C677.245 582.233 611.654 524.554 492.378 445.498C354.71 355.125 275.196 329.185 119.488 398.432C36.7788 436.579 -8.77097 467.066 -90.2688 467.653C-164.011 464.507 -218.559 435.316 -276.719 399.759C-441.043 296.539 -507.845 226.023 -684.577 277.62C-875.556 335.944 -858.054 332.884 -1010.87 332.554" stroke="#3DDEED" stroke-opacity="0.11" stroke-width="0.5" stroke-linecap="round" stroke-linejoin="round"/>
<path d="M1785.87 332.554C1534 331.866 1430.53 307.92 1308.1 324.899C1152.39 350.663 1043.33 440.439 888.596 499.184C677.943 574.908 613.137 518.423 492.378 439.309C352.304 348.776 273.586 328.673 119.488 400.319C35.8667 440.481 -10.1259 471.075 -90.2688 472.685C-164.187 470.419 -218.549 441.073 -276.719 404.797C-442.697 298.202 -508.288 224.957 -684.577 276.426C-867.064 332.314 -848.212 333.034 -1010.87 332.554" stroke="#3DDEED" stroke-opacity="0.11" stroke-width="0.5" stroke-linecap="round" stroke-linejoin="round"/>
<path d="M1785.87 332.554C1504.43 332.181 1420.36 306.636 1296.45 326.813C1142.15 355.865 1030.82 445.929 876.93 499.062C675.703 564.593 619.842 515.193 492.373 433.088C348.975 341.877 270.972 328.694 119.482 402.19C36.9814 443.371 -5.26642 471.117 -78.6187 477.328C-301.545 484.743 -409.123 206.027 -661.271 268.654C-742.059 290.659 -794.128 316.636 -882.678 329.062C-921.49 333.524 -925.848 332.735 -1010.86 332.549" stroke="#3DDEED" stroke-opacity="0.11" stroke-width="0.5" stroke-linecap="round" stroke-linejoin="round"/>
<path d="M1785.87 332.554C1494.94 331.957 1424.18 309.37 1308.1 324.936C1147.74 350.577 1037.07 441.702 876.935 494.744C669.302 559.438 618.311 505.688 480.739 419.579C335.33 330.901 257.913 332.341 107.837 410.096C-50.6828 493.603 -117.805 517.943 -276.714 414.883C-430.994 311.508 -504.623 224.946 -672.921 270.642C-855.046 323.833 -821.295 332.831 -1010.87 332.554" stroke="#3DDEED" stroke-opacity="0.11" stroke-width="0.5" stroke-linecap="round" stroke-linejoin="round"/>
<path d="M1785.87 332.554C1362.47 331.76 1347.87 281.506 1110.01 389.956C967.773 455.786 855.656 521.739 690.484 515.182C555.211 500.021 459.247 351.67 294.283 349.927C100.439 357.284 9.50437 549.79 -195.147 466.032C-313.297 412.399 -392.528 315.842 -509.782 270.439C-579.544 246.829 -623.536 253.978 -696.232 276.447C-882.341 336.339 -872.036 332.655 -1010.87 332.554" stroke="#3DDEED" stroke-opacity="0.11" stroke-width="0.5" stroke-linecap="round" stroke-linejoin="round"/>
<path d="M1785.87 332.554C1664.44 332.554 1650.93 335.449 1541.17 328.172C1443.22 321.301 1380.23 315.65 1308.09 324.974C1152.94 348.962 1043.28 432.661 888.591 482.584C671.147 548.489 609.632 486.811 492.373 414.424C343.679 324.382 266.331 327.618 119.482 407.793C-48.5224 501.237 -115.836 533.307 -276.725 424.958C-439.011 311.721 -506.106 219.525 -684.582 271.655C-869.048 328.828 -840.307 332.554 -1010.87 332.554" stroke="#3DDEED" stroke-opacity="0.11" stroke-width="0.5" stroke-linecap="round" stroke-linejoin="round"/>
</g>
<defs>
<clipPath id="clip0_52_1248">
<rect width="1440" height="615" fill="white"/>
</clipPath>
</defs>
</svg>
