<svg xmlns="http://www.w3.org/2000/svg" width="55" height="24" viewBox="0 0 55 24" fill="none">
  <path fill-rule="evenodd" clip-rule="evenodd" d="M52.1073 14.8993C52.1073 15.3543 52.8773 15.4681 53.3173 15.4681L53.3239 15.4726C53.765 15.4726 55.1972 15.1314 54.9772 13.4252C54.8639 12.174 53.4372 11.4916 51.8972 11.4916C50.0383 11.4916 48.4499 12.538 47.3763 13.9484C47.1969 14.0278 47.0458 14.163 46.944 14.3352C46.504 14.7901 45.954 15.1314 45.0741 15.1314H44.7441C45.2941 14.1077 45.6241 12.9702 45.6241 11.9465C45.6241 10.3541 44.7441 9.55792 43.6441 9.55792C42.3241 9.55792 40.8941 10.8091 40.8941 13.1977C40.8941 14.5627 41.4441 15.7001 42.4341 16.3826C41.3341 18.3162 39.7942 19.7949 39.5742 19.7949C39.4642 19.7949 39.3542 19.6811 39.3542 19.5674C39.1342 18.8849 39.0242 17.7475 39.0242 16.9513C39.0242 15.5864 39.3542 14.2214 39.7942 12.7427C39.9042 12.629 39.9042 12.4015 39.9042 12.2878C39.9042 11.9465 39.5742 11.7191 39.2442 11.7191C38.5842 11.7191 37.4842 12.5153 37.2642 13.4252C37.0442 14.2214 36.9342 15.3589 36.9342 16.7238C36.9342 16.8663 36.9405 17.0074 36.9467 17.1486C36.9502 17.2295 36.9538 17.3103 36.9562 17.3915L36.9342 17.4051C35.6142 19.225 33.9643 19.9075 33.4143 19.9075C32.8643 19.9075 32.7543 19.4525 32.7543 18.9975C33.0843 17.2914 33.6343 15.3577 34.0743 14.1065C34.2943 13.5378 34.2943 12.9691 34.2943 12.6279C34.2943 12.0591 33.8543 11.7179 33.3043 11.7179C31.9843 11.7179 29.8944 13.0828 28.4644 15.0165L28.9044 12.9691V12.5141C28.7944 12.0591 28.5744 11.9454 28.2444 11.9454C26.7044 11.9454 26.3744 12.7416 26.2644 13.5378C26.2644 13.7346 25.8277 16.0834 25.4537 18.0398C24.3604 18.9657 23.2549 19.564 22.9634 19.564C22.5234 19.564 22.4134 19.2227 22.4134 18.9953C22.3034 18.654 22.6334 17.2891 22.7434 16.8341V16.3791C22.6334 15.9242 22.4134 15.8104 22.0834 15.8104C21.3134 15.8104 20.4334 16.4929 20.2134 17.5166C19.8834 18.9953 18.8935 20.019 18.2335 20.019C17.3535 20.019 16.9135 19.109 16.8035 18.1991C16.4735 16.1517 17.7935 12.8531 20.1034 12.8531C20.7634 12.8531 21.4234 13.0806 21.5334 13.763C21.5986 14.3702 21.2383 14.5372 20.9572 14.6675C20.7643 14.7569 20.6087 14.8291 20.6534 15.0142C20.6534 15.4692 21.4234 15.5829 21.8634 15.5829C22.3034 15.5829 23.7334 15.3555 23.5134 13.6493C23.4034 12.3981 22.0834 11.7156 20.4334 11.7156C16.7529 11.7156 14.2592 15.5682 14.4935 18.5062C13.5366 19.5981 12.5796 20.2806 10.9736 21.1564C9.9836 21.6114 8.88365 21.9526 7.89367 21.9526C4.81373 21.9526 3.38376 18.9953 3.05376 16.4929C2.28378 10.0095 7.78367 1.13744 11.6336 1.13744C12.5136 1.13744 13.3936 1.93365 13.5036 3.18484C13.7236 5.11848 13.7236 6.48341 11.7436 8.18957C11.5236 8.41706 11.4136 8.64455 11.5236 8.87204C11.7436 9.21327 12.1836 9.21327 13.2836 8.64455C15.3735 7.62085 16.1435 5.91469 15.9235 3.98104C15.7035 1.81991 13.8336 0 11.4136 0C10.2036 0 8.99365 0.454976 7.78367 1.13744C2.72377 4.32227 -0.576172 11.4882 0.0838185 17.0616C0.193818 18.8815 0.963799 20.8152 2.28378 22.0663C3.16376 22.9763 4.81373 24 6.68369 24C8.77365 24 10.5336 23.2038 12.0736 22.1801C13.1296 21.4772 14.0239 20.5558 14.8048 19.6459C15.3383 20.814 16.4427 21.6102 17.5713 21.6102C18.5613 21.6102 19.3313 21.1553 19.9912 20.2453C20.1012 21.0415 20.6512 21.6102 21.6412 21.6102C22.2957 21.6102 23.6949 20.9551 25.0896 19.9268L24.94 20.7003V21.1553C25.05 21.6102 25.27 21.724 25.6 21.724C26.26 21.724 27.25 21.0415 27.47 20.0178L27.8 18.5391C28.24 16.7192 30.7699 13.9894 31.5399 13.9894C31.6499 13.9894 31.7599 14.1031 31.7599 14.2169C31.7599 14.3743 31.6546 14.6543 31.5031 15.0568C31.2168 15.8177 30.7658 17.0164 30.5499 18.6529V19.9041C30.6599 21.0415 31.3199 21.724 32.4199 21.724C33.4055 21.724 35.5361 20.8027 37.0794 19.0544C37.1993 19.9655 37.3962 20.764 37.6987 21.269C37.8087 21.4965 38.1387 21.6102 38.3587 21.6102C38.6887 21.6102 39.1287 21.4965 39.5687 21.269C40.6687 20.5865 42.2086 19.1079 43.6386 16.9467H44.1886C44.8332 16.9467 45.5339 16.7045 46.1861 16.2722C45.9695 17.0036 45.8705 17.7407 45.9475 18.4254C46.1674 20.1316 47.5974 21.4965 49.0274 21.4965C49.9074 21.4965 50.6774 21.0415 51.3373 20.2453C51.5573 21.3827 52.2173 22.5202 53.8673 23.2027C53.9773 23.3164 54.0873 23.3164 54.1973 23.3164C54.5273 23.3164 54.6373 23.0889 54.6373 22.8614C54.6373 22.8614 54.5273 22.6339 54.4173 22.5202C53.9773 22.179 53.5373 21.4965 53.4273 20.5865C53.3173 20.1316 53.3173 19.5628 53.8673 18.5391C54.3073 17.0605 54.3073 16.6055 54.3073 16.378C54.1973 15.923 53.9773 15.8093 53.6473 15.8093C52.8773 15.8093 51.9973 16.6055 51.7773 17.5154C51.3373 18.9941 50.3474 20.0178 49.6874 20.0178C48.8074 20.0178 48.3674 18.9941 48.2574 18.0842C47.9274 15.6955 49.3574 12.7382 51.5573 12.7382C52.2173 12.7382 52.8773 12.9657 52.9873 13.6482C53.054 14.2685 52.7167 14.4294 52.4406 14.5611C52.261 14.6468 52.1073 14.7201 52.1073 14.8993ZM42.4923 11.63C42.4923 11.0612 42.7123 10.4925 43.0423 10.4925C43.3723 10.4925 43.8123 11.0612 43.8123 12.1987C43.8123 12.8811 43.7023 13.4499 43.4823 14.1323C42.9323 13.5636 42.4923 12.5399 42.4923 11.63Z" fill="#2E0757"/>
</svg>