<svg xmlns="http://www.w3.org/2000/svg" width="131" height="31" viewBox="0 0 131 31" fill="none">
  <g clip-path="url(#clip0_83_92)">
    <path d="M61.3088 18.5428V13.6805C61.3088 13.5536 61.2247 13.4691 61.0987 13.4691H59.5016V11.5664H61.0987C61.2247 11.5664 61.3088 11.4818 61.3088 11.355V8.3108H63.5783V11.355C63.5783 11.4818 63.6624 11.5664 63.7885 11.5664H66.0159V13.4691H63.7885C63.6624 13.4691 63.5783 13.5536 63.5783 13.6805V17.9932C63.5783 20.0227 64.2928 20.1918 65.2174 20.1918C65.5536 20.1918 66.0579 20.1495 66.3521 20.1072V22.0944C65.9739 22.1367 65.3435 22.2213 64.629 22.2213C63.7464 22.179 61.3088 22.179 61.3088 18.5428ZM123.004 19.7267L124.854 18.7542C125.274 19.7267 126.072 20.3609 126.997 20.3609C127.711 20.3609 128.51 20.0649 128.51 19.177C128.51 18.5851 128.132 18.2468 127.249 17.9509L125.988 17.5281C124.223 16.9784 123.341 15.9637 123.341 14.5261C123.341 12.708 124.854 11.355 126.913 11.355C128.552 11.355 129.939 12.2429 130.611 13.6382L128.762 14.6529C128.342 13.765 127.669 13.2577 126.871 13.2577C126.072 13.2577 125.526 13.6805 125.526 14.3147C125.526 14.8643 125.946 15.2872 126.787 15.5408L128.048 15.9637C129.897 16.5556 130.779 17.5703 130.779 18.9656C130.779 21.1643 128.888 22.3059 126.997 22.3059C125.106 22.2636 123.593 21.2911 123.004 19.7267ZM116.028 17.824C115.986 17.8663 115.944 17.9086 115.944 17.9509V22.0099H113.632V7H115.944V15.2026C115.944 15.2872 115.986 15.3717 116.07 15.3717C116.154 15.414 116.238 15.3717 116.28 15.3294L120.02 11.5241H122.836L118.465 15.9637C118.381 16.0482 118.381 16.1328 118.465 16.2173L123.214 22.0099H120.399L116.742 17.4435C116.7 17.4012 116.658 17.3589 116.616 17.3589C116.574 17.3589 116.532 17.3589 116.49 17.4012L116.028 17.824ZM112.498 12.9617L111.027 14.357C110.186 13.7228 109.346 13.4268 108.421 13.4268C106.488 13.4268 105.059 14.8643 105.059 16.8093C105.059 18.7542 106.488 20.1918 108.421 20.1918C109.262 20.1918 110.144 19.8958 111.069 19.2616L112.372 20.6569C110.48 22.0522 109.472 22.3059 108.169 22.3059C106.614 22.3059 105.227 21.7562 104.218 20.7414C103.252 19.769 102.705 18.3314 102.705 16.8093C102.705 13.6382 105.017 11.3127 108.211 11.3127C109.262 11.3127 110.817 11.4818 112.498 12.9617ZM101.655 8.4376C101.655 9.1987 101.024 9.8329 100.268 9.8329C99.5113 9.8329 98.8809 9.1987 98.8809 8.4376C98.8809 7.6765 99.5113 7.0423 100.268 7.0423C101.024 7.0423 101.655 7.6765 101.655 8.4376ZM101.445 22.0099H99.133V11.5664H101.445V22.0099ZM94.0899 17.4435V22.0522H91.7784V11.6087H94.0477V12.8771C94.0477 12.9617 94.0899 13.0463 94.1739 13.0885C94.258 13.1308 94.3419 13.0885 94.384 13.004C94.9723 12.0315 96.0651 11.3973 97.2419 11.3973C97.41 11.3973 97.536 11.3973 97.62 11.4396V13.8073C97.4939 13.765 97.2838 13.765 97.0737 13.765C95.2245 13.7228 94.0899 15.1603 94.0899 17.4435ZM81.6918 16.8093C81.6918 14.9066 83.1209 13.4268 84.97 13.4268C86.8192 13.4268 88.2481 14.9066 88.2481 16.8093C88.2481 18.7119 86.8192 20.1918 84.97 20.1918C83.1209 20.1918 81.6918 18.7119 81.6918 16.8093ZM81.9021 20.7837C81.9441 20.7837 81.944 20.7837 81.986 20.7837C82.028 20.7837 82.1121 20.826 82.1541 20.8683C82.9526 21.7985 84.1294 22.3059 85.4743 22.3059C88.3321 22.3059 90.5176 19.8958 90.5176 16.8093C90.5176 15.2872 90.0133 13.9342 89.0466 12.8771C88.1221 11.8624 86.8192 11.3127 85.4323 11.3127C84.1295 11.3127 82.9106 11.8624 82.1121 12.8348C82.0701 12.8771 81.9861 12.9194 81.9021 12.8771C81.818 12.8348 81.776 12.7926 81.776 12.708V7.0423H79.4645V22.0522H81.776V20.9951C81.776 20.8683 81.818 20.826 81.9021 20.7837ZM72.3199 20.1918C70.5128 20.1918 69.0418 18.7119 69.0418 16.8093C69.0418 14.9066 70.4708 13.4268 72.3199 13.4268C74.1691 13.4268 75.5979 14.9066 75.5979 16.8093C75.5979 18.7119 74.1271 20.1918 72.3199 20.1918ZM77.7413 22.0099V11.5664H75.472V12.6234C75.472 12.708 75.4299 12.7926 75.3459 12.7926C75.2618 12.8348 75.1778 12.7926 75.1357 12.7503C74.3793 11.8201 73.2025 11.3127 71.8156 11.3127C68.9578 11.3127 66.7724 13.7228 66.7724 16.8093C66.7724 19.8958 68.9998 22.3059 71.8156 22.3059C73.1184 22.3059 74.3372 21.7562 75.1357 20.7837C75.1778 20.6992 75.2618 20.6992 75.3459 20.7414C75.4299 20.7837 75.472 20.826 75.472 20.9106V22.0522H77.7413V22.0099ZM52.8615 20.1918C51.0543 20.1918 49.5834 18.7119 49.5834 16.8093C49.5834 14.9066 51.0123 13.4268 52.8615 13.4268C54.6686 13.4268 56.1395 14.9066 56.1395 16.8093C56.1395 18.7119 54.6686 20.1918 52.8615 20.1918ZM58.2829 22.0099V11.5664H56.0135V12.6234C56.0135 12.708 55.9715 12.7926 55.8874 12.7926C55.8034 12.8348 55.7192 12.7926 55.6772 12.7503C54.9207 11.8201 53.7439 11.3127 52.3571 11.3127C49.4992 11.3127 47.3139 13.7228 47.3139 16.8093C47.3139 19.8958 49.5413 22.3059 52.3571 22.3059C53.6599 22.3059 54.8787 21.7562 55.6772 20.7837C55.7192 20.6992 55.8034 20.6992 55.8874 20.7414C55.9715 20.7837 56.0135 20.826 56.0135 20.9106V22.0522H58.2829V22.0099ZM40.5896 20.1918C38.7404 20.1918 37.3115 18.7119 37.3115 16.8093C37.3115 14.9066 38.7404 13.4268 40.5896 13.4268C42.3967 13.4268 43.8677 14.9066 43.8677 16.8093C43.8677 18.7119 42.3967 20.1918 40.5896 20.1918ZM46.0111 22.0099V7.0423H43.6996V12.6657C43.6996 12.7503 43.6575 12.8348 43.5735 12.8348C43.4894 12.8771 43.4054 12.8348 43.3633 12.7926C42.5648 11.8624 41.3881 11.355 40.0432 11.355C37.1854 11.355 35 13.765 35 16.8516C35 18.3737 35.5043 19.7267 36.4709 20.7837C37.3955 21.7985 38.6984 22.3481 40.0852 22.3481C41.3881 22.3481 42.6069 21.7985 43.4054 20.826C43.4474 20.7837 43.5315 20.7414 43.6155 20.7837C43.6996 20.826 43.7416 20.8683 43.7416 20.9529V22.0522H46.0111V22.0099Z" fill="#2E0757"/>
    <path d="M26.4769 12.5153L13.9529 19.6185L0.630402 12.0502L0 12.3884V17.885L13.9529 25.8339L26.4769 18.7306V21.648L13.9529 28.7513L0.630402 21.1829L0 21.5212V22.4514L13.9529 30.4002L27.9479 22.4514V16.9548L27.3175 16.6165L13.9529 24.1849L1.4709 17.0816V14.2065L13.9529 21.2675L27.9479 13.3186V7.9066L27.2334 7.52607L13.9529 15.0521L2.1433 8.32941L13.9529 1.64897L23.7031 7.14554L24.5857 6.68044V6.00394L13.9529 0L0 7.9066V8.75223L13.9529 16.7011L26.4769 9.59785V12.5153Z" fill="#2E0757"/>
  </g>
  <defs>
    <clipPath id="clip0_83_92">
      <rect width="131" height="31" fill="white"/>
    </clipPath>
  </defs>
</svg>