<svg xmlns="http://www.w3.org/2000/svg" width="96" height="32" viewBox="0 0 96 32" fill="none">
  <g clip-path="url(#clip0_705_5677)">
    <path d="M40.8533 16.8311C40.8533 21.3867 37.3275 24.7437 33.0004 24.7437C28.6733 24.7437 25.1475 21.3867 25.1475 16.8311C25.1475 12.2433 28.6733 8.91846 33.0004 8.91846C37.3275 8.91846 40.8533 12.2433 40.8533 16.8311ZM37.4157 16.8311C37.4157 13.9842 35.3722 12.0364 33.0004 12.0364C30.6286 12.0364 28.5851 13.9842 28.5851 16.8311C28.5851 19.6493 30.6286 21.6257 33.0004 21.6257C35.3722 21.6257 37.4157 19.6458 37.4157 16.8311Z" fill="#EA4335"/>
    <path d="M57.794 16.8311C57.794 21.3867 54.2681 24.7437 49.9411 24.7437C45.614 24.7437 42.0881 21.3867 42.0881 16.8311C42.0881 12.2469 45.614 8.91846 49.9411 8.91846C54.2681 8.91846 57.794 12.2433 57.794 16.8311ZM54.3564 16.8311C54.3564 13.9842 52.3128 12.0364 49.9411 12.0364C47.5693 12.0364 45.5258 13.9842 45.5258 16.8311C45.5258 19.6493 47.5693 21.6257 49.9411 21.6257C52.3128 21.6257 54.3564 19.6458 54.3564 16.8311Z" fill="#FBBC05"/>
    <path d="M74.0295 9.3965V23.6021C74.0295 29.4456 70.6201 31.8322 66.5895 31.8322C62.7954 31.8322 60.5119 29.2672 59.6507 27.1695L62.6436 25.9102C63.1766 27.1981 64.4825 28.7178 66.586 28.7178C69.166 28.7178 70.7648 27.1089 70.7648 24.0801V22.9421H70.6448C69.8754 23.9017 68.3931 24.7401 66.5225 24.7401C62.6083 24.7401 59.0225 21.2939 59.0225 16.8596C59.0225 12.3932 62.6083 8.91846 66.5225 8.91846C68.3895 8.91846 69.8719 9.75681 70.6448 10.6879H70.7648V9.40006H74.0295V9.3965ZM71.0083 16.8596C71.0083 14.0734 69.1695 12.0364 66.8295 12.0364C64.4578 12.0364 62.4707 14.0734 62.4707 16.8596C62.4707 19.6172 64.4578 21.6257 66.8295 21.6257C69.1695 21.6257 71.0083 19.6172 71.0083 16.8596Z" fill="#4285F4"/>
    <path d="M79.4115 1.07031V24.2587H76.0586V1.07031H79.4115Z" fill="#34A853"/>
    <path d="M92.4773 19.4354L95.1456 21.2334C94.2844 22.5213 92.2091 24.7402 88.6232 24.7402C84.1762 24.7402 80.855 21.2655 80.855 16.8276C80.855 12.1222 84.2044 8.91504 88.2385 8.91504C92.3009 8.91504 94.2879 12.1828 94.9373 13.9487L95.2938 14.8477L84.8291 19.2285C85.6303 20.816 86.8762 21.6259 88.6232 21.6259C90.3738 21.6259 91.5879 20.7554 92.4773 19.4354ZM84.2644 16.5886L91.2597 13.6526C90.875 12.6644 89.7173 11.9759 88.355 11.9759C86.6079 11.9759 84.1762 13.5349 84.2644 16.5886Z" fill="#EA4335"/>
    <path d="M12.4557 14.7731V11.4161H23.6474C23.7569 12.0012 23.8133 12.6933 23.8133 13.4424C23.8133 15.9611 23.1322 19.0754 20.9369 21.2944C18.8016 23.5419 16.0733 24.7405 12.4592 24.7405C5.76038 24.7405 0.127441 19.2253 0.127441 12.4543C0.127441 5.68324 5.76038 0.167969 12.4592 0.167969C16.1651 0.167969 18.8051 1.63776 20.7886 3.55348L18.4451 5.92226C17.0227 4.57377 15.0957 3.52494 12.4557 3.52494C7.56391 3.52494 3.73803 7.50977 3.73803 12.4543C3.73803 17.3987 7.56391 21.3836 12.4557 21.3836C15.6286 21.3836 17.4357 20.0957 18.5933 18.9256C19.5322 17.9767 20.1498 16.621 20.3933 14.7695L12.4557 14.7731Z" fill="#4285F4"/>
  </g>
  <defs>
    <clipPath id="clip0_705_5677">
      <rect width="96" height="32" fill="white"/>
    </clipPath>
  </defs>
</svg>