<svg xmlns="http://www.w3.org/2000/svg" width="114" height="28" viewBox="0 0 114 28" fill="none">
  <g clip-path="url(#clip0_83_74)">
    <path fill-rule="evenodd" clip-rule="evenodd" d="M40.5326 18.1118C40.5326 18.5865 40.178 18.9767 39.6735 18.9767C39.1827 18.9767 38.8281 18.5856 38.8281 18.1118V9.86563C38.8281 9.39094 39.1827 9.00073 39.6872 9.00073C40.178 9.00073 40.5326 9.39184 40.5326 9.86563V18.1118Z" fill="#2E0757"/>
    <path fill-rule="evenodd" clip-rule="evenodd" d="M51.5498 9.86576V17.4009C51.5498 18.4195 51.0183 18.992 50.1729 18.992H50.1051C49.3008 18.992 48.9184 18.5173 48.5779 17.8195L46.8597 14.4009L45.3325 10.8711L45.3736 14.2898L45.3873 18.0987C45.3873 18.5733 45.0331 18.9635 44.5282 18.9635C44.0374 18.9635 43.6831 18.5724 43.6831 18.0987V10.5636C43.6831 9.62843 44.2147 8.97241 45.1423 8.97241H45.2104C46.0695 8.97241 46.4237 9.4471 46.765 10.1449L48.4554 13.536L49.9008 16.8293L49.8601 13.6755L49.8464 9.86665C49.8464 9.39196 50.2006 9.00176 50.7055 9.00176C51.1952 9.00086 51.5498 9.3911 51.5498 9.86576Z" fill="#2E0757"/>
    <path fill-rule="evenodd" clip-rule="evenodd" d="M58.3818 18.0985C58.3818 18.5732 58.0276 18.9634 57.5227 18.9634C57.0323 18.9634 56.6777 18.5723 56.6777 18.0985V10.6337H54.5641C54.1281 10.6337 53.7739 10.2985 53.7739 9.81057C53.7739 9.33592 54.1281 9.00171 54.5641 9.00171H60.4953C60.9313 9.00171 61.2859 9.33681 61.2859 9.82479C61.2859 10.2994 60.9313 10.6337 60.4953 10.6337H58.3818V18.0985Z" fill="#2E0757"/>
    <path fill-rule="evenodd" clip-rule="evenodd" d="M63.5086 17.8196V10.0757C63.5086 9.35037 63.9039 8.94594 64.6268 8.97349H69.5357C69.9717 8.97349 70.3259 9.32192 70.3259 9.79661C70.3259 10.2712 69.9717 10.6055 69.5357 10.6055H65.199V13.0055H69.0308C69.4539 13.0055 69.7944 13.3263 69.7944 13.7868C69.7944 14.2472 69.4539 14.5681 69.0308 14.5681H65.199V17.3308H69.5357C69.9717 17.3308 70.3259 17.6792 70.3259 18.1539C70.3259 18.6285 69.9717 18.9628 69.5357 18.9628H64.5857C63.8769 18.9636 63.482 18.5592 63.5086 17.8196Z" fill="#2E0757"/>
    <path fill-rule="evenodd" clip-rule="evenodd" d="M79.6126 19.0054C80.0897 18.7539 80.24 18.2374 80.0079 17.833L78.3034 14.7361C79.7081 14.457 80.5265 13.3966 80.5265 11.9592C80.5265 10.4526 79.5996 8.97349 77.3765 8.97349H74.1452C73.4227 8.94594 73.0273 9.35037 73.0273 10.0757V18.113C73.0273 18.5868 73.3816 18.9779 73.8724 18.9779C74.3773 18.9779 74.7315 18.5877 74.7315 18.113L74.7178 15.0712H76.5174L78.4129 18.657C78.6439 19.0614 79.1488 19.2428 79.6126 19.0054ZM77.4165 13.4935H74.7166V10.6046H77.4028C78.3026 10.6046 78.8075 11.1903 78.8075 12.0419C78.8075 12.8935 78.3304 13.4935 77.4165 13.4935Z" fill="#2E0757"/>
    <path fill-rule="evenodd" clip-rule="evenodd" d="M84.0437 18.224C83.0214 17.2889 82.5576 15.824 82.5576 13.9823C82.5576 12.1263 83.0077 10.6756 84.0171 9.75466C84.6441 9.19646 85.4891 8.81958 86.7169 8.81958C87.794 8.81958 88.6261 9.07113 89.2531 9.61511C89.7987 10.0614 90.194 10.6898 90.4258 11.5689C90.5483 12.0294 90.2348 12.4898 89.7169 12.5876C89.2261 12.6712 88.8312 12.3503 88.6809 11.8898C88.5173 11.4436 88.2985 11.1227 88.0398 10.8987C87.6852 10.5778 87.2492 10.4383 86.6758 10.4383C86.0625 10.4383 85.5302 10.6196 85.1349 11.024C84.5623 11.6098 84.3165 12.6569 84.3165 13.9823C84.3165 15.2942 84.5486 16.3405 85.1486 16.9263C85.5439 17.3307 86.0625 17.512 86.6621 17.512C87.2891 17.512 87.7662 17.3449 88.1623 16.968C88.3663 16.7725 88.5443 16.5218 88.6668 16.2285C88.8441 15.7956 89.2124 15.4747 89.6892 15.5867C90.1663 15.6987 90.4668 16.1725 90.3165 16.6329C90.0708 17.4 89.6484 18.0143 89.0758 18.4329C88.4488 18.8933 87.6715 19.1307 86.6899 19.1307C85.4355 19.1307 84.6441 18.7538 84.0437 18.224Z" fill="#2E0757"/>
    <path fill-rule="evenodd" clip-rule="evenodd" d="M96.5623 8.81958C93.603 8.81958 92.3486 10.8569 92.3486 13.9823C92.3486 17.2054 93.5901 19.1449 96.5623 19.1449C99.4802 19.1449 100.762 17.2054 100.762 13.9823C100.762 10.8009 99.4942 8.81958 96.5623 8.81958ZM96.5486 10.4525C98.1713 10.4525 99.0164 11.6098 99.0164 13.9823C99.0164 16.3538 98.1573 17.512 96.5486 17.512C94.9259 17.512 94.1075 16.3547 94.1075 13.9823C94.1075 11.6107 94.9529 10.4525 96.5486 10.4525Z" fill="#2E0757"/>
    <path fill-rule="evenodd" clip-rule="evenodd" d="M113.988 18.0985C113.988 18.5732 113.634 18.9634 113.129 18.9634C112.638 18.9634 112.284 18.5723 112.284 18.0985V14.359L112.325 10.7172L111.138 14.415L109.939 18.0567C109.735 18.6985 109.312 18.9501 108.78 18.9501C108.22 18.9501 107.811 18.6852 107.593 18.0434L106.366 14.4159L105.234 10.7741L105.275 14.3599V18.0994C105.275 18.5741 104.92 18.9643 104.416 18.9643C103.925 18.9643 103.571 18.5732 103.571 18.0994V10.6345C103.571 9.60169 104.116 9.00171 105.07 9.00171C105.971 9.00171 106.475 9.48969 106.761 10.383L108.015 14.1919L108.779 16.7874L109.556 14.1919L110.811 10.383C111.097 9.48969 111.588 9.00171 112.488 9.00171C113.443 9.00171 113.974 9.58747 113.974 10.6345L113.988 18.0985Z" fill="#2E0757"/>
    <path fill-rule="evenodd" clip-rule="evenodd" d="M25.0655 15.4078C25.0655 15.6574 24.968 15.8967 24.7946 16.0732C24.6212 16.2497 24.3859 16.3489 24.1406 16.3489C23.8953 16.3489 23.6601 16.2497 23.4866 16.0732C23.3132 15.8967 23.2157 15.6574 23.2157 15.4078V7.00005C23.2157 6.75044 23.3132 6.51106 23.4866 6.33459C23.6601 6.15807 23.8953 6.05892 24.1406 6.05892C24.3859 6.05892 24.6212 6.15807 24.7946 6.33459C24.968 6.51106 25.0655 6.75044 25.0655 7.00005V15.4078ZM24.7445 21.2333C24.6222 21.3578 21.1826 24.2744 14.8766 24.2744C8.57068 24.2744 5.15403 21.3733 5.00881 21.2489C4.91727 21.1703 4.8419 21.0742 4.78695 20.966C4.73201 20.8577 4.69865 20.7395 4.68868 20.6181C4.67875 20.4967 4.69244 20.3746 4.72901 20.2586C4.76557 20.1426 4.82428 20.035 4.90178 19.9422C5.06143 19.7543 5.28758 19.6382 5.53101 19.6192C5.77443 19.6003 6.01535 19.68 6.20117 19.8411C6.2547 19.88 9.3274 22.4155 14.869 22.4155C20.4106 22.4155 23.5062 19.8644 23.5368 19.8411C23.7247 19.6815 23.9664 19.6028 24.2105 19.6217C24.4546 19.6405 24.6818 19.7555 24.8438 19.9422C24.9998 20.1273 25.0776 20.3676 25.0604 20.6108C25.0433 20.8541 24.9325 21.0805 24.7521 21.2411L24.7445 21.2333ZM4.68012 7.00005C4.69393 6.74966 4.80461 6.51502 4.98796 6.34739C5.17127 6.1798 5.41237 6.09285 5.6585 6.10558C5.88667 6.11876 6.10198 6.21747 6.26288 6.38263C6.42378 6.5478 6.5189 6.76773 6.52986 7.00005V15.3922C6.52986 15.6418 6.43242 15.8812 6.25896 16.0577C6.08555 16.2342 5.8503 16.3333 5.60501 16.3333C5.35972 16.3333 5.12447 16.2342 4.95101 16.0577C4.77756 15.8812 4.68012 15.6418 4.68012 15.3922V7.00005ZM9.31975 5.13339C9.3336 4.883 9.44424 4.64836 9.62759 4.48073C9.8109 4.31314 10.052 4.22619 10.2981 4.23893C10.5263 4.2521 10.7416 4.35081 10.9025 4.51597C11.0634 4.68114 11.1585 4.90107 11.1695 5.13339V17.5778C11.1695 17.8273 11.0721 18.0667 10.8986 18.2432C10.7252 18.4197 10.4899 18.5189 10.2446 18.5189C9.99935 18.5189 9.7641 18.4197 9.59065 18.2432C9.41719 18.0667 9.31975 17.8273 9.31975 17.5778V5.13339ZM13.9823 4.66673C13.9823 4.41712 14.0798 4.17774 14.2532 4.00126C14.4267 3.82475 14.6619 3.72559 14.9072 3.72559C15.1525 3.72559 15.3878 3.82475 15.5612 4.00126C15.7346 4.17774 15.8321 4.41712 15.8321 4.66673V18.2C15.8321 18.4496 15.7346 18.689 15.5612 18.8654C15.3878 19.0419 15.1525 19.1411 14.9072 19.1411C14.6619 19.1411 14.4267 19.0419 14.2532 18.8654C14.0798 18.689 13.9823 18.4496 13.9823 18.2V4.66673ZM18.5685 5.13339C18.5685 4.88378 18.6659 4.6444 18.8394 4.46793C19.0128 4.29142 19.2481 4.19226 19.4934 4.19226C19.7386 4.19226 19.9739 4.29142 20.1473 4.46793C20.3208 4.6444 20.4182 4.88378 20.4182 5.13339V17.5778C20.4182 17.8273 20.3208 18.0667 20.1473 18.2432C19.9739 18.4197 19.7386 18.5189 19.4934 18.5189C19.2481 18.5189 19.0128 18.4197 18.8394 18.2432C18.6659 18.0667 18.5685 17.8273 18.5685 17.5778V5.13339ZM25.3177 7.89489e-05H4.4661C4.01174 -0.00301971 3.56126 0.0851244 3.14046 0.25947C2.71962 0.433779 2.33675 0.690855 2.01369 1.01595C1.69063 1.34109 1.43378 1.72782 1.25785 2.15409C1.08188 2.58032 0.990298 3.03773 0.988281 3.50006V24.4999C0.990298 24.9623 1.08188 25.4197 1.25785 25.8459C1.43378 26.2722 1.69063 26.6589 2.01369 26.9841C2.33675 27.3092 2.71962 27.5662 3.14046 27.7405C3.56126 27.9149 4.01174 28.0029 4.4661 27.9999H25.3177C25.7714 28.0029 26.2213 27.9151 26.6416 27.7413C27.0619 27.5675 27.4445 27.3111 27.7674 26.9868C28.0904 26.6625 28.3474 26.2767 28.5238 25.8513C28.7002 25.426 28.7925 24.9694 28.7956 24.5077V3.50006C28.7935 3.03837 28.7022 2.58163 28.5267 2.15588C28.3512 1.73014 28.0951 1.34374 27.7728 1.01871C27.4506 0.69373 27.0686 0.436504 26.6487 0.26171C26.2287 0.0869159 25.7791 -0.00197438 25.3254 7.89489e-05" fill="#2E0757"/>
  </g>
  <defs>
    <clipPath id="clip0_83_74">
      <rect width="114" height="28" fill="white"/>
    </clipPath>
  </defs>
</svg>