<svg xmlns="http://www.w3.org/2000/svg" width="162" height="48" viewBox="0 0 162 48" fill="none">
  <path d="M42.4435 34.1923L44.7791 37.0319H43.5864L41.7975 34.8549L41.6981 34.9968V37.0319H40.7539V31.8259H41.6981V33.9556L43.7355 31.8259H44.8288L42.4435 34.1923Z" fill="#415364"/>
  <path d="M45.6738 31.8259H46.618V37.0319H45.6738V31.8259Z" fill="#415364"/>
  <path d="M53.177 37.0319H51.6862C50.9408 35.5648 50.1954 34.0976 49.4003 32.6305C49.45 34.0976 49.45 35.5648 49.45 37.0319H48.5059C48.5556 35.2808 48.5556 33.577 48.5059 31.8259H49.9967C50.7421 33.2931 51.4875 34.8075 52.2826 36.2747C52.1832 34.8075 52.2329 33.2931 52.2329 31.8259H53.177C53.1273 33.5297 53.1273 35.2808 53.177 37.0319Z" fill="#415364"/>
  <path d="M59.1899 34.1448V36.5584C58.4942 36.937 57.7985 37.079 57.1028 37.079C55.8605 37.079 54.6182 36.3691 54.6182 34.476C54.6182 32.441 55.8605 31.7311 57.3016 31.7311C58.0967 31.7311 58.7427 32.015 59.1899 32.5356L58.2955 33.0089C57.9476 32.6303 57.4507 32.4883 56.8047 32.4883C56.6059 32.4883 56.3574 32.5356 56.109 32.583C55.8605 32.9143 55.612 33.3875 55.612 34.2394C55.612 35.7539 56.3574 36.3218 57.3016 36.3218C57.5998 36.3218 57.8979 36.2745 58.1961 36.1798V34.902C57.8482 34.902 57.5501 34.902 57.0531 34.902L57.2022 34.1448C58.2458 34.1921 58.1464 34.1921 59.1899 34.1448Z" fill="#415364"/>
  <path d="M65.5011 36.0852H63.3643L63.0164 36.9844H62.0723L64.06 32.299L63.8612 31.7784H64.8551L66.8925 36.9844H65.8986L65.5011 36.0852ZM65.2029 35.328L64.4078 33.3402C64.3085 33.6242 64.2091 33.9082 64.1097 34.1448L63.6624 35.328H65.2029Z" fill="#415364"/>
  <path d="M71.8126 35.3753C71.8126 36.3218 70.9678 37.1264 68.9801 37.1264C68.6322 37.1264 68.1353 37.0791 67.9365 37.0317V31.9677C68.5825 31.8258 68.9801 31.7784 69.4273 31.7784C71.0175 31.7784 71.4647 32.4883 71.4647 33.1982C71.4647 33.6242 71.3157 34.0501 70.9678 34.3341C71.5144 34.4761 71.8126 34.8547 71.8126 35.3753ZM68.8807 32.5357V34.0501C69.6261 34.0501 69.9242 34.0501 70.2224 33.9555C70.3715 33.8135 70.4709 33.5295 70.4709 33.2929C70.4709 32.7723 70.0733 32.4883 69.3776 32.4883C69.1789 32.4883 69.0298 32.4883 68.8807 32.5357ZM70.8187 35.4699C70.8187 35.044 70.4709 34.8074 70.123 34.6654C69.5267 34.76 69.2782 34.76 68.8807 34.76V36.1798C69.0795 36.2272 69.2782 36.2745 69.6261 36.2745C70.0236 36.2745 70.2224 36.2745 70.5206 36.2272C70.6697 36.0379 70.8187 35.8012 70.8187 35.4699Z" fill="#415364"/>
  <path d="M77.6764 34.2867C77.6764 36.2745 76.3844 37.079 74.6451 37.079C74.1979 37.079 73.5518 37.0317 73.1543 36.9844V31.9204C73.85 31.7784 74.2475 31.7311 74.8439 31.7311C76.3347 31.7311 77.6764 32.441 77.6764 34.2867ZM76.6825 34.5234C76.6825 33.0562 75.8874 32.4883 74.8936 32.4883C74.6451 32.4883 74.3966 32.4883 74.0985 32.583V36.2271C74.3966 36.3218 74.7942 36.3218 75.3905 36.3218C75.6887 36.3218 75.8874 36.2745 76.1359 36.1798C76.4837 35.7539 76.6825 35.3279 76.6825 34.5234Z" fill="#415364"/>
  <path d="M83.341 31.8259V34.9968C83.341 36.038 82.5459 37.0792 81.1048 37.0792C80.1109 37.0792 79.0674 36.5113 79.0674 35.2335V31.8259H80.0116V35.1388C80.0116 35.9907 80.6079 36.3693 81.3036 36.3693C81.6017 36.3693 81.8502 36.322 82.049 36.2747C82.1981 36.038 82.2974 35.6594 82.2974 35.0915V31.8259H83.341Z" fill="#415364"/>
  <path d="M88.3607 36.1798L88.1619 36.9844H85.0312V31.7784H85.9754V36.1798C86.8202 36.2272 87.6153 36.2272 88.3607 36.1798Z" fill="#415364"/>
  <path d="M92.0372 36.0852H89.9004L89.5526 36.9844H88.6084L90.5961 32.299L90.3974 31.7784H91.3912L93.4286 36.9844H92.4348L92.0372 36.0852ZM91.7391 35.328L90.944 33.3402C90.8446 33.6242 90.7452 33.9082 90.6458 34.1448L90.1986 35.328H91.7391Z" fill="#415364"/>
  <path d="M98.1001 32.6305C97.0566 33.861 96.2118 35.0442 95.2676 36.2747C96.3112 36.2747 97.1063 36.2747 98.0504 36.2273L97.951 37.0319H93.9756L94.0253 36.2747C95.0688 35.0442 95.9633 33.8137 96.8578 32.5832C95.7645 32.5832 95.0191 32.5832 94.0253 32.6305L94.1247 31.8259H98.1001V32.6305Z" fill="#415364"/>
  <path d="M99.5908 31.8259H100.535V37.0319H99.5908V31.8259Z" fill="#415364"/>
  <path d="M106.1 32.6305C105.057 33.861 104.212 35.0442 103.317 36.2747C104.361 36.2747 105.156 36.2747 106.1 36.2273L106.001 37.0319H102.025L102.075 36.2747C103.119 35.0442 104.013 33.8137 104.908 32.5832C103.814 32.5832 103.069 32.5832 102.075 32.6305L102.174 31.8259H106.15L106.1 32.6305Z" fill="#415364"/>
  <path d="M110.821 32.5832V34.0503C111.517 34.0503 112.163 34.0503 112.859 34.0503L112.66 34.8549C112.063 34.8549 111.417 34.8549 110.821 34.8549V37.0319H109.877V31.8259H113.107L112.908 32.6305C112.213 32.5832 111.517 32.5832 110.821 32.5832Z" fill="#415364"/>
  <path d="M118.723 34.2867C118.723 36.3691 117.431 37.079 116.09 37.079C114.996 37.079 113.804 36.3691 113.804 34.5234C113.804 32.441 115.096 31.7311 116.437 31.7311C117.531 31.7311 118.723 32.441 118.723 34.2867ZM117.68 34.5234C117.68 33.0562 116.934 32.4883 115.99 32.4883C115.791 32.4883 115.543 32.5356 115.295 32.583C115.046 32.9143 114.798 33.3875 114.798 34.2867C114.798 35.8012 115.543 36.3218 116.487 36.3218C116.686 36.3218 116.934 36.2745 117.183 36.2271C117.481 35.8958 117.68 35.3753 117.68 34.5234Z" fill="#415364"/>
  <path d="M124.338 31.8259V34.9968C124.338 36.038 123.543 37.0792 122.102 37.0792C121.108 37.0792 120.064 36.5113 120.064 35.2335V31.8259H121.009V35.1388C121.009 35.9907 121.605 36.3693 122.301 36.3693C122.599 36.3693 122.847 36.322 123.046 36.2747C123.195 36.038 123.295 35.6594 123.295 35.0915V31.8259H124.338Z" fill="#415364"/>
  <path d="M130.798 37.0319H129.307C128.562 35.5648 127.817 34.0976 127.021 32.6305C127.071 34.0976 127.071 35.5648 127.071 37.0319H126.127C126.177 35.2808 126.177 33.577 126.127 31.8259H127.618C128.363 33.2931 129.109 34.8075 129.904 36.2747C129.804 34.8075 129.854 33.2931 129.854 31.8259H130.798C130.748 33.5297 130.748 35.2808 130.798 37.0319Z" fill="#415364"/>
  <path d="M137.209 34.2867C137.209 36.2745 135.917 37.079 134.177 37.079C133.73 37.079 133.084 37.0317 132.687 36.9844V31.9204C133.382 31.7784 133.78 31.7311 134.376 31.7311C135.867 31.7311 137.209 32.441 137.209 34.2867ZM136.165 34.5234C136.165 33.0562 135.37 32.4883 134.376 32.4883C134.128 32.4883 133.879 32.4883 133.581 32.583V36.2271C133.879 36.3218 134.277 36.3218 134.873 36.3218C135.171 36.3218 135.37 36.2745 135.618 36.1798C135.966 35.7539 136.165 35.3279 136.165 34.5234Z" fill="#415364"/>
  <path d="M141.333 36.0852H139.196L138.848 36.9844H137.904L139.892 32.299L139.693 31.7784H140.687L142.725 36.9844H141.731L141.333 36.0852ZM141.035 35.328L140.24 33.3402C140.14 33.6242 140.041 33.9082 139.942 34.1448L139.494 35.328H141.035Z" fill="#415364"/>
  <path d="M147.247 32.6305C146.601 32.5832 145.955 32.5832 145.508 32.5832V36.9846H144.563V32.5832C144.216 32.5832 143.52 32.5832 142.824 32.6305V31.8259H147.247V32.6305Z" fill="#415364"/>
  <path d="M148.191 31.8259H149.136V37.0319H148.191V31.8259Z" fill="#415364"/>
  <path d="M155.546 34.2867C155.546 36.3691 154.254 37.079 152.912 37.079C151.819 37.079 150.626 36.3691 150.626 34.5234C150.626 32.441 151.918 31.7311 153.26 31.7311C154.353 31.7311 155.546 32.441 155.546 34.2867ZM154.502 34.5234C154.502 33.0562 153.757 32.4883 152.812 32.4883C152.614 32.4883 152.365 32.5356 152.117 32.583C151.868 32.9143 151.62 33.3875 151.62 34.2867C151.62 35.8012 152.365 36.3218 153.309 36.3218C153.508 36.3218 153.757 36.2745 154.005 36.2271C154.303 35.8958 154.502 35.3753 154.502 34.5234Z" fill="#415364"/>
  <path d="M161.707 37.0319H160.216C159.471 35.5648 158.726 34.0976 157.931 32.6305C157.98 34.0976 157.98 35.5648 157.98 37.0319H157.036C157.086 35.2808 157.086 33.577 157.036 31.8259H158.527C159.272 33.2931 160.018 34.8075 160.813 36.2747C160.713 34.8075 160.763 33.2931 160.763 31.8259H161.707C161.658 33.5297 161.658 35.2808 161.707 37.0319Z" fill="#415364"/>
  <path d="M47.7603 22.3605V24.2536L47.4125 24.3009H45.4745C45.0769 25.8627 44.0334 26.9985 43.3377 27.8031C42.3935 27.4245 41.5984 26.8092 41.0518 26.194C41.8469 25.7207 43.2383 25.0108 44.2321 23.6856C43.8843 22.4551 42.9898 21.1773 42.3438 20.3728L44.1824 19.0949C44.9278 19.8995 45.3751 21.3193 45.5242 22.3132H47.3628L47.7603 22.3605ZM43.1389 18.2904L41.9959 16.7286L43.6358 15.5454L44.7788 17.1072L43.1389 18.2904Z" fill="#415364"/>
  <path d="M47.0645 24.2535V22.3604L47.4123 22.3131H51.6362L51.9841 22.3604V24.2535L51.6362 24.3008H47.4123L47.0645 24.2535Z" fill="#415364"/>
  <path d="M53.9223 28.229L53.1769 27.2351L51.7855 28.229L50.6426 26.6672L52.2825 25.484L53.0279 26.4779L54.4193 25.484L55.5622 27.0458L53.9223 28.229ZM51.6364 24.3008L51.2886 24.2535V22.3604L51.6364 22.3131H53.0775C53.0775 21.3192 52.9285 20.3727 52.68 19.3788L54.6677 18.9529C54.8168 19.5681 54.9659 20.562 54.9659 21.8398C54.9659 22.8337 54.8665 23.3543 54.6677 24.2535H51.6364V24.3008Z" fill="#415364"/>
  <path d="M62.9166 22.3605V24.2536L62.5687 24.3009H60.6307C60.2332 25.8627 59.1896 26.9985 58.4939 27.8031C57.5497 27.4245 56.7546 26.8092 56.208 26.194C57.0031 25.7207 58.3945 25.0108 59.3884 23.6856C59.0405 22.4551 58.146 21.1773 57.5 20.3728L59.3387 19.0949C60.0841 19.8995 60.5313 21.3193 60.6804 22.3132H62.5191L62.9166 22.3605ZM58.3448 18.2904L57.2019 16.7286L58.8418 15.5454L59.9847 17.1072L58.3448 18.2904Z" fill="#415364"/>
  <path d="M69.9728 22.3605V24.2536L69.625 24.3009C68.1342 24.3009 67.0409 24.1589 66.0968 23.6383C64.9538 24.1589 63.9103 24.3009 62.5686 24.3009L62.2207 24.2536V22.3605L62.5686 22.3132C63.3636 22.3132 63.96 22.2659 64.5563 22.1712C63.8109 21.5086 63.3636 21.0827 62.9164 20.6567L63.4133 18.669C64.2581 18.3377 64.9538 17.9591 66.2459 17.9591C67.9851 17.9591 69.0784 18.669 69.0784 19.8049C69.0784 20.6567 68.2833 21.556 67.5379 22.1239C68.0845 22.2659 68.6808 22.3132 69.5753 22.3132L69.9728 22.3605ZM66.1465 19.9942C65.5998 19.9942 65.0532 20.0888 64.5066 20.3255C64.9538 20.7041 65.5502 21.272 66.1962 21.6033C66.8422 21.272 67.4882 20.9407 67.4882 20.5621C67.4882 20.1361 66.7428 19.9942 66.1465 19.9942Z" fill="#415364"/>
  <path d="M72.7062 14.7881L72.6068 24.3008H69.6252L69.2773 24.2535V22.3604L69.6252 22.3131H70.7681L70.5197 15.1667L72.7062 14.7881Z" fill="#415364"/>
  <path d="M74.0479 15.214L76.1847 14.7881L76.0853 24.3954L74.346 24.6321L74.0479 15.214Z" fill="#415364"/>
  <path d="M85.378 22.3605V24.2536L85.0301 24.3009H83.6884H83.2908C82.0982 24.3009 81.1043 24.3009 80.2595 24.3009C79.4645 24.3009 78.8184 24.2063 78.4209 24.0643L78.6694 22.1239C79.0172 22.2659 79.6632 22.3605 80.4583 22.3605H82.297C81.8497 21.1773 81.005 20.1361 79.862 19.2843L81.8 17.9591C83.1915 19.0003 84.0362 21.0354 84.0859 22.3605H84.9804H85.378Z" fill="#415364"/>
  <path d="M90.0495 22.3604V24.2535L89.7016 24.3008H85.0305L84.6826 24.2535V22.3604L85.0305 22.3131H86.4716C86.4716 21.3192 86.3225 20.3727 86.074 19.3788L88.0618 18.9529C88.2108 19.5681 88.3599 20.562 88.3599 21.8398C88.3599 21.9818 88.3599 22.1711 88.3599 22.3131H89.7513L90.0495 22.3604ZM87.5648 25.5786L88.7078 27.1404L87.0679 28.3236L85.9249 26.7618L87.5648 25.5786Z" fill="#415364"/>
  <path d="M96.0124 21.6979V23.5437C95.1676 23.875 93.0805 24.2536 90.3971 24.2536H89.7014L89.3535 24.2063V22.3132L89.7014 22.2659C90.0492 22.2659 90.4965 22.2659 90.9934 22.2185C90.6952 21.8872 90.5462 21.4613 90.5462 20.988C90.5462 19.3789 91.9376 17.9591 93.9253 17.9591C94.4222 17.9591 94.7204 18.0538 95.0682 18.1957L95.4161 20.2308C95.0682 20.1361 94.3725 19.9942 93.5278 19.9942C92.683 19.9942 91.7885 20.1361 91.54 20.6094C91.7885 21.0827 92.5836 21.7926 93.6768 22.0292C95.0185 21.9346 95.6149 21.7926 96.0124 21.6979Z" fill="#415364"/>
  <path d="M114.101 22.3604V24.2535L113.753 24.3008H104.51C102.572 24.3008 101.926 22.739 101.926 21.8398C101.926 21.4612 101.975 21.0352 102.075 20.6566L103.615 19.994C103.615 20.1834 103.615 20.3727 103.615 20.5146C103.615 21.7451 104.212 22.3604 105.206 22.3604H110.423L110.175 15.214L112.312 14.7881L112.212 22.3604H113.753H114.101ZM108.684 20.3727L105.553 20.9879L105.653 20.0887L106.299 19.9467C106.1 19.7574 105.901 19.3315 105.901 18.9529C105.901 18.2429 106.498 17.675 107.392 17.675C107.69 17.675 107.889 17.7224 108.088 17.817L108.187 18.7162C108.038 18.6689 107.79 18.5742 107.491 18.5742C107.094 18.5742 106.746 18.7162 106.597 18.9055C106.647 19.2368 107.044 19.5681 107.889 19.5681L108.833 19.3788L108.684 20.3727Z" fill="#415364"/>
  <path d="M118.126 22.3606V24.2537L117.778 24.301H113.703L113.355 24.2537V22.3606L113.703 22.3133H114.797L114.548 15.1669L116.685 14.741L116.586 22.3133H117.728L118.126 22.3606Z" fill="#415364"/>
  <path d="M126.226 22.3605V24.2536L125.879 24.3009C125.133 24.3009 124.537 24.1116 124.09 23.7803C123.642 24.2063 123.046 24.4429 122.301 24.4429C121.158 24.4429 120.313 23.9696 119.717 23.3544C119.269 23.9696 118.822 24.3009 117.828 24.3009L117.48 24.2536V22.3605L117.828 22.3132C118.574 22.3132 118.971 21.7926 119.468 20.9407C119.915 20.1361 120.76 18.4324 122.45 18.4324C124.09 18.4324 124.785 19.9942 124.785 21.6033C124.785 21.6979 124.785 21.8399 124.785 21.9346C125.034 22.1712 125.431 22.2659 125.928 22.2659L126.226 22.3605ZM123.394 22.3605C123.344 21.3193 122.947 20.7041 122.052 20.7041C121.307 20.7041 120.86 21.13 120.462 21.8399C121.158 22.1712 122.251 22.3132 123.394 22.3605Z" fill="#415364"/>
  <path d="M128.959 14.7881L128.86 24.3008H125.878L125.53 24.2535V22.3604L125.878 22.3131H127.021L126.773 15.214L128.959 14.7881Z" fill="#415364"/>
  <path d="M130.301 15.214L132.438 14.7881L132.338 24.3954L130.599 24.6321L130.301 15.214Z" fill="#415364"/>
  <path d="M143.768 21.6032C143.768 23.3543 142.873 24.3955 141.084 24.3955C139.593 24.3955 138.55 23.6856 138.55 21.9818C138.55 20.5147 139.742 18.2903 141.382 18.2903C142.625 18.2903 143.768 20.3727 143.768 21.6032ZM139.941 16.9178L138.798 15.356L140.438 14.1729L141.184 15.1667L142.575 14.1729L143.718 15.7346L142.078 16.9178L141.333 15.9239L139.941 16.9178ZM141.134 22.3604C141.73 22.3604 142.227 22.2184 142.575 22.0291C142.326 21.4139 141.78 20.6566 141.184 20.2307C140.488 20.562 139.892 21.0826 139.892 21.6032C139.892 22.2658 140.687 22.3604 141.134 22.3604Z" fill="#415364"/>
  <path d="M149.582 23.1176C149.582 25.2947 148.19 26.8091 147.296 27.803C146.351 27.4244 145.556 26.8091 145.01 26.1939C145.805 25.7206 147.196 25.0107 148.19 23.6856C147.842 22.4551 146.948 21.1772 146.302 20.3727L148.14 19.0948C149.134 20.1834 149.582 22.1238 149.582 23.1176Z" fill="#415364"/>
  <path d="M151.371 15.214L153.508 14.7881L153.409 24.3954L151.669 24.6321L151.371 15.214Z" fill="#415364"/>
  <path d="M161.26 22.4552C161.26 23.0704 161.061 23.8276 160.812 24.3009H157.384C156.588 24.3009 155.942 24.2063 155.545 24.0643L155.793 22.1239C156.141 22.2659 156.787 22.3605 157.582 22.3605H159.421C158.974 21.1773 158.129 20.1361 156.986 19.2843L158.924 17.9591C160.365 19.0003 161.26 21.13 161.26 22.4552Z" fill="#415364"/>
  <path d="M41.3998 41.3387V42.3326C41.847 42.3326 42.2943 42.3326 42.7415 42.3326L42.5924 42.8532C42.1949 42.8532 41.7974 42.8532 41.3501 42.8532V44.273H40.7041V40.8181H42.8409L42.6918 41.3387C42.344 41.3387 41.8967 41.3387 41.3998 41.3387Z" fill="#415364"/>
  <path d="M48.4555 42.4273C48.4555 43.7998 47.6107 44.273 46.7163 44.273C45.9709 44.273 45.1758 43.7998 45.1758 42.5693C45.1758 41.1968 46.0206 40.7235 46.915 40.7235C47.6604 40.7708 48.4555 41.1968 48.4555 42.4273ZM47.7598 42.5693C47.7598 41.5754 47.2629 41.2441 46.6666 41.2441C46.5672 41.2441 46.3684 41.2914 46.2193 41.3388C46.0703 41.5754 45.8715 41.9067 45.8715 42.4746C45.8715 43.4685 46.3684 43.7998 46.9647 43.7998C47.1138 43.7998 47.2629 43.7998 47.412 43.7051C47.6108 43.4685 47.7598 43.1845 47.7598 42.5693Z" fill="#415364"/>
  <path d="M52.3324 42.9006C52.1833 42.9479 52.0342 42.9479 51.8355 42.9479V44.2257H51.1895V40.8655C51.6367 40.7708 51.8852 40.7235 52.1833 40.7235C53.2269 40.7235 53.5747 41.1968 53.5747 41.7174C53.5747 42.1433 53.376 42.4746 52.9784 42.7112C53.2766 43.2318 53.5747 43.7051 53.8729 44.2257H53.1275C52.8293 43.7998 52.5809 43.3738 52.3324 42.9006ZM51.8355 42.4746C52.233 42.4746 52.4318 42.4746 52.5809 42.4273C52.7299 42.3326 52.879 42.1433 52.879 41.8594C52.879 41.4807 52.6306 41.2441 52.1833 41.2441C52.0342 41.2441 51.9349 41.2441 51.8355 41.2914V42.4746Z" fill="#415364"/>
  <path d="M60.7797 42.9006C60.6306 42.9479 60.4815 42.9479 60.2827 42.9479V44.2257H59.6367V40.8655C60.084 40.7708 60.3324 40.7235 60.6306 40.7235C61.6741 40.7235 62.022 41.1968 62.022 41.7174C62.022 42.1433 61.8232 42.4746 61.4257 42.7112C61.7238 43.2318 62.022 43.7051 62.3202 44.2257H61.5748C61.2766 43.7998 61.0281 43.3738 60.7797 42.9006ZM60.2827 42.4746C60.6803 42.4746 60.8791 42.4746 61.0281 42.4273C61.1772 42.3326 61.3263 42.1433 61.3263 41.8594C61.3263 41.4807 61.0778 41.2441 60.6306 41.2441C60.4815 41.2441 60.3821 41.2441 60.2827 41.2914V42.4746Z" fill="#415364"/>
  <path d="M65.5014 43.7049C66.048 43.7049 66.4952 43.7049 66.9425 43.7049L66.7934 44.2255H64.8057V40.7706H66.9425L66.7934 41.2912C66.3958 41.2912 65.9486 41.2912 65.4517 41.2912V42.2378C65.8989 42.2378 66.3462 42.2378 66.7934 42.2378L66.6443 42.7584C66.2468 42.7584 65.8492 42.7584 65.402 42.7584V43.7049H65.5014Z" fill="#415364"/>
  <path d="M71.7123 43.3736C71.7123 43.9415 71.2651 44.3202 70.3706 44.3202C69.9234 44.3202 69.6252 44.2255 69.2773 44.0362L69.3767 43.5629C69.5755 43.6576 69.9731 43.7996 70.4203 43.7996C70.6688 43.7996 70.8675 43.7522 71.0166 43.6576C71.0166 43.6102 71.0166 43.5629 71.0166 43.5156C71.0166 43.137 70.5694 42.9003 70.2215 42.711C69.824 42.4744 69.3767 42.1904 69.3767 41.6698C69.3767 41.1492 69.7743 40.7706 70.6688 40.7706C71.116 40.7706 71.4142 40.9126 71.7123 41.0546L71.6129 41.5279C71.3645 41.4332 71.0166 41.2912 70.6191 41.2912C70.4203 41.2912 70.2215 41.3386 70.0724 41.3859C70.0227 41.4332 70.0227 41.5279 70.0227 41.5752C70.0227 41.9065 70.4203 42.0958 70.7184 42.2851C71.2154 42.4744 71.7123 42.8057 71.7123 43.3736Z" fill="#415364"/>
  <path d="M75.0424 43.7049C75.589 43.7049 76.0363 43.7049 76.4835 43.7049L76.3344 44.2255H74.3467V40.7706H76.4835L76.3344 41.2912C75.9369 41.2912 75.4896 41.2912 74.9927 41.2912V42.2378C75.4399 42.2378 75.8872 42.2378 76.3344 42.2378L76.1853 42.7584C75.7878 42.7584 75.3902 42.7584 74.943 42.7584V43.7049H75.0424Z" fill="#415364"/>
  <path d="M80.9557 43.6577H79.5146L79.2661 44.273H78.6201L79.9121 41.1494L79.7631 40.8181H80.4091L81.7508 44.273H81.1048L80.9557 43.6577ZM80.7569 43.1371L80.26 41.812C80.2103 42.0013 80.1109 42.1906 80.0612 42.3326L79.7631 43.0898H80.7569V43.1371Z" fill="#415364"/>
  <path d="M85.4281 42.9006C85.279 42.9479 85.1299 42.9479 84.9312 42.9479V44.2257H84.2852V40.8655C84.7324 40.7708 84.9809 40.7235 85.279 40.7235C86.3226 40.7235 86.6704 41.1968 86.6704 41.7174C86.6704 42.1433 86.4717 42.4746 86.0741 42.7112C86.3723 43.2318 86.6704 43.7051 86.9686 44.2257H86.2232C85.925 43.7998 85.6766 43.3738 85.4281 42.9006ZM84.9312 42.4746C85.3287 42.4746 85.5275 42.4746 85.6766 42.4273C85.8256 42.3326 85.9747 42.1433 85.9747 41.8594C85.9747 41.4807 85.7263 41.2441 85.279 41.2441C85.1299 41.2441 85.0306 41.2441 84.9312 41.2914V42.4746Z" fill="#415364"/>
  <path d="M91.9373 43.6102L92.0367 43.9889C91.7386 44.2255 91.341 44.3202 90.8938 44.3202C90.049 44.3202 89.2539 43.8469 89.2539 42.6164C89.2539 41.2912 90.0987 40.7706 90.9435 40.7706C91.3907 40.7706 91.838 40.9599 92.1361 41.2912L91.5398 41.6225C91.2913 41.3859 90.9932 41.2912 90.695 41.2912C90.5459 41.2912 90.3969 41.3386 90.2478 41.3859C90.0987 41.6225 89.9496 41.9065 89.9496 42.4744C89.9496 43.4683 90.4465 43.8469 91.0926 43.8469C91.3907 43.7996 91.5895 43.7049 91.9373 43.6102Z" fill="#415364"/>
  <path d="M97.6526 40.8181V44.273H97.0066V42.7585C96.46 42.7585 95.9133 42.7585 95.3667 42.7585V44.273H94.7207V40.8181H95.3667V42.2379C95.9133 42.2379 96.46 42.2379 97.0066 42.2379V40.8181H97.6526Z" fill="#415364"/>
  <path d="M105.603 43.6577H104.162L103.914 44.273H103.268L104.56 41.1494L104.411 40.8181H105.057L106.398 44.273H105.752L105.603 43.6577ZM105.404 43.1371L104.907 41.812C104.858 42.0013 104.758 42.1906 104.709 42.3326L104.411 43.0898H105.404V43.1371Z" fill="#415364"/>
  <path d="M112.063 44.2255H111.07C110.573 43.279 110.076 42.2851 109.579 41.2912C109.628 42.2851 109.628 43.2316 109.628 44.2255H108.982C108.982 43.0897 108.982 41.9065 108.982 40.7706H109.976C110.473 41.7645 110.97 42.7584 111.467 43.7049C111.417 42.711 111.417 41.7172 111.417 40.7706H112.063C112.063 41.9538 112.063 43.0897 112.063 44.2255Z" fill="#415364"/>
  <path d="M118.076 42.4273C118.076 43.7524 117.231 44.273 116.039 44.273C115.741 44.273 115.293 44.2257 115.045 44.2257V40.8655C115.492 40.7708 115.79 40.7235 116.188 40.7235C117.182 40.7708 118.076 41.2441 118.076 42.4273ZM117.43 42.5693C117.43 41.5754 116.884 41.2441 116.238 41.2441C116.039 41.2441 115.89 41.2441 115.691 41.2914V43.7051C115.89 43.7524 116.138 43.7998 116.536 43.7998C116.734 43.7998 116.884 43.7524 117.033 43.7051C117.281 43.4211 117.43 43.1372 117.43 42.5693Z" fill="#415364"/>
  <path d="M125.829 43.6577H124.388L124.139 44.273H123.493L124.785 41.1494L124.636 40.8181H125.282L126.624 44.273H125.978L125.829 43.6577ZM125.63 43.1371L125.133 41.812C125.083 42.0013 124.984 42.1906 124.934 42.3326L124.636 43.0898H125.63V43.1371Z" fill="#415364"/>
  <path d="M130.301 42.9006C130.152 42.9479 130.003 42.9479 129.804 42.9479V44.2257H129.158V40.8655C129.605 40.7708 129.854 40.7235 130.152 40.7235C131.196 40.7235 131.543 41.1968 131.543 41.7174C131.543 42.1433 131.345 42.4746 130.947 42.7112C131.245 43.2318 131.543 43.7051 131.842 44.2257H131.096C130.848 43.7998 130.55 43.3738 130.301 42.9006ZM129.804 42.4746C130.202 42.4746 130.401 42.4746 130.55 42.4273C130.699 42.3326 130.848 42.1433 130.848 41.8594C130.848 41.4807 130.599 41.2441 130.152 41.2441C130.003 41.2441 129.904 41.2441 129.804 41.2914V42.4746Z" fill="#415364"/>
  <path d="M136.81 43.6102L136.91 43.9889C136.612 44.2255 136.214 44.3202 135.767 44.3202C134.922 44.3202 134.127 43.8469 134.127 42.6164C134.127 41.2912 134.972 40.7706 135.817 40.7706C136.264 40.7706 136.711 40.9599 137.009 41.2912L136.413 41.6225C136.164 41.3859 135.866 41.2912 135.568 41.2912C135.419 41.2912 135.27 41.3386 135.121 41.3859C134.972 41.6225 134.823 41.9065 134.823 42.4744C134.823 43.4683 135.32 43.8469 135.966 43.8469C136.264 43.7996 136.463 43.7049 136.81 43.6102Z" fill="#415364"/>
  <path d="M142.526 40.8181V44.273H141.88V42.7585C141.333 42.7585 140.786 42.7585 140.24 42.7585V44.273H139.594V40.8181H140.24V42.2379C140.786 42.2379 141.333 42.2379 141.88 42.2379V40.8181H142.526Z" fill="#415364"/>
  <path d="M145.507 40.8181H146.153V44.273H145.507V40.8181Z" fill="#415364"/>
  <path d="M151.967 40.8181C151.47 41.954 151.073 43.0898 150.625 44.273H149.93C149.482 43.1371 149.085 42.0013 148.588 40.8181H149.333C149.631 41.6227 149.93 42.4746 150.327 43.5631C150.675 42.4746 150.973 41.67 151.271 40.8181H151.967Z" fill="#415364"/>
  <path d="M155.048 43.7049C155.595 43.7049 156.042 43.7049 156.489 43.7049L156.34 44.2255H154.353V40.7706H156.489L156.34 41.2912C155.943 41.2912 155.495 41.2912 154.999 41.2912V42.2378C155.446 42.2378 155.893 42.2378 156.34 42.2378L156.191 42.7584C155.794 42.7584 155.396 42.7584 154.949 42.7584V43.7049H155.048Z" fill="#415364"/>
  <path d="M161.26 43.3736C161.26 43.9415 160.813 44.3202 159.918 44.3202C159.471 44.3202 159.173 44.2255 158.825 44.0362L158.925 43.5629C159.123 43.6576 159.521 43.7996 159.968 43.7996C160.217 43.7996 160.415 43.7522 160.564 43.6576C160.564 43.6102 160.564 43.5629 160.564 43.5156C160.564 43.137 160.117 42.9003 159.769 42.711C159.372 42.4744 158.925 42.1904 158.925 41.6698C158.925 41.1492 159.322 40.7706 160.217 40.7706C160.664 40.7706 160.962 40.9126 161.26 41.0546L161.161 41.5279C160.912 41.4332 160.564 41.2912 160.167 41.2912C159.968 41.2912 159.769 41.3386 159.62 41.3859C159.571 41.4332 159.571 41.5279 159.571 41.5752C159.571 41.9065 159.968 42.0958 160.266 42.2851C160.813 42.4744 161.26 42.8057 161.26 43.3736Z" fill="#415364"/>
  <path d="M24.7381 8.03694C22.5866 7.79869 20.26 8.79938 18.4838 9.87154C16.7076 8.79938 14.381 7.79869 12.2295 8.03694L12.3045 8.0846C12.8549 8.15607 15.0314 8.2752 17.9334 10.2051C17.2079 10.6816 16.5825 11.1581 16.0571 11.5394C15.4817 10.9914 14.9564 11.3726 14.9314 11.4679C15.1565 11.4917 15.3567 11.6823 15.5818 11.9206C15.2566 12.1588 15.0314 12.3494 14.8813 12.4209C14.431 12.6592 14.2559 12.2303 13.9057 12.4686C13.3803 12.8021 14.1558 13.3978 14.3309 13.4216C14.5561 13.4454 15.2316 13.4454 16.1572 12.5877C16.1822 12.5877 16.1822 12.6115 16.2072 12.6115C16.7326 12.9927 17.333 12.8974 17.4581 12.5639C17.2329 12.5877 17.0078 12.5162 16.6325 12.1588C17.283 11.5632 17.9084 11.039 18.5088 10.6102C19.1343 11.0628 19.7847 11.587 20.4602 12.2303C20.1099 12.5162 19.8848 12.5877 19.6846 12.5401C19.7847 12.8736 20.3851 13.0166 20.9355 12.6354C21.8111 13.4216 22.4616 13.4216 22.6867 13.3978C22.8368 13.3978 23.6124 12.7783 23.112 12.4448C22.7618 12.2303 22.5866 12.6354 22.1363 12.3971C22.0112 12.3494 21.8111 12.1827 21.5609 11.9921C21.7861 11.7538 22.0363 11.5394 22.2614 11.5394C22.1864 11.4441 21.686 11.039 21.0356 11.6347C20.5102 11.2296 19.8347 10.7293 19.0342 10.2051C21.9362 8.2752 24.1627 8.1799 24.7131 8.10842L24.7381 8.03694Z" fill="#415364"/>
  <path d="M15.9571 3.79599C15.4817 4.12956 15.2316 4.67756 15.2065 4.86816L15.2816 4.91582C15.6569 4.72521 15.9571 4.5346 16.2323 4.46312C16.0571 4.74903 15.932 5.15408 15.907 5.74972L15.9571 5.79738C16.2323 5.36851 16.6075 4.93964 17.0828 4.6299C16.7576 5.27321 16.9327 6.15477 17.0078 6.41685L17.0578 6.4645C17.383 5.29703 17.9334 4.86816 18.1836 4.77286L18.0835 8.70415H18.9591L18.8591 4.77286C19.1092 4.89199 19.6596 5.32086 19.9848 6.4645L20.0349 6.41685C20.1099 6.13094 20.2851 5.27321 19.9598 4.6299C20.4602 4.93964 20.8354 5.36851 21.1106 5.79738L21.1607 5.74972C21.1356 5.15408 20.9855 4.74903 20.8354 4.46312C21.1106 4.5346 21.4108 4.72521 21.7861 4.91582L21.8361 4.86816C21.8111 4.67756 21.5359 4.10573 21.0856 3.79599C21.3858 3.74834 21.711 3.79599 22.1363 3.86747L22.1864 3.81982C22.0613 3.65304 21.5109 3.22417 20.9105 3.10504C20.9855 3.05739 21.3358 2.93826 21.7611 2.91443L21.8111 2.86678C21.5109 2.58087 20.9105 2.43791 20.6853 2.43791C20.7854 2.34261 21.0356 2.19965 21.2357 2.152L21.1857 2.10435C20.6603 1.88992 20.1349 1.93757 19.7847 2.08052C19.8347 1.96139 19.9098 1.81844 20.0349 1.604H19.9598C19.6096 1.65166 19.1343 1.93757 18.784 2.19965C18.759 2.152 18.6589 1.72313 18.5589 1.604H18.4588C18.3587 1.72313 18.2587 2.152 18.2336 2.19965C17.8834 1.93757 17.4081 1.65166 17.0578 1.604H16.9828C17.1329 1.79461 17.2079 1.93757 17.2329 2.08052C16.8827 1.96139 16.3573 1.88992 15.832 2.10435L15.7819 2.152C15.9821 2.19965 16.2573 2.34261 16.3323 2.43791C16.1072 2.43791 15.5068 2.58087 15.1565 2.84296L15.2065 2.89061C15.6318 2.91443 15.9821 3.03356 16.0571 3.08121C15.4817 3.22417 14.9063 3.62921 14.7812 3.79599L14.8313 3.84365C15.3316 3.79599 15.6569 3.74834 15.9571 3.79599Z" fill="#415364"/>
  <path d="M24.9383 15.4231L24.8633 15.4946C27.9154 19.7832 27.365 28.4559 27.365 29.8378V42.8468H25.6138V37.6766C25.6138 35.4369 24.438 32.8161 20.9606 31.2674L20.8855 31.3389C23.3622 32.8637 23.9626 35.4369 23.9626 37.6766V42.8468H15.832V44.2525H29.0662V29.8378C29.0662 28.4559 29.1162 19.0446 24.9383 15.4231Z" fill="#415364"/>
  <path d="M19.4092 18.3774C19.3842 16.9479 18.9589 14.1126 18.5836 13.2787H18.4585C18.1083 14.1364 17.708 16.9717 17.708 18.3774V41.1313H19.4092V18.3774Z" fill="#415364"/>
  <path d="M24.4129 9.99072L24.3379 10.0622C32.0932 15.7804 31.3928 24.5246 31.3928 29.5042V44.2287H33.0939V29.5042C33.0189 26.0494 33.6693 15.423 24.4129 9.99072Z" fill="#415364"/>
  <path d="M9.35254 26.4067C8.87721 26.4067 8.50195 26.7641 8.50195 27.193C8.50195 27.6219 8.87721 27.9793 9.35254 27.9793C9.82787 27.9793 10.2031 27.6219 10.2031 27.193C10.2031 26.7641 9.82787 26.4067 9.35254 26.4067Z" fill="#415364"/>
  <path d="M9.35254 28.432C8.87721 28.432 8.50195 28.7894 8.50195 29.2183C8.50195 29.6471 8.87721 30.0045 9.35254 30.0045C9.82787 30.0045 10.2031 29.6471 10.2031 29.2183C10.2031 28.7894 9.82787 28.432 9.35254 28.432Z" fill="#415364"/>
  <path d="M8.5021 42.8467H6.02539V32.7921C6.02539 31.1005 6.92602 30.9813 7.57647 30.9813H8.5021V42.8467ZM10.2033 30.5763H6.901C5.97536 30.5763 4.47432 30.9099 4.32422 32.53V44.2286H10.1783V30.5763H10.2033Z" fill="#415364"/>
  <path d="M6.02577 29.8616V29.5042C6.02577 24.5008 5.32528 15.7805 13.0806 10.0384L13.0056 9.96692C3.74919 15.3992 4.39964 26.0256 4.34961 29.4804V30.624H4.42466C4.82494 30.1952 5.57546 29.9331 6.02577 29.8616Z" fill="#415364"/>
  <path d="M12.4796 15.4231C9.72771 17.8295 8.87713 22.4279 8.62695 25.8827C8.82709 25.8112 9.05225 25.7636 9.2774 25.7636C9.55259 25.7636 9.80277 25.8112 10.0279 25.9304C10.103 22.6424 10.5783 18.306 12.5547 15.4946L12.4796 15.4231Z" fill="#415364"/>
  <path d="M16.5822 31.2435C13.0798 32.7684 11.929 35.4131 11.929 37.6527V43.776C11.929 45.4676 11.2535 46.7066 9.00195 46.8972L9.02697 46.9925C12.2292 47.3022 13.48 45.6821 13.48 43.7522V37.6289C13.48 35.3893 14.2306 32.816 16.6823 31.2912L16.5822 31.2435Z" fill="#415364"/>
</svg>