<svg xmlns="http://www.w3.org/2000/svg" width="103" height="14" viewBox="0 0 103 14" fill="none">
  <g clip-path="url(#clip0_83_72)">
    <path fill-rule="evenodd" clip-rule="evenodd" d="M102.268 13.7127V0.271234H99.2395V8.94671C98.7375 8.06268 94.2883 0.271234 94.2883 0.271234H90.3582V13.7127H93.3901V4.81109C93.9058 5.70196 98.4883 13.7127 98.4883 13.7127H102.268ZM6.9248 8.49102C7.17407 7.70977 9.58838 0.271234 9.58838 0.271234H13.8499V13.7127H10.8723V4.49932C10.394 6.03088 7.9834 13.7127 7.9834 13.7127H5.73657C5.73657 13.7127 3.44531 6.11999 2.96387 4.53356V13.7127H0V0.271234H4.27173C4.27173 0.271234 6.6687 7.70635 6.9248 8.49102ZM42.3142 11.1087H48.9863V13.7127H39.0874V0.271234H48.9863V2.88207H42.3142V5.38329H48.4331V7.9873H42.3142V11.1087ZM29.417 5.36273C29.9326 4.77001 33.5146 0.271234 33.5146 0.271234V0.267816H37.5405L34.8232 3.33978C33.4844 4.85345 32.1323 6.38152 32.0293 6.49688C32.2341 6.74359 37.8513 13.7127 37.8513 13.7127H33.6035C33.6035 13.7127 29.9531 8.43957 29.417 7.77831V13.7127H26.3713V0.271234H29.417V5.36273ZM81.9307 0.00396095C77.8196 0.00396095 75.5967 2.81701 75.5967 6.95257C75.5967 11.1019 77.782 13.9834 81.9307 13.98C86.0283 13.98 88.2615 11.0402 88.2615 6.95257C88.2615 2.87182 85.9873 0.00396095 81.9307 0.00396095ZM81.9307 11.1567C79.6702 11.1567 78.8303 9.05291 78.8303 6.96282C78.8303 4.92761 79.7317 2.841 81.9307 2.83752C84.1365 2.83752 85.0381 4.92761 85.0381 6.96282C85.0381 9.05291 84.2014 11.1567 81.9307 11.1567ZM57.0054 5.41412C57.1655 5.45526 57.3284 5.49713 57.4922 5.54089C59.5273 6.07202 61.9175 6.83264 61.9175 9.55999C61.9175 10.6702 61.5317 11.6467 60.7908 12.3799C59.7732 13.4044 58.0898 13.9731 56.0513 13.9731C54.1868 13.9731 53.0156 13.6476 51.0864 12.887L51.9536 10.1802C53.3774 11.0127 54.5728 11.3726 55.8906 11.3726C57.021 11.3726 58.7009 11.0059 58.7009 9.96777C58.7009 9.06255 57.6516 8.78619 56.4622 8.47295C56.283 8.42571 56.1006 8.37768 55.918 8.32653L55.8069 8.29443C53.6865 7.68206 51.2263 6.97137 51.2263 4.328C51.2263 1.69317 53.3025 0.0347837 56.6624 0.00054298C58.52 -0.0166079 59.8279 0.374017 61.5352 0.963312L60.876 3.69756C59.7595 3.07397 58.9331 2.83068 57.5264 2.71417C56.5977 2.64568 55.4229 2.78613 54.9072 3.27612C54.7058 3.47143 54.6138 3.69415 54.6206 3.96478C54.6448 4.80749 55.7378 5.08837 57.0054 5.41412ZM69.1545 5.41241C69.3169 5.4541 69.4822 5.49651 69.6482 5.54089C71.6731 6.07202 74.0669 6.83264 74.0806 9.55999C74.0806 10.6702 73.6877 11.6467 72.957 12.3799C71.9292 13.4044 70.2458 13.9731 68.2107 13.9731C66.343 13.9731 65.1648 13.6476 63.239 12.887L64.1099 10.1802C65.5337 11.0127 66.7253 11.3726 68.0469 11.3726C69.1804 11.3726 70.8606 11.0059 70.8606 9.96777C70.8606 9.06316 69.8098 8.78655 68.6211 8.47357C68.4409 8.42614 68.2576 8.37792 68.0742 8.32653L67.9587 8.29308C65.8425 7.68102 63.3823 6.96948 63.3823 4.328C63.3823 1.69317 65.4585 0.0347837 68.8152 0.00054298C70.676 -0.0166079 71.9805 0.374017 73.6877 0.963312L73.0356 3.69756C71.9087 3.07397 71.0825 2.83068 69.6755 2.71417C68.7537 2.64568 67.5825 2.78613 67.0601 3.27612C66.8652 3.47143 66.7698 3.69415 66.7732 3.96478C66.7913 4.80596 67.8877 5.0874 69.1545 5.41241ZM24.2029 9.25848C23.3152 9.68334 22.2327 9.87524 21.1025 9.87524C17.8994 9.87524 15.8611 8.03185 15.8611 4.95159C15.8611 1.86443 17.8994 0.0211118 21.1025 0.0211118C22.2327 0.0211118 23.3152 0.219842 24.2029 0.637811L23.281 2.8067C22.8235 2.53259 22.2737 2.37158 21.6829 2.37158C20.1089 2.37158 18.8113 3.15276 18.8113 4.95159C18.8113 6.747 20.1123 7.53161 21.6829 7.53161C22.2737 7.53161 22.8235 7.36718 23.281 7.08618L24.2029 9.25848ZM16.5857 11.2834H23.8452V13.7093H16.5857V11.2834Z" fill="#2E0757"/>
  </g>
  <defs>
    <clipPath id="clip0_83_72">
      <rect width="103" height="14" fill="white"/>
    </clipPath>
  </defs>
</svg>