<svg xmlns="http://www.w3.org/2000/svg" width="143" height="32" viewBox="0 0 143 32" fill="none">
  <g clip-path="url(#clip0_705_5686)">
    <path d="M142.402 14.5689V12.0927H139.293V8.24322L139.188 8.27509L136.267 9.15878L136.209 9.17608V12.0929H131.599V10.468C131.599 9.71136 131.77 9.13236 132.107 8.74622C132.442 8.36471 132.921 8.17076 133.532 8.17076C133.971 8.17076 134.426 8.27305 134.883 8.47476L134.998 8.52543V5.91768L134.944 5.89806C134.517 5.74633 133.937 5.66992 133.217 5.66992C132.31 5.66992 131.486 5.8651 130.767 6.25192C130.048 6.63928 129.482 7.19227 129.086 7.89535C128.691 8.59762 128.49 9.40871 128.49 10.3063V12.0927H126.325V14.5689H128.49V25.0006H131.599V14.5689H136.209V21.1981C136.209 23.9283 137.512 25.3119 140.08 25.3119C140.502 25.3119 140.947 25.263 141.4 25.1672C141.862 25.0689 142.177 24.9707 142.362 24.8658L142.403 24.8418V22.3427L142.276 22.4254C142.107 22.5366 141.897 22.6274 141.651 22.695C141.404 22.7638 141.197 22.7982 141.037 22.7982C140.435 22.7982 139.99 22.6379 139.714 22.3215C139.435 22.0022 139.293 21.4439 139.293 20.6629V14.5689H142.402ZM119.383 22.7986C118.254 22.7986 117.365 22.4287 116.738 21.7C116.107 20.9676 115.788 19.9235 115.788 18.5969C115.788 17.2282 116.107 16.1569 116.738 15.4116C117.365 14.6712 118.247 14.2954 119.357 14.2954C120.435 14.2954 121.293 14.6543 121.908 15.3627C122.526 16.0748 122.839 17.1375 122.839 18.5221C122.839 19.9238 122.544 21.0005 121.963 21.7207C121.386 22.4355 120.518 22.7986 119.383 22.7986ZM119.521 11.7818C117.368 11.7818 115.658 12.4055 114.439 13.6355C113.221 14.8657 112.603 16.5681 112.603 18.6959C112.603 20.7169 113.206 22.3425 114.396 23.5268C115.585 24.7115 117.204 25.3116 119.206 25.3116C121.293 25.3116 122.969 24.6792 124.187 23.4321C125.405 22.1864 126.023 20.5 126.023 18.422C126.023 16.3694 125.444 14.7317 124.301 13.5553C123.157 12.3784 121.549 11.7818 119.521 11.7818ZM107.591 11.7818C106.127 11.7818 104.916 12.1521 103.991 12.8823C103.06 13.6169 102.587 14.5802 102.587 15.746C102.587 16.352 102.689 16.8902 102.89 17.3468C103.092 17.8049 103.404 18.2082 103.819 18.5466C104.231 18.8824 104.866 19.234 105.708 19.5918C106.416 19.8799 106.944 20.1236 107.28 20.3156C107.608 20.5039 107.84 20.6931 107.972 20.8773C108.099 21.0577 108.164 21.3045 108.164 21.609C108.164 22.4762 107.507 22.8982 106.156 22.8982C105.655 22.8982 105.083 22.7947 104.457 22.5906C103.835 22.3897 103.248 22.0954 102.716 21.7181L102.587 21.6266V24.5859L102.634 24.6077C103.074 24.8084 103.629 24.9777 104.283 25.111C104.935 25.2443 105.528 25.3121 106.043 25.3121C107.632 25.3121 108.911 24.94 109.845 24.2055C110.784 23.4659 111.261 22.4798 111.261 21.2737C111.261 20.4036 111.004 19.6575 110.499 19.0557C109.997 18.4589 109.126 17.911 107.911 17.4266C106.943 17.0425 106.323 16.7237 106.068 16.4789C105.821 16.2425 105.696 15.9081 105.696 15.4846C105.696 15.1092 105.85 14.8085 106.168 14.565C106.487 14.3202 106.932 14.1957 107.491 14.1957C108.009 14.1957 108.539 14.2766 109.066 14.4352C109.592 14.5937 110.055 14.8061 110.441 15.0658L110.568 15.1516V12.3444L110.519 12.3237C110.163 12.1727 109.693 12.0434 109.123 11.9386C108.555 11.8344 108.039 11.7818 107.591 11.7818ZM94.4833 22.7986C93.3553 22.7986 92.4654 22.4287 91.8386 21.7C91.2077 20.9676 90.8887 19.9238 90.8887 18.5969C90.8887 17.2282 91.2081 16.1569 91.8393 15.4116C92.4661 14.6712 93.347 14.2954 94.4584 14.2954C95.5359 14.2954 96.3939 14.6543 97.0087 15.3627C97.6265 16.0748 97.9399 17.1375 97.9399 18.5221C97.9399 19.9238 97.645 21.0005 97.0637 21.7207C96.4864 22.4355 95.6187 22.7986 94.4833 22.7986ZM94.6219 11.7818C92.4687 11.7818 90.7588 12.4055 89.5404 13.6355C88.3221 14.8657 87.704 16.5681 87.704 18.6959C87.704 20.7177 88.3074 22.3425 89.4967 23.5268C90.6861 24.7115 92.3045 25.3116 94.307 25.3116C96.3934 25.3116 98.0695 24.6792 99.2881 23.4321C100.506 22.1864 101.124 20.5 101.124 18.422C101.124 16.3694 100.544 14.7317 99.4012 13.5553C98.2574 12.3784 96.6493 11.7818 94.6219 11.7818ZM82.9852 14.3281V12.0927H79.9145V25.0004H82.9852V18.3976C82.9852 17.2749 83.2427 16.3525 83.7507 15.6558C84.2522 14.9675 84.9206 14.6186 85.7367 14.6186C86.0133 14.6186 86.3237 14.6637 86.66 14.7529C86.9928 14.8416 87.2339 14.9379 87.376 15.0392L87.5051 15.1317V12.0707L87.4554 12.0496C87.1694 11.9294 86.7648 11.8688 86.2529 11.8688C85.4813 11.8688 84.7907 12.114 84.1992 12.5967C83.68 13.021 83.3048 13.6027 83.0179 14.3281H82.9852ZM74.4153 11.7818C73.0065 11.7818 71.7499 12.0805 70.6811 12.6693C69.6101 13.2595 68.7818 14.102 68.2183 15.1734C67.6572 16.2422 67.3723 17.4906 67.3723 18.8829C67.3723 20.1025 67.6485 21.2217 68.1944 22.208C68.7406 23.1961 69.5137 23.969 70.4923 24.5051C71.4695 25.0405 72.5989 25.312 73.8494 25.312C75.3087 25.312 76.5547 25.0235 77.5537 24.4546L77.594 24.4317V21.65L77.465 21.7432C77.0124 22.0691 76.5068 22.3293 75.9626 22.5167C75.4199 22.704 74.9251 22.7986 74.4912 22.7986C73.2863 22.7986 72.319 22.4258 71.6169 21.6909C70.9132 20.955 70.5564 19.9216 70.5564 18.6213C70.5564 17.3127 70.9285 16.2528 71.6618 15.4707C72.3928 14.691 73.3619 14.2954 74.5419 14.2954C75.5512 14.2954 76.5347 14.6333 77.4652 15.3007L77.594 15.3932V12.4623L77.5524 12.4391C77.2023 12.2453 76.7247 12.0853 76.1318 11.9639C75.5414 11.8428 74.9639 11.7818 74.4153 11.7818ZM65.2574 12.0929H62.1867V25.0004H65.2574V12.0929ZM63.7535 6.5942C63.248 6.5942 62.8072 6.76432 62.4451 7.10142C62.0814 7.43948 61.897 7.86512 61.897 8.36744C61.897 8.86185 62.0792 9.27973 62.4394 9.6088C62.7973 9.93691 63.2395 10.1032 63.7536 10.1032C64.2675 10.1032 64.7114 9.93691 65.0735 9.60934C65.438 9.27973 65.6229 8.86199 65.6229 8.36744C65.6229 7.88269 65.443 7.46141 65.0885 7.11504C64.7344 6.76936 64.285 6.5942 63.7535 6.5942ZM56.0917 11.1405V25.0004H59.2256V6.98933H54.8882L49.3751 20.3674L44.025 6.98933H39.511V25.0002H42.456V11.1392H42.5571L48.2067 25.0004H50.4292L55.9906 11.1405H56.0917Z" fill="#706D6E"/>
    <path d="M14.4457 15.2541H0V0.970703H14.4457V15.2541Z" fill="#F1511B"/>
    <path d="M30.3971 15.2541H15.9517V0.970703H30.3971V15.2541Z" fill="#80CC28"/>
    <path d="M14.4453 31.0303H0V16.7471H14.4453V31.0303Z" fill="#00ADEF"/>
    <path d="M30.3971 31.0303H15.9517V16.7471H30.3971V31.0303Z" fill="#FBBC09"/>
  </g>
  <defs>
    <clipPath id="clip0_705_5686">
      <rect width="142.4" height="30.4" fill="white" transform="translate(0 0.799805)"/>
    </clipPath>
  </defs>
</svg>