<svg xmlns="http://www.w3.org/2000/svg" width="136" height="32" viewBox="0 0 136 32" fill="none">
  <path fill-rule="evenodd" clip-rule="evenodd" d="M0 14.94C0 12.8776 1.74121 11.2052 3.88804 11.2052C6.03575 11.2052 7.77706 12.8776 7.77706 14.94C7.77706 17.0034 6.03575 18.6757 3.88804 18.6757C1.74121 18.6757 0 17.0042 0 14.94ZM27.3129 18.6757C25.1652 18.6757 23.4248 17.0034 23.4248 14.94C23.4248 12.8776 25.1652 11.2052 27.3129 11.2052C29.4598 11.2052 31.2019 12.8776 31.2019 14.94C31.2019 17.0034 29.4598 18.6757 27.3129 18.6757ZM27.3129 0C18.7239 0 11.7598 6.68926 11.7598 14.94C11.7598 23.1925 18.7229 29.8811 27.3129 29.8811C35.9038 29.8811 42.867 23.1925 42.867 14.94C42.867 6.69011 35.9038 0 27.3129 0Z" fill="#2E0757"/>
  <path fill-rule="evenodd" clip-rule="evenodd" d="M134.275 13.784C134.516 13.784 134.658 13.6781 134.658 13.4865C134.658 13.312 134.561 13.1977 134.293 13.1977H134.044V13.7838L134.275 13.784ZM133.679 12.9015H134.355C134.728 12.9015 135.049 13.0502 135.049 13.4686C135.05 13.5717 135.019 13.6726 134.96 13.7584C134.902 13.8441 134.818 13.9109 134.72 13.9499L135.129 14.676H134.72L134.408 14.0641H134.044V14.676H133.679V12.9015ZM135.643 13.8098C135.643 12.9891 135.066 12.403 134.32 12.403C133.573 12.403 133.004 12.9891 133.004 13.8098C133.004 14.6408 133.573 15.2079 134.32 15.2079C135.066 15.2079 135.643 14.6408 135.643 13.8098ZM132.648 13.8098C132.648 12.7872 133.403 12.0885 134.32 12.0885C135.244 12.0885 136 12.7872 136 13.8098C136 14.8325 135.244 15.5319 134.32 15.5319C133.403 15.5319 132.648 14.8325 132.648 13.8098ZM121.493 20.799C121.603 20.7979 121.708 20.7548 121.785 20.679C121.863 20.6032 121.907 20.5007 121.908 20.3934V18.8938C121.908 18.7869 121.864 18.6845 121.787 18.6086C121.71 18.5328 121.605 18.4895 121.495 18.4881H121.429C121.242 18.4881 121.057 18.3059 121.057 18.1221V9.23625C121.057 9.03357 120.849 8.83055 120.643 8.83055H119.124C118.918 8.83055 118.712 9.03331 118.712 9.23625V19.0803L118.718 19.3362C118.718 20.0692 119.464 20.8014 120.21 20.8014L121.493 20.799ZM54.6193 11.1775C56.6865 11.1775 58.4314 12.8988 58.4314 14.9398C58.4321 15.9275 58.031 16.8751 57.3163 17.5745C56.6016 18.274 55.6316 18.668 54.6193 18.6703C52.5275 18.6703 50.8267 16.9988 50.8267 14.9398C50.8267 12.8653 52.5275 11.1775 54.6193 11.1775ZM54.6193 8.80824C51.1992 8.80824 48.416 11.5582 48.416 14.9398C48.416 18.3601 51.1393 21.0405 54.6193 21.0405C58.109 21.0405 60.8421 18.3601 60.8421 14.939C60.8421 11.5591 58.0499 8.80824 54.6193 8.80824ZM104.121 18.3696C104.009 18.6833 103.334 19.2728 102.565 19.2728C101.758 19.2728 101.308 18.7933 101.308 18.074C101.308 17.3177 101.851 16.8571 102.846 16.8571C103.54 16.8571 104.121 17.115 104.121 17.115V18.3696ZM103.108 12.0816C101.701 12.0816 100.332 12.4313 100.144 12.5053C99.9567 12.5602 99.7876 12.7079 99.8624 13.0217L100.051 13.9808C100.088 14.2387 100.257 14.4414 100.538 14.3494C101.045 14.2016 102.189 14.0357 102.978 14.0357C103.896 14.0357 104.215 14.5522 104.177 15.6402C104.177 15.6402 103.39 15.4004 102.508 15.4004C100.313 15.4004 99.0556 16.5622 99.0556 18.0739C99.0556 19.9 100.257 20.9872 101.982 20.9872C102.486 20.9947 102.986 20.904 103.453 20.7204C103.92 20.5368 104.345 20.2641 104.703 19.9181V20.3762C104.703 20.598 104.891 20.7818 105.116 20.7818H105.269C105.286 20.7845 105.304 20.7856 105.321 20.7851H105.96C106.07 20.7837 106.174 20.7405 106.251 20.6646C106.329 20.5888 106.372 20.4863 106.373 20.3793V15.7878C106.373 13.464 105.809 12.0816 103.108 12.0816ZM87.3598 12.0816C85.6987 12.0816 84.8927 12.9572 84.5704 13.3104V12.6711C84.5697 12.5642 84.526 12.4618 84.4488 12.3859C84.3715 12.3101 84.2669 12.2668 84.1573 12.2655H83.1761C83.0664 12.2666 82.9617 12.3098 82.8844 12.3857C82.8071 12.4616 82.7635 12.5641 82.763 12.6711V20.3796C82.7669 20.4856 82.8116 20.5862 82.8882 20.6613C82.9647 20.7365 83.0675 20.7808 83.1761 20.7853H84.5642C84.9773 20.7853 85.1085 20.6924 85.1085 20.3796V15.5113C85.3146 14.9209 85.8589 14.1836 86.9846 14.1836C88.0345 14.1836 88.4846 14.866 88.4846 15.9719V20.3796C88.4846 20.6005 88.673 20.7853 88.8986 20.7853H90.4171C90.5256 20.7808 90.6284 20.7365 90.705 20.6613C90.7815 20.5862 90.8262 20.4856 90.8301 20.3796V15.9719C90.8301 13.9069 90.1167 12.0816 87.3598 12.0816ZM66.7037 18.8861C65.615 18.8861 64.9025 18.4065 64.9025 18.4065V15.3626C65.0902 14.8831 65.6908 14.1827 66.8164 14.1827C68.1667 14.1827 68.8607 15.3446 68.8607 16.5426C68.8607 17.7414 68.1297 18.8852 66.7028 18.8852L66.7037 18.8861ZM67.1353 12.0816C65.3525 12.0816 64.3643 13.2761 64.3053 13.3509V12.672C64.3049 12.5649 64.2613 12.4623 64.184 12.3862C64.1068 12.3102 64.002 12.2668 63.8923 12.2655H62.9701C62.8606 12.2671 62.7562 12.3104 62.6791 12.3862C62.602 12.462 62.5585 12.5643 62.5578 12.6711V23.8454C62.5615 23.9514 62.606 24.0521 62.6824 24.1274C62.7588 24.2028 62.8615 24.2472 62.9701 24.2519H64.4903C64.6963 24.2519 64.9025 24.0482 64.9025 23.8454V20.6375C65.2962 20.7852 66.1223 20.9881 66.9846 20.9881C69.5741 20.9881 71.2811 19.033 71.2811 16.5434C71.2811 13.9618 69.4984 12.0816 67.1353 12.0816ZM129.001 15.4554C128.964 14.6253 128.289 13.9799 127.332 13.9799C126.281 13.9799 125.606 14.6072 125.494 15.4554H129.001ZM127.39 12.0807C129.64 12.0807 131.365 13.7221 131.365 16.0269C131.365 16.1559 131.345 16.4506 131.328 16.5803C131.318 16.6822 131.271 16.7771 131.195 16.848C131.119 16.9188 131.02 16.9611 130.915 16.9671H125.363C125.383 18.0181 126.263 18.9402 127.521 18.9402C128.383 18.9402 128.983 18.6265 129.377 18.3129C129.584 18.1469 129.809 18.129 129.94 18.3129L130.671 19.2719C130.821 19.4378 130.84 19.6415 130.634 19.8254C129.739 20.5826 128.592 20.9956 127.407 20.9872C124.819 20.9872 123.017 18.9591 123.017 16.5245C123.017 14.1278 124.819 12.0816 127.389 12.0816L127.39 12.0807ZM112.707 18.8861C111.581 18.8861 110.98 18.1848 110.793 17.7053V14.6631C110.793 14.6631 111.506 14.1836 112.594 14.1836C114.02 14.1836 114.752 15.3266 114.752 16.5254C114.752 17.7242 114.057 18.8861 112.707 18.8861ZM112.913 12.0816C112.05 12.0816 111.187 12.2843 110.793 12.4503V9.20443C110.789 9.09851 110.744 8.99792 110.668 8.92273C110.591 8.84754 110.488 8.8033 110.38 8.79883H108.86C108.654 8.79883 108.448 9.0015 108.448 9.20443V20.3796C108.452 20.4854 108.497 20.5859 108.573 20.6611C108.649 20.7362 108.752 20.7806 108.86 20.7853H109.517C109.531 20.7853 109.541 20.7852 109.554 20.782H109.73C109.84 20.7811 109.945 20.738 110.023 20.6621C110.101 20.5862 110.145 20.4836 110.145 20.3764V19.7465L110.155 19.7139C110.155 19.7139 111.151 20.9858 113.044 20.9858C115.409 20.9858 117.116 18.9578 117.116 16.524C117.116 14.0344 115.484 12.0802 112.914 12.0802L112.913 12.0816ZM99.6396 8.79883H90.8159C90.7689 8.79905 90.7226 8.80824 90.6793 8.82599C90.636 8.84373 90.5967 8.86965 90.5637 8.90221C90.5306 8.93477 90.5044 8.97339 90.4866 9.0158C90.4689 9.05822 90.4599 9.1036 90.4601 9.14942V10.6619C90.4601 10.8457 90.6099 11.0117 90.8159 11.0117H93.9991V20.4347C94.0017 20.5264 94.0401 20.6137 94.1063 20.6788C94.1726 20.7439 94.2618 20.782 94.3559 20.7853H96.0998C96.1939 20.7822 96.2833 20.7442 96.3498 20.6791C96.4162 20.6139 96.4547 20.5265 96.4574 20.4347V11.0117H99.6396C99.6867 11.0116 99.7332 11.0023 99.7766 10.9846C99.82 10.967 99.8594 10.9411 99.8926 10.9085C99.9257 10.876 99.9519 10.8374 99.9697 10.7949C99.9875 10.7525 99.9965 10.7069 99.9963 10.661V9.14942C99.9965 9.10353 99.9875 9.05808 99.9697 9.01561C99.9519 8.97313 99.9257 8.93448 99.8926 8.90191C99.8594 8.86934 99.82 8.84348 99.7766 8.82579C99.7332 8.8081 99.6867 8.79894 99.6396 8.79883ZM78.6347 15.4554C78.5967 14.6253 77.9213 13.9799 76.9647 13.9799C75.9148 13.9799 75.2384 14.6072 75.1265 15.4554H78.6347ZM77.0211 12.0807C79.2724 12.0807 80.9979 13.7221 80.9979 16.0269C80.9979 16.1559 80.9812 16.4506 80.9609 16.5803C80.9503 16.6821 80.9028 16.7769 80.8272 16.8478C80.7515 16.9186 80.6525 16.9609 80.5478 16.9671H74.9953C75.0153 18.0181 75.8955 18.9402 77.1532 18.9402C78.0164 18.9402 78.6154 18.6265 79.01 18.3129C79.216 18.1469 79.4416 18.129 79.5728 18.3129L80.3038 19.2719C80.4543 19.4378 80.473 19.6415 80.2669 19.8254C79.3717 20.5826 78.2244 20.9956 77.0397 20.9872C74.4511 20.9872 72.6508 18.9591 72.6508 16.5245C72.6508 14.1278 74.451 12.0807 77.0211 12.0807Z" fill="#2E0757"/>
</svg>