<svg xmlns="http://www.w3.org/2000/svg" width="144" height="26" viewBox="0 0 144 26" fill="none">
  <g clip-path="url(#clip0_705_5714)">
    <path d="M62.2929 15.688H71.7009L66.7089 7.68293L57.5889 22.2468H53.4608L64.4882 4.80165C64.9685 4.12709 65.7368 3.64453 66.6962 3.64453C67.56 3.64453 68.327 4.02853 68.8087 4.70693L79.9443 22.1636H75.8277L73.9076 18.8842H64.4028L62.2929 15.688ZM105.398 18.8714V3.72901H101.845V20.3178C101.845 20.8004 102.036 21.1856 102.325 21.5722C102.708 21.9562 103.094 22.1508 103.574 22.1508H119.606L121.718 18.8714H105.398ZM47.2202 16.1834C50.6769 16.1834 53.364 13.3866 53.364 10.0113C53.364 6.53861 50.58 3.83909 47.2202 3.83909H31.8583V22.2608H35.4105V7.01989H47.0266C47.8145 7.02459 48.5688 7.34113 49.126 7.90086C49.6831 8.46059 49.9982 9.2184 50.0029 10.01C49.9982 10.8013 49.6833 11.5589 49.1264 12.1186C48.5695 12.6783 47.8155 12.995 47.0278 13.0001H37.1408L47.605 22.1623H52.6938L45.5894 16.1821L47.2202 16.1834ZM10.0673 22.1636C4.97853 22.1636 0.947266 18.0164 0.947266 13.0013C0.947266 7.88901 5.07537 3.83909 10.0673 3.83909H20.7239C25.8127 3.83909 29.844 7.98629 29.844 13.0013C29.844 18.1136 25.7159 22.1636 20.7239 22.1636H10.0673ZM20.5315 18.8842C22.1074 18.8748 23.616 18.2417 24.7303 17.1223C25.8446 16.0028 26.4748 14.4872 26.4842 12.904C26.4748 11.3209 25.8446 9.80529 24.7303 8.68583C23.616 7.56636 22.1074 6.9333 20.5315 6.92389H10.3553C8.77941 6.9333 7.27077 7.56636 6.15646 8.68583C5.04215 9.80529 4.412 11.3209 4.40264 12.904C4.412 14.4872 5.04215 16.0028 6.15646 17.1223C7.27077 18.2417 8.77941 18.8748 10.3553 18.8842H20.5315ZM87.3494 22.1636C82.2607 22.1636 78.2294 18.0164 78.2294 13.0013C78.2294 7.88901 82.3575 3.83909 87.3494 3.83909H100.022L97.9092 7.11845H87.5406C85.9647 7.12786 84.4561 7.76092 83.3418 8.88039C82.2275 9.99986 81.5973 11.5155 81.5879 13.0986C81.5973 14.6817 82.2275 16.1974 83.3418 17.3168C84.4561 18.4363 85.9647 19.0694 87.5406 19.0788H100.213L98.1003 22.3581H87.3469L87.3494 22.1636ZM130.455 18.8842C127.779 18.8842 125.463 17.0513 124.79 14.545H139.863L141.975 11.2657H124.887C125.559 8.75685 127.863 6.92645 130.552 6.92645H140.92L143.033 3.64709H130.359C125.271 3.64709 121.239 7.79429 121.239 12.8093C121.239 17.9216 125.367 21.9716 130.359 21.9716H141.208L143.321 18.6922H130.456L130.455 18.8842Z" fill="#E30613"/>
  </g>
  <defs>
    <clipPath id="clip0_705_5714">
      <rect width="142.4" height="25.6" fill="white" transform="translate(0.933105 0.200195)"/>
    </clipPath>
  </defs>
</svg>