<svg xmlns="http://www.w3.org/2000/svg" width="112" height="32" viewBox="0 0 112 32" fill="none">
  <g clip-path="url(#clip0_1032_506)">
    <path d="M65.3876 16.9231C64.9108 16.1426 65.5514 15.4866 65.5514 15.4866L71.1724 9.74972C71.8129 9.09372 70.8899 9.09372 70.8899 9.09372H65.6413C64.7183 9.09372 64.0849 9.75683 64.0849 9.75683L58.8706 15.2146C58.2372 15.876 58.2372 14.9657 58.2372 14.9657V3.03502C58.2372 2.12302 57.316 2.12302 57.316 2.12302H53.3341C52.4471 2.12302 52.4471 2.99947 52.4471 2.99947V27.9613C52.4471 28.8734 53.3701 28.8734 53.3701 28.8734H57.3124C58.1994 28.8734 58.1994 27.9969 58.1994 27.9969V23.6093C58.1994 22.6973 58.8724 22.0733 58.8724 22.0733L60.731 20.3489L65.3984 28.0911C65.8698 28.8734 66.7929 28.8734 66.7929 28.8734H71.7733C72.6946 28.8734 72.2178 28.0929 72.2178 28.0929L65.3876 16.9231ZM48.3051 27.9613V9.96838C48.3051 9.05638 47.382 9.05638 47.382 9.05638H43.3984C42.4771 9.05638 42.4771 9.96838 42.4771 9.96838V27.9613C42.4771 28.8734 43.3984 28.8734 43.3984 28.8734H47.382C48.3051 28.8734 48.3051 27.9613 48.3051 27.9613ZM48.1539 5.56481V2.9888C48.1539 2.9888 48.1539 2.11058 47.2669 2.11058H43.3642C43.3642 2.11058 42.4771 2.11058 42.4771 2.9888V5.56481C42.4771 5.56481 42.4771 6.44126 43.3642 6.44126H47.2669C47.2669 6.44126 48.1539 6.44126 48.1539 5.56481ZM38.1804 27.9613V3.03502C38.1804 2.12302 37.2574 2.12302 37.2574 2.12302H33.1964C32.2733 2.12302 32.2733 3.03502 32.2733 3.03502V27.9613C32.2733 28.8734 33.1964 28.8734 33.1964 28.8734H37.2574C38.1804 28.8734 38.1804 27.9613 38.1804 27.9613ZM29.049 26.8893C29.049 26.8893 29.5654 26.3009 28.9716 25.7889L25.7131 22.9907C27.1759 20.8538 28.0324 18.2742 28.0324 15.4991C28.0324 8.10527 21.9651 2.11058 14.4818 2.11058C6.99854 2.11058 0.933105 8.10527 0.933105 15.4991C0.933105 22.8929 6.99854 28.8858 14.4818 28.8858C17.2222 28.8858 19.7664 28.0769 21.8967 26.6973L25.472 29.7658C25.472 29.7658 26.0675 30.2778 26.5839 29.6894L29.049 26.8893ZM22.3052 15.4991C22.3052 19.7675 18.802 23.2271 14.4818 23.2271C10.1617 23.2271 6.66027 19.7675 6.66027 15.4991C6.66027 11.2306 10.1617 7.76927 14.4818 7.76927C18.802 7.76927 22.3052 11.2306 22.3052 15.4991Z" fill="#54565B"/>
    <path d="M110.571 27.1663L106.22 23.5592C107.737 21.1876 108.619 18.3787 108.619 15.3654C108.619 6.88003 101.657 0 93.0691 0C84.481 0 77.5177 6.88003 77.5177 15.3636C77.5177 23.849 84.481 30.729 93.0691 30.729C96.4014 30.729 99.4854 29.6908 102.017 27.929L106.657 31.7761C106.657 31.7761 107.346 32.3468 107.926 31.6659L110.682 28.4197C110.682 28.4197 111.262 27.7388 110.571 27.1663ZM102.623 15.3654C102.623 20.5796 98.3464 24.8054 93.0691 24.8054C87.7917 24.8054 83.513 20.5796 83.513 15.3636C83.513 10.1512 87.7917 5.92358 93.0691 5.92358C98.3464 5.92358 102.623 10.1511 102.623 15.3654Z" fill="#009C4D"/>
    <path d="M86.9434 15.3642C86.9434 12.0219 89.6855 9.31258 93.0682 9.31258C96.4509 9.31258 99.193 12.0219 99.193 15.3642C99.193 18.7064 96.4509 21.4175 93.0682 21.4157C89.6855 21.4157 86.9434 18.7064 86.9434 15.3642Z" fill="#54565B"/>
    <path d="M107.947 4.53334C107.947 3.60712 108.711 2.86045 109.64 2.86045C110.577 2.86045 111.333 3.61601 111.333 4.53334C111.333 5.45068 110.577 6.20624 109.64 6.20624C108.711 6.20624 107.947 5.45068 107.947 4.53334ZM109.64 3.08445C108.839 3.08445 108.218 3.72801 108.218 4.53334C108.218 5.34223 108.83 5.98224 109.64 5.98224C110.45 5.98224 111.061 5.34223 111.061 4.53334C111.061 3.72801 110.45 3.08445 109.64 3.08445ZM109.251 5.54846H109.025V3.50934H109.771C110.129 3.50934 110.405 3.68712 110.405 4.0729C110.405 4.39468 110.228 4.60979 109.915 4.64001L110.496 5.54846H110.216L109.667 4.64001H109.251V5.54846ZM109.251 4.44445H109.717C109.989 4.44445 110.178 4.38579 110.178 4.0729C110.178 3.80801 109.975 3.70667 109.717 3.70667H109.251V4.44445Z" fill="#54565B"/>
  </g>
  <defs>
    <clipPath id="clip0_1032_506">
      <rect width="110.4" height="32" fill="white" transform="translate(0.933105)"/>
    </clipPath>
  </defs>
</svg>