<svg xmlns="http://www.w3.org/2000/svg" width="101" height="42" viewBox="0 0 101 42" fill="none">
  <path fill-rule="evenodd" clip-rule="evenodd" d="M72.1626 9.04157C72.2265 9.19565 72.2594 9.36079 72.2594 9.52758V25.8923C72.26 26.2086 72.1424 26.5137 71.9297 26.7479C71.717 26.9821 71.4245 27.1286 71.1094 27.1586C70.7943 27.1886 70.4793 27.1 70.2262 26.9101C69.973 26.7203 69.7999 26.4428 69.7407 26.1321C69.3124 26.56 68.8018 26.8969 68.2397 27.1225C67.6776 27.3481 67.0757 27.4577 66.4701 27.4448C63.117 27.4448 60.3992 24.4125 60.3992 20.6727C60.3992 16.9329 63.117 13.9014 66.4701 13.9014C67.0711 13.8861 67.669 13.9931 68.2273 14.2161C68.7856 14.439 69.2926 14.7731 69.7175 15.1981V9.52758C69.7175 9.19088 69.8514 8.86797 70.0897 8.62989C70.3279 8.39181 70.6511 8.25806 70.988 8.25806C71.155 8.25795 71.3203 8.29071 71.4745 8.35446C71.6287 8.41822 71.7689 8.51171 71.8869 8.62961C72.005 8.7475 72.0987 8.88749 72.1626 9.04157ZM62.941 20.6687C62.941 23.0103 64.5211 24.9058 66.4701 24.9058C68.4198 24.9058 70 23.0055 70 20.6687C70 18.3319 68.419 16.4364 66.4701 16.4364C64.5211 16.4364 62.941 18.3271 62.941 20.6687ZM89.9073 14.1836C91.1551 14.1836 92.1667 13.1729 92.1667 11.926C92.1667 10.6791 91.1551 9.66831 89.9073 9.66831C88.6595 9.66831 87.6479 10.6791 87.6479 11.926C87.6479 13.1729 88.6595 14.1836 89.9073 14.1836ZM57.7822 21.5193C58.0031 21.5339 58.2245 21.5022 58.4323 21.4263C58.6402 21.3503 58.8298 21.2318 58.9892 21.0783C59.1485 20.9248 59.274 20.7398 59.3575 20.535C59.4411 20.3302 59.4809 20.1103 59.4744 19.8893C59.4635 19.5834 59.4265 19.2791 59.364 18.9795C59.1031 17.5934 58.3797 16.3366 57.3118 15.4143C56.2439 14.492 54.8946 13.9586 53.4843 13.9014C50.1312 13.9014 47.4134 16.9329 47.4134 20.6727C47.4134 24.4125 50.128 27.4448 53.4811 27.4448C54.3591 27.4795 55.234 27.3218 56.0446 26.9829C56.8552 26.644 57.5818 26.1321 58.1735 25.483C58.2992 25.3459 58.3941 25.1835 58.452 25.0068C58.5098 24.83 58.5292 24.6429 58.5088 24.4581C58.4884 24.2733 58.4288 24.0949 58.3338 23.935C58.2389 23.775 58.1108 23.6372 57.9582 23.5307C57.6987 23.3668 57.3917 23.2945 57.0862 23.3255C56.7807 23.3565 56.4945 23.489 56.2733 23.7018C55.528 24.4408 54.5305 24.8709 53.4811 24.9058C51.7737 24.9058 50.3496 23.4516 50.0224 21.5193H57.7822ZM53.4811 16.4404C54.2666 16.488 55.0155 16.7888 55.6156 17.2975C56.2157 17.8063 56.6345 18.4958 56.8094 19.2625H50.1528C50.3277 18.4958 50.7465 17.8063 51.3466 17.2975C51.9466 16.7888 52.6955 16.488 53.4811 16.4404ZM47.2495 14.3937C47.4439 14.6226 47.5508 14.913 47.5511 15.2133C47.5512 15.5312 47.4319 15.8376 47.2168 16.0718C47.0017 16.306 46.7064 16.451 46.3894 16.478C46.3059 16.4872 46.2216 16.4872 46.1381 16.478C45.5836 16.4231 45.0237 16.4889 44.497 16.6707C43.9702 16.8526 43.4892 17.1462 43.0868 17.5315C42.6844 17.9167 42.3703 18.3845 42.166 18.9026C41.9618 19.4207 41.8722 19.9768 41.9034 20.5328V25.8955C41.9034 26.0688 41.8679 26.2403 41.7991 26.3994C41.7302 26.5584 41.6295 26.7018 41.5031 26.8205C41.3768 26.9392 41.2274 27.0308 41.0642 27.0896C40.9011 27.1485 40.7276 27.1733 40.5545 27.1626C40.226 27.1345 39.9203 26.9831 39.6991 26.7387C39.4779 26.4944 39.3576 26.1754 39.3624 25.8459V15.4531C39.3624 15.1164 39.4963 14.7935 39.7345 14.5554C39.9728 14.3173 40.2959 14.1836 40.6329 14.1836C40.9699 14.1836 41.293 14.3173 41.5313 14.5554C41.7695 14.7935 41.9034 15.1164 41.9034 15.4531V15.6234C42.457 14.9716 43.1713 14.4756 43.9756 14.1843C44.78 13.8931 45.6465 13.8168 46.4894 13.9629C46.7858 14.0121 47.0551 14.1648 47.2495 14.3937ZM91.1786 16.582C91.1703 16.2507 91.0327 15.9358 90.7953 15.7044C90.5579 15.473 90.2393 15.3435 89.9077 15.3435C89.576 15.3435 89.2575 15.473 89.0201 15.7044C88.7827 15.9358 88.6451 16.2507 88.6368 16.582V25.8931C88.6451 26.2244 88.7827 26.5393 89.0201 26.7707C89.2575 27.0021 89.576 27.1316 89.9077 27.1316C90.2393 27.1316 90.5579 27.0021 90.7953 26.7707C91.0327 26.5393 91.1703 26.2244 91.1786 25.8931V16.582ZM85.531 9.52758C85.531 9.19088 85.3972 8.86797 85.1589 8.62989C84.9207 8.39181 84.5975 8.25806 84.2605 8.25806C84.0936 8.25795 83.9283 8.29071 83.7741 8.35446C83.6199 8.41822 83.4797 8.51171 83.3616 8.62961C83.2436 8.7475 83.1499 8.88749 83.086 9.04157C83.0221 9.19565 82.9892 9.36079 82.9892 9.52758V15.1981C82.5644 14.7732 82.0575 14.4391 81.4994 14.2161C80.9412 13.9932 80.3435 13.8861 79.7426 13.9014C76.3895 13.9014 73.6709 16.9329 73.6709 20.6727C73.6709 24.4125 76.3895 27.4448 79.7426 27.4448C80.3481 27.4578 80.9499 27.3482 81.5119 27.1226C82.0738 26.897 82.5843 26.5601 83.0124 26.1321C83.0716 26.4428 83.2447 26.7203 83.4979 26.9101C83.751 27.1 84.066 27.1886 84.3811 27.1586C84.6962 27.1286 84.9887 26.9821 85.2014 26.7479C85.4141 26.5137 85.5317 26.2086 85.531 25.8923V9.52758ZM79.7426 24.9058C77.7928 24.9058 76.2127 23.0103 76.2127 20.6687C76.2127 18.3271 77.7928 16.4364 79.7426 16.4364C81.6923 16.4364 83.2717 18.3319 83.2717 20.6687C83.2717 23.0055 81.6915 24.9058 79.7426 24.9058ZM97.6342 16.4405V25.8931C97.6342 26.2298 97.5003 26.5527 97.2621 26.7908C97.0238 27.0289 96.7007 27.1627 96.3637 27.1627C96.0267 27.1627 95.7036 27.0289 95.4653 26.7908C95.2271 26.5527 95.0932 26.2298 95.0932 25.8931V16.4365H94.0019C93.8476 16.4364 93.695 16.4049 93.5534 16.3436C93.4119 16.2824 93.2843 16.1929 93.1787 16.0805C93.0731 15.9682 92.9916 15.8354 92.9393 15.6904C92.887 15.5453 92.865 15.3912 92.8746 15.2373C92.9 14.9471 93.0343 14.6773 93.2505 14.4818C93.4667 14.2864 93.7488 14.1799 94.0403 14.1836H95.0908V12.3497C95.0907 12.1759 95.1264 12.0039 95.1956 11.8444C95.2648 11.6849 95.366 11.5414 95.493 11.4226C95.62 11.3038 95.77 11.2123 95.9338 11.1538C96.0976 11.0953 96.2717 11.0711 96.4453 11.0826C96.7721 11.1108 97.0762 11.2616 97.2963 11.5047C97.5164 11.7478 97.6363 12.0651 97.6318 12.3929V14.1836H98.7999C98.9546 14.1836 99.1076 14.2154 99.2496 14.2769C99.3915 14.3384 99.5192 14.4284 99.6249 14.5412C99.7306 14.6541 99.812 14.7875 99.864 14.9331C99.916 15.0787 99.9375 15.2334 99.9272 15.3876C99.9016 15.6772 99.7676 15.9465 99.5519 16.1417C99.3363 16.3369 99.0549 16.4436 98.7639 16.4405H97.6342Z" fill="#2E0757"/>
  <path d="M17.036 33.7474C25.8736 33.7474 33.0379 26.5886 33.0379 17.7579C33.0379 8.92706 25.8736 1.76831 17.036 1.76831C8.19845 1.76831 1.03418 8.92706 1.03418 17.7579C1.03418 26.5886 8.19845 33.7474 17.036 33.7474Z" fill="white" fill-opacity="0.23"/>
  <path d="M27.7037 17.7579C27.7032 17.3008 27.5682 16.8538 27.3155 16.4727C27.0629 16.0916 26.7036 15.7931 26.2825 15.6143C25.8615 15.4356 25.3971 15.3844 24.9471 15.4673C24.4972 15.5502 24.0815 15.7633 23.7519 16.0804C21.9092 14.8269 19.74 14.1393 17.5112 14.1023L18.574 9.10557L22.047 9.84375C22.0659 10.2487 22.232 10.6329 22.514 10.9242C22.7961 11.2156 23.1748 11.3942 23.5792 11.4265C23.9836 11.4588 24.3859 11.3426 24.7107 11.0997C25.0356 10.8569 25.2606 10.504 25.3436 10.1072C25.4267 9.71035 25.3621 9.29691 25.1619 8.94432C24.9617 8.59173 24.6397 8.32419 24.2563 8.19185C23.8728 8.0595 23.4542 8.07144 23.0789 8.22543C22.7036 8.37941 22.3974 8.66486 22.2177 9.02829L18.3366 8.20349C18.2286 8.18058 18.1158 8.20147 18.0232 8.26155C17.9306 8.32164 17.8656 8.41602 17.8425 8.52395L16.6557 14.1003C14.3956 14.1205 12.1918 14.808 10.3217 16.0764C10.0766 15.8394 9.78251 15.659 9.46014 15.5478C9.13776 15.4366 8.79491 15.3974 8.45574 15.4329C8.11656 15.4684 7.78929 15.5778 7.49696 15.7533C7.20463 15.9288 6.95436 16.1662 6.76375 16.4487C6.57314 16.7313 6.44683 17.0522 6.39372 17.3888C6.3406 17.7254 6.36196 18.0696 6.4563 18.3971C6.55064 18.7245 6.71566 19.0274 6.93976 19.2843C7.16385 19.5411 7.44157 19.7458 7.75336 19.8839C7.71791 20.1174 7.70052 20.3532 7.70135 20.5894C7.70135 24.1771 11.8778 27.0851 17.0358 27.0851C22.1937 27.0851 26.3702 24.1771 26.3702 20.5894C26.3698 20.3547 26.3515 20.1204 26.3155 19.8885C26.7284 19.7057 27.0793 19.4071 27.3257 19.0289C27.5722 18.6507 27.7034 18.2092 27.7037 17.7579ZM11.7018 19.4235C11.7018 19.0941 11.7996 18.7721 11.9827 18.4982C12.1659 18.2243 12.4262 18.0108 12.7308 17.8847C13.0354 17.7586 13.3705 17.7257 13.6939 17.7899C14.0172 17.8542 14.3142 18.0128 14.5473 18.2458C14.7804 18.4787 14.9392 18.7755 15.0035 19.0986C15.0678 19.4217 15.0348 19.7565 14.9087 20.0609C14.7825 20.3652 14.5689 20.6254 14.2947 20.8084C14.0206 20.9914 13.6984 21.0891 13.3687 21.0891C12.9266 21.0891 12.5026 20.9136 12.19 20.6012C11.8774 20.2889 11.7018 19.8652 11.7018 19.4235ZM20.9962 23.8246C19.8588 24.9572 17.6785 25.0485 17.0378 25.0485C16.397 25.0485 14.2161 24.9599 13.08 23.8246C13.0399 23.7845 13.0081 23.7369 12.9864 23.6845C12.9647 23.6321 12.9536 23.5759 12.9536 23.5192C12.9536 23.4625 12.9648 23.4064 12.9866 23.354C13.0083 23.3017 13.0402 23.2541 13.0803 23.214C13.1205 23.1739 13.1681 23.1422 13.2205 23.1205C13.273 23.0988 13.3292 23.0877 13.3859 23.0877C13.4427 23.0878 13.4988 23.099 13.5513 23.1207C13.6037 23.1424 13.6513 23.1742 13.6914 23.2143C14.4081 23.9305 15.9423 24.185 17.0378 24.185C18.1332 24.185 19.6674 23.9305 20.3862 23.2137C20.4259 23.1717 20.4736 23.138 20.5265 23.1148C20.5795 23.0915 20.6365 23.0792 20.6944 23.0784C20.7522 23.0776 20.8096 23.0884 20.8631 23.1101C20.9167 23.1319 20.9653 23.1642 21.0062 23.2051C21.047 23.246 21.0792 23.2947 21.1009 23.3482C21.1226 23.4018 21.1333 23.4592 21.1323 23.517C21.1314 23.5747 21.1189 23.6317 21.0955 23.6846C21.0721 23.7374 21.0384 23.785 20.9962 23.8246ZM20.7029 21.0891C20.3732 21.0891 20.0509 20.9914 19.7768 20.8084C19.5027 20.6254 19.289 20.3652 19.1629 20.0609C19.0367 19.7565 19.0037 19.4217 19.068 19.0986C19.1323 18.7755 19.2911 18.4787 19.5242 18.2458C19.7573 18.0128 20.0543 17.8542 20.3777 17.7899C20.701 17.7257 21.0362 17.7586 21.3407 17.8847C21.6453 18.0108 21.9057 18.2243 22.0888 18.4982C22.272 18.7721 22.3697 19.0941 22.3697 19.4235C22.3697 19.8652 22.1941 20.2889 21.8815 20.6012C21.5689 20.9136 21.1449 21.0891 20.7029 21.0891Z" fill="#2E0757"/>
</svg>