<svg xmlns="http://www.w3.org/2000/svg" width="107" height="25" viewBox="0 0 107 25" fill="none">
  <g clip-path="url(#clip0_83_67)">
    <path fill-rule="evenodd" clip-rule="evenodd" d="M104.98 7.69542H104.699V8.03628H104.98C105.111 8.03628 105.194 7.97775 105.194 7.86929C105.194 7.75395 105.116 7.69542 104.98 7.69542ZM104.353 7.38037H104.987C105.332 7.38037 105.561 7.5663 105.561 7.85724C105.561 8.03801 105.47 8.17232 105.332 8.25665L105.58 8.61131V8.68186H105.221L104.98 8.34097H104.699V8.68186H104.353V7.38037ZM106.121 8.05522C106.121 7.35971 105.652 6.8312 104.933 6.8312C104.228 6.8312 103.759 7.33389 103.759 8.05522C103.759 8.74382 104.228 9.27925 104.933 9.27925C105.652 9.27925 106.121 8.7507 106.121 8.05522ZM106.416 8.05522C106.416 8.87296 105.861 9.5564 104.935 9.5564C104.015 9.5564 103.466 8.8678 103.466 8.05522C103.466 7.23748 104.014 6.55403 104.935 6.55403C105.861 6.55575 106.416 7.23748 106.416 8.05522ZM23.3946 10.9664L20.5355 12.5984L23.3946 14.2253C24.1168 14.6367 24.3627 15.5457 23.9458 16.2584C23.5289 16.9677 22.6078 17.2104 21.8892 16.8007L16.7676 13.8827C16.4257 13.6864 16.1885 13.38 16.0839 13.0339C16.0332 12.8755 16.0105 12.7121 16.0158 12.5502C16.0193 12.4331 16.0367 12.3161 16.0682 12.199C16.171 11.8357 16.41 11.5104 16.7659 11.3055L21.8857 8.39095C22.6044 7.98119 23.5272 8.22395 23.9423 8.93664C24.3627 9.64768 24.1168 10.5549 23.3946 10.9664ZM20.6873 18.8734L15.5692 15.9606C15.2936 15.8022 14.9901 15.7419 14.697 15.766C13.9156 15.8212 13.3033 16.465 13.3033 17.2483V23.0809C13.3033 23.9039 13.9748 24.5684 14.8087 24.5684C15.6425 24.5684 16.3158 23.9021 16.3158 23.0809V19.8186L19.1818 21.4506C19.9023 21.8638 20.8234 21.6194 21.2385 20.9083C21.6537 20.1973 21.4095 19.2849 20.6873 18.8734ZM14.7808 13.1683L12.6526 15.2651C12.5916 15.327 12.4747 15.3769 12.3857 15.3769H12.2322H11.9183H11.7612C11.6758 15.3769 11.5554 15.327 11.4943 15.2651L9.36619 13.1683C9.30514 13.1097 9.25628 12.9909 9.25628 12.9066V12.7516V12.4417V12.2886C9.25628 12.2024 9.30514 12.0837 9.36619 12.0234L11.4926 9.92654C11.5536 9.86459 11.674 9.81641 11.7595 9.81641H11.9165H12.2305H12.3857C12.4729 9.81641 12.5916 9.86459 12.6526 9.92654L14.7808 12.0234C14.8418 12.0837 14.8907 12.2024 14.8907 12.2886V12.4417V12.7516V12.9066C14.8907 12.9892 14.8418 13.1079 14.7808 13.1683ZM13.08 12.5864C13.08 12.502 13.0277 12.3832 12.9666 12.3213L12.3508 11.7153C12.2898 11.655 12.1712 11.605 12.0839 11.605H12.0595C11.9741 11.605 11.8537 11.655 11.7943 11.7153L11.1786 12.3213C11.1176 12.3832 11.0704 12.502 11.0704 12.5864V12.6104C11.0704 12.6948 11.1176 12.8119 11.1786 12.8721L11.7943 13.4798C11.8554 13.5401 11.9741 13.59 12.0595 13.59H12.0839C12.1694 13.59 12.2898 13.5401 12.3508 13.4798L12.9666 12.8721C13.0277 12.8119 13.08 12.6948 13.08 12.6104V12.5864ZM3.45967 6.31646L8.57943 9.23279C8.85508 9.38939 9.16035 9.45142 9.45344 9.42733C10.2332 9.37046 10.8472 8.72661 10.8472 7.94332V2.1107C10.8472 1.29124 10.1721 0.625 9.34172 0.625C8.50797 0.625 7.83464 1.29124 7.83464 2.1107V5.37476L4.96682 3.73929C4.24813 3.32784 3.32709 3.5723 2.91019 4.2833C2.49327 4.99774 2.73924 5.905 3.45967 6.31646ZM14.697 9.42733C14.9901 9.45142 15.2954 9.38939 15.5692 9.23279L20.6873 6.31646C21.4078 5.905 21.6537 4.99602 21.2385 4.2833C20.8234 3.5723 19.9023 3.32956 19.1818 3.73929L16.3158 5.37476V2.1107C16.3158 1.29124 15.6425 0.625 14.8087 0.625C13.9748 0.625 13.3033 1.29124 13.3033 2.1107V7.94332C13.3015 8.72661 13.9156 9.37046 14.697 9.42733ZM9.45344 15.766C9.15863 15.7419 8.85336 15.8022 8.57943 15.9606L3.45967 18.8734C2.73924 19.2849 2.49327 20.1973 2.90844 20.9083C3.32535 21.6176 4.24639 21.8621 4.96508 21.4506L7.83284 19.8186V23.0809C7.83284 23.9039 8.50618 24.5684 9.34 24.5684C10.1703 24.5684 10.8454 23.9021 10.8454 23.0809V17.2483C10.8472 16.465 10.2332 15.8212 9.45344 15.766ZM8.06487 13.0339C8.11545 12.8755 8.1364 12.7121 8.13288 12.5502C8.12765 12.4331 8.11193 12.3161 8.07879 12.199C7.97763 11.8357 7.73692 11.5104 7.37758 11.3055L2.26127 8.39095C1.53909 7.98119 0.618054 8.22395 0.204633 8.93664C-0.214021 9.64768 0.033683 10.5549 0.755862 10.9664L3.61492 12.5984L0.754118 14.2253C0.0319387 14.6367 -0.214021 15.5457 0.202889 16.2584C0.618054 16.9677 1.53735 17.2104 2.25953 16.8007L7.37583 13.8827C7.72293 13.6881 7.95675 13.38 8.06487 13.0339ZM71.566 4.31773H71.4247C71.4055 4.31773 71.3881 4.31945 71.3689 4.32117C71.3514 4.31945 71.334 4.31773 71.3148 4.31773C70.9519 4.31773 70.5979 4.35905 70.2681 4.4675C69.9437 4.57424 69.6437 4.74984 69.4116 5.0184L69.4099 5.01668V5.0184V5.02012C69.1692 5.28352 69.0122 5.59857 68.9145 5.95665C68.8186 6.31646 68.7785 6.72102 68.775 7.1824V8.07416H67.7789C67.4335 8.07588 67.1579 8.34958 67.1579 8.68014C67.1562 8.85747 67.2259 9.02104 67.3393 9.13978C67.4544 9.25516 67.6115 9.3326 67.7859 9.3412H68.775V16.5958L68.7732 16.613C68.7732 16.7835 68.8447 16.9402 68.9616 17.0521C69.0767 17.1622 69.2389 17.2276 69.4152 17.2276C69.7501 17.2259 70.0257 16.9556 70.0274 16.6113V9.33776H71.0985C71.2712 9.32916 71.4299 9.25688 71.5433 9.1415C71.6602 9.0262 71.7317 8.86436 71.7317 8.68875V8.66465C71.7282 8.33753 71.4509 8.07072 71.1055 8.07072H70.0274V7.1824C70.0344 6.78988 70.0763 6.49549 70.1355 6.28202C70.1932 6.06683 70.2734 5.93255 70.3432 5.84819C70.4129 5.77416 70.5037 5.71219 70.6502 5.66226C70.7985 5.61406 71.0043 5.58479 71.2817 5.58479H71.3148C71.3305 5.58479 71.3479 5.58135 71.3636 5.58135C71.3829 5.58135 71.402 5.58479 71.4212 5.58479H71.5014H71.5608C71.9166 5.58479 72.2027 5.30073 72.2027 4.95127C72.2079 4.60007 71.9219 4.31773 71.566 4.31773ZM93.6499 9.02276C93.7757 8.9005 93.8437 8.73693 93.8437 8.57517C93.8437 8.41677 93.7757 8.25665 93.6485 8.14127H93.6499C93.6485 8.13783 93.6462 8.13783 93.6462 8.13783C93.6462 8.13438 93.6432 8.13438 93.6432 8.13438H93.641C93.519 8.01563 93.3641 7.95193 93.2018 7.95193C93.0394 7.95193 92.8793 8.01907 92.7588 8.13783L87.8287 12.879V4.91167C87.8287 4.56908 87.5377 4.28846 87.18 4.28846C87.0072 4.28846 86.85 4.35905 86.737 4.47267C86.6256 4.58457 86.55 4.74123 86.55 4.91167V16.5769C86.55 16.7473 86.6256 16.904 86.737 17.0142C86.85 17.1244 87.0072 17.1984 87.18 17.1984C87.5377 17.1984 87.8287 16.9212 87.8287 16.5786V14.6522L89.4337 13.0701L92.7064 16.966C92.767 17.0555 92.8508 17.1175 92.9346 17.1502C93.0289 17.1846 93.1217 17.1984 93.2033 17.1984C93.317 17.1984 93.4756 17.1743 93.6148 17.0659L93.6223 17.0607L93.6305 17.0521C93.7614 16.9247 93.837 16.7542 93.837 16.582C93.837 16.4358 93.7824 16.2877 93.6814 16.1689V16.1672L90.3495 12.1715L93.6462 9.02448H93.6499V9.02276ZM84.7483 8.22051C84.865 8.33237 84.9368 8.49249 84.9368 8.66638V16.5769C84.9368 16.7473 84.8635 16.904 84.752 17.0142C84.6383 17.1244 84.4811 17.1984 84.3068 17.1984C84.1347 17.1984 83.9738 17.1244 83.8624 17.0142C83.7486 16.904 83.6753 16.7473 83.6753 16.5769V15.8057C82.8822 16.651 81.7673 17.1984 80.5342 17.1984C79.3056 17.1984 78.202 16.6785 77.4096 15.8435C76.6157 15.0138 76.1294 13.8706 76.1294 12.6225C76.1294 11.3744 76.6157 10.2296 77.4096 9.39979C78.202 8.56649 79.3056 8.04834 80.5342 8.04834C81.7673 8.04834 82.8822 8.57861 83.6753 9.42044V8.6681C83.6753 8.49421 83.7471 8.33409 83.8638 8.22223C83.9806 8.11201 84.1377 8.04834 84.3068 8.04834C84.4744 8.04834 84.633 8.11201 84.7483 8.22051ZM83.6753 12.6225C83.6753 11.6877 83.3176 10.8493 82.746 10.2433C82.1751 9.6408 81.3902 9.27409 80.5342 9.27237C79.6842 9.27237 78.9031 9.6408 78.3254 10.2433C77.7531 10.8493 77.3902 11.686 77.3902 12.6225C77.3902 13.5573 77.7531 14.3888 78.3254 14.9897C78.8993 15.5905 79.6827 15.952 80.5342 15.952C81.3939 15.952 82.1773 15.5905 82.7475 14.9914C83.3176 14.3906 83.6753 13.5573 83.6753 12.6225ZM32.9347 12.4004C32.4253 12.1629 31.848 11.989 31.2723 11.7996C30.742 11.6223 30.2047 11.4725 29.8209 11.2746C29.6273 11.1729 29.4773 11.0645 29.3796 10.944C29.2802 10.8234 29.2313 10.6995 29.2296 10.5325C29.2313 10.3036 29.2976 10.1194 29.411 9.95408C29.5837 9.70963 29.8732 9.51854 30.189 9.39627C30.5012 9.27237 30.8396 9.21386 31.0821 9.21386C31.7973 9.21558 32.2492 9.4497 32.5963 9.69414C32.7672 9.81641 32.912 9.94203 33.0498 10.0436C33.1196 10.097 33.1859 10.1452 33.2626 10.1813C33.3342 10.2157 33.4196 10.2451 33.5121 10.2451C33.5714 10.2451 33.629 10.2347 33.683 10.2123C33.7406 10.1899 33.7894 10.1572 33.8365 10.1176C33.8819 10.0746 33.922 10.023 33.9499 9.96613C33.9743 9.90761 33.9865 9.84566 33.9865 9.78707C33.9865 9.67694 33.9517 9.5736 33.8993 9.47551C33.8034 9.30506 33.6569 9.1415 33.4702 8.97622C33.1928 8.73177 32.8265 8.50109 32.4323 8.32548C32.0363 8.14987 31.6124 8.03112 31.2095 8.03112C30.2727 8.03112 29.4913 8.24116 28.9243 8.62679C28.6278 8.82822 28.3679 9.04857 28.1847 9.35325C27.998 9.65801 27.8934 10.035 27.8794 10.5257C27.8794 10.548 27.8794 10.5687 27.8794 10.591C27.8777 11.0662 28.033 11.4587 28.2772 11.7669C28.647 12.23 29.1965 12.5055 29.7355 12.7017C30.2727 12.8979 30.8117 13.015 31.1502 13.1269C31.6281 13.2836 32.1357 13.454 32.5073 13.6795C32.6922 13.7949 32.8405 13.9188 32.9416 14.0548C33.0394 14.1943 33.0952 14.3389 33.0986 14.5213V14.5351C33.0969 14.8003 33.0184 15.0069 32.8875 15.1842C32.6905 15.4493 32.3642 15.6421 32.0171 15.766C31.6717 15.8866 31.3107 15.9365 31.0803 15.9365C30.264 15.9365 29.718 15.7419 29.3203 15.5474C29.1214 15.4493 28.9609 15.3529 28.8144 15.2703C28.7429 15.2307 28.6749 15.1945 28.6033 15.1669C28.5336 15.1394 28.4603 15.1205 28.3765 15.1205C28.326 15.1205 28.2701 15.1291 28.2178 15.1497C28.1655 15.1721 28.1184 15.2014 28.0783 15.2393C28.0242 15.2909 27.9753 15.3511 27.9422 15.4183C27.909 15.4854 27.8934 15.5577 27.8934 15.6318C27.8934 15.754 27.9388 15.8642 28.005 15.9657C28.1079 16.1121 28.2597 16.2412 28.4481 16.372C28.6434 16.5012 28.8755 16.6269 29.1424 16.7525C29.7372 17.0296 30.4978 17.1743 31.0769 17.1829H31.0786C31.9787 17.1829 32.755 16.978 33.4091 16.5029V16.5012H33.4109C34.0511 16.026 34.4488 15.3184 34.4488 14.5196C34.4488 14.0806 34.3441 13.7088 34.1628 13.4041C33.8871 12.9445 33.4406 12.6397 32.9347 12.4004ZM74.1669 4.28846C73.9942 4.28846 73.8355 4.35905 73.722 4.47267C73.6087 4.58457 73.5354 4.74123 73.5354 4.91167V16.5769C73.5354 16.7473 73.6069 16.904 73.722 17.0142C73.8355 17.1244 73.9942 17.1984 74.1669 17.1984C74.5245 17.1984 74.8141 16.9212 74.8158 16.5786V4.91167C74.8141 4.56736 74.5262 4.28846 74.1669 4.28846ZM103.192 12.3281V12.3901C103.192 12.5623 103.114 12.7172 102.995 12.8188C102.878 12.9221 102.724 12.9754 102.558 12.9772H95.4831C95.6627 14.6815 97.0432 15.9399 98.6878 15.952H99.1045C99.6492 15.9537 100.179 15.7678 100.647 15.4614C101.114 15.1566 101.519 14.7314 101.803 14.2631C101.863 14.1633 101.946 14.0875 102.037 14.0411C102.131 13.9912 102.231 13.9671 102.332 13.9671C102.443 13.9671 102.555 13.9963 102.653 14.0531L102.66 14.0565L102.667 14.0617C102.845 14.1909 102.955 14.3854 102.955 14.6006C102.955 14.7107 102.925 14.8209 102.866 14.9225L102.864 14.9259L102.862 14.9276C102.466 15.5474 101.927 16.1138 101.287 16.5235C100.645 16.935 99.9022 17.1949 99.1045 17.1949H98.681C97.439 17.1863 96.3174 16.6682 95.5078 15.8401C94.7005 15.0155 94.2029 13.8827 94.2029 12.6363C94.2029 11.3692 94.7035 10.2209 95.5183 9.38939C96.3331 8.5596 97.4629 8.04489 98.7155 8.04489C99.9104 8.04489 100.985 8.51486 101.781 9.28269C102.576 10.0505 103.096 11.1179 103.188 12.3178L103.192 12.3281ZM101.81 11.7394C101.451 10.3036 100.174 9.28097 98.7155 9.28269C97.2205 9.28269 95.9612 10.2829 95.5706 11.7394H101.81ZM39.6575 8.06383C38.6702 8.06383 37.7684 8.4443 37.0968 9.05029V8.68875C37.0951 8.52174 37.034 8.36686 36.9224 8.2532C36.816 8.14127 36.6572 8.06555 36.4845 8.06555C36.3049 8.06555 36.1426 8.13611 36.0309 8.25148C35.9193 8.36514 35.853 8.52174 35.853 8.68875V16.7645L35.8792 16.7904L35.881 16.7938C35.8879 16.8196 35.9054 16.8507 35.9228 16.8782C36.0083 17.0279 36.1496 17.1416 36.324 17.1915L36.3485 17.1984H36.4845C36.5752 17.1984 36.666 17.1794 36.7531 17.1399C36.8247 17.1054 36.8927 17.0504 36.9468 16.9797H36.9485C36.9555 16.9729 36.9572 16.9642 36.9642 16.9574C36.9677 16.9556 36.9694 16.9539 36.9712 16.9505C37.0043 16.9075 37.0322 16.8644 37.0497 16.8231C37.0672 16.7749 37.0794 16.7284 37.0881 16.694L37.0933 16.6716V11.822C37.1108 11.1282 37.4003 10.5016 37.8643 10.0454C38.3249 9.58909 38.9563 9.30851 39.6541 9.30851C40.364 9.30851 40.9972 9.59081 41.456 10.0454C41.9166 10.4998 42.1957 11.1248 42.1957 11.8151V16.5769C42.1957 16.7508 42.2706 16.9126 42.3841 17.0228C42.501 17.133 42.6597 17.1984 42.8254 17.1984C42.9946 17.1984 43.1516 17.133 43.2685 17.0228C43.3854 16.9126 43.4568 16.7508 43.4568 16.5769V11.8151C43.4621 9.76126 41.7613 8.06728 39.6575 8.06383ZM52.1963 9.40495C52.9935 10.2382 53.4767 11.3813 53.4784 12.6225C53.4767 13.862 52.9917 15.0052 52.1963 15.8384C51.406 16.6716 50.3018 17.1966 49.0738 17.1966C47.8562 17.1966 46.7502 16.6699 45.9566 15.8384C45.1629 15.0052 44.671 13.862 44.671 12.6225C44.671 11.383 45.1629 10.2382 45.9566 9.40495C46.7502 8.57345 47.8562 8.04662 49.0738 8.04662C50.3018 8.04834 51.406 8.57345 52.1963 9.40495ZM52.2137 12.6225C52.2137 11.6963 51.8526 10.8562 51.2787 10.2502C50.7013 9.64252 49.9216 9.27237 49.0721 9.27237C48.2242 9.27237 47.4411 9.64424 46.8654 10.2502C46.2915 10.8562 45.9304 11.6963 45.9304 12.6225C45.9304 13.5487 46.2915 14.3802 46.8654 14.9828C47.4411 15.587 48.2242 15.952 49.0721 15.952C49.9198 15.952 50.7048 15.587 51.2787 14.9828C51.8526 14.3802 52.2137 13.5487 52.2137 12.6225ZM65.8269 8.11718L65.8234 8.11545L65.82 8.11373C65.7485 8.08276 65.6682 8.06555 65.5932 8.06555C65.4694 8.06728 65.3507 8.10342 65.2478 8.16716C65.1431 8.23255 65.0542 8.32892 65.0019 8.44946V8.45291L62.5928 14.9569L60.7368 10.5979L60.7333 10.5962C60.681 10.474 60.5885 10.381 60.4821 10.3139C60.3757 10.2485 60.2519 10.2123 60.121 10.2123C59.9955 10.2123 59.8768 10.2519 59.7739 10.3156C59.671 10.381 59.5786 10.474 59.5262 10.5962L59.5245 10.5979L57.665 14.9603L55.2455 8.45807H55.2437C55.2019 8.33237 55.1146 8.23427 55.0135 8.16888C54.9088 8.10342 54.7884 8.06728 54.6628 8.06555C54.5825 8.06555 54.5023 8.08104 54.4256 8.11373H54.4221L54.4186 8.11718C54.1936 8.22051 54.0558 8.4443 54.054 8.68703C54.054 8.76275 54.0697 8.83854 54.0994 8.91426L57.0771 16.8058V16.8093C57.0997 16.8679 57.1329 16.9264 57.1817 16.9832C57.2166 17.0245 57.2672 17.059 57.3213 17.0865C57.3318 17.0951 57.3457 17.1089 57.3702 17.1226C57.3945 17.1381 57.4277 17.1485 57.4591 17.1536C57.5114 17.1708 57.5829 17.1966 57.6771 17.1966C57.7975 17.1966 57.9092 17.1536 58.0103 17.0899C58.1045 17.0279 58.1883 16.935 58.2336 16.8162L58.2406 16.811L60.1245 12.3677L62.0102 16.7921H62.0119C62.0556 16.9109 62.1323 17.0021 62.2195 17.0676C62.3137 17.1364 62.4184 17.1794 62.5283 17.1966H62.6068C62.6818 17.1966 62.7551 17.1829 62.8161 17.1588C62.8806 17.1347 62.933 17.102 62.9766 17.0693C63.0778 16.9935 63.1563 16.8885 63.2051 16.7714V16.768L66.1636 8.91082C66.1933 8.8351 66.2072 8.76103 66.2072 8.68359C66.2072 8.44602 66.0642 8.21706 65.8269 8.11718Z" fill="#2E0757"/>
  </g>
  <defs>
    <clipPath id="clip0_83_67">
      <rect width="107" height="25" fill="white"/>
    </clipPath>
  </defs>
</svg>