<svg xmlns="http://www.w3.org/2000/svg" width="153" height="32" viewBox="0 0 153 32" fill="none">
  <path d="M16.7654 1.47925V2.96453H14.1155V3.93057H16.7654V6.88906H17.8013V3.93057H20.5175V2.96453H17.8013V0H16.7654V1.47925Z" fill="#7099A6"/>
  <path d="M8.10483 5.24678V7.40225H4.09375V8.7547H8.10483V13.1321H9.59242V8.7547H13.6637V7.40225H9.59242V3.09131H8.10483V5.24678Z" fill="#EB912C"/>
  <path d="M24.9144 5.24678V7.40225H20.9033V8.82112H24.9144V13.1321H26.4622V8.82112H30.4733V7.40225H26.4622V3.09131H24.9144V5.24678Z" fill="#59879B"/>
  <path d="M16.3803 12.5884V15.0035H11.9175V16.8028H16.3803V21.633H18.1871V16.8028H22.6498V15.0035H18.1871V10.1733H16.3803V12.5884Z" fill="#E8762C"/>
  <path d="M29.5036 13.8083V15.3237H26.7874V16.5494H29.5036V19.5743H30.8587V16.5494H33.5749V15.3237H30.8587V12.2988H29.5036V13.8083Z" fill="#5B6591"/>
  <path d="M3.64239 13.9412V15.3903H0.992432V16.4167H3.64239V19.3148H4.67829V16.4167L7.3945 16.3201V15.3903H4.67829V12.4922H3.64239V13.9412Z" fill="#7099A6"/>
  <path d="M8.10483 20.7639V22.9193H4.09375V24.3382H8.10483V28.6492H9.65265V24.3382H13.6637V22.9193H9.65265V18.6084H8.10483V20.7639Z" fill="#C72035"/>
  <path d="M24.9144 20.7639V22.9193H20.9033V24.2718H24.9144V28.6492H26.4622V24.2718H30.4733V22.9193H26.4622V18.6084H24.9144V20.7639Z" fill="#1F447E"/>
  <path d="M16.6391 26.2401V27.7495H13.9229V28.9752H16.6391V32.0001H17.9942V28.9752H20.7104V27.7495H17.9942V24.7246H16.6391V26.2401Z" fill="#5B6591"/>
  <path d="M100.161 6.43652V24.7912H98.0954V6.43652H100.161ZM48.8302 9.01464V14.8712H54.3891V16.8033H48.8302V23.1127H46.7645V16.8033H41.2056V14.8712H46.7645V9.01464H48.8302ZM113.483 13.0358C113.857 13.0539 114.332 13.1143 114.549 13.1686C114.76 13.2229 115.109 13.3497 115.32 13.4524C115.537 13.549 115.886 13.7603 116.097 13.9233C116.314 14.0863 116.615 14.3882 116.772 14.5935C116.928 14.7988 117.151 15.1731 117.272 15.4207C117.392 15.6682 117.549 16.1029 117.621 16.3867C117.693 16.6705 117.777 17.2441 117.844 18.4154H110.701L110.743 18.6569C110.761 18.7897 110.839 19.0735 110.9 19.2848C110.966 19.4961 111.134 19.8282 111.267 20.0154C111.399 20.2026 111.598 20.426 111.701 20.5044C111.809 20.5829 112.026 20.7158 112.188 20.8003C112.345 20.8788 112.622 20.9814 112.803 21.0297C112.983 21.078 113.465 21.1203 113.899 21.1203C114.326 21.1203 114.941 21.078 115.26 21.0237C115.579 20.9694 116.031 20.8607 116.26 20.7882C116.489 20.7158 116.79 20.6011 116.922 20.5346C117.055 20.4682 117.193 20.4078 117.229 20.4078C117.27 20.4078 117.294 20.7455 117.295 22.1467L117.296 22.3399L116.94 22.5029C116.742 22.5935 116.332 22.7384 116.019 22.829C115.706 22.9135 115.133 23.0222 114.742 23.0644C114.206 23.1188 113.845 23.1188 113.285 23.0644C112.875 23.0222 112.279 22.9135 111.96 22.8229C111.64 22.7324 111.177 22.5512 110.936 22.4184C110.689 22.2856 110.273 21.9777 110.008 21.7301C109.737 21.4826 109.4 21.078 109.243 20.8305C109.087 20.5829 108.894 20.1603 108.804 19.8946C108.713 19.629 108.605 19.1641 108.563 18.8682C108.515 18.5361 108.503 18.0712 108.527 17.709C108.545 17.3709 108.623 16.8637 108.695 16.5799C108.768 16.2961 108.942 15.8312 109.081 15.5475C109.219 15.2637 109.478 14.8592 109.647 14.6478C109.822 14.4365 110.165 14.1105 110.412 13.9233C110.659 13.7361 111.074 13.5007 111.333 13.392C111.586 13.2833 112.026 13.1565 112.303 13.1022C112.634 13.0418 113.032 13.0177 113.483 13.0358ZM134.942 12.9392V16.1754C134.942 17.9565 134.924 20.0878 134.846 22.4124L134.328 22.5694C134.045 22.6539 133.472 22.7867 133.051 22.8531C132.515 22.9497 132.003 22.986 131.31 22.986C130.762 22.986 130.13 22.9558 129.901 22.9195C129.672 22.8773 129.22 22.7626 128.901 22.6599C128.558 22.5512 128.112 22.3399 127.835 22.1588C127.564 21.9837 127.191 21.6758 126.998 21.4644C126.811 21.2592 126.546 20.8969 126.42 20.6675C126.293 20.438 126.119 20.0154 126.034 19.7377C125.908 19.3331 125.872 19.0192 125.842 18.2886C125.824 17.7029 125.842 17.1837 125.89 16.8999C125.932 16.6524 126.04 16.2358 126.131 15.9701C126.215 15.7044 126.414 15.2818 126.57 15.0343C126.721 14.7867 127.046 14.3943 127.293 14.1648C127.57 13.9112 127.932 13.6516 128.227 13.5067C128.492 13.3799 128.877 13.2229 129.094 13.1626C129.305 13.1082 129.829 13.0418 130.256 13.0237C130.828 12.9995 131.16 13.0237 131.515 13.0961C131.786 13.1565 132.19 13.2894 132.424 13.398C132.653 13.5007 132.852 13.5912 132.858 13.5852C132.869 13.5852 132.875 13.4634 132.876 13.3083L132.876 12.9392H134.942ZM71.0056 12.9392L71.0055 16.9652L71.0049 17.3855C71.0003 19.2753 70.9743 21.13 70.9092 22.4124L70.3913 22.5694C70.1082 22.6539 69.512 22.7867 69.0663 22.8652C68.3857 22.9799 68.0786 22.992 67.0969 22.9678C66.1875 22.9437 65.8201 22.9075 65.4166 22.8048C65.1275 22.7263 64.6336 22.5392 64.3144 22.3822C63.9772 22.2131 63.5737 21.9475 63.3448 21.7482C63.134 21.555 62.8329 21.2109 62.6883 20.9875C62.5378 20.758 62.339 20.3958 62.2547 20.1844C62.1704 19.9731 62.0439 19.5505 61.9837 19.2546C61.8994 18.8199 61.8813 18.4999 61.9054 17.7392C61.9355 17.0086 61.9777 16.6524 62.08 16.2901C62.1583 16.0244 62.339 15.5897 62.4775 15.3241C62.6161 15.0584 62.8931 14.6539 63.0979 14.4305C63.3087 14.2011 63.652 13.8992 63.8627 13.7543C64.0735 13.6154 64.4229 13.4282 64.6397 13.3437C64.8505 13.2592 65.2359 13.1444 65.4949 13.0961C65.7539 13.0478 66.2357 13.0056 66.5609 13.0056C66.8921 13.0056 67.3619 13.0539 67.6149 13.1022C67.8618 13.1565 68.2532 13.2894 68.4881 13.398C68.717 13.5007 68.9157 13.5912 68.9218 13.5852C68.9278 13.5852 68.9398 13.4403 68.9398 13.2652V12.9392H71.0056ZM83.093 8.3686L83.0933 11.4368C83.0955 13.329 83.1131 13.45 83.2075 13.4222C83.2737 13.398 83.5869 13.3135 83.9061 13.2229C84.2855 13.1203 84.7432 13.0539 85.2311 13.0237C85.7852 12.9995 86.1104 13.0177 86.5199 13.0961C86.8692 13.1626 87.2848 13.3075 87.6522 13.4886C87.9714 13.6456 88.393 13.9112 88.5917 14.0863C88.7844 14.2554 89.0916 14.6116 89.2662 14.8773C89.4469 15.1429 89.6698 15.5656 89.7661 15.8252C89.8685 16.0788 89.995 16.5558 90.0552 16.8878C90.1275 17.3226 90.1456 17.6969 90.1215 18.2886C90.1034 18.7294 90.0371 19.2788 89.9769 19.5082C89.9227 19.7377 89.7782 20.1301 89.6637 20.3777C89.5493 20.6252 89.3205 21.0056 89.1578 21.2169C89.0013 21.4282 88.682 21.7422 88.4532 21.9173C88.2304 22.0924 87.8208 22.3339 87.5558 22.4546C87.2908 22.5814 86.8512 22.7384 86.5862 22.8109C86.1706 22.9256 85.9056 22.9437 84.7131 22.9497C83.5869 22.9558 83.2195 22.9316 82.7738 22.835C82.4727 22.7686 81.9728 22.6418 81.6717 22.5573C81.3706 22.4727 81.1056 22.3761 81.0815 22.352C81.0574 22.3278 81.0273 19.1761 81.0152 15.3422L80.9911 8.3686H83.093ZM145.096 13.1988L145.09 16.435L145.09 16.6895C145.09 16.7308 145.09 16.7715 145.09 16.8116L145.09 17.2676C145.092 19.277 145.105 19.6634 145.184 19.9725L145.192 20.0054C145.2 20.0327 145.208 20.0598 145.217 20.0878C145.295 20.3294 145.439 20.6131 145.56 20.758C145.674 20.8909 145.915 21.072 146.096 21.1565C146.271 21.2411 146.608 21.3377 146.837 21.3678C147.084 21.4041 147.433 21.4041 147.68 21.3678C147.909 21.3377 148.246 21.2411 148.421 21.1565C148.601 21.072 148.842 20.8909 148.957 20.758C149.077 20.6131 149.228 20.3294 149.3 20.0878C149.31 20.0564 149.318 20.0262 149.327 19.9939L149.333 19.9693C149.408 19.651 149.423 19.0761 149.426 15.4986L149.426 15.2099C149.426 15.1607 149.426 15.111 149.426 15.0608L149.426 14.2659C149.426 14.2101 149.426 14.1537 149.426 14.0968L149.426 13.1988H151.54L151.528 16.6946C151.523 19.6115 151.518 20.1118 151.434 20.4417L151.426 20.4708C151.422 20.4852 151.418 20.4994 151.414 20.5136L151.405 20.5421L151.396 20.5709C151.324 20.7822 151.173 21.1022 151.059 21.2773C150.944 21.4584 150.745 21.706 150.607 21.8388C150.474 21.9716 150.185 22.1829 149.974 22.3097C149.764 22.4365 149.354 22.6116 149.071 22.7022C148.746 22.8048 148.312 22.8833 147.909 22.9135C147.547 22.9316 146.969 22.9316 146.614 22.9075C146.21 22.8833 145.771 22.8048 145.451 22.7022C145.162 22.6116 144.759 22.4365 144.542 22.3097C144.331 22.1829 144.048 21.9716 143.91 21.8388C143.777 21.706 143.572 21.4584 143.458 21.2773C143.35 21.1022 143.199 20.7822 143.127 20.5709L143.122 20.5566L143.112 20.5284C143.103 20.5003 143.095 20.4722 143.087 20.4427L143.079 20.4126C142.998 20.0797 142.992 19.5089 142.976 16.6946L142.952 13.1988H145.096ZM130.804 14.9437C130.576 14.9437 130.226 14.992 130.034 15.0403C129.835 15.0946 129.534 15.2154 129.359 15.312C129.184 15.4086 128.931 15.6078 128.793 15.7588C128.654 15.9097 128.474 16.1754 128.383 16.3565C128.293 16.5316 128.179 16.8577 128.124 17.0811C128.07 17.2984 128.028 17.7271 128.028 18.029C128.028 18.3309 128.07 18.7595 128.124 18.9769C128.179 19.2003 128.281 19.5022 128.359 19.6531C128.438 19.8041 128.636 20.0697 128.799 20.2388C128.961 20.4139 129.226 20.6192 129.383 20.6977C129.546 20.7822 129.835 20.8969 130.034 20.9512C130.256 21.0177 130.624 21.0539 131.051 21.0539C131.413 21.0539 131.925 21.0237 132.178 20.9875C132.437 20.9512 132.683 20.8969 132.72 20.8727C132.774 20.8426 132.804 20.0637 132.822 18.198L132.84 15.5595C132.19 15.2275 131.828 15.0886 131.611 15.0343C131.401 14.9799 131.039 14.9377 130.804 14.9437ZM66.0911 15.0403C65.8984 15.0946 65.5973 15.2154 65.4226 15.312C65.248 15.4086 64.995 15.6078 64.8565 15.7588C64.718 15.9097 64.5313 16.1754 64.4469 16.3565C64.3566 16.5316 64.2422 16.8577 64.188 17.0811C64.1338 17.2984 64.0916 17.6969 64.0916 17.9626C64.0916 18.2282 64.1217 18.6207 64.1579 18.832C64.2 19.0433 64.3084 19.3935 64.4108 19.6048C64.5313 19.8584 64.724 20.118 64.9709 20.3475C65.2118 20.5709 65.4949 20.758 65.7418 20.8546C66.0429 20.9754 66.2838 21.0116 66.9042 21.0418C67.3438 21.0599 67.8979 21.0358 68.193 20.9935C68.4761 20.9512 68.7411 20.8969 68.7832 20.8727C68.8314 20.8426 68.8676 20.0033 68.8977 18.2041L68.9398 15.5837C68.4098 15.2939 68.1147 15.1611 67.9341 15.1007C67.7594 15.0343 67.3499 14.9739 67.0307 14.9618C66.6332 14.9437 66.338 14.9678 66.0911 15.0403ZM85.0685 14.9437C84.8215 14.9497 84.4963 14.9799 84.3578 15.0101C84.2133 15.0403 83.882 15.1429 83.611 15.2395L83.1292 15.4086V20.7641C84.141 21.0297 84.3578 21.0478 85.0323 21.0297C85.6948 21.0116 85.9116 20.9814 86.2308 20.8607C86.4416 20.7761 86.7367 20.6192 86.8753 20.5044C87.0198 20.3958 87.2246 20.1905 87.333 20.0516C87.4414 19.9127 87.598 19.6229 87.6763 19.4116C87.7606 19.2003 87.857 18.7958 87.8931 18.512C87.9473 18.1256 87.9473 17.8599 87.8871 17.4494C87.8389 17.0811 87.7365 16.749 87.5859 16.435C87.4655 16.1754 87.2547 15.8554 87.1222 15.7226C86.9897 15.5897 86.7488 15.4026 86.5862 15.312C86.4296 15.2154 86.1224 15.0946 85.9056 15.0403C85.6948 14.9799 85.3154 14.9377 85.0685 14.9437ZM112.767 15.0343C112.574 15.0886 112.261 15.2275 112.068 15.3422C111.875 15.4569 111.604 15.6803 111.46 15.8373C111.321 16.0003 111.134 16.266 111.05 16.435C110.966 16.6041 110.894 16.7671 110.894 16.8033C110.894 16.8436 111.631 16.8674 112.997 16.8696L115.519 16.8697C115.453 16.3927 115.392 16.1573 115.344 16.0305C115.29 15.9097 115.133 15.6803 114.995 15.5294C114.826 15.3422 114.622 15.2094 114.387 15.1188C114.188 15.0524 113.827 14.9799 113.58 14.9618C113.291 14.9497 112.995 14.9739 112.767 15.0343Z" fill="#1F447E"/>
</svg>