<svg xmlns="http://www.w3.org/2000/svg" width="107" height="24" viewBox="0 0 107 24" fill="none">
  <g clip-path="url(#clip0_705_5694)">
    <path fill-rule="evenodd" clip-rule="evenodd" d="M86.8293 7.19698C87.236 7.9013 87.3691 8.70265 87.413 9.60353L87.4707 10.8043V19.2008L87.5297 20.4028C87.6477 22.3658 89.09 23.8173 91.0608 23.9408L92.2521 24V10.8043L92.3111 9.60353C92.3601 8.71273 92.4919 7.89626 92.9049 7.1869C93.3257 6.45931 93.9298 5.85564 94.6566 5.43652C95.3833 5.0174 96.2072 4.79757 97.0453 4.7991C97.8835 4.80063 98.7066 5.02347 99.4318 5.44525C100.157 5.86703 100.759 6.47289 101.177 7.20202C101.584 7.90634 101.711 8.72281 101.76 9.60353L101.819 10.8005V19.2008L101.878 20.4028C102.001 22.3759 103.432 23.8274 105.409 23.9408L106.6 24V9.60353C106.6 7.05784 105.593 4.61636 103.8 2.81593C102.007 1.0155 99.5747 0.00352562 97.0385 0.00252332C95.681 0.00108641 94.3389 0.290434 93.1018 0.851234C91.8647 1.41203 90.761 2.23138 89.8646 3.25452C88.9677 2.23178 87.864 1.41264 86.627 0.851669C85.39 0.290702 84.048 0.000794403 82.6906 0.00126311C80.7048 0.00126311 78.862 0.606051 77.3356 1.65057C76.4042 0.607311 74.3204 0.00126311 73.1242 0.00126311V24L74.3204 23.9408C76.3214 23.8085 77.7674 22.3961 77.8453 20.4028L77.9093 19.2008V10.8043L77.9683 9.60353C78.0185 8.69761 78.144 7.9013 78.552 7.19194C78.9732 6.4648 79.577 5.86128 80.3032 5.44164C81.0295 5.02201 81.8527 4.80094 82.6906 4.80051C83.5293 4.80069 84.3531 5.0222 85.0795 5.44282C85.8059 5.86344 86.4093 6.46839 86.8293 7.19698ZM4.98131 23.942L6.17759 24H24.1093L24.0503 22.803C23.8883 20.8299 22.4962 19.3885 20.5242 19.26L19.3279 19.2008H8.57016L22.913 4.79925L22.854 3.60353C22.7611 1.61025 21.31 0.1701 19.3279 0.0604815L18.1316 0.0063029L0.199951 0.00126311L0.258949 1.20202C0.415859 3.15624 1.82805 4.62789 3.78377 4.74129L4.98131 4.80051H15.7391L1.39623 19.202L1.45523 20.4028C1.57323 22.3809 2.99546 23.8135 4.98131 23.9408V23.942ZM68.4307 3.51407C69.541 4.62829 70.4217 5.95114 71.0226 7.40706C71.6235 8.86298 71.9328 10.4235 71.9328 11.9994C71.9328 13.5753 71.6235 15.1358 71.0226 16.5917C70.4217 18.0476 69.541 19.3705 68.4307 20.4847C66.1875 22.7344 63.1462 23.9982 59.9751 23.9982C56.804 23.9982 53.7627 22.7344 51.5195 20.4847C46.8512 15.7988 46.8512 8.19992 51.5195 3.51407C52.6288 2.40023 53.9458 1.5166 55.3954 0.913655C56.8449 0.310708 58.3985 0.000248732 59.9676 2.89265e-06C61.5392 -0.00109231 63.0956 0.30882 64.5478 0.912014C65.9999 1.51521 67.3194 2.39985 68.4307 3.51533V3.51407ZM65.0477 6.91222C66.3924 8.26294 67.1477 10.0943 67.1477 12.0038C67.1477 13.9133 66.3924 15.7446 65.0477 17.0953C63.702 18.445 61.8775 19.2032 59.9751 19.2032C58.0727 19.2032 56.2482 18.445 54.9025 17.0953C53.5578 15.7446 52.8025 13.9133 52.8025 12.0038C52.8025 10.0943 53.5578 8.26294 54.9025 6.91222C56.2482 5.56253 58.0727 4.80436 59.9751 4.80436C61.8775 4.80436 63.702 5.56253 65.0477 6.91222ZM34.877 2.89265e-06C36.4462 0.000414204 37.9999 0.311072 39.4494 0.914237C40.8989 1.5174 42.2159 2.40126 43.3251 3.51533C47.9947 8.19992 47.9947 15.8001 43.3251 20.4847C41.0819 22.7344 38.0406 23.9982 34.8695 23.9982C31.6985 23.9982 28.6571 22.7344 26.414 20.4847C21.7456 15.7988 21.7456 8.19992 26.414 3.51407C27.5232 2.40023 28.8402 1.5166 30.2898 0.913655C31.7393 0.310708 33.2929 0.000248732 34.862 2.89265e-06H34.877ZM39.9421 6.9097C41.2871 8.26048 42.0427 10.0921 42.0427 12.0019C42.0427 13.9117 41.2871 15.7433 39.9421 17.0941C38.5964 18.4438 36.7719 19.2019 34.8695 19.2019C32.9671 19.2019 31.1426 18.4438 29.7969 17.0941C28.4523 15.7434 27.6969 13.912 27.6969 12.0025C27.6969 10.093 28.4523 8.26168 29.7969 6.91096C31.1426 5.56127 32.9671 4.8031 34.8695 4.8031C36.7719 4.8031 38.5964 5.56127 39.9421 6.91096V6.9097Z" fill="#2D8CFF"/>
  </g>
  <defs>
    <clipPath id="clip0_705_5694">
      <rect width="106.4" height="24" fill="white" transform="translate(0.199951)"/>
    </clipPath>
  </defs>
</svg>