<svg width="22" height="22" viewBox="0 0 22 22" fill="none" xmlns="http://www.w3.org/2000/svg">
<path id="Union" fill-rule="evenodd" clip-rule="evenodd" d="M20.9474 11.4343C21.2867 11.3991 21.5444 11.1132 21.5444 10.7721C21.5444 10.431 21.2867 10.1451 20.9474 10.1099L15.8778 9.58362C13.8099 9.36896 12.1755 7.73451 11.9608 5.66666L11.4345 0.597038C11.3993 0.257775 11.1134 -4.55955e-07 10.7723 -4.70864e-07C10.4312 -4.85773e-07 10.1453 0.257775 10.1101 0.597038L9.58383 5.66665C9.36917 7.73451 7.73472 9.36896 5.66686 9.58362L0.597244 10.1099C0.257978 10.1451 0.000205538 10.431 0.000205523 10.7721C0.000205508 11.1132 0.25798 11.3991 0.597244 11.4343L5.66686 11.9606C7.73472 12.1753 9.36917 13.8097 9.58383 15.8776L10.1101 20.9472C10.1453 21.2865 10.4312 21.5442 10.7723 21.5442C11.1134 21.5442 11.3993 21.2865 11.4345 20.9472L11.9608 15.8776C12.1755 13.8097 13.8099 12.1753 15.8778 11.9606L20.9474 11.4343Z" fill="url(#paint0_linear_242_1728)"/>
<defs>
<linearGradient id="paint0_linear_242_1728" x1="34.2555" y1="-7.97136" x2="-3.44687" y2="29.731" gradientUnits="userSpaceOnUse">
<stop stop-color="#6400CC"/>
<stop offset="0.587856" stop-color="#387CE3"/>
<stop offset="1" stop-color="#3CFFB9"/>
</linearGradient>
</defs>
</svg>
