<svg width="130" height="44" viewBox="0 0 130 44" fill="none" xmlns="http://www.w3.org/2000/svg">
<g id="Google_2015_logo">
<path id="Vector" d="M55.3221 22.5644C55.3221 28.6718 50.5475 33.1722 44.6879 33.1722C38.8283 33.1722 34.0537 28.6718 34.0537 22.5644C34.0537 16.4139 38.8283 11.9565 44.6879 11.9565C50.5475 11.9565 55.3221 16.4139 55.3221 22.5644ZM50.6669 22.5644C50.6669 18.7478 47.8997 16.1365 44.6879 16.1365C41.4761 16.1365 38.7089 18.7478 38.7089 22.5644C38.7089 26.3426 41.4761 28.9922 44.6879 28.9922C47.8997 28.9922 50.6669 26.3378 50.6669 22.5644Z" fill="#EA4335"/>
<path id="Vector_2" d="M78.2625 22.5644C78.2625 28.6718 73.4879 33.1722 67.6283 33.1722C61.7688 33.1722 56.9941 28.6718 56.9941 22.5644C56.9941 16.4187 61.7688 11.9565 67.6283 11.9565C73.4879 11.9565 78.2625 16.4139 78.2625 22.5644ZM73.6074 22.5644C73.6074 18.7478 70.8401 16.1365 67.6283 16.1365C64.4166 16.1365 61.6493 18.7478 61.6493 22.5644C61.6493 26.3426 64.4166 28.9922 67.6283 28.9922C70.8401 28.9922 73.6074 26.3378 73.6074 22.5644Z" fill="#FBBC05"/>
<path id="Vector_3" d="M100.248 12.5974V31.6418C100.248 39.4757 95.6309 42.6752 90.1728 42.6752C85.035 42.6752 81.9427 39.2365 80.7765 36.4244L84.8295 34.7361C85.5512 36.4626 87.3195 38.5 90.1681 38.5C93.6618 38.5 95.8269 36.3431 95.8269 32.2826V30.757H95.6644C94.6225 32.0435 92.6151 33.1674 90.082 33.1674C84.7817 33.1674 79.9258 28.5474 79.9258 22.6026C79.9258 16.6148 84.7817 11.9565 90.082 11.9565C92.6103 11.9565 94.6177 13.0805 95.6644 14.3287H95.8269V12.6022H100.248V12.5974ZM96.1567 22.6026C96.1567 18.8674 93.6666 16.1365 90.4978 16.1365C87.2861 16.1365 84.5953 18.8674 84.5953 22.6026C84.5953 26.2996 87.2861 28.9922 90.4978 28.9922C93.6666 28.9922 96.1567 26.2996 96.1567 22.6026Z" fill="#4285F4"/>
<path id="Vector_4" d="M107.537 1.43481V32.5218H102.996V1.43481H107.537Z" fill="#34A853"/>
<path id="Vector_5" d="M125.23 26.0556L128.843 28.466C127.677 30.1925 124.867 33.1673 120.011 33.1673C113.989 33.1673 109.491 28.5091 109.491 22.5595C109.491 16.2512 114.027 11.9517 119.49 11.9517C124.991 11.9517 127.682 16.3325 128.561 18.6999L129.044 19.9051L114.873 25.7782C115.958 27.9064 117.645 28.9921 120.011 28.9921C122.381 28.9921 124.025 27.8251 125.23 26.0556ZM114.108 22.2391L123.581 18.303C123.06 16.9782 121.492 16.0551 119.647 16.0551C117.282 16.0551 113.989 18.1451 114.108 22.2391Z" fill="#EA4335"/>
<path id="Vector_6" d="M16.8664 19.8049V15.3044H32.0219C32.17 16.0888 32.2465 17.0166 32.2465 18.0209C32.2465 21.3975 31.3241 25.5727 28.3513 28.5475C25.4597 31.5605 21.7653 33.1675 16.8711 33.1675C7.79982 33.1675 0.171875 25.7735 0.171875 16.6962C0.171875 7.61877 7.79982 0.224854 16.8711 0.224854C21.8895 0.224854 25.4645 2.19529 28.1506 4.76355L24.977 7.9392C23.0509 6.13138 20.4414 4.72529 16.8664 4.72529C10.2421 4.72529 5.06121 10.0675 5.06121 16.6962C5.06121 23.3249 10.2421 28.667 16.8664 28.667C21.1631 28.667 23.6101 26.9405 25.1778 25.3718C26.4491 24.0996 27.2855 22.2822 27.6153 19.8001L16.8664 19.8049Z" fill="#4285F4"/>
</g>
</svg>
