<svg width="178" height="44" viewBox="0 0 178 44" fill="none" xmlns="http://www.w3.org/2000/svg">
<g id="microsoft-logo" clip-path="url(#clip0_531_5730)">
<path id="Vector" d="M178.003 20.2114V17.1162H174.116V12.3043L173.985 12.3441L170.334 13.4487L170.262 13.4703V17.1163H164.499V15.0852C164.499 14.1394 164.712 13.4157 165.134 12.933C165.553 12.4561 166.151 12.2137 166.915 12.2137C167.464 12.2137 168.032 12.3416 168.604 12.5937L168.748 12.657V9.39734L168.68 9.37282C168.147 9.18316 167.421 9.08765 166.521 9.08765C165.387 9.08765 164.357 9.33162 163.459 9.81514C162.56 10.2993 161.852 10.9906 161.357 11.8694C160.863 12.7473 160.613 13.7611 160.613 14.8831V17.1162H157.906V20.2114H160.613V33.251H164.499V20.2114H170.262V28.4979C170.262 31.9106 171.89 33.6401 175.1 33.6401C175.628 33.6401 176.183 33.5789 176.75 33.4592C177.328 33.3363 177.721 33.2136 177.952 33.0825L178.003 33.0525V29.9287L177.845 30.032C177.634 30.171 177.372 30.2845 177.064 30.369C176.755 30.4549 176.496 30.498 176.296 30.498C175.544 30.498 174.988 30.2976 174.642 29.9021C174.293 29.503 174.116 28.8052 174.116 27.8289V20.2114H178.003ZM149.228 30.4985C147.818 30.4985 146.706 30.0361 145.922 29.1252C145.134 28.2098 144.734 26.9046 144.734 25.2463C144.734 23.5354 145.134 22.1964 145.923 21.2648C146.707 20.3393 147.808 19.8695 149.197 19.8695C150.544 19.8695 151.617 20.3181 152.385 21.2036C153.157 22.0937 153.549 23.4221 153.549 25.1529C153.549 26.905 153.18 28.2508 152.454 29.1511C151.732 30.0446 150.647 30.4985 149.228 30.4985ZM149.401 16.7275C146.71 16.7275 144.573 17.5071 143.049 19.0446C141.526 20.5824 140.754 22.7104 140.754 25.3701C140.754 27.8964 141.508 29.9283 142.995 31.4087C144.481 32.8896 146.504 33.6397 149.008 33.6397C151.616 33.6397 153.711 32.8492 155.234 31.2904C156.757 29.7332 157.528 27.6253 157.528 25.0277C157.528 22.462 156.804 20.4149 155.376 18.9444C153.946 17.4732 151.936 16.7275 149.401 16.7275ZM134.489 16.7275C132.659 16.7275 131.145 17.1904 129.988 18.1031C128.824 19.0213 128.234 20.2255 128.234 21.6827C128.234 22.4402 128.362 23.113 128.612 23.6837C128.865 24.2563 129.255 24.7604 129.774 25.1835C130.288 25.6032 131.083 26.0428 132.135 26.49C133.021 26.8501 133.681 27.1547 134.1 27.3948C134.51 27.6301 134.8 27.8666 134.965 28.0969C135.124 28.3223 135.205 28.6308 135.205 29.0115C135.205 30.0955 134.384 30.623 132.695 30.623C132.068 30.623 131.354 30.4936 130.571 30.2385C129.793 29.9874 129.06 29.6195 128.395 29.1479L128.234 29.0335V32.7326L128.293 32.7598C128.843 33.0108 129.536 33.2224 130.353 33.3889C131.169 33.5556 131.91 33.6404 132.553 33.6404C134.539 33.6404 136.139 33.1753 137.306 32.2571C138.48 31.3326 139.076 30.1 139.076 28.5924C139.076 27.5048 138.755 26.5721 138.124 25.8199C137.496 25.0739 136.408 24.3889 134.889 23.7835C133.679 23.3034 132.904 22.9048 132.585 22.5989C132.276 22.3033 132.12 21.8853 132.12 21.356C132.12 20.8868 132.313 20.5109 132.71 20.2065C133.109 19.9005 133.666 19.7449 134.363 19.7449C135.011 19.7449 135.673 19.846 136.332 20.0442C136.99 20.2424 137.568 20.5078 138.051 20.8325L138.21 20.9397V17.4308L138.149 17.4049C137.704 17.2161 137.116 17.0545 136.403 16.9234C135.693 16.7932 135.049 16.7275 134.489 16.7275ZM118.104 30.4985C116.694 30.4985 115.582 30.0361 114.798 29.1252C114.01 28.2098 113.611 26.905 113.611 25.2463C113.611 23.5354 114.01 22.1964 114.799 21.2648C115.583 20.3393 116.684 19.8695 118.073 19.8695C119.42 19.8695 120.492 20.3181 121.261 21.2036C122.033 22.0937 122.425 23.4221 122.425 25.1529C122.425 26.905 122.056 28.2508 121.33 29.1511C120.608 30.0446 119.523 30.4985 118.104 30.4985ZM118.277 16.7275C115.586 16.7275 113.448 17.5071 111.925 19.0446C110.403 20.5824 109.63 22.7104 109.63 25.3701C109.63 27.8974 110.384 29.9283 111.871 31.4087C113.358 32.8896 115.381 33.6397 117.884 33.6397C120.492 33.6397 122.587 32.8492 124.11 31.2904C125.633 29.7332 126.405 27.6253 126.405 25.0277C126.405 22.462 125.68 20.4149 124.251 18.9444C122.822 17.4732 120.812 16.7275 118.277 16.7275ZM103.731 19.9104V17.1162H99.893V33.2507H103.731V24.9973C103.731 23.5938 104.053 22.4409 104.688 21.57C105.315 20.7096 106.151 20.2735 107.171 20.2735C107.517 20.2735 107.905 20.3299 108.325 20.4414C108.741 20.5522 109.042 20.6726 109.22 20.7993L109.381 20.9149V17.0886L109.319 17.0622C108.962 16.912 108.456 16.8363 107.816 16.8363C106.852 16.8363 105.988 17.1427 105.249 17.7461C104.6 18.2765 104.131 19.0036 103.772 19.9104H103.731ZM93.019 16.7275C91.258 16.7275 89.6873 17.1008 88.3513 17.8369C87.0126 18.5746 85.9772 19.6278 85.2728 20.967C84.5714 22.303 84.2153 23.8635 84.2153 25.6039C84.2153 27.1283 84.5606 28.5273 85.243 29.7603C85.9257 30.9953 86.892 31.9615 88.1153 32.6316C89.3368 33.3009 90.7485 33.6402 92.3117 33.6402C94.1359 33.6402 95.6933 33.2796 96.942 32.5685L96.9925 32.5399V29.0628L96.8311 29.1792C96.2655 29.5866 95.6334 29.9118 94.9532 30.1461C94.2748 30.3802 93.6563 30.4985 93.1139 30.4985C91.6078 30.4985 90.3987 30.0325 89.521 29.1138C88.6415 28.194 88.1955 26.9022 88.1955 25.2768C88.1955 23.6412 88.6606 22.3163 89.5771 21.3387C90.4909 20.3639 91.7023 19.8695 93.1773 19.8695C94.4389 19.8695 95.6683 20.2919 96.8315 21.1262L96.9925 21.2418V17.5781L96.9405 17.5491C96.5028 17.3069 95.9058 17.1068 95.1647 16.9551C94.4267 16.8038 93.7049 16.7275 93.019 16.7275ZM81.5717 17.1163H77.7333V33.2507H81.5717V17.1163ZM79.6918 10.243C79.06 10.243 78.509 10.4556 78.0563 10.877C77.6017 11.2996 77.3712 11.8316 77.3712 12.4595C77.3712 13.0776 77.599 13.5999 78.0492 14.0112C78.4966 14.4214 79.0493 14.6293 79.6919 14.6293C80.3344 14.6293 80.8892 14.4214 81.3418 14.0119C81.7975 13.5999 82.0285 13.0777 82.0285 12.4595C82.0285 11.8536 81.8037 11.327 81.3606 10.894C80.9179 10.4619 80.3562 10.243 79.6918 10.243ZM70.1146 15.9259V33.2507H74.0319V10.7369H68.6102L61.7188 27.4595L55.0311 10.7369H49.3887V33.2505H53.0699V15.9242H53.1963L60.2583 33.2507H63.0364L69.9882 15.9259H70.1146Z" fill="#706D6E"/>
<path id="Vector_2" d="M18.0571 21.0679H0V3.21362H18.0571V21.0679Z" fill="#F1511B"/>
<path id="Vector_3" d="M37.9963 21.0679H19.9395V3.21362H37.9963V21.0679Z" fill="#80CC28"/>
<path id="Vector_4" d="M18.0566 40.7879H0V22.9338H18.0566V40.7879Z" fill="#00ADEF"/>
<path id="Vector_5" d="M37.9963 40.7879H19.9395V22.9338H37.9963V40.7879Z" fill="#FBBC09"/>
</g>
<defs>
<clipPath id="clip0_531_5730">
<rect width="178" height="44" fill="white"/>
</clipPath>
</defs>
</svg>
