<svg width="178" height="32" viewBox="0 0 178 32" fill="none" xmlns="http://www.w3.org/2000/svg">
<g id="oracle-ar21">
<path id="Vector" d="M76.6996 19.3601H88.4596L82.2197 9.35366L70.8196 27.5585H65.6595L79.4437 5.75206C80.0441 4.90886 81.0045 4.30566 82.2037 4.30566C83.2835 4.30566 84.2423 4.78566 84.8443 5.63366L98.7639 27.4545H93.6181L91.218 23.3553H79.337L76.6996 19.3601ZM130.582 23.3393V4.41126H126.14V25.1473C126.14 25.7505 126.379 26.2321 126.74 26.7153C127.218 27.1953 127.7 27.4385 128.301 27.4385H148.341L150.982 23.3393H130.582ZM57.8588 19.9793C62.1796 19.9793 65.5384 16.4833 65.5384 12.2641C65.5384 7.92326 62.0585 4.54886 57.8588 4.54886H38.6564V27.5761H43.0967V8.52486H57.6167C58.6016 8.53074 59.5445 8.92641 60.2409 9.62608C60.9374 10.3257 61.3312 11.273 61.3371 12.2625C61.3312 13.2516 60.9376 14.1987 60.2415 14.8983C59.5454 15.5979 58.6029 15.9938 57.6183 16.0001H45.2595L58.3397 27.4529H64.7007L55.8202 19.9777L57.8588 19.9793ZM11.4176 27.4545C5.05666 27.4545 0.0175781 22.2705 0.0175781 16.0017C0.0175781 9.61126 5.1777 4.54886 11.4176 4.54886H24.7384C31.0994 4.54886 36.1385 9.73286 36.1385 16.0017C36.1385 22.3921 30.9783 27.4545 24.7384 27.4545H11.4176ZM24.4979 23.3553C26.4677 23.3435 28.3535 22.5522 29.7464 21.1528C31.1393 19.7535 31.927 17.859 31.9387 15.8801C31.927 13.9011 31.1393 12.0066 29.7464 10.6073C28.3535 9.20795 26.4677 8.41662 24.4979 8.40486H11.7776C9.80776 8.41662 7.92196 9.20795 6.52908 10.6073C5.13619 12.0066 4.3485 13.9011 4.33679 15.8801C4.3485 17.859 5.13619 19.7535 6.52908 21.1528C7.92196 22.5522 9.80776 23.3435 11.7776 23.3553H24.4979ZM108.02 27.4545C101.659 27.4545 96.6202 22.2705 96.6202 16.0017C96.6202 9.61126 101.78 4.54886 108.02 4.54886H123.861L121.22 8.64806H108.259C106.289 8.65982 104.404 9.45116 103.011 10.8505C101.618 12.2498 100.83 14.1443 100.818 16.1233C100.83 18.1022 101.618 19.9967 103.011 21.396C104.404 22.7954 106.289 23.5867 108.259 23.5985H124.1L121.459 27.6977H108.017L108.02 27.4545ZM161.902 23.3553C158.558 23.3553 155.662 21.0641 154.821 17.9313H173.662L176.303 13.8321H154.942C155.782 10.6961 158.663 8.40806 162.023 8.40806H174.984L177.625 4.30887H161.783C155.422 4.30887 150.383 9.49286 150.383 15.7617C150.383 22.1521 155.543 27.2145 161.783 27.2145H175.344L177.985 23.1153H161.904L161.902 23.3553Z" fill="#E30613"/>
</g>
</svg>
