<svg width="157" height="45" viewBox="0 0 157 45" fill="none" xmlns="http://www.w3.org/2000/svg">
<g id="g62">
<g id="g68">
<path id="path70" d="M91.6609 23.798C90.9828 22.7005 91.8937 21.778 91.8937 21.778L99.8874 13.7104C100.798 12.7879 99.4856 12.7879 99.4856 12.7879H92.0217C90.709 12.7879 89.8083 13.7204 89.8083 13.7204L82.3929 21.3955C81.4922 22.3255 81.4922 21.0455 81.4922 21.0455V4.26791C81.4922 2.9854 80.1822 2.9854 80.1822 2.9854H74.5196C73.2581 2.9854 73.2581 4.21791 73.2581 4.21791V39.3205C73.2581 40.6031 74.5707 40.6031 74.5707 40.6031H80.177C81.4385 40.6031 81.4385 39.3705 81.4385 39.3705V33.2005C81.4385 31.918 82.3955 31.0405 82.3955 31.0405L85.0387 28.6155L91.6762 39.503C92.3466 40.6031 93.6593 40.6031 93.6593 40.6031H100.742C102.052 40.6031 101.374 39.5055 101.374 39.5055L91.6609 23.798ZM67.3677 39.3205V14.0179C67.3677 12.7354 66.0551 12.7354 66.0551 12.7354H60.3899C59.0798 12.7354 59.0798 14.0179 59.0798 14.0179V39.3205C59.0798 40.6031 60.3899 40.6031 60.3899 40.6031H66.0551C67.3677 40.6031 67.3677 39.3205 67.3677 39.3205ZM67.1528 7.82542V4.20291C67.1528 4.20291 67.1528 2.9679 65.8913 2.9679H60.3413C60.3413 2.9679 59.0798 2.9679 59.0798 4.20291V7.82542C59.0798 7.82542 59.0798 9.05793 60.3413 9.05793H65.8913C65.8913 9.05793 67.1528 9.05793 67.1528 7.82542ZM52.9694 39.3205V4.26791C52.9694 2.9854 51.6568 2.9854 51.6568 2.9854H45.8816C44.5689 2.9854 44.569 4.26791 44.569 4.26791V39.3205C44.569 40.6031 45.8816 40.6031 45.8816 40.6031H51.6568C52.9695 40.6031 52.9694 39.3205 52.9694 39.3205ZM39.9836 37.813C39.9836 37.813 40.718 36.9855 39.8736 36.2655L35.2396 32.3305C37.3199 29.3255 38.5379 25.698 38.5379 21.7955C38.5379 11.3979 29.9097 2.9679 19.2677 2.9679C8.62567 2.9679 0 11.3979 0 21.7955C0 32.193 8.62567 40.6206 19.2677 40.6206C23.1647 40.6206 26.7828 39.483 29.8124 37.543L34.8967 41.8581C34.8967 41.8581 35.7437 42.5781 36.4781 41.7506L39.9836 37.813ZM30.3933 21.7955C30.3933 27.798 25.4113 32.663 19.2677 32.663C13.124 32.663 8.14462 27.798 8.14462 21.7955C8.14462 15.793 13.124 10.9254 19.2677 10.9254C25.4113 10.9254 30.3933 15.793 30.3933 21.7955Z" fill="#54565B"/>
</g>
<g id="g72">
<path id="path74" d="M155.916 38.2027L149.729 33.1301C151.886 29.7951 153.14 25.8451 153.14 21.6076C153.14 9.67504 143.24 0 131.027 0C118.814 0 108.911 9.67504 108.911 21.6051C108.911 33.5376 118.814 43.2127 131.027 43.2127C135.766 43.2127 140.151 41.7527 143.752 39.2752L150.351 44.6852C150.351 44.6852 151.331 45.4877 152.155 44.5302L156.075 39.9652C156.075 39.9652 156.899 39.0077 155.916 38.2027ZM144.614 21.6076C144.614 28.9401 138.532 34.8826 131.027 34.8826C123.522 34.8826 117.437 28.9401 117.437 21.6051C117.437 14.2751 123.522 8.33003 131.027 8.33003C138.532 8.33003 144.614 14.2751 144.614 21.6076Z" fill="#009C4D"/>
</g>
<g id="g76">
<path id="path78" d="M122.315 21.6059C122.315 16.9059 126.215 13.0959 131.026 13.0959C135.836 13.0959 139.736 16.9059 139.736 21.6059C139.736 26.306 135.836 30.1185 131.026 30.116C126.215 30.116 122.315 26.306 122.315 21.6059Z" fill="#54565B"/>
</g>
<g id="g80">
<path id="path82" d="M152.185 6.37503C152.185 5.07252 153.272 4.02252 154.592 4.02252C155.926 4.02252 157 5.08502 157 6.37503C157 7.66503 155.926 8.72754 154.592 8.72754C153.272 8.72754 152.185 7.66503 152.185 6.37503ZM154.592 4.33752C153.454 4.33752 152.571 5.24253 152.571 6.37503C152.571 7.51253 153.441 8.41254 154.592 8.41254C155.744 8.41254 156.614 7.51253 156.614 6.37503C156.614 5.24253 155.744 4.33752 154.592 4.33752ZM154.04 7.80254H153.717V4.93502H154.779C155.288 4.93502 155.68 5.18503 155.68 5.72753C155.68 6.18003 155.429 6.48253 154.984 6.52503L155.81 7.80254H155.411L154.631 6.52503H154.04V7.80254ZM154.04 6.25003H154.702C155.089 6.25003 155.357 6.16753 155.357 5.72753C155.357 5.35503 155.068 5.21253 154.702 5.21253H154.04V6.25003Z" fill="#54565B"/>
</g>
</g>
</svg>
