<svg width="185" height="39" viewBox="0 0 185 39" fill="none" xmlns="http://www.w3.org/2000/svg">
<g id="tableau 1" clip-path="url(#clip0_531_6340)">
<g id="Group">
<g id="Group_2">
<path id="Vector" d="M19.3833 1.5519V3.37954H16.127V4.56826H19.3833V8.20868H20.6563V4.56826H23.9941V3.37954H20.6563V-0.268311H19.3833V1.5519Z" fill="#7099A6"/>
<path id="Vector_2" d="M8.7405 6.18796V8.84027H3.81152V10.5045H8.7405V15.8908H10.5685V10.5045H15.5715V8.84027H10.5685V3.53564H8.7405V6.18796Z" fill="#EB912C"/>
<path id="Vector_3" d="M29.3968 6.18796V8.84027H24.4678V10.5862H29.3968V15.8908H31.2988V10.5862H36.2278V8.84027H31.2988V3.53564H29.3968V6.18796Z" fill="#59879B"/>
<path id="Vector_4" d="M18.9088 15.222V18.1938H13.4248V20.4078H18.9088V26.3513H21.1291V20.4078H26.6131V18.1938H21.1291V12.2502H18.9088V15.222Z" fill="#E8762C"/>
<path id="Vector_5" d="M35.036 16.7228V18.5876H31.6982V20.0958H35.036V23.818H36.7012V20.0958H40.039V18.5876H36.7012V14.8655H35.036V16.7228Z" fill="#5B6591"/>
<path id="Vector_6" d="M3.25638 16.8863V18.6694H0V19.9324H3.25638V23.4985H4.52933V19.9324L7.86712 19.8135V18.6694H4.52933V15.1033H3.25638V16.8863Z" fill="#7099A6"/>
<path id="Vector_7" d="M8.7405 25.2815V27.9338H3.81152V29.6797H8.7405V34.9843H10.6425V29.6797H15.5715V27.9338H10.6425V22.6292H8.7405V25.2815Z" fill="#C72035"/>
<path id="Vector_8" d="M29.3968 25.2815V27.9338H24.4678V29.598H29.3968V34.9843H31.2988V29.598H36.2278V27.9338H31.2988V22.6292H29.3968V25.2815Z" fill="#1F447E"/>
<path id="Vector_9" d="M19.2274 32.0201V33.8774H15.8896V35.3856H19.2274V39.1077H20.8926V35.3856H24.2304V33.8774H20.8926V30.1553H19.2274V32.0201Z" fill="#5B6591"/>
</g>
<path id="Vector_10" d="M121.863 7.65137V30.2369H119.325V7.65137H121.863ZM58.7855 10.8237V18.0303H65.6165V20.4077H58.7855V28.1715H56.247V20.4077H49.416V18.0303H56.247V10.8237H58.7855ZM138.234 15.7717C138.693 15.794 139.277 15.8683 139.544 15.9352C139.803 16.0021 140.232 16.1581 140.491 16.2844C140.758 16.4032 141.187 16.6633 141.446 16.8639C141.712 17.0645 142.082 17.4359 142.275 17.6885C142.467 17.9411 142.741 18.4018 142.889 18.7064C143.037 19.011 143.229 19.5459 143.318 19.8951C143.407 20.2443 143.511 20.9501 143.592 22.3914H134.815L134.866 22.6886C134.889 22.852 134.985 23.2012 135.059 23.4612C135.14 23.7213 135.347 24.1299 135.51 24.3602C135.673 24.5905 135.917 24.8654 136.043 24.962C136.176 25.0585 136.443 25.222 136.643 25.326C136.835 25.4226 137.175 25.5489 137.398 25.6083C137.62 25.6678 138.212 25.7198 138.744 25.7198C139.27 25.7198 140.025 25.6678 140.417 25.6009C140.809 25.534 141.364 25.4003 141.646 25.3112C141.927 25.222 142.297 25.0808 142.46 24.9991C142.623 24.9174 142.793 24.8431 142.837 24.8431C142.887 24.8431 142.916 25.2585 142.918 26.9828L142.919 27.2205L142.482 27.4211C142.238 27.5326 141.734 27.7109 141.35 27.8223C140.965 27.9263 140.262 28.06 139.781 28.1121C139.122 28.1789 138.678 28.1789 137.99 28.1121C137.486 28.06 136.754 27.9263 136.361 27.8149C135.969 27.7034 135.399 27.4805 135.103 27.3171C134.8 27.1537 134.289 26.7747 133.964 26.4701C133.63 26.1655 133.216 25.6678 133.024 25.3632C132.831 25.0586 132.594 24.5385 132.483 24.2116C132.372 23.8847 132.239 23.3126 132.187 22.9486C132.128 22.54 132.113 21.9679 132.143 21.5221C132.165 21.1061 132.261 20.482 132.35 20.1328C132.439 19.7836 132.654 19.2116 132.824 18.8624C132.994 18.5132 133.312 18.0154 133.519 17.7554C133.734 17.4954 134.156 17.0942 134.459 16.8639C134.763 16.6336 135.273 16.3438 135.592 16.2101C135.903 16.0764 136.443 15.9203 136.783 15.8535C137.19 15.7792 137.679 15.7495 138.234 15.7717ZM164.603 15.6529V19.6351C164.603 21.8267 164.581 24.4493 164.485 27.3097L163.848 27.5028C163.5 27.6068 162.797 27.7703 162.279 27.852C161.621 27.9709 160.991 28.0155 160.14 28.0155C159.467 28.0155 158.69 27.9783 158.409 27.9337C158.127 27.8817 157.572 27.7406 157.18 27.6143C156.758 27.4805 156.211 27.2205 155.87 26.9976C155.537 26.7822 155.078 26.4033 154.841 26.1432C154.612 25.8906 154.286 25.4449 154.131 25.1626C153.975 24.8802 153.761 24.3602 153.657 24.0184C153.502 23.5207 153.457 23.1343 153.42 22.2354C153.398 21.5147 153.42 20.8758 153.48 20.5266C153.531 20.222 153.665 19.7094 153.776 19.3825C153.879 19.0556 154.123 18.5355 154.316 18.2309C154.501 17.9263 154.901 17.4434 155.204 17.1611C155.544 16.849 155.989 16.5296 156.351 16.3512C156.677 16.1952 157.15 16.0021 157.417 15.9278C157.676 15.8609 158.32 15.7792 158.845 15.7569C159.548 15.7272 159.955 15.7569 160.392 15.846C160.725 15.9203 161.221 16.0838 161.51 16.2175C161.791 16.3438 162.035 16.4553 162.042 16.4478C162.056 16.4478 162.063 16.298 162.064 16.1071L162.065 15.6529H164.603ZM86.0355 15.6529L86.0354 20.6069L86.0346 21.1241C86.029 23.4496 85.997 25.7317 85.9171 27.3097L85.2806 27.5028C84.9328 27.6068 84.2001 27.7703 83.6524 27.8669C82.8161 28.008 82.4387 28.0229 81.2323 27.9932C80.1148 27.9635 79.6634 27.9189 79.1675 27.7926C78.8123 27.696 78.2054 27.4657 77.8131 27.2725C77.3987 27.0645 76.9028 26.7376 76.6216 26.4924C76.3626 26.2547 75.9925 25.8312 75.8149 25.5563C75.6299 25.274 75.3857 24.8282 75.282 24.5682C75.1784 24.3082 75.023 23.7881 74.949 23.4241C74.8454 22.8892 74.8232 22.4954 74.8528 21.5593C74.8898 20.6603 74.9416 20.222 75.0674 19.7762C75.1636 19.4493 75.3857 18.9144 75.5559 18.5875C75.7261 18.2606 76.0665 17.7628 76.3182 17.4879C76.5772 17.2056 76.9991 16.8342 77.2581 16.6559C77.5171 16.485 77.9464 16.2547 78.2128 16.1506C78.4718 16.0466 78.9455 15.9055 79.2637 15.846C79.5819 15.7866 80.174 15.7346 80.5737 15.7346C80.9807 15.7346 81.558 15.794 81.8688 15.8535C82.1723 15.9203 82.6533 16.0838 82.9419 16.2175C83.2232 16.3438 83.4674 16.4553 83.4748 16.4478C83.4822 16.4478 83.497 16.2695 83.497 16.0541V15.6529H86.0355ZM100.889 10.0288L100.889 13.8042C100.892 16.1326 100.914 16.2815 101.03 16.2472C101.111 16.2175 101.496 16.1135 101.888 16.0021C102.354 15.8758 102.917 15.794 103.516 15.7569C104.197 15.7272 104.597 15.7495 105.1 15.846C105.529 15.9278 106.04 16.1061 106.492 16.329C106.884 16.5221 107.402 16.849 107.646 17.0645C107.883 17.2725 108.26 17.7108 108.475 18.0377C108.697 18.3646 108.971 18.8847 109.089 19.2041C109.215 19.5162 109.37 20.1031 109.444 20.5117C109.533 21.0466 109.555 21.5073 109.526 22.2354C109.504 22.7777 109.422 23.4538 109.348 23.7361C109.282 24.0184 109.104 24.5013 108.963 24.8059C108.823 25.1106 108.542 25.5786 108.342 25.8386C108.149 26.0987 107.757 26.485 107.476 26.7005C107.202 26.9159 106.699 27.2131 106.373 27.3617C106.047 27.5177 105.507 27.7109 105.182 27.8C104.671 27.9412 104.345 27.9635 102.88 27.9709C101.496 27.9783 101.044 27.9486 100.497 27.8297C100.127 27.748 99.5125 27.592 99.1424 27.488C98.7724 27.384 98.4468 27.2651 98.4172 27.2354C98.3876 27.2057 98.3506 23.3275 98.3358 18.6098L98.3061 10.0288H100.889ZM177.081 15.9723L177.074 19.9545L177.074 20.2676C177.074 20.3184 177.074 20.3685 177.074 20.418L177.074 20.979C177.076 23.4516 177.092 23.927 177.189 24.3074L177.199 24.3479C177.209 24.3815 177.218 24.4148 177.229 24.4493C177.325 24.7465 177.503 25.0957 177.651 25.274C177.791 25.4375 178.087 25.6603 178.31 25.7643C178.524 25.8684 178.939 25.9872 179.22 26.0244C179.523 26.069 179.952 26.069 180.256 26.0244C180.537 25.9872 180.952 25.8684 181.166 25.7643C181.388 25.6603 181.684 25.4375 181.825 25.274C181.973 25.0957 182.158 24.7465 182.247 24.4493C182.259 24.4107 182.27 24.3735 182.28 24.3338L182.287 24.3035C182.379 23.9118 182.398 23.2043 182.401 18.8023L182.402 18.447C182.402 18.3865 182.402 18.3253 182.402 18.2635L182.402 17.2854C182.402 17.2168 182.402 17.1474 182.402 17.0774L182.402 15.9723H185L184.985 20.274C184.979 23.8632 184.972 24.4788 184.869 24.8847L184.86 24.9206C184.855 24.9383 184.85 24.9558 184.844 24.9733L184.834 25.0083L184.822 25.0437C184.733 25.3037 184.548 25.6975 184.408 25.9129C184.267 26.1358 184.023 26.4404 183.853 26.6039C183.69 26.7673 183.335 27.0274 183.076 27.1834C182.817 27.3394 182.313 27.5548 181.966 27.6663C181.566 27.7926 181.033 27.8892 180.537 27.9263C180.093 27.9486 179.383 27.9486 178.946 27.9189C178.45 27.8892 177.91 27.7926 177.518 27.6663C177.162 27.5548 176.667 27.3394 176.4 27.1834C176.141 27.0274 175.793 26.7673 175.623 26.6039C175.46 26.4404 175.209 26.1358 175.068 25.9129C174.935 25.6975 174.75 25.3037 174.661 25.0437L174.655 25.0262L174.643 24.9915C174.632 24.9568 174.621 24.9223 174.612 24.886L174.602 24.8489C174.503 24.4393 174.495 23.737 174.476 20.274L174.446 15.9723H177.081ZM159.519 18.1195C159.237 18.1195 158.808 18.1789 158.571 18.2383C158.327 18.3052 157.957 18.4538 157.743 18.5726C157.528 18.6915 157.217 18.9367 157.047 19.1224C156.877 19.3082 156.655 19.6351 156.544 19.8579C156.433 20.0734 156.292 20.4746 156.225 20.7495C156.159 21.0169 156.107 21.5444 156.107 21.9159C156.107 22.2874 156.159 22.8149 156.225 23.0823C156.292 23.3572 156.418 23.7287 156.514 23.9144C156.61 24.1002 156.854 24.427 157.054 24.6351C157.254 24.8505 157.58 25.1031 157.772 25.1997C157.972 25.3037 158.327 25.4449 158.571 25.5117C158.845 25.5935 159.297 25.638 159.822 25.638C160.266 25.638 160.895 25.6009 161.206 25.5563C161.524 25.5117 161.828 25.4449 161.872 25.4152C161.939 25.378 161.976 24.4196 161.998 22.1239L162.02 18.8773C161.221 18.4686 160.777 18.2978 160.51 18.2309C160.251 18.164 159.807 18.112 159.519 18.1195ZM79.9964 18.2383C79.7596 18.3052 79.3895 18.4538 79.1749 18.5726C78.9603 18.6915 78.6494 18.9367 78.4792 19.1224C78.309 19.3082 78.0796 19.6351 77.976 19.8579C77.8649 20.0734 77.7243 20.4746 77.6577 20.7495C77.5911 21.0169 77.5393 21.5073 77.5393 21.8342C77.5393 22.1611 77.5763 22.644 77.6207 22.904C77.6725 23.164 77.8057 23.595 77.9316 23.855C78.0796 24.167 78.3164 24.4865 78.6198 24.7688C78.9159 25.0437 79.2637 25.274 79.5671 25.3929C79.9372 25.5415 80.2332 25.586 80.9955 25.6232C81.5358 25.6455 82.2167 25.6158 82.5793 25.5638C82.9271 25.5117 83.2528 25.4449 83.3046 25.4152C83.3638 25.378 83.4082 24.3453 83.4452 22.1313L83.497 18.907C82.8457 18.5504 82.4831 18.3869 82.2611 18.3126C82.0464 18.2309 81.5432 18.1566 81.1509 18.1417C80.6625 18.1195 80.2998 18.1492 79.9964 18.2383ZM103.317 18.1195C103.013 18.1269 102.613 18.164 102.443 18.2012C102.266 18.2383 101.859 18.3646 101.526 18.4835L100.933 18.6915V25.2814C102.177 25.6083 102.443 25.6306 103.272 25.6083C104.086 25.586 104.353 25.5489 104.745 25.4003C105.004 25.2963 105.367 25.1031 105.537 24.962C105.714 24.8282 105.966 24.5756 106.099 24.4048C106.232 24.2339 106.425 23.8773 106.521 23.6172C106.625 23.3572 106.743 22.8594 106.788 22.5103C106.854 22.0348 106.854 21.7079 106.78 21.2027C106.721 20.7495 106.595 20.3409 106.41 19.9545C106.262 19.6351 106.003 19.2413 105.84 19.0778C105.677 18.9144 105.381 18.6841 105.182 18.5726C104.989 18.4538 104.612 18.3052 104.345 18.2383C104.086 18.164 103.62 18.112 103.317 18.1195ZM137.353 18.2309C137.116 18.2978 136.731 18.4686 136.495 18.6098C136.258 18.751 135.925 19.0258 135.747 19.219C135.577 19.4196 135.347 19.7465 135.244 19.9545C135.14 20.1625 135.051 20.3631 135.051 20.4077C135.051 20.4572 135.958 20.4866 137.636 20.4892L140.735 20.4894C140.654 19.9025 140.58 19.6128 140.521 19.4567C140.454 19.3082 140.262 19.0258 140.091 18.8401C139.884 18.6098 139.633 18.4463 139.344 18.3349C139.1 18.2532 138.656 18.164 138.352 18.1417C137.997 18.1269 137.634 18.1566 137.353 18.2309Z" fill="#1F447E"/>
</g>
</g>
<defs>
<clipPath id="clip0_531_6340">
<rect width="185" height="39" fill="white"/>
</clipPath>
</defs>
</svg>
