<svg width="145" height="32" viewBox="0 0 145 32" fill="none" xmlns="http://www.w3.org/2000/svg">
<g id="Zoom_Communications_Logo 1" clip-path="url(#clip0_531_5856)">
<path id="path833" fill-rule="evenodd" clip-rule="evenodd" d="M118.057 9.59597C118.611 10.5351 118.793 11.6035 118.852 12.8047L118.931 14.4057V25.601L119.011 27.2037C119.172 29.8211 121.138 31.7564 123.824 31.921L125.447 32V14.4057L125.527 12.8047C125.594 11.617 125.774 10.5284 126.337 9.58253C126.91 8.61241 127.733 7.80753 128.724 7.2487C129.714 6.68987 130.837 6.39676 131.979 6.3988C133.121 6.40084 134.243 6.69797 135.231 7.26033C136.22 7.8227 137.04 8.63052 137.61 9.60269C138.164 10.5418 138.337 11.6304 138.404 12.8047L138.484 14.4007V25.601L138.564 27.2037C138.732 29.8345 140.682 31.7698 143.377 31.921L145 32V12.8047C145 9.41045 143.627 6.15514 141.184 3.75457C138.74 1.354 135.426 0.00470082 131.97 0.00336443C130.12 0.00144855 128.291 0.387245 126.605 1.13498C124.919 1.88271 123.415 2.97517 122.193 4.33936C120.971 2.97571 119.467 1.88351 117.781 1.13556C116.095 0.387603 114.267 0.0010592 112.417 0.00168414C109.711 0.00168414 107.199 0.808069 105.119 2.20076C103.85 0.809747 101.01 0.00168414 99.3798 0.00168414V32L101.01 31.921C103.737 31.7446 105.708 29.8614 105.814 27.2037L105.901 25.601V14.4057L105.981 12.8047C106.05 11.5968 106.221 10.5351 106.777 9.58925C107.351 8.61973 108.174 7.81504 109.163 7.25553C110.153 6.69601 111.275 6.40125 112.417 6.40068C113.56 6.40092 114.682 6.69626 115.672 7.25709C116.662 7.81792 117.485 8.62451 118.057 9.59597ZM6.51595 31.9227L8.14622 32H32.5832L32.5028 30.404C32.2821 27.7732 30.385 25.8513 27.6975 25.68L26.0672 25.601H11.4068L30.9529 6.399L30.8725 4.80471C30.7459 2.147 28.7684 0.2268 26.0672 0.080642L24.437 0.00840387L0 0.00168414L0.0804016 1.60269C0.294236 4.20832 2.21874 6.17052 4.88397 6.32172L6.51595 6.40068H21.1764L1.63027 25.6027L1.71067 27.2037C1.87148 29.8412 3.80967 31.7514 6.51595 31.921V31.9227ZM92.9836 4.68543C94.4967 6.17106 95.697 7.93485 96.5159 9.87608C97.3348 11.8173 97.7563 13.8979 97.7563 15.9992C97.7563 18.1004 97.3348 20.181 96.5159 22.1222C95.697 24.0635 94.4967 25.8273 92.9836 27.3129C89.9266 30.3126 85.782 31.9976 81.4605 31.9976C77.139 31.9976 72.9944 30.3126 69.9374 27.3129C63.5754 21.0651 63.5754 10.9332 69.9374 4.68543C71.4491 3.2003 73.2439 2.02214 75.2193 1.21821C77.1947 0.414278 79.312 0.000331643 81.4502 3.85687e-06C83.592 -0.00145642 85.713 0.411761 87.692 1.21602C89.671 2.02028 91.4692 3.1998 92.9836 4.68711V4.68543ZM88.3733 9.2163C90.2058 11.0173 91.2352 13.4591 91.2352 16.005C91.2352 18.551 90.2058 20.9928 88.3733 22.7938C86.5395 24.5934 84.053 25.6043 81.4605 25.6043C78.868 25.6043 76.3815 24.5934 74.5477 22.7938C72.7152 20.9928 71.6858 18.551 71.6858 16.005C71.6858 13.4591 72.7152 11.0173 74.5477 9.2163C76.3815 7.4167 78.868 6.40581 81.4605 6.40581C84.053 6.40581 86.5395 7.4167 88.3733 9.2163ZM47.2573 3.85687e-06C49.3957 0.000552272 51.5131 0.414763 53.4885 1.21898C55.4638 2.0232 57.2586 3.20168 58.7701 4.68711C65.1338 10.9332 65.1338 21.0668 58.7701 27.3129C55.7132 30.3126 51.5685 31.9976 47.2471 31.9976C42.9256 31.9976 38.7809 30.3126 35.724 27.3129C29.362 21.0651 29.362 10.9332 35.724 4.68543C37.2357 3.2003 39.0305 2.02214 41.0059 1.21821C42.9812 0.414278 45.0985 0.000331643 47.2368 3.85687e-06H47.2573ZM54.1599 9.21294C55.9929 11.014 57.0226 13.4561 57.0226 16.0025C57.0226 18.5489 55.9929 20.9911 54.1599 22.7921C52.326 24.5917 49.8396 25.6026 47.2471 25.6026C44.6545 25.6026 42.1681 24.5917 40.3342 22.7921C38.5017 20.9911 37.4724 18.5493 37.4724 16.0034C37.4724 13.4574 38.5017 11.0156 40.3342 9.21462C42.1681 7.41502 44.6545 6.40413 47.2471 6.40413C49.8396 6.40413 52.326 7.41502 54.1599 9.21462V9.21294Z" fill="#2D8CFF"/>
</g>
<defs>
<clipPath id="clip0_531_5856">
<rect width="145" height="32" fill="white"/>
</clipPath>
</defs>
</svg>
