<svg xmlns="http://www.w3.org/2000/svg" width="80" height="80" viewBox="0 0 80 80" fill="none">
  <path d="M30.3506 71.6018H49.9831V79.9085H30.3506V71.6018Z" fill="url(#paint0_linear_48_1207)"/>
  <path d="M38.7698 5.93622H41.564V35.3323H38.7698V5.93622Z" fill="url(#paint1_linear_48_1207)"/>
  <path d="M44.9676 4.8C44.9676 7.45225 42.818 9.6018 40.1661 9.6018C37.5153 9.6018 35.3661 7.45225 35.3661 4.8C35.3661 2.14955 37.5153 0 40.1661 0C42.8184 0 44.9676 2.14955 44.9676 4.8Z" fill="url(#paint2_linear_48_1207)"/>
  <path d="M59.8184 73.6458H20.5153C15.5532 73.6458 11.5316 69.6242 11.5316 64.662V25.3589C11.5316 20.3982 15.5532 16.3766 20.5153 16.3766H59.8184C64.7806 16.3766 68.8022 20.3982 68.8022 25.3589V64.6634C68.8007 69.6242 64.7791 73.6458 59.8184 73.6458Z" fill="url(#paint3_linear_48_1207)"/>
  <path d="M68.1532 68.0122C66.827 71.316 63.595 73.6472 59.8184 73.6472H50.4533L20.3279 43.529L20.3067 43.5077C20.2562 43.4602 20.2083 43.4104 20.1561 43.36C20.0043 43.2094 19.862 43.0573 19.724 42.8941C19.4207 42.5421 19.148 42.1648 18.9088 41.7665C18.8724 41.7088 18.8404 41.6555 18.8061 41.5989C18.7373 41.4753 18.6685 41.3528 18.6051 41.2234C18.5718 41.1631 18.5408 41.1015 18.5121 41.0389C18.4813 40.9768 18.4522 40.9138 18.4249 40.8501C17.9179 39.7425 17.6571 38.5381 17.6606 37.32C17.6606 36.0627 17.9279 34.8721 18.4123 33.7993C18.9672 32.5717 19.8022 31.4913 20.8501 30.6447H30.7546L68.1532 68.0122Z" fill="url(#paint4_linear_48_1207)"/>
  <path d="M68.8036 40.8346V64.1553C59.4818 54.8396 48.1672 43.529 48.1672 43.529C48.1614 43.5232 48.156 43.5164 48.1459 43.5077C48.0955 43.4602 48.0476 43.4122 47.9953 43.36C47.8461 43.2108 47.7013 43.0573 47.5661 42.894C47.4881 42.8025 47.4116 42.7096 47.3366 42.6155C47.1224 42.3454 46.9259 42.0618 46.7481 41.7665C46.7117 41.7103 46.6822 41.6555 46.6483 41.5989C46.5762 41.4753 46.5077 41.3528 46.4443 41.2234C46.4119 41.1629 46.3809 41.1038 46.3514 41.0404C46.3218 40.9769 46.2937 40.9135 46.2641 40.8501C45.7591 39.7418 45.4985 38.5379 45.4998 37.32C45.4998 36.0627 45.7687 34.8731 46.2515 33.7993C46.8072 32.5713 47.6437 31.4912 48.6937 30.6461H58.595L68.8036 40.8346Z" fill="url(#paint5_linear_48_1207)"/>
  <path d="M34.8325 37.2594C34.8325 42.0004 30.9881 45.8447 26.2472 45.8447C21.5049 45.8447 17.6606 42.0004 17.6606 37.2594C17.6606 32.5171 21.5049 28.6724 26.2472 28.6724C30.9881 28.6724 34.8325 32.5167 34.8325 37.2594Z" fill="url(#paint6_linear_48_1207)"/>
  <path d="M34.8325 37.2595C34.8325 37.0411 34.8155 36.827 34.8 36.6133L30.9435 32.7549C29.7582 31.5204 28.0945 30.7477 26.2476 30.7477C22.6512 30.7477 19.7359 33.6631 19.7359 37.258C19.7359 39.1049 20.5085 40.7686 21.7431 41.9535L25.6015 45.8122C25.8155 45.8277 26.0292 45.8447 26.2476 45.8447C30.9885 45.8447 34.8325 42.0004 34.8325 37.2595Z" fill="url(#paint7_linear_48_1207)"/>
  <path d="M32.7575 37.2595C32.7575 40.8544 29.8422 43.7697 26.2472 43.7697C22.6508 43.7697 19.7355 40.8544 19.7355 37.2595C19.7355 33.6631 22.6508 30.7477 26.2472 30.7477C29.8422 30.7477 32.7575 33.6631 32.7575 37.2595Z" fill="url(#paint8_linear_48_1207)"/>
  <path d="M30.9895 35.7023C30.9895 33.4332 28.867 31.595 26.2472 31.595C23.6274 31.595 21.5034 33.4332 21.5034 35.7023C21.5034 37.9715 23.6274 39.8101 26.2472 39.8101C28.867 39.8101 30.9895 37.9715 30.9895 35.7023Z" fill="url(#paint9_linear_48_1207)"/>
  <path d="M62.6732 37.2594C62.6732 42.0004 58.8288 45.8447 54.0865 45.8447C49.3442 45.8447 45.5009 42.0004 45.5009 37.2594C45.5009 32.5171 49.3442 28.6724 54.0865 28.6724C58.8288 28.6724 62.6732 32.5167 62.6732 37.2594Z" fill="url(#paint10_linear_48_1207)"/>
  <path d="M62.6732 37.2595C62.6732 37.0411 62.6562 36.827 62.6393 36.6133L58.7824 32.7549C57.5968 31.5204 55.9333 30.7477 54.0865 30.7477C50.4901 30.7477 47.5759 33.6631 47.5759 37.258C47.5759 39.1049 48.347 40.7686 49.5831 41.9535L53.4404 45.8122C53.6544 45.8277 53.8681 45.8447 54.0865 45.8447C58.8288 45.8447 62.6732 42.0004 62.6732 37.2595Z" fill="url(#paint11_linear_48_1207)"/>
  <path d="M60.5982 37.2595C60.5982 40.8544 57.6829 43.7697 54.0865 43.7697C50.4901 43.7697 47.5759 40.8544 47.5759 37.2595C47.5759 33.6631 50.4897 30.7477 54.0865 30.7477C57.6832 30.7477 60.5982 33.6631 60.5982 37.2595Z" fill="url(#paint12_linear_48_1207)"/>
  <path d="M58.8303 35.7023C58.8303 33.4332 56.706 31.595 54.0865 31.595C51.4671 31.595 49.3442 33.4332 49.3442 35.7023C49.3442 37.9715 51.4667 39.8101 54.0865 39.8101C56.7063 39.8101 58.8303 37.9715 58.8303 35.7023Z" fill="url(#paint13_linear_48_1207)"/>
  <path d="M59.8184 73.6458C64.7806 73.6458 68.8022 69.6241 68.8022 64.662V58.7935L62.248 52.2414C61.8711 51.8186 61.4089 51.4803 60.8919 51.2488C60.3749 51.0173 59.8148 50.8979 59.2483 50.8984H22.439C20.2109 50.8984 18.4047 52.7045 18.4047 54.933V63.8645C18.4047 65.0566 18.9244 66.125 19.7478 66.8627L26.5298 73.6461L59.8184 73.6458Z" fill="url(#paint14_linear_48_1207)"/>
  <path d="M59.2483 67.8984H22.439C20.2109 67.8984 18.4047 66.0922 18.4047 63.8641V54.9322C18.4047 52.7041 20.2109 50.898 22.439 50.898H59.248C61.4764 50.898 63.2822 52.7041 63.2822 54.9326V63.8641C63.2836 66.0922 61.4768 67.8984 59.2483 67.8984Z" fill="url(#paint15_linear_48_1207)"/>
  <path d="M25.3914 52.7056V66.0908H24.7002C22.8562 66.0908 21.3625 64.5975 21.3625 62.756V56.0404C21.3625 54.2004 22.8577 52.7056 24.7002 52.7056H25.3914Z" fill="url(#paint16_linear_48_1207)"/>
  <path d="M25.3914 52.7056H31.2991V66.0908H25.3914V52.7056Z" fill="url(#paint17_linear_48_1207)"/>
  <path d="M31.2991 52.7056H37.2116V66.0908H31.2991V52.7056Z" fill="url(#paint18_linear_48_1207)"/>
  <path d="M37.2115 52.7056H43.1222V66.0908H37.2115V52.7056Z" fill="url(#paint19_linear_48_1207)"/>
  <path d="M43.1222 52.7056H49.0328V66.0908H43.1222V52.7056Z" fill="url(#paint20_linear_48_1207)"/>
  <path d="M49.0328 52.7056H54.9409V66.0908H49.0328V52.7056Z" fill="url(#paint21_linear_48_1207)"/>
  <path d="M60.3236 56.0404V62.756C60.3236 64.5975 58.8317 66.0908 56.9888 66.0908H54.9409V52.7056H56.9888C57.4268 52.7055 57.8605 52.7918 58.2651 52.9593C58.6697 53.1269 59.0373 53.3725 59.347 53.6822C59.6567 53.9919 59.9023 54.3595 60.0699 54.7641C60.2374 55.1688 60.3237 55.6024 60.3236 56.0404Z" fill="url(#paint22_linear_48_1207)"/>
  <defs>
    <linearGradient id="paint0_linear_48_1207" x1="40.1665" y1="67.9769" x2="40.1665" y2="78.5496" gradientUnits="userSpaceOnUse">
      <stop stop-color="#FF706A"/>
      <stop offset="0.811" stop-color="#F64640"/>
      <stop offset="1" stop-color="#F43B36"/>
    </linearGradient>
    <linearGradient id="paint1_linear_48_1207" x1="36.279" y1="6.62811" x2="44.0545" y2="34.6404" gradientUnits="userSpaceOnUse">
      <stop stop-color="#45425A"/>
      <stop offset="1" stop-color="#2D3251"/>
    </linearGradient>
    <linearGradient id="paint2_linear_48_1207" x1="38.8822" y1="0.173694" x2="41.4508" y2="9.42775" gradientUnits="userSpaceOnUse">
      <stop stop-color="#D3E843"/>
      <stop offset="0.624" stop-color="#A9C93C"/>
      <stop offset="1" stop-color="#8DB437"/>
    </linearGradient>
    <linearGradient id="paint3_linear_48_1207" x1="26.8108" y1="31.6551" x2="57.7604" y2="62.6047" gradientUnits="userSpaceOnUse">
      <stop stop-color="#00C6F6"/>
      <stop offset="0.857" stop-color="#0B9CFD"/>
      <stop offset="1" stop-color="#0D94FE"/>
    </linearGradient>
    <linearGradient id="paint4_linear_48_1207" x1="38.8761" y1="50.4076" x2="25.3546" y2="36.8861" gradientUnits="userSpaceOnUse">
      <stop stop-color="#0D94FE" stop-opacity="0"/>
      <stop offset="0.514" stop-color="#0681CD" stop-opacity="0.514"/>
      <stop offset="1" stop-color="#0070A2"/>
    </linearGradient>
    <linearGradient id="paint5_linear_48_1207" x1="64.1178" y1="47.8158" x2="51.3906" y2="35.089" gradientUnits="userSpaceOnUse">
      <stop stop-color="#0D94FE" stop-opacity="0"/>
      <stop offset="0.514" stop-color="#0681CD" stop-opacity="0.514"/>
      <stop offset="1" stop-color="#0070A2"/>
    </linearGradient>
    <linearGradient id="paint6_linear_48_1207" x1="27.8364" y1="38.8483" x2="34.6999" y2="45.7121" gradientUnits="userSpaceOnUse">
      <stop stop-color="#FFD459"/>
      <stop offset="0.23" stop-color="#FFD355"/>
      <stop offset="0.436" stop-color="#FFCF4A"/>
      <stop offset="0.634" stop-color="#FFC838"/>
      <stop offset="0.825" stop-color="#FFBF1F"/>
      <stop offset="1" stop-color="#FFB400"/>
    </linearGradient>
    <linearGradient id="paint7_linear_48_1207" x1="33.7979" y1="44.8101" x2="18.968" y2="29.9802" gradientUnits="userSpaceOnUse">
      <stop stop-color="#E58200" stop-opacity="0"/>
      <stop offset="0.04" stop-color="#E27F04" stop-opacity="0.039"/>
      <stop offset="0.467" stop-color="#C15D2F" stop-opacity="0.467"/>
      <stop offset="0.802" stop-color="#AD4949" stop-opacity="0.8"/>
      <stop offset="1" stop-color="#A64153"/>
    </linearGradient>
    <linearGradient id="paint8_linear_48_1207" x1="23.3244" y1="32.0742" x2="28.4681" y2="41.2004" gradientUnits="userSpaceOnUse">
      <stop stop-color="#FF706A"/>
      <stop offset="0.811" stop-color="#F64640"/>
      <stop offset="1" stop-color="#F43B36"/>
    </linearGradient>
    <linearGradient id="paint9_linear_48_1207" x1="26.2468" y1="38.1124" x2="26.2468" y2="26.8641" gradientUnits="userSpaceOnUse">
      <stop offset="0.001" stop-color="#E7EEED" stop-opacity="0"/>
      <stop offset="0.429" stop-color="#EEF3F2" stop-opacity="0.427"/>
      <stop offset="1" stop-color="white"/>
    </linearGradient>
    <linearGradient id="paint10_linear_48_1207" x1="55.6764" y1="38.8483" x2="62.5398" y2="45.7121" gradientUnits="userSpaceOnUse">
      <stop stop-color="#FFD459"/>
      <stop offset="0.23" stop-color="#FFD355"/>
      <stop offset="0.436" stop-color="#FFCF4A"/>
      <stop offset="0.634" stop-color="#FFC838"/>
      <stop offset="0.825" stop-color="#FFBF1F"/>
      <stop offset="1" stop-color="#FFB400"/>
    </linearGradient>
    <linearGradient id="paint11_linear_48_1207" x1="61.6378" y1="44.8101" x2="46.8079" y2="29.9802" gradientUnits="userSpaceOnUse">
      <stop stop-color="#E58200" stop-opacity="0"/>
      <stop offset="0.04" stop-color="#E27F04" stop-opacity="0.039"/>
      <stop offset="0.467" stop-color="#C15D2F" stop-opacity="0.467"/>
      <stop offset="0.802" stop-color="#AD4949" stop-opacity="0.8"/>
      <stop offset="1" stop-color="#A64153"/>
    </linearGradient>
    <linearGradient id="paint12_linear_48_1207" x1="51.1643" y1="32.0742" x2="56.3085" y2="41.2004" gradientUnits="userSpaceOnUse">
      <stop stop-color="#FF706A"/>
      <stop offset="0.811" stop-color="#F64640"/>
      <stop offset="1" stop-color="#F43B36"/>
    </linearGradient>
    <linearGradient id="paint13_linear_48_1207" x1="54.0869" y1="38.1124" x2="54.0869" y2="26.8641" gradientUnits="userSpaceOnUse">
      <stop offset="0.001" stop-color="#E7EEED" stop-opacity="0"/>
      <stop offset="0.429" stop-color="#EEF3F2" stop-opacity="0.427"/>
      <stop offset="1" stop-color="white"/>
    </linearGradient>
    <linearGradient id="paint14_linear_48_1207" x1="60.9143" y1="79.4681" x2="27.3399" y2="45.8937" gradientUnits="userSpaceOnUse">
      <stop stop-color="#0D94FE" stop-opacity="0"/>
      <stop offset="0.514" stop-color="#0681CD" stop-opacity="0.514"/>
      <stop offset="1" stop-color="#0070A2"/>
    </linearGradient>
    <linearGradient id="paint15_linear_48_1207" x1="36.3954" y1="54.9495" x2="54.3413" y2="72.8951" gradientUnits="userSpaceOnUse">
      <stop stop-color="#ECF7FF"/>
      <stop offset="1" stop-color="#C2E0FF"/>
    </linearGradient>
    <linearGradient id="paint16_linear_48_1207" x1="21.7834" y1="57.4649" x2="25.8245" y2="60.3254" gradientUnits="userSpaceOnUse">
      <stop stop-color="#ECF7FF"/>
      <stop offset="1" stop-color="#C2E0FF"/>
    </linearGradient>
    <linearGradient id="paint17_linear_48_1207" x1="25.0998" y1="57.1005" x2="30.3265" y2="60.8004" gradientUnits="userSpaceOnUse">
      <stop stop-color="#ECF7FF"/>
      <stop offset="1" stop-color="#C2E0FF"/>
    </linearGradient>
    <linearGradient id="paint18_linear_48_1207" x1="31.009" y1="57.1002" x2="36.2364" y2="60.8007" gradientUnits="userSpaceOnUse">
      <stop stop-color="#ECF7FF"/>
      <stop offset="1" stop-color="#C2E0FF"/>
    </linearGradient>
    <linearGradient id="paint19_linear_48_1207" x1="36.92" y1="57.1002" x2="42.1478" y2="60.8007" gradientUnits="userSpaceOnUse">
      <stop stop-color="#ECF7FF"/>
      <stop offset="1" stop-color="#C2E0FF"/>
    </linearGradient>
    <linearGradient id="paint20_linear_48_1207" x1="42.8314" y1="57.1002" x2="48.0591" y2="60.8007" gradientUnits="userSpaceOnUse">
      <stop stop-color="#ECF7FF"/>
      <stop offset="1" stop-color="#C2E0FF"/>
    </linearGradient>
    <linearGradient id="paint21_linear_48_1207" x1="48.7417" y1="57.1005" x2="53.9683" y2="60.8004" gradientUnits="userSpaceOnUse">
      <stop stop-color="#ECF7FF"/>
      <stop offset="1" stop-color="#C2E0FF"/>
    </linearGradient>
    <linearGradient id="paint22_linear_48_1207" x1="53.9218" y1="57.5759" x2="58.4231" y2="60.7622" gradientUnits="userSpaceOnUse">
      <stop stop-color="#ECF7FF"/>
      <stop offset="1" stop-color="#C2E0FF"/>
    </linearGradient>
  </defs>
</svg>