<svg width="28" height="28" viewBox="0 0 28 28" fill="none" xmlns="http://www.w3.org/2000/svg">
<g id="call-calling">
<path id="Vector" d="M20.5573 12.542C20.0557 12.542 19.659 12.1337 19.659 11.6437C19.659 11.212 19.2273 10.3137 18.504 9.53203C17.7923 8.77369 17.0107 8.33036 16.3573 8.33036C15.8557 8.33036 15.459 7.92202 15.459 7.43202C15.459 6.94202 15.8673 6.53369 16.3573 6.53369C17.524 6.53369 18.749 7.16369 19.8223 8.29536C20.8257 9.35703 21.4673 10.6754 21.4673 11.632C21.4673 12.1337 21.059 12.542 20.5573 12.542Z" fill="white"/>
<path id="Vector_2" d="M24.769 12.5413C24.2674 12.5413 23.8707 12.133 23.8707 11.643C23.8707 7.50134 20.499 4.14134 16.369 4.14134C15.8674 4.14134 15.4707 3.73301 15.4707 3.24301C15.4707 2.75301 15.8674 2.33301 16.3574 2.33301C21.4907 2.33301 25.6674 6.50967 25.6674 11.643C25.6674 12.133 25.259 12.5413 24.769 12.5413Z" fill="white"/>
<path id="Vector_3" opacity="0.4" d="M13.7557 16.578L9.94065 20.393C9.52065 20.0197 9.11232 19.6347 8.71565 19.238C7.51399 18.0247 6.42898 16.753 5.46065 15.423C4.50398 14.093 3.73398 12.763 3.17398 11.4447C2.61398 10.1147 2.33398 8.84301 2.33398 7.62967C2.33398 6.83634 2.47398 6.07801 2.75398 5.37801C3.03398 4.66634 3.47732 4.01301 4.09565 3.42967C4.84232 2.69467 5.65899 2.33301 6.52232 2.33301C6.84899 2.33301 7.17565 2.40301 7.46732 2.54301C7.77065 2.68301 8.03899 2.89301 8.24899 3.19634L10.9557 7.01134C11.1657 7.30301 11.3173 7.57134 11.4223 7.82801C11.5273 8.07301 11.5857 8.31801 11.5857 8.53968C11.5857 8.81967 11.504 9.09967 11.3407 9.36801C11.189 9.63634 10.9673 9.91634 10.6873 10.1963L9.80065 11.118C9.67232 11.2463 9.61399 11.398 9.61399 11.5847C9.61399 11.678 9.62565 11.7597 9.64899 11.853C9.68399 11.9463 9.71899 12.0163 9.74232 12.0863C9.95232 12.4713 10.314 12.973 10.8273 13.5797C11.3523 14.1863 11.9123 14.8047 12.519 15.423C12.939 15.8313 13.3473 16.228 13.7557 16.578Z" fill="white"/>
<path id="Vector_4" d="M25.6314 21.3849C25.6314 21.7116 25.573 22.0499 25.4564 22.3766C25.4214 22.4699 25.3864 22.5632 25.3397 22.6566C25.1414 23.0766 24.8847 23.4732 24.5464 23.8466C23.9747 24.4766 23.3447 24.9316 22.633 25.2232C22.6214 25.2232 22.6097 25.2349 22.598 25.2349C21.9097 25.5149 21.163 25.6666 20.358 25.6666C19.168 25.6666 17.8964 25.3866 16.5547 24.8149C15.213 24.2432 13.8714 23.4732 12.5414 22.5049C12.0864 22.1666 11.6314 21.8282 11.1997 21.4665L15.0147 17.6515C15.3414 17.8965 15.633 18.0832 15.878 18.2115C15.9364 18.2349 16.0064 18.2699 16.088 18.3049C16.1814 18.3399 16.2747 18.3515 16.3797 18.3515C16.578 18.3515 16.7297 18.2816 16.858 18.1532L17.7447 17.2782C18.0364 16.9866 18.3164 16.7649 18.5847 16.6249C18.853 16.4615 19.1214 16.3799 19.413 16.3799C19.6347 16.3799 19.868 16.4265 20.1247 16.5315C20.3814 16.6365 20.6497 16.7882 20.9414 16.9866L24.803 19.7282C25.1064 19.9382 25.3164 20.1832 25.4447 20.4749C25.5614 20.7665 25.6314 21.0582 25.6314 21.3849Z" fill="white"/>
</g>
</svg>
