<svg width="28" height="28" viewBox="0 0 28 28" fill="none" xmlns="http://www.w3.org/2000/svg">
<g id="location">
<path id="Vector" opacity="0.4" d="M24.0563 9.85842C22.8313 4.46841 18.1296 2.04175 13.9996 2.04175C13.9996 2.04175 13.9996 2.04175 13.988 2.04175C9.86962 2.04175 5.15629 4.45675 3.93129 9.84675C2.56629 15.8667 6.25296 20.9651 9.58962 24.1734C10.8263 25.3634 12.413 25.9584 13.9996 25.9584C15.5863 25.9584 17.173 25.3634 18.398 24.1734C21.7346 20.9651 25.4213 15.8784 24.0563 9.85842Z" fill="white"/>
<path id="Vector_2" d="M13.9997 15.7034C16.0294 15.7034 17.6747 14.058 17.6747 12.0284C17.6747 9.99875 16.0294 8.35339 13.9997 8.35339C11.9701 8.35339 10.3247 9.99875 10.3247 12.0284C10.3247 14.058 11.9701 15.7034 13.9997 15.7034Z" fill="white"/>
</g>
</svg>
