<svg width="576" height="584" viewBox="0 0 576 584" fill="#79FFBF" xmlns="http://www.w3.org/2000/svg" opacity="0.1">
  <path fill-rule="#79FFBF" clip-rule="evenodd" d="M270.968 0.133804C331.55 -3.94441 344.049 86.3297 394.809 116.87C450.025 150.091 562.862 123.099 574.339 182.658C586.59 246.239 468.555 265.023 434.224 321.423C410.557 360.304 435.723 411.38 411.592 450.022C377.328 504.892 339.691 576.691 270.968 582.856C203.266 588.931 139.573 532.705 108.777 477.19C81.5695 428.146 143.174 368.698 123.358 316.771C102.677 262.577 -11.0858 248.803 0.0644621 192.313C10.5374 139.255 113.13 165.728 159.692 132.697C209.02 97.7039 208.726 4.32381 270.968 0.133804Z" fill="#79FFBF"/>
</svg>
