<svg width="24" height="24" viewBox="0 0 24 24" fill="none" xmlns="http://www.w3.org/2000/svg">
<g id="send">
<path id="Vector" opacity="0.4" d="M9.50978 4.23001L18.0698 8.51001C21.9098 10.43 21.9098 13.57 18.0698 15.49L9.50978 19.77C3.74978 22.65 1.39978 20.29 4.27978 14.54L5.14978 12.81C5.39978 12.3 5.39978 11.71 5.14978 11.2L4.27978 9.46001C1.39978 3.71001 3.75978 1.35001 9.50978 4.23001Z" fill="white"/>
<path id="Vector_2" d="M14.8399 12.75H9.43994C9.02994 12.75 8.68994 12.41 8.68994 12C8.68994 11.59 9.02994 11.25 9.43994 11.25H14.8399C15.2499 11.25 15.5899 11.59 15.5899 12C15.5899 12.41 15.2499 12.75 14.8399 12.75Z" fill="white"/>
</g>
</svg>
