<svg width="28" height="28" viewBox="0 0 28 28" fill="none" xmlns="http://www.w3.org/2000/svg">
<g id="sms">
<path id="Vector" opacity="0.4" d="M19.8335 23.9167H8.16683C4.66683 23.9167 2.3335 22.1667 2.3335 18.0834V9.91671C2.3335 5.83337 4.66683 4.08337 8.16683 4.08337H19.8335C23.3335 4.08337 25.6668 5.83337 25.6668 9.91671V18.0834C25.6668 22.1667 23.3335 23.9167 19.8335 23.9167Z" fill="white"/>
<g id="Group">
<path id="Vector_2" d="M13.9996 15.015C13.0196 15.015 12.0279 14.7116 11.2696 14.0933L7.61791 11.1766C7.24458 10.8733 7.17458 10.325 7.47792 9.95163C7.78125 9.5783 8.32959 9.5083 8.70292 9.81164L12.3546 12.7283C13.2412 13.44 14.7462 13.44 15.6329 12.7283L19.2846 9.81164C19.6579 9.5083 20.2179 9.56663 20.5096 9.95163C20.8129 10.325 20.7546 10.885 20.3696 11.1766L16.7179 14.0933C15.9712 14.7116 14.9796 15.015 13.9996 15.015Z" fill="white"/>
</g>
</g>
</svg>
