<svg width="24" height="24" viewBox="0 0 24 24" fill="none" xmlns="http://www.w3.org/2000/svg">
<g id="add">
<path id="Vector" d="M12 1C9.82441 1 7.69767 1.64514 5.88873 2.85383C4.07979 4.06253 2.66989 5.78049 1.83733 7.79048C1.00477 9.80047 0.786929 12.0122 1.21137 14.146C1.6358 16.2798 2.68345 18.2398 4.22183 19.7782C5.76021 21.3165 7.72022 22.3642 9.85401 22.7886C11.9878 23.2131 14.1995 22.9952 16.2095 22.1627C18.2195 21.3301 19.9375 19.9202 21.1462 18.1113C22.3549 16.3023 23 14.1756 23 12C22.9968 9.08359 21.8369 6.28753 19.7747 4.22531C17.7125 2.16309 14.9164 1.00315 12 1ZM12 21.1667C10.187 21.1667 8.41473 20.629 6.90728 19.6218C5.39983 18.6146 4.22491 17.1829 3.53111 15.5079C2.83731 13.8329 2.65578 11.9898 3.00947 10.2117C3.36317 8.43351 4.23621 6.80017 5.51819 5.51819C6.80017 4.23621 8.43352 3.36317 10.2117 3.00947C11.9898 2.65577 13.8329 2.8373 15.5079 3.5311C17.1829 4.22491 18.6146 5.39982 19.6218 6.90727C20.6291 8.41472 21.1667 10.187 21.1667 12C21.164 14.4303 20.1974 16.7604 18.4789 18.4789C16.7604 20.1974 14.4303 21.164 12 21.1667ZM16.5833 12C16.5833 12.2431 16.4868 12.4763 16.3148 12.6482C16.1429 12.8201 15.9098 12.9167 15.6667 12.9167H12.9167V15.6667C12.9167 15.9098 12.8201 16.1429 12.6482 16.3148C12.4763 16.4868 12.2431 16.5833 12 16.5833C11.7569 16.5833 11.5237 16.4868 11.3518 16.3148C11.1799 16.1429 11.0833 15.9098 11.0833 15.6667V12.9167H8.33334C8.09022 12.9167 7.85706 12.8201 7.68516 12.6482C7.51325 12.4763 7.41667 12.2431 7.41667 12C7.41667 11.7569 7.51325 11.5237 7.68516 11.3518C7.85706 11.1799 8.09022 11.0833 8.33334 11.0833H11.0833V8.33333C11.0833 8.09022 11.1799 7.85706 11.3518 7.68515C11.5237 7.51324 11.7569 7.41667 12 7.41667C12.2431 7.41667 12.4763 7.51324 12.6482 7.68515C12.8201 7.85706 12.9167 8.09022 12.9167 8.33333V11.0833H15.6667C15.9098 11.0833 16.1429 11.1799 16.3148 11.3518C16.4868 11.5237 16.5833 11.7569 16.5833 12Z" fill="#2E0757"/>
</g>
</svg>
