<svg xmlns="http://www.w3.org/2000/svg" width="20" height="20" viewBox="0 0 20 20" fill="none">
  <g clip-path="url(#clip0_941_6293)">
    <path d="M15.3469 2.36103H14.583V1.59714C14.583 1.39454 14.5025 1.20025 14.3593 1.05699C14.216 0.913733 14.0217 0.833252 13.8191 0.833252C13.6165 0.833252 13.4222 0.913733 13.279 1.05699C13.1357 1.20025 13.0552 1.39454 13.0552 1.59714V2.36103H6.94412V1.59714C6.94412 1.39454 6.86364 1.20025 6.72038 1.05699C6.57712 0.913733 6.38283 0.833252 6.18023 0.833252C5.97763 0.833252 5.78334 0.913733 5.64008 1.05699C5.49682 1.20025 5.41634 1.39454 5.41634 1.59714V2.36103H4.65245C3.63984 2.36224 2.66906 2.76504 1.95304 3.48106C1.23701 4.19708 0.834221 5.16787 0.833008 6.18047L0.833008 15.3471C0.834221 16.3597 1.23701 17.3305 1.95304 18.0466C2.66906 18.7626 3.63984 19.1654 4.65245 19.1666H15.3469C16.3595 19.1654 17.3303 18.7626 18.0463 18.0466C18.7623 17.3305 19.1651 16.3597 19.1663 15.3471V6.18047C19.1651 5.16787 18.7623 4.19708 18.0463 3.48106C17.3303 2.76504 16.3595 2.36224 15.3469 2.36103ZM2.36079 6.18047C2.36079 5.57269 2.60223 4.98979 3.032 4.56002C3.46177 4.13025 4.04466 3.88881 4.65245 3.88881H15.3469C15.9547 3.88881 16.5376 4.13025 16.9673 4.56002C17.3971 4.98979 17.6386 5.57269 17.6386 6.18047V6.94436H2.36079V6.18047ZM15.3469 17.6388H4.65245C4.04466 17.6388 3.46177 17.3974 3.032 16.9676C2.60223 16.5378 2.36079 15.9549 2.36079 15.3471V8.47214H17.6386V15.3471C17.6386 15.9549 17.3971 16.5378 16.9673 16.9676C16.5376 17.3974 15.9547 17.6388 15.3469 17.6388Z" fill="#776A86"/>
    <path d="M10 13.3333C10.6904 13.3333 11.25 12.7736 11.25 12.0833C11.25 11.3929 10.6904 10.8333 10 10.8333C9.30964 10.8333 8.75 11.3929 8.75 12.0833C8.75 12.7736 9.30964 13.3333 10 13.3333Z" fill="#776A86"/>
    <path d="M6.25 13.3333C6.94036 13.3333 7.5 12.7736 7.5 12.0833C7.5 11.3929 6.94036 10.8333 6.25 10.8333C5.55964 10.8333 5 11.3929 5 12.0833C5 12.7736 5.55964 13.3333 6.25 13.3333Z" fill="#776A86"/>
    <path d="M13.75 13.3333C14.4404 13.3333 15 12.7736 15 12.0833C15 11.3929 14.4404 10.8333 13.75 10.8333C13.0596 10.8333 12.5 11.3929 12.5 12.0833C12.5 12.7736 13.0596 13.3333 13.75 13.3333Z" fill="#776A86"/>
  </g>
  <defs>
    <clipPath id="clip0_941_6293">
      <rect width="20" height="20" fill="white"/>
    </clipPath>
  </defs>
</svg>