<svg width="18" height="18" viewBox="0 0 18 18" fill="none" xmlns="http://www.w3.org/2000/svg">
<g id="instagram 1">
<g id="Group">
<path id="Vector" d="M9 2.43352C11.136 2.43352 11.3893 2.44152 12.2327 2.48019C13.1047 2.52019 14.0027 2.71885 14.638 3.35419C15.2793 3.99552 15.472 4.88485 15.512 5.75952C15.5507 6.60285 15.5587 6.85619 15.5587 8.99219C15.5587 11.1282 15.5507 11.3815 15.512 12.2249C15.4727 13.0922 15.2693 13.9989 14.638 14.6302C13.9967 15.2715 13.108 15.4642 12.2327 15.5042C11.3893 15.5429 11.136 15.5509 9 15.5509C6.864 15.5509 6.61067 15.5429 5.76733 15.5042C4.90667 15.4649 3.988 15.2569 3.362 14.6302C2.724 13.9922 2.528 13.0942 2.488 12.2249C2.44933 11.3815 2.44133 11.1282 2.44133 8.99219C2.44133 6.85619 2.44933 6.60285 2.488 5.75952C2.52733 4.89552 2.73267 3.98352 3.362 3.35419C4.002 2.71419 4.89467 2.52019 5.76733 2.48019C6.61067 2.44152 6.864 2.43352 9 2.43352ZM9 0.992188C6.82733 0.992188 6.55467 1.00152 5.70133 1.04019C4.46467 1.09685 3.23667 1.44085 2.34267 2.33485C1.44533 3.23219 1.10467 4.45752 1.048 5.69352C1.00933 6.54685 1 6.81952 1 8.99219C1 11.1649 1.00933 11.4375 1.048 12.2909C1.10467 13.5262 1.45 14.7575 2.34267 15.6495C3.23933 16.5462 4.46667 16.8875 5.70133 16.9442C6.55467 16.9829 6.82733 16.9922 9 16.9922C11.1727 16.9922 11.4453 16.9829 12.2987 16.9442C13.5347 16.8875 14.764 16.5429 15.6573 15.6495C16.5553 14.7515 16.8953 13.5269 16.952 12.2909C16.9907 11.4375 17 11.1649 17 8.99219C17 6.81952 16.9907 6.54685 16.952 5.69352C16.8953 4.45685 16.5507 3.22819 15.6573 2.33485C14.762 1.43952 13.5313 1.09619 12.2987 1.04019C11.4453 1.00152 11.1727 0.992188 9 0.992188Z" fill="white"/>
<path id="Vector_2" d="M9.00009 4.88419C6.73142 4.88419 4.89209 6.72352 4.89209 8.99219C4.89209 11.2609 6.73142 13.1002 9.00009 13.1002C11.2688 13.1002 13.1081 11.2609 13.1081 8.99219C13.1081 6.72352 11.2688 4.88419 9.00009 4.88419ZM9.00009 11.6589C7.52742 11.6589 6.33342 10.4649 6.33342 8.99219C6.33342 7.51952 7.52742 6.32552 9.00009 6.32552C10.4728 6.32552 11.6668 7.51952 11.6668 8.99219C11.6668 10.4649 10.4728 11.6589 9.00009 11.6589Z" fill="white"/>
<path id="Vector_3" d="M13.2705 5.68154C13.8007 5.68154 14.2305 5.25173 14.2305 4.72154C14.2305 4.19134 13.8007 3.76154 13.2705 3.76154C12.7404 3.76154 12.3105 4.19134 12.3105 4.72154C12.3105 5.25173 12.7404 5.68154 13.2705 5.68154Z" fill="white"/>
</g>
</g>
</svg>
