<svg width="22" height="22" viewBox="0 0 22 22" fill="none" xmlns="http://www.w3.org/2000/svg">
<path fill-rule="evenodd" clip-rule="evenodd" d="M20.9472 11.4343C21.2865 11.3991 21.5443 11.1132 21.5443 10.7721C21.5443 10.431 21.2865 10.1451 20.9472 10.1099L15.8776 9.58362C13.8097 9.36896 12.1753 7.73451 11.9606 5.66666L11.4344 0.597038C11.3991 0.257775 11.1132 -4.55955e-07 10.7721 -4.70864e-07C10.4311 -4.85773e-07 10.1451 0.257775 10.1099 0.597038L9.58365 5.66665C9.36899 7.73451 7.73454 9.36896 5.66668 9.58362L0.597061 10.1099C0.257795 10.1451 2.24322e-05 10.431 2.24173e-05 10.7721C2.24024e-05 11.1132 0.257797 11.3991 0.597061 11.4343L5.66668 11.9606C7.73453 12.1753 9.36899 13.8097 9.58365 15.8776L10.1099 20.9472C10.1451 21.2865 10.431 21.5442 10.7721 21.5442C11.1132 21.5442 11.3991 21.2865 11.4344 20.9472L11.9606 15.8776C12.1753 13.8097 13.8097 12.1753 15.8776 11.9606L20.9472 11.4343Z" fill="url(#paint0_linear_130_747)"/>
<defs>
<linearGradient id="paint0_linear_130_747" x1="34.2553" y1="-7.97136" x2="-3.44705" y2="29.731" gradientUnits="userSpaceOnUse">
<stop stop-color="#6400CC"/>
<stop offset="0.587856" stop-color="#387CE3"/>
<stop offset="1" stop-color="#3CFFB9"/>
</linearGradient>
</defs>
</svg>
