<svg xmlns="http://www.w3.org/2000/svg" width="28" height="28" viewBox="0 0 28 28" fill="none">
  <path fill-rule="evenodd" clip-rule="evenodd" d="M22.3191 1.98507C22.5193 1.53697 22.3484 1.01004 21.9234 0.764649C21.4984 0.519254 20.9566 0.634769 20.6686 1.0322L16.3655 6.97094C14.6103 9.39332 11.3977 10.2541 8.66642 9.03391L1.97042 6.04237C1.52232 5.84217 0.995395 6.01301 0.75 6.43804C0.504605 6.86308 0.62012 7.40483 1.01755 7.6928L6.9563 11.9959C9.37867 13.7511 10.2395 16.9638 9.01927 19.695L6.02772 26.391C5.82752 26.8391 5.99836 27.366 6.42339 27.6114C6.84843 27.8568 7.39018 27.7413 7.67815 27.3439L11.9813 21.4051C13.7365 18.9828 16.9491 18.1219 19.6804 19.3422L26.3764 22.3337C26.8245 22.5339 27.3514 22.3631 27.5968 21.938C27.8422 21.513 27.7267 20.9713 27.3292 20.6833L21.3905 16.3802C18.9681 14.6249 18.1073 11.4123 19.3275 8.68107L22.3191 1.98507Z" fill="url(#paint0_linear_86_779)"/>
  <defs>
    <linearGradient id="paint0_linear_86_779" x1="7.71169" y1="-28.56" x2="27.5686" y2="45.5469" gradientUnits="userSpaceOnUse">
      <stop stop-color="#41B9C0"/>
      <stop offset="0.284" stop-color="#417BC0"/>
      <stop offset="0.566537" stop-color="#41B9C0"/>
      <stop offset="1" stop-color="#F9E537"/>
    </linearGradient>
  </defs>
</svg>