<svg width="13" height="13" viewBox="0 0 13 13" fill="none" xmlns="http://www.w3.org/2000/svg">
<path id="Union" fill-rule="evenodd" clip-rule="evenodd" d="M6.89959 0.360259C6.87834 0.155544 6.70581 0 6.5 0C6.29419 0 6.12166 0.155544 6.10041 0.360259L5.78285 3.41931C5.65333 4.66708 4.66708 5.65333 3.41932 5.78285L0.360259 6.10041C0.155544 6.12166 0 6.29419 0 6.5C0 6.70581 0.155544 6.87834 0.360259 6.89959L3.41931 7.21715C4.66708 7.34667 5.65333 8.33292 5.78285 9.58068L6.10041 12.6397C6.12166 12.8445 6.29419 13 6.5 13C6.70581 13 6.87834 12.8445 6.89959 12.6397L7.21715 9.58068C7.34667 8.33292 8.33292 7.34667 9.58068 7.21715L12.6397 6.89959C12.8445 6.87834 13 6.70581 13 6.5C13 6.29419 12.8445 6.12166 12.6397 6.10041L9.58068 5.78285C8.33292 5.65333 7.34667 4.66708 7.21715 3.41932L6.89959 0.360259Z" fill="url(#paint0_linear_162_410)"/>
<defs>
<linearGradient id="paint0_linear_162_410" x1="-4.81" y1="-7.67" x2="17.94" y2="15.08" gradientUnits="userSpaceOnUse">
<stop stop-color="#41B9C0"/>
<stop offset="0.284" stop-color="#417BC0"/>
<stop offset="0.566537" stop-color="#41B9C0"/>
<stop offset="1" stop-color="#F9E537"/>
</linearGradient>
</defs>
</svg>
