<svg width="21" height="21" viewBox="0 0 21 21" fill="none" xmlns="http://www.w3.org/2000/svg">
<path fill-rule="evenodd" clip-rule="evenodd" d="M11.1455 0.581957C11.1112 0.251263 10.8325 0 10.5 0C10.1675 0 9.88883 0.251263 9.8545 0.581957L9.34153 5.52351C9.13229 7.53913 7.53913 9.13229 5.52351 9.34153L0.581957 9.8545C0.251263 9.88883 0 10.1675 0 10.5C0 10.8325 0.251263 11.1112 0.581957 11.1455L5.52351 11.6585C7.53913 11.8677 9.13229 13.4609 9.34153 15.4765L9.8545 20.418C9.88883 20.7487 10.1675 21 10.5 21C10.8325 21 11.1112 20.7487 11.1455 20.418L11.6585 15.4765C11.8677 13.4609 13.4609 11.8677 15.4765 11.6585L20.418 11.1455C20.7487 11.1112 21 10.8325 21 10.5C21 10.1675 20.7487 9.88883 20.418 9.8545L15.4765 9.34153C13.4609 9.13229 11.8677 7.53913 11.6585 5.52351L11.1455 0.581957Z" fill="#E3DC38"/>
</svg>
