<svg width="33" height="32" viewBox="0 0 33 32" fill="none" xmlns="http://www.w3.org/2000/svg">
<g clip-path="url(#clip0_915_1872)">
<path d="M22.1565 9.16309H21.7049L20.224 10.248L20.2172 10.9636C21.9095 11.1635 23.2885 12.4007 23.6984 14.0204L24.0712 14.4332H25.0852L25.9972 14.0204C25.646 11.8194 24.158 9.99352 22.1565 9.16309Z" fill="#60B9FE"/>
<path d="M30.6386 21.5803L29.7693 22.8037H13.7811V31.5603H14.2726L14.9354 32H24.5338L25.0369 31.7373H26.5339L26.905 32H29.2883C30.408 32 31.3242 31.0838 31.3242 29.9641V21.1216L30.6386 21.5803Z" fill="#4D66D2"/>
<path d="M13.7815 22.8036H10.0995L8.58633 21.1216H8.14526V29.9641C8.14526 31.0838 9.06145 32 10.1812 32H12.5645L13.1578 31.5603H13.7815V22.8036Z" fill="#2F4DCA"/>
<path d="M20.2171 10.9638C20.7299 10.2368 21.3906 9.62122 22.1564 9.16322C21.3888 8.84446 20.5657 8.68063 19.7346 8.68115C19.0536 8.68072 18.377 8.7904 17.731 9.00597L17.3587 9.09703L16.8048 9.54065L18.0831 11.3508L18.3111 11.1912C18.7665 11.0213 19.2486 10.9344 19.7346 10.9347C19.8979 10.9347 20.0587 10.9451 20.2171 10.9638Z" fill="#1CA8FF"/>
<path d="M24.5338 22.8037H26.9051V32.0001H24.5338V22.8037ZM12.5642 22.8037H14.9355V32.0001H12.5642V22.8037Z" fill="#60B9FE"/>
<path d="M29.2883 14.0205H18.2226L17.1012 14.4333L12.3204 15.964V21.1216L12.5641 21.9746L13.2299 22.8197L13.9194 23.1094L14.2319 23.1575H29.2882C30.408 23.1575 31.3242 22.2413 31.3242 21.1216V16.0564C31.3242 14.9366 30.4081 14.0205 29.2883 14.0205Z" fill="#6B7ED9"/>
<path d="M12.5644 21.1214V16.0563C12.5644 15.998 12.5675 15.9404 12.5723 15.8833L9.76139 16.7833L8.40926 18.5889L8.14526 19.0812V21.1214C8.14526 22.2412 9.06145 23.1574 10.1812 23.1574H14.6004C13.4806 23.1574 12.5644 22.2412 12.5644 21.1214Z" fill="#4D66D2"/>
<path d="M21.4754 21.1401H19.6635C19.5703 21.1696 19.4943 21.194 19.4943 21.194L19.2517 21.4408V24.526C19.2517 24.526 19.4621 24.7675 19.4782 24.7675C19.4943 24.7675 19.8913 24.8265 19.9075 24.8372C19.9236 24.848 20.1167 25.0626 20.1167 25.0626L20.1596 25.3791L20.385 25.5723L20.5973 25.6537C20.828 25.6242 21.0064 25.4276 21.0064 25.1888C21.0064 24.9298 21.2164 24.7197 21.4755 24.7197C21.7346 24.7197 21.9446 24.5097 21.9446 24.2506V21.6092C21.9446 21.4848 21.8951 21.3655 21.8071 21.2775C21.7191 21.1896 21.5998 21.1401 21.4754 21.1401Z" fill="#FFE559"/>
<path d="M20.2876 25.1889C20.2876 24.9298 20.0775 24.7198 19.8185 24.7198C19.5594 24.7198 19.3493 24.5098 19.3493 24.2506V21.6093C19.3494 21.4848 19.3988 21.3655 19.4868 21.2776C19.5747 21.1896 19.694 21.1402 19.8185 21.1401H17.9941C17.8697 21.1401 17.7504 21.1896 17.6624 21.2775C17.5744 21.3655 17.525 21.4848 17.525 21.6093V24.2506C17.525 24.3122 17.5372 24.3732 17.5607 24.4302C17.5843 24.4871 17.6189 24.5388 17.6624 24.5824C17.706 24.6259 17.7577 24.6605 17.8146 24.6841C17.8715 24.7076 17.9325 24.7198 17.9941 24.7198C18.1186 24.7198 18.2379 24.7692 18.3259 24.8572C18.4138 24.9451 18.4633 25.0645 18.4633 25.1889C18.4633 25.3133 18.5127 25.4326 18.6007 25.5206C18.6887 25.6086 18.808 25.658 18.9324 25.658H20.5376C20.5745 25.6579 20.6113 25.6534 20.6471 25.6446C20.441 25.5952 20.2876 25.4102 20.2876 25.1889Z" fill="#FBC700"/>
<path d="M19.7346 23.9193C19.6065 23.9193 19.4837 23.8684 19.3931 23.7779C19.3026 23.6873 19.2517 23.5645 19.2517 23.4364V22.9751C19.2517 22.847 19.3026 22.7242 19.3931 22.6336C19.4837 22.5431 19.6065 22.4922 19.7346 22.4922C19.8626 22.4922 19.9855 22.5431 20.076 22.6336C20.1666 22.7242 20.2175 22.847 20.2175 22.9751V23.4364C20.2175 23.4999 20.205 23.5626 20.1807 23.6212C20.1565 23.6798 20.1209 23.7331 20.076 23.7779C20.0312 23.8227 19.978 23.8583 19.9194 23.8826C19.8608 23.9068 19.798 23.9193 19.7346 23.9193Z" fill="#EAB900"/>
<path d="M10.099 1.96219C10.099 1.32975 9.79945 0.767566 9.33483 0.408691H8.9077L7.87752 1.81338L5.92983 2.81138L4.12702 4.5015C4.12702 4.5015 3.73752 7.04482 3.69883 7.077C3.66021 7.10919 4.30408 8.89594 4.30408 8.89594L4.09483 10.6183L3.49927 12.4533L4.62602 15.1576L6.21958 16.4694L8.08683 16.9282L8.77902 18.4775L9.33502 18.6725C9.79952 18.3136 10.099 17.7515 10.099 17.1191L10.614 16.6199V2.53832L10.099 1.96219Z" fill="#FF4FB9"/>
<path d="M8.39091 17.1034C8.35447 16.8046 8.12278 16.5693 7.82334 16.5388C5.77166 16.3299 4.16822 14.5964 4.16822 12.4867C4.16822 11.8446 4.31678 11.2373 4.58134 10.6971C4.758 10.3372 4.84985 9.94164 4.84985 9.54072C4.84985 9.1398 4.758 8.74422 4.58134 8.38431C4.31672 7.84413 4.16816 7.23681 4.16816 6.59475C4.16816 4.48681 5.76966 2.75156 7.82378 2.54256C8.12297 2.51213 8.35447 2.27681 8.39078 1.97831C8.46947 1.33206 8.82416 0.767689 9.33503 0.408814C8.99213 0.143281 8.5706 -0.000551172 8.13691 1.58729e-06C7.10191 1.58729e-06 6.23509 0.696377 5.96759 1.63769L6.09653 2.02275L5.78934 2.49556L5.48597 2.52013C5.45578 2.52825 5.42453 2.534 5.39228 2.53681C3.30903 2.71731 1.67578 4.466 1.67578 6.59475C1.67578 7.57869 2.02466 8.48113 2.60541 9.18513L2.60766 9.18813L2.80341 9.35475L2.86778 9.67269L2.59816 10.1073L2.40053 10.1669C1.94366 10.8252 1.67578 11.6247 1.67578 12.4868C1.67578 14.6174 3.31116 16.3644 5.39197 16.5447C5.40472 16.5458 5.41722 16.5478 5.42966 16.5497L5.58541 16.55L5.93416 16.6949L6.03072 17.218L5.95828 17.4098C6.21441 18.3686 7.08984 19.0815 8.13684 19.0815C8.57061 19.0821 8.99223 18.9382 9.33516 18.6726C8.82447 18.3139 8.46966 17.7498 8.39091 17.1034Z" fill="#FF29AB"/>
<path d="M6.49638 15.9656C6.58879 15.8779 6.7121 15.8303 6.83945 15.8331C6.96681 15.8359 7.0879 15.8889 7.17634 15.9806C7.26479 16.0722 7.31344 16.1951 7.31169 16.3225C7.30995 16.4499 7.25794 16.5714 7.16701 16.6606C6.73157 17.0808 6.29701 17.2978 5.95838 17.4099C5.92713 17.2937 5.90533 17.1751 5.8932 17.0554C5.86763 16.7994 5.68007 16.5893 5.42976 16.5498C5.62301 16.5149 6.05426 16.3922 6.49638 15.9656ZM5.8932 2.02638C5.90646 1.89487 5.93137 1.7648 5.96763 1.6377C6.38851 1.75482 6.98076 2.02488 7.4962 2.6487C7.57569 2.74765 7.61302 2.87392 7.60013 3.00019C7.58724 3.12646 7.52516 3.24257 7.42731 3.32342C7.32947 3.40427 7.20373 3.44335 7.07729 3.43221C6.95086 3.42107 6.83389 3.3606 6.7517 3.26388C6.25857 2.6672 5.68907 2.54507 5.48595 2.52013C5.70782 2.46032 5.86957 2.26282 5.8932 2.02638ZM2.60545 9.89638C2.68777 9.79686 2.733 9.67185 2.73341 9.54269C2.73382 9.41353 2.68939 9.28824 2.6077 9.1882C2.93032 9.36363 3.66663 9.71538 4.5797 9.83932C4.64254 9.84785 4.70308 9.86867 4.75787 9.90059C4.81266 9.93252 4.86063 9.97492 4.89903 10.0254C4.93743 10.0758 4.96552 10.1334 4.98169 10.1947C4.99786 10.256 5.00179 10.3199 4.99326 10.3828C4.95726 10.6479 4.71282 10.8323 4.44982 10.7963C3.58151 10.6784 2.8527 10.3866 2.40063 10.1669C2.46512 10.074 2.53345 9.98369 2.60545 9.89638Z" fill="#F3239B"/>
<path d="M17.5999 10.1071L17.3302 9.67243L17.3946 9.35449L17.5904 9.18787L17.5926 9.18487C18.1734 8.48081 18.5222 7.57843 18.5222 6.59449C18.5222 4.46574 16.889 2.71705 14.8057 2.53655C14.7741 2.53375 14.7427 2.52817 14.712 2.51987L14.4087 2.4953L14.1015 2.02249L14.2304 1.63743C14.0915 1.14862 13.7907 0.726117 13.3889 0.432617H12.9962L12.3523 1.50199V17.4096L12.744 18.3821L13.0498 18.5887L13.3889 18.6484C13.7999 18.3481 14.1051 17.9129 14.2396 17.4096L14.1672 17.2178L14.2637 16.6947L14.6125 16.5498L14.7682 16.5495C14.7807 16.5476 14.7932 16.5456 14.8059 16.5445C16.8868 16.3641 18.5221 14.6172 18.5221 12.4866C18.5221 11.6245 18.2542 10.825 17.7974 10.1667L17.5999 10.1071Z" fill="#FF94D5"/>
<path d="M12.6559 17.1193V1.96232C12.6559 1.34388 12.9422 0.792628 13.3892 0.43294C13.004 0.150948 12.5388 -0.000724531 12.0614 2.60228e-06C10.9777 2.60228e-06 10.0991 0.878565 10.0991 1.96232V17.1193C10.0991 18.203 10.9777 19.0816 12.0614 19.0816C12.5389 19.0823 13.0041 18.9307 13.3893 18.6487C12.9423 18.289 12.6559 17.7377 12.6559 17.1193Z" fill="#FF72C7"/>
<path d="M13.7023 15.9656C13.6098 15.8779 13.4865 15.8303 13.3592 15.8331C13.2318 15.8359 13.1107 15.8889 13.0223 15.9806C12.9338 16.0722 12.8852 16.1951 12.8869 16.3225C12.8887 16.4499 12.9407 16.5714 13.0316 16.6606C13.4671 17.0808 13.9016 17.2978 14.2403 17.4099C14.271 17.2949 14.2933 17.1766 14.3054 17.0554C14.331 16.7994 14.5186 16.5893 14.7689 16.5498C14.5757 16.5149 14.1444 16.3922 13.7023 15.9656ZM14.3055 2.02638C14.2922 1.89487 14.2673 1.7648 14.2311 1.6377C13.8102 1.75482 13.2179 2.02488 12.7025 2.6487C12.623 2.74765 12.5857 2.87392 12.5986 3.00019C12.6115 3.12646 12.6735 3.24257 12.7714 3.32342C12.8692 3.40427 12.995 3.44335 13.1214 3.43221C13.2478 3.42107 13.3648 3.3606 13.447 3.26388C13.9401 2.6672 14.5096 2.54507 14.7128 2.52013C14.4909 2.46032 14.3291 2.26282 14.3055 2.02638ZM17.5932 9.89638C17.5109 9.79686 17.4656 9.67185 17.4652 9.54269C17.4648 9.41353 17.5092 9.28824 17.5909 9.1882C17.2683 9.36363 16.532 9.71538 15.6189 9.83932C15.5561 9.84785 15.4956 9.86867 15.4408 9.90059C15.386 9.93252 15.338 9.97492 15.2996 10.0254C15.2612 10.0758 15.2331 10.1334 15.2169 10.1947C15.2008 10.256 15.1968 10.3199 15.2054 10.3828C15.2414 10.6479 15.4858 10.8323 15.7488 10.7963C16.6171 10.6784 17.3459 10.3866 17.798 10.1669C17.7335 10.074 17.6652 9.98369 17.5932 9.89638Z" fill="#FF4FB9"/>
</g>
<defs>
<clipPath id="clip0_915_1872">
<rect width="32" height="32" fill="white" transform="translate(0.5)"/>
</clipPath>
</defs>
</svg>
