<svg width="32" height="32" viewBox="0 0 32 32" fill="none" xmlns="http://www.w3.org/2000/svg">
<g clip-path="url(#clip0_915_1709)">
<path d="M2.14062 7.99759L3.4021 10.9704L6.21943 10.3525L11.5151 8.37692L16.0011 4.70656L16.6285 2.35377L16.0011 0.000976562C10.0737 0.000976563 4.91573 3.209 2.14062 7.99759Z" fill="#D1AFF4"/>
<path d="M16.0013 0.000976562V4.70656L19.4521 8.43966L25.7831 10.3525L27.973 10.343L29.8618 7.99759C27.08 3.19732 21.9207 0.000976562 16.0013 0.000976562Z" fill="#B580ED"/>
<path d="M29.8615 7.99756L25.7827 10.3525L24.9416 15.5608L23.9868 23.9856L23.3021 24.6319L26.6489 27.9787C26.8838 27.6404 32 23.644 32 15.9999C32 13.1445 31.2561 10.4038 29.8615 7.99756Z" fill="#8B38E3"/>
<path d="M4.68776 27.3132L5.3532 27.9787L8.69347 24.6384L7.12313 15.3349L6.21934 10.3525L2.14054 7.99756C-1.34517 14.0123 -0.627227 21.9984 4.68776 27.3132Z" fill="#E8D7F9"/>
<path d="M10.727 12.0573C9.90198 13.1571 9.41323 14.5224 9.41323 15.9999L7.07091 16.6273L4.70764 15.9999C4.70764 13.2199 5.71213 10.6751 7.37728 8.70752L9.89427 9.71539L10.727 12.0573Z" fill="#8DE06A"/>
<path d="M16.0008 4.70654L16.6282 6.9966L16.0008 9.41213C14.5232 9.41213 13.158 9.90088 12.0581 10.7259L9.72666 9.59L8.70837 7.37624C10.6759 5.71103 13.2213 4.70654 16.0008 4.70654Z" fill="#FFE47C"/>
<path d="M16.0013 4.70654V9.41213C17.8176 9.41213 19.4646 10.1509 20.6575 11.3439L22.6989 10.2748L23.9869 8.01432C21.9432 5.97059 19.1198 4.70654 16.0013 4.70654Z" fill="#FFBA37"/>
<path d="M23.9863 8.01416L20.6569 11.3437C21.8497 12.5365 22.5885 14.1835 22.5885 15.9998L24.6432 16.8311L27.2941 15.9998C27.2941 12.8812 26.03 10.0579 23.9863 8.01416Z" fill="#FF4E65"/>
<path d="M11.2955 28.2344V31.9988H20.7067V28.2344H11.2955Z" fill="#2E0757"/>
<path d="M14.3904 14.8601L13.4531 14.7835L7.37695 8.70734C7.78321 8.22755 8.22853 7.78224 8.70832 7.37598L14.7845 13.4521L14.3904 14.8601Z" fill="#7E02FF"/>
<path d="M13.1777 16.0001C13.1777 17.557 14.4443 18.8235 16.0011 18.8235L16.6285 16.0001L16.0011 13.1768C14.4442 13.1768 13.1777 14.4433 13.1777 16.0001Z" fill="#FFE47C"/>
<path d="M16.0013 13.1768V18.8235C17.5582 18.8235 18.8247 17.557 18.8247 16.0001C18.8246 14.4433 17.5581 13.1768 16.0013 13.1768Z" fill="#FFBA37"/>
<path d="M22.5888 16C22.5888 17.76 21.9036 19.4142 20.6593 20.6579L19.9935 21.3234L23.3021 24.632L23.9868 23.9857C26.0301 21.9416 27.2944 19.1182 27.2944 16H22.5888Z" fill="#CD0C0C"/>
<path d="M8.01529 23.9858L8.69352 24.6385L12.0085 21.3235L11.3428 20.6579C10.0985 19.4142 9.41323 17.76 9.41323 16H4.70764C4.70764 19.1183 5.97188 21.9417 8.01529 23.9858Z" fill="#5BC980"/>
</g>
<defs>
<clipPath id="clip0_915_1709">
<rect width="32" height="32" fill="white"/>
</clipPath>
</defs>
</svg>
