<svg width="17" height="17" viewBox="0 0 17 17" fill="none" xmlns="http://www.w3.org/2000/svg">
<path fill-rule="evenodd" clip-rule="evenodd" d="M9.02254 0.471108C8.99475 0.203404 8.76914 0 8.5 0C8.23086 0 8.00525 0.203404 7.97746 0.471108L7.56219 4.47141C7.39281 6.10311 6.10311 7.39281 4.47141 7.56219L0.471108 7.97746C0.203404 8.00525 0 8.23086 0 8.5C0 8.76914 0.203404 8.99475 0.471108 9.02254L4.47141 9.43781C6.10311 9.60719 7.39281 10.8969 7.56219 12.5286L7.97746 16.5289C8.00525 16.7966 8.23086 17 8.5 17C8.76914 17 8.99475 16.7966 9.02254 16.5289L9.43781 12.5286C9.60719 10.8969 10.8969 9.60719 12.5286 9.43781L16.5289 9.02254C16.7966 8.99475 17 8.76914 17 8.5C17 8.23086 16.7966 8.00525 16.5289 7.97746L12.5286 7.56219C10.8969 7.39281 9.60719 6.10311 9.43781 4.47141L9.02254 0.471108Z" fill="#5D5FEF"/>
</svg>
