<svg width="25" height="25" viewBox="0 0 25 25" fill="none" xmlns="http://www.w3.org/2000/svg">
<path fill-rule="evenodd" clip-rule="evenodd" d="M13.2684 0.692806C13.2276 0.299123 12.8958 0 12.5 0C12.1042 0 11.7724 0.299123 11.7316 0.692806L11.1209 6.57561C10.8718 8.97516 8.97516 10.8718 6.57561 11.1209L0.692806 11.7316C0.299123 11.7724 0 12.1042 0 12.5C0 12.8958 0.299123 13.2276 0.692806 13.2684L6.57561 13.8791C8.97516 14.1282 10.8718 16.0248 11.1209 18.4244L11.7316 24.3072C11.7724 24.7009 12.1042 25 12.5 25C12.8958 25 13.2276 24.7009 13.2684 24.3072L13.8791 18.4244C14.1282 16.0248 16.0248 14.1282 18.4244 13.8791L24.3072 13.2684C24.7009 13.2276 25 12.8958 25 12.5C25 12.1042 24.7009 11.7724 24.3072 11.7316L18.4244 11.1209C16.0248 10.8718 14.1282 8.97516 13.8791 6.57561L13.2684 0.692806Z" fill="url(#paint0_linear_380_5863)"/>
<defs>
<linearGradient id="paint0_linear_380_5863" x1="-9.25" y1="-14.75" x2="34.5" y2="29" gradientUnits="userSpaceOnUse">
<stop stop-color="#6400CC"/>
<stop offset="0.587856" stop-color="#387CE3"/>
<stop offset="1" stop-color="#3CFFB9"/>
</linearGradient>
</defs>
</svg>
